<svg width="66" height="90" viewBox="0 0 66 90" fill="none" xmlns="http://www.w3.org/2000/svg">
<g clip-path="url(#clip0_1981_3265)">
<path d="M33.8727 86.2867C38.8174 82.1482 63.132 60.5572 63.132 36.1604C63.132 18.6749 49.6421 4.5 33.0015 4.5C16.3609 4.5 2.87109 18.6749 2.87109 36.1604C2.87109 60.5572 27.1856 82.1482 32.1303 86.2867C32.6451 86.7175 33.358 86.7175 33.8727 86.2867Z" fill="#EFFBED"/>
<g clip-path="url(#clip1_1981_3265)">
<path d="M17.172 26.1875C16.4735 26.1875 16.0078 26.6532 16.0078 27.3517V44.8144V49.4711C16.0078 50.1696 16.4735 50.6353 17.172 50.6353C17.8705 50.6353 18.3362 50.1696 18.3362 49.4711V45.9786H48.6048V49.4711C48.6048 50.1696 49.0705 50.6353 49.769 50.6353C50.4675 50.6353 50.9332 50.1696 50.9332 49.4711V44.8144C50.9332 44.1159 50.4675 43.6502 49.769 43.6502H18.3362V27.3517C18.3362 26.6532 17.8705 26.1875 17.172 26.1875ZM24.1571 27.3517C22.2944 27.3517 20.6645 28.9815 20.6645 30.8442C20.6645 32.7069 22.2944 34.3368 24.1571 34.3368C26.0198 34.3368 27.6496 32.7069 27.6496 30.8442C27.6496 28.9815 26.0198 27.3517 24.1571 27.3517ZM32.3063 29.68C28.8138 29.68 28.8138 33.1726 28.8138 33.1726V36.6651H21.8287C21.1302 36.6651 20.6645 37.1308 20.6645 37.8293V40.1577C20.6645 40.8562 21.1302 41.3218 21.8287 41.3218H29.978H50.9332V35.5009C50.9332 29.68 45.1123 29.68 45.1123 29.68H32.3063Z" fill="#AFAFAF"/>
</g>
<path d="M33.9335 86.2352C39.0147 81.9719 63.1312 60.4577 63.1312 36.1604C63.1312 18.6749 49.6414 4.5 33.0008 4.5C16.3602 4.5 2.87036 18.6749 2.87036 36.1604C2.87036 60.4577 26.9868 81.9719 32.0681 86.2352C32.6202 86.6984 33.3814 86.6984 33.9335 86.2352Z" fill="#C7EAFD"/>
<g clip-path="url(#clip2_1981_3265)">
<path d="M23.7501 21.875L21.2501 35.625C20.8841 37.6375 25.7038 38.5775 25.6251 40.625L25.0001 56.875C24.9041 59.3732 27.5001 59.375 27.5001 59.375C27.5001 59.375 30.0961 59.3732 30.0001 56.875L29.3751 40.625C29.2966 38.581 33.7086 37.673 33.7501 35.625L31.2501 21.875H30.0001L30.6251 31.875L28.7501 33.125L28.1251 21.875H26.8751L26.2501 33.125L24.3751 31.875L25.0001 21.875H23.7501ZM45.0001 21.875C43.1591 21.875 40.0896 23.5122 38.8623 25.9667C37.8396 27.8077 37.5001 31.9205 37.5001 34.375V40.625C37.5001 42.6705 40.2273 43.125 41.2501 43.125L40.0001 56.875C39.7738 59.3647 42.5001 59.375 42.5001 59.375C42.5001 59.375 45.0001 59.375 45.0001 56.875V21.875Z" fill="#414141"/>
</g>
</g>
<defs>
<clipPath id="clip0_1981_3265">
<rect width="66" height="90" fill="white"/>
</clipPath>
<clipPath id="clip1_1981_3265">
<rect width="34.9254" height="34.9254" fill="white" transform="translate(16.0078 20.3672)"/>
</clipPath>
<clipPath id="clip2_1981_3265">
<rect width="37.5" height="37.5" fill="white" transform="translate(15 21.875)"/>
</clipPath>
</defs>
</svg>
