<svg width="66" height="90" viewBox="0 0 66 90" fill="none" xmlns="http://www.w3.org/2000/svg">
<path d="M33.9335 86.2352C39.0147 81.9719 63.1312 60.4577 63.1312 36.1604C63.1312 18.6749 49.6414 4.5 33.0008 4.5C16.3602 4.5 2.87036 18.6749 2.87036 36.1604C2.87036 60.4577 26.9868 81.9719 32.0681 86.2352C32.6202 86.6984 33.3814 86.6984 33.9335 86.2352Z" fill="#DCF3FF"/>
<g clip-path="url(#clip0_1981_3222)">
<path d="M23.7501 21.875L21.2501 35.625C20.8841 37.6375 25.7038 38.5775 25.6251 40.625L25.0001 56.875C24.9041 59.3732 27.5001 59.375 27.5001 59.375C27.5001 59.375 30.0961 59.3732 30.0001 56.875L29.3751 40.625C29.2966 38.581 33.7086 37.673 33.7501 35.625L31.2501 21.875H30.0001L30.6251 31.875L28.7501 33.125L28.1251 21.875H26.8751L26.2501 33.125L24.3751 31.875L25.0001 21.875H23.7501ZM45.0001 21.875C43.1591 21.875 40.0896 23.5122 38.8623 25.9667C37.8396 27.8077 37.5001 31.9205 37.5001 34.375V40.625C37.5001 42.6705 40.2273 43.125 41.2501 43.125L40.0001 56.875C39.7738 59.3647 42.5001 59.375 42.5001 59.375C42.5001 59.375 45.0001 59.375 45.0001 56.875V21.875Z" fill="#AFAFAF"/>
</g>
<defs>
<clipPath id="clip0_1981_3222">
<rect width="37.5" height="37.5" fill="white" transform="translate(15 21.875)"/>
</clipPath>
</defs>
</svg>
