<svg width="66" height="90" viewBox="0 0 66 90" fill="none" xmlns="http://www.w3.org/2000/svg">
<path d="M33.8727 86.2867C38.8174 82.1482 63.132 60.5572 63.132 36.1604C63.132 18.6749 49.6421 4.5 33.0015 4.5C16.3609 4.5 2.87109 18.6749 2.87109 36.1604C2.87109 60.5572 27.1856 82.1482 32.1303 86.2867C32.6451 86.7175 33.358 86.7175 33.8727 86.2867Z" fill="#DFFFDC"/>
<g clip-path="url(#clip0_1981_3258)">
<path d="M17.172 26.1875C16.4735 26.1875 16.0078 26.6532 16.0078 27.3517V44.8144V49.4711C16.0078 50.1696 16.4735 50.6353 17.172 50.6353C17.8705 50.6353 18.3362 50.1696 18.3362 49.4711V45.9786H48.6048V49.4711C48.6048 50.1696 49.0705 50.6353 49.769 50.6353C50.4675 50.6353 50.9332 50.1696 50.9332 49.4711V44.8144C50.9332 44.1159 50.4675 43.6502 49.769 43.6502H18.3362V27.3517C18.3362 26.6532 17.8705 26.1875 17.172 26.1875ZM24.1571 27.3517C22.2944 27.3517 20.6645 28.9815 20.6645 30.8442C20.6645 32.7069 22.2944 34.3368 24.1571 34.3368C26.0198 34.3368 27.6496 32.7069 27.6496 30.8442C27.6496 28.9815 26.0198 27.3517 24.1571 27.3517ZM32.3063 29.68C28.8138 29.68 28.8138 33.1726 28.8138 33.1726V36.6651H21.8287C21.1302 36.6651 20.6645 37.1308 20.6645 37.8293V40.1577C20.6645 40.8562 21.1302 41.3218 21.8287 41.3218H29.978H50.9332V35.5009C50.9332 29.68 45.1123 29.68 45.1123 29.68H32.3063Z" fill="#414141"/>
</g>
<defs>
<clipPath id="clip0_1981_3258">
<rect width="34.9254" height="34.9254" fill="white" transform="translate(16.0078 20.3672)"/>
</clipPath>
</defs>
</svg>
