<svg width="743" height="696" viewBox="0 0 743 696" fill="none" xmlns="http://www.w3.org/2000/svg">
<g filter="url(#filter0_ddi_1981_3286)">
<rect x="3" y="3" width="735" height="688" rx="40" fill="white"/>
</g>
<path d="M60.64 283L68.128 259.96H72.944L80.432 283H76.96L70.064 261.976H70.928L64.112 283H60.64ZM64.528 277.8V274.664H76.56V277.8H64.528ZM82.0225 286.84V280.312C82.9718 280.312 83.6492 279.997 84.0545 279.368C84.4705 278.728 84.8012 277.645 85.0465 276.12C85.1958 275.192 85.3185 274.205 85.4145 273.16C85.5212 272.115 85.6118 270.984 85.6865 269.768C85.7612 268.541 85.8358 267.192 85.9105 265.72H98.2945V280.312H99.9905V286.84H96.8225V283H85.2065V286.84H82.0225ZM86.8065 280.312H94.9345V268.408H88.8865C88.8438 269.112 88.7958 269.837 88.7425 270.584C88.6998 271.331 88.6465 272.072 88.5825 272.808C88.5292 273.544 88.4652 274.248 88.3905 274.92C88.3158 275.592 88.2305 276.2 88.1345 276.744C88.0065 277.587 87.8518 278.291 87.6705 278.856C87.4998 279.421 87.2118 279.907 86.8065 280.312ZM103.162 283V265.72H106.522V271.72H108.794C109.284 271.72 109.812 271.731 110.378 271.752C110.943 271.773 111.423 271.827 111.818 271.912C112.746 272.104 113.551 272.424 114.234 272.872C114.916 273.32 115.439 273.917 115.802 274.664C116.175 275.4 116.362 276.307 116.362 277.384C116.362 278.888 115.972 280.088 115.194 280.984C114.415 281.869 113.359 282.467 112.026 282.776C111.599 282.872 111.092 282.936 110.506 282.968C109.93 282.989 109.396 283 108.906 283H103.162ZM106.522 280.312H109.098C109.375 280.312 109.684 280.301 110.026 280.28C110.367 280.259 110.682 280.211 110.97 280.136C111.471 279.987 111.924 279.683 112.33 279.224C112.735 278.765 112.938 278.152 112.938 277.384C112.938 276.595 112.735 275.965 112.33 275.496C111.935 275.027 111.434 274.723 110.826 274.584C110.548 274.509 110.255 274.461 109.946 274.44C109.647 274.419 109.364 274.408 109.098 274.408H106.522V280.312ZM118.266 283V265.72H121.61V283H118.266ZM126.084 283V265.72H138.244V268.872H129.428V283H126.084ZM147.311 283.48C145.455 283.48 143.876 283.032 142.575 282.136C141.273 281.229 140.335 279.933 139.759 278.248L143.151 277.448C143.503 278.376 144.015 279.091 144.687 279.592C145.359 280.083 146.228 280.328 147.295 280.328C148.681 280.328 149.764 279.907 150.543 279.064C151.321 278.221 151.801 277.096 151.983 275.688H145.567V273H151.983C151.812 271.656 151.348 270.552 150.591 269.688C149.833 268.824 148.761 268.392 147.375 268.392C146.372 268.392 145.492 268.659 144.735 269.192C143.977 269.715 143.428 270.472 143.087 271.464L139.759 270.504C140.185 268.872 141.071 267.587 142.415 266.648C143.759 265.709 145.385 265.24 147.295 265.24C149.023 265.24 150.511 265.629 151.759 266.408C153.007 267.187 153.967 268.264 154.639 269.64C155.311 271.016 155.647 272.595 155.647 274.376C155.647 276.147 155.316 277.72 154.655 279.096C153.993 280.461 153.039 281.533 151.791 282.312C150.543 283.091 149.049 283.48 147.311 283.48ZM163.664 283L170.128 274.264L163.808 265.72H167.776L172.08 271.656L176.336 265.72H180.304L173.984 274.264L180.464 283H176.48L172.08 276.872L167.648 283H163.664ZM187.276 283.48C185.996 283.48 184.924 283.245 184.06 282.776C183.196 282.296 182.54 281.667 182.092 280.888C181.655 280.099 181.436 279.235 181.436 278.296C181.436 277.421 181.591 276.653 181.9 275.992C182.21 275.331 182.668 274.771 183.276 274.312C183.884 273.843 184.631 273.464 185.516 273.176C186.284 272.952 187.154 272.755 188.124 272.584C189.095 272.413 190.114 272.253 191.18 272.104C192.258 271.955 193.324 271.805 194.38 271.656L193.164 272.328C193.186 270.973 192.898 269.971 192.3 269.32C191.714 268.659 190.7 268.328 189.26 268.328C188.354 268.328 187.522 268.541 186.764 268.968C186.007 269.384 185.479 270.077 185.18 271.048L182.06 270.088C182.487 268.605 183.298 267.427 184.492 266.552C185.698 265.677 187.298 265.24 189.292 265.24C190.839 265.24 192.183 265.507 193.324 266.04C194.476 266.563 195.319 267.395 195.852 268.536C196.13 269.101 196.3 269.699 196.364 270.328C196.428 270.957 196.46 271.635 196.46 272.36V283H193.5V279.048L194.076 279.56C193.362 280.883 192.45 281.869 191.34 282.52C190.242 283.16 188.887 283.48 187.276 283.48ZM187.868 280.744C188.818 280.744 189.634 280.579 190.316 280.248C190.999 279.907 191.548 279.475 191.964 278.952C192.38 278.429 192.652 277.885 192.78 277.32C192.962 276.808 193.063 276.232 193.084 275.592C193.116 274.952 193.132 274.44 193.132 274.056L194.22 274.456C193.164 274.616 192.204 274.76 191.34 274.888C190.476 275.016 189.692 275.144 188.988 275.272C188.295 275.389 187.676 275.533 187.132 275.704C186.674 275.864 186.263 276.056 185.9 276.28C185.548 276.504 185.266 276.776 185.052 277.096C184.85 277.416 184.748 277.805 184.748 278.264C184.748 278.712 184.86 279.128 185.084 279.512C185.308 279.885 185.65 280.184 186.108 280.408C186.567 280.632 187.154 280.744 187.868 280.744ZM200.599 283L200.615 265.72H204.007V274.04L210.791 265.72H215.047L207.879 274.36L215.783 283H211.239L204.007 274.68V283H200.599ZM217.716 283V259.96H221.06V283H217.716ZM232.217 283.48C230.361 283.48 228.782 283.032 227.481 282.136C226.18 281.229 225.241 279.933 224.665 278.248L228.057 277.448C228.409 278.376 228.921 279.091 229.593 279.592C230.265 280.083 231.134 280.328 232.201 280.328C233.588 280.328 234.67 279.907 235.449 279.064C236.228 278.221 236.708 277.096 236.889 275.688H230.473V273H236.889C236.718 271.656 236.254 270.552 235.497 269.688C234.74 268.824 233.668 268.392 232.281 268.392C231.278 268.392 230.398 268.659 229.641 269.192C228.884 269.715 228.334 270.472 227.993 271.464L224.665 270.504C225.092 268.872 225.977 267.587 227.321 266.648C228.665 265.709 230.292 265.24 232.201 265.24C233.929 265.24 235.417 265.629 236.665 266.408C237.913 267.187 238.873 268.264 239.545 269.64C240.217 271.016 240.553 272.595 240.553 274.376C240.553 276.147 240.222 277.72 239.561 279.096C238.9 280.461 237.945 281.533 236.697 282.312C235.449 283.091 233.956 283.48 232.217 283.48ZM250.474 283V265.72H265.05V283H261.706V268.872H253.818V283H250.474ZM269.505 283V265.72H272.865V271.72H275.137C275.628 271.72 276.156 271.731 276.721 271.752C277.287 271.773 277.767 271.827 278.161 271.912C279.089 272.104 279.895 272.424 280.577 272.872C281.26 273.32 281.783 273.917 282.145 274.664C282.519 275.4 282.705 276.307 282.705 277.384C282.705 278.888 282.316 280.088 281.537 280.984C280.759 281.869 279.703 282.467 278.369 282.776C277.943 282.872 277.436 282.936 276.849 282.968C276.273 282.989 275.74 283 275.249 283H269.505ZM272.865 280.312H275.441C275.719 280.312 276.028 280.301 276.369 280.28C276.711 280.259 277.025 280.211 277.313 280.136C277.815 279.987 278.268 279.683 278.673 279.224C279.079 278.765 279.281 278.152 279.281 277.384C279.281 276.595 279.079 275.965 278.673 275.496C278.279 275.027 277.777 274.723 277.169 274.584C276.892 274.509 276.599 274.461 276.289 274.44C275.991 274.419 275.708 274.408 275.441 274.408H272.865V280.312ZM284.609 283V265.72H287.953V283H284.609ZM296.892 283V268.728H290.988V265.72H306.14V268.728H300.236V283H296.892ZM313.558 283.48C312.278 283.48 311.206 283.245 310.342 282.776C309.478 282.296 308.822 281.667 308.374 280.888C307.936 280.099 307.718 279.235 307.718 278.296C307.718 277.421 307.872 276.653 308.182 275.992C308.491 275.331 308.95 274.771 309.558 274.312C310.166 273.843 310.912 273.464 311.798 273.176C312.566 272.952 313.435 272.755 314.406 272.584C315.376 272.413 316.395 272.253 317.462 272.104C318.539 271.955 319.606 271.805 320.662 271.656L319.446 272.328C319.467 270.973 319.179 269.971 318.582 269.32C317.995 268.659 316.982 268.328 315.542 268.328C314.635 268.328 313.803 268.541 313.046 268.968C312.288 269.384 311.76 270.077 311.462 271.048L308.342 270.088C308.768 268.605 309.579 267.427 310.774 266.552C311.979 265.677 313.579 265.24 315.574 265.24C317.12 265.24 318.464 265.507 319.606 266.04C320.758 266.563 321.6 267.395 322.134 268.536C322.411 269.101 322.582 269.699 322.646 270.328C322.71 270.957 322.742 271.635 322.742 272.36V283H319.782V279.048L320.358 279.56C319.643 280.883 318.731 281.869 317.622 282.52C316.523 283.16 315.168 283.48 313.558 283.48ZM314.15 280.744C315.099 280.744 315.915 280.579 316.598 280.248C317.28 279.907 317.83 279.475 318.246 278.952C318.662 278.429 318.934 277.885 319.062 277.32C319.243 276.808 319.344 276.232 319.366 275.592C319.398 274.952 319.414 274.44 319.414 274.056L320.502 274.456C319.446 274.616 318.486 274.76 317.622 274.888C316.758 275.016 315.974 275.144 315.27 275.272C314.576 275.389 313.958 275.533 313.414 275.704C312.955 275.864 312.544 276.056 312.182 276.28C311.83 276.504 311.547 276.776 311.334 277.096C311.131 277.416 311.03 277.805 311.03 278.264C311.03 278.712 311.142 279.128 311.366 279.512C311.59 279.885 311.931 280.184 312.39 280.408C312.848 280.632 313.435 280.744 314.15 280.744ZM326.88 283V265.72H341.456V283H338.112V268.872H330.224V283H326.88ZM346.248 283V259.96H349.592V283H346.248ZM360.748 283.48C358.892 283.48 357.314 283.032 356.012 282.136C354.711 281.229 353.772 279.933 353.196 278.248L356.588 277.448C356.94 278.376 357.452 279.091 358.124 279.592C358.796 280.083 359.666 280.328 360.732 280.328C362.119 280.328 363.202 279.907 363.98 279.064C364.759 278.221 365.239 277.096 365.42 275.688H359.004V273H365.42C365.25 271.656 364.786 270.552 364.028 269.688C363.271 268.824 362.199 268.392 360.812 268.392C359.81 268.392 358.93 268.659 358.172 269.192C357.415 269.715 356.866 270.472 356.524 271.464L353.196 270.504C353.623 268.872 354.508 267.587 355.852 266.648C357.196 265.709 358.823 265.24 360.732 265.24C362.46 265.24 363.948 265.629 365.196 266.408C366.444 267.187 367.404 268.264 368.076 269.64C368.748 271.016 369.084 272.595 369.084 274.376C369.084 276.147 368.754 277.72 368.092 279.096C367.431 280.461 366.476 281.533 365.228 282.312C363.98 283.091 362.487 283.48 360.748 283.48ZM393.581 265.72V283H390.365V270.984L381.725 283H379.005V265.72H382.221V277.496L390.877 265.72H393.581ZM405.445 283.48C403.674 283.48 402.17 283.085 400.933 282.296C399.695 281.507 398.746 280.424 398.085 279.048C397.434 277.672 397.103 276.109 397.093 274.36C397.103 272.579 397.445 271.005 398.117 269.64C398.789 268.264 399.749 267.187 400.997 266.408C402.245 265.629 403.743 265.24 405.493 265.24C407.381 265.24 408.991 265.709 410.325 266.648C411.669 267.587 412.554 268.872 412.981 270.504L409.653 271.464C409.322 270.493 408.778 269.741 408.021 269.208C407.274 268.664 406.415 268.392 405.445 268.392C404.346 268.392 403.445 268.653 402.741 269.176C402.037 269.688 401.514 270.392 401.173 271.288C400.831 272.184 400.655 273.208 400.645 274.36C400.655 276.141 401.061 277.581 401.861 278.68C402.671 279.779 403.866 280.328 405.445 280.328C406.522 280.328 407.391 280.083 408.053 279.592C408.725 279.091 409.237 278.376 409.589 277.448L412.981 278.248C412.415 279.933 411.482 281.229 410.181 282.136C408.879 283.032 407.301 283.48 405.445 283.48ZM422.326 273.928V271.912H443.446V273.928H422.326ZM60.64 334L68.576 310.96H71.696L79.632 334H77.184L69.648 312.272H70.576L63.088 334H60.64ZM64.176 328.416V326.208H76.08V328.416H64.176ZM81.2413 337.84V331.984C82.2226 331.984 82.9266 331.669 83.3533 331.04C83.7799 330.4 84.1266 329.381 84.3932 327.984C84.5746 327.077 84.7239 326.101 84.8413 325.056C84.9586 324.011 85.0599 322.816 85.1453 321.472C85.2306 320.117 85.3106 318.533 85.3853 316.72H96.8092V331.984H98.4733V337.84H96.2013V334H83.4973V337.84H81.2413ZM85.2253 331.984H94.4733V318.736H87.5613C87.5293 319.547 87.4813 320.405 87.4173 321.312C87.3639 322.219 87.2946 323.125 87.2093 324.032C87.1346 324.939 87.0439 325.792 86.9373 326.592C86.8413 327.381 86.7239 328.075 86.5853 328.672C86.4253 329.44 86.2493 330.096 86.0573 330.64C85.8759 331.184 85.5986 331.632 85.2253 331.984ZM101.694 334L101.662 316.72H104.03V323.232H107.038C107.539 323.232 108.03 323.243 108.51 323.264C108.99 323.285 109.422 323.328 109.806 323.392C110.659 323.563 111.416 323.851 112.078 324.256C112.739 324.661 113.262 325.221 113.646 325.936C114.03 326.64 114.222 327.531 114.222 328.608C114.222 330.091 113.838 331.259 113.07 332.112C112.302 332.965 111.336 333.52 110.174 333.776C109.736 333.872 109.262 333.936 108.75 333.968C108.238 333.989 107.736 334 107.246 334H101.694ZM104.03 331.984H107.15C107.502 331.984 107.902 331.973 108.35 331.952C108.798 331.931 109.192 331.872 109.534 331.776C110.11 331.616 110.627 331.296 111.086 330.816C111.555 330.325 111.79 329.589 111.79 328.608C111.79 327.637 111.566 326.907 111.118 326.416C110.67 325.915 110.072 325.584 109.326 325.424C108.984 325.349 108.622 325.301 108.238 325.28C107.864 325.259 107.502 325.248 107.15 325.248H104.03V331.984ZM116.286 334V316.72H118.638V334H116.286ZM123.115 334V316.72H134.955V318.976H125.467V334H123.115ZM144.845 334.48C143.107 334.48 141.635 334.091 140.43 333.312C139.224 332.533 138.307 331.461 137.678 330.096C137.059 328.72 136.739 327.141 136.718 325.36C136.739 323.547 137.07 321.957 137.71 320.592C138.35 319.216 139.272 318.149 140.478 317.392C141.683 316.624 143.144 316.24 144.862 316.24C146.611 316.24 148.131 316.667 149.422 317.52C150.723 318.373 151.614 319.541 152.094 321.024L149.79 321.76C149.384 320.725 148.739 319.925 147.854 319.36C146.979 318.784 145.976 318.496 144.845 318.496C143.576 318.496 142.526 318.789 141.694 319.376C140.862 319.952 140.243 320.757 139.838 321.792C139.432 322.827 139.224 324.016 139.214 325.36C139.235 327.429 139.715 329.093 140.654 330.352C141.592 331.6 142.99 332.224 144.845 332.224C146.019 332.224 147.016 331.957 147.838 331.424C148.67 330.88 149.299 330.091 149.726 329.056L152.094 329.76C151.454 331.296 150.515 332.469 149.278 333.28C148.04 334.08 146.563 334.48 144.845 334.48ZM155.38 334L155.396 316.72H157.764V325.04L165.476 316.72H168.612L160.516 325.36L169.668 334H166.244L157.764 325.68V334H155.38ZM184.999 316.72V334H182.711V320.544L173.239 334H171.255V316.72H173.543V330.064L183.031 316.72H184.999ZM196.658 314.672C195.901 314.672 195.207 314.485 194.578 314.112C193.949 313.739 193.447 313.243 193.074 312.624C192.711 311.995 192.53 311.301 192.53 310.544H194.482C194.482 311.141 194.695 311.653 195.122 312.08C195.549 312.507 196.061 312.72 196.658 312.72C197.266 312.72 197.778 312.507 198.194 312.08C198.621 311.653 198.834 311.141 198.834 310.544H200.786C200.786 311.301 200.599 311.995 200.226 312.624C199.863 313.243 199.367 313.739 198.738 314.112C198.109 314.485 197.415 314.672 196.658 314.672ZM203.218 316.72V334H200.93V320.544L191.458 334H189.474V316.72H191.762V330.064L201.25 316.72H203.218ZM214.115 334V316.72H225.955V318.976H216.467V334H214.115ZM235.894 334.48C234.176 334.48 232.71 334.091 231.494 333.312C230.278 332.533 229.344 331.456 228.694 330.08C228.043 328.704 227.718 327.125 227.718 325.344C227.718 323.531 228.048 321.941 228.71 320.576C229.371 319.211 230.31 318.149 231.526 317.392C232.752 316.624 234.208 316.24 235.894 316.24C237.622 316.24 239.094 316.629 240.31 317.408C241.536 318.176 242.47 319.248 243.11 320.624C243.76 321.989 244.086 323.563 244.086 325.344C244.086 327.157 243.76 328.752 243.11 330.128C242.459 331.493 241.52 332.56 240.294 333.328C239.067 334.096 237.6 334.48 235.894 334.48ZM235.894 332.224C237.814 332.224 239.243 331.589 240.182 330.32C241.12 329.04 241.59 327.381 241.59 325.344C241.59 323.253 241.115 321.589 240.166 320.352C239.227 319.115 237.803 318.496 235.894 318.496C234.603 318.496 233.536 318.789 232.694 319.376C231.862 319.952 231.238 320.757 230.822 321.792C230.416 322.816 230.214 324 230.214 325.344C230.214 327.424 230.694 329.093 231.654 330.352C232.614 331.6 234.027 332.224 235.894 332.224ZM254.783 334.48C253.044 334.48 251.572 334.091 250.367 333.312C249.162 332.533 248.244 331.461 247.615 330.096C246.996 328.72 246.676 327.141 246.655 325.36C246.676 323.547 247.007 321.957 247.647 320.592C248.287 319.216 249.21 318.149 250.415 317.392C251.62 316.624 253.082 316.24 254.799 316.24C256.548 316.24 258.068 316.667 259.359 317.52C260.66 318.373 261.551 319.541 262.031 321.024L259.727 321.76C259.322 320.725 258.676 319.925 257.791 319.36C256.916 318.784 255.914 318.496 254.783 318.496C253.514 318.496 252.463 318.789 251.631 319.376C250.799 319.952 250.18 320.757 249.775 321.792C249.37 322.827 249.162 324.016 249.151 325.36C249.172 327.429 249.652 329.093 250.591 330.352C251.53 331.6 252.927 332.224 254.783 332.224C255.956 332.224 256.954 331.957 257.775 331.424C258.607 330.88 259.236 330.091 259.663 329.056L262.031 329.76C261.391 331.296 260.452 332.469 259.215 333.28C257.978 334.08 256.5 334.48 254.783 334.48ZM269.616 334V318.896H263.488V316.72H278.096V318.896H271.968V334H269.616ZM281.162 334L281.13 316.72H283.498V323.232H287.546C288.048 323.232 288.538 323.243 289.018 323.264C289.509 323.285 289.941 323.328 290.314 323.392C291.168 323.552 291.925 323.835 292.586 324.24C293.258 324.645 293.781 325.205 294.154 325.92C294.538 326.635 294.73 327.531 294.73 328.608C294.73 330.091 294.346 331.259 293.578 332.112C292.821 332.965 291.861 333.52 290.698 333.776C290.261 333.872 289.786 333.936 289.274 333.968C288.762 333.989 288.256 334 287.754 334H281.162ZM283.498 331.984H287.658C288.021 331.984 288.426 331.973 288.874 331.952C289.322 331.931 289.717 331.872 290.058 331.776C290.624 331.616 291.136 331.296 291.594 330.816C292.064 330.325 292.298 329.589 292.298 328.608C292.298 327.637 292.074 326.907 291.626 326.416C291.178 325.915 290.581 325.584 289.834 325.424C289.504 325.349 289.146 325.301 288.762 325.28C288.378 325.259 288.01 325.248 287.658 325.248H283.498V331.984ZM311.814 334.48C310.076 334.48 308.604 334.091 307.398 333.312C306.193 332.533 305.276 331.461 304.646 330.096C304.028 328.72 303.708 327.141 303.686 325.36C303.708 323.547 304.038 321.957 304.678 320.592C305.318 319.216 306.241 318.149 307.446 317.392C308.652 316.624 310.113 316.24 311.83 316.24C313.58 316.24 315.1 316.667 316.39 317.52C317.692 318.373 318.582 319.541 319.062 321.024L316.758 321.76C316.353 320.725 315.708 319.925 314.822 319.36C313.948 318.784 312.945 318.496 311.814 318.496C310.545 318.496 309.494 318.789 308.662 319.376C307.83 319.952 307.212 320.757 306.806 321.792C306.401 322.827 306.193 324.016 306.182 325.36C306.204 327.429 306.684 329.093 307.622 330.352C308.561 331.6 309.958 332.224 311.814 332.224C312.988 332.224 313.985 331.957 314.806 331.424C315.638 330.88 316.268 330.091 316.694 329.056L319.062 329.76C318.422 331.296 317.484 332.469 316.246 333.28C315.009 334.08 313.532 334.48 311.814 334.48ZM320.296 334V331.936C320.936 332.053 321.422 332.027 321.752 331.856C322.094 331.675 322.344 331.376 322.504 330.96C322.664 330.533 322.798 330.005 322.904 329.376C323.075 328.331 323.23 327.179 323.368 325.92C323.507 324.661 323.63 323.275 323.736 321.76C323.854 320.235 323.971 318.555 324.088 316.72H335.832V334H333.496V318.976H326.264C326.19 320.107 326.104 321.232 326.008 322.352C325.912 323.472 325.811 324.549 325.704 325.584C325.608 326.608 325.502 327.552 325.384 328.416C325.267 329.28 325.144 330.027 325.016 330.656C324.824 331.605 324.568 332.363 324.248 332.928C323.939 333.493 323.475 333.867 322.856 334.048C322.238 334.229 321.384 334.213 320.296 334ZM347.519 334.48C345.801 334.48 344.335 334.091 343.119 333.312C341.903 332.533 340.969 331.456 340.319 330.08C339.668 328.704 339.343 327.125 339.343 325.344C339.343 323.531 339.673 321.941 340.335 320.576C340.996 319.211 341.935 318.149 343.151 317.392C344.377 316.624 345.833 316.24 347.519 316.24C349.247 316.24 350.719 316.629 351.935 317.408C353.161 318.176 354.095 319.248 354.735 320.624C355.385 321.989 355.711 323.563 355.711 325.344C355.711 327.157 355.385 328.752 354.735 330.128C354.084 331.493 353.145 332.56 351.919 333.328C350.692 334.096 349.225 334.48 347.519 334.48ZM347.519 332.224C349.439 332.224 350.868 331.589 351.807 330.32C352.745 329.04 353.215 327.381 353.215 325.344C353.215 323.253 352.74 321.589 351.791 320.352C350.852 319.115 349.428 318.496 347.519 318.496C346.228 318.496 345.161 318.789 344.319 319.376C343.487 319.952 342.863 320.757 342.447 321.792C342.041 322.816 341.839 324 341.839 325.344C341.839 327.424 342.319 329.093 343.279 330.352C344.239 331.6 345.652 332.224 347.519 332.224ZM359.224 334V316.72H366.344C366.707 316.72 367.144 316.741 367.656 316.784C368.179 316.827 368.664 316.907 369.112 317.024C370.083 317.28 370.861 317.803 371.448 318.592C372.045 319.381 372.344 320.331 372.344 321.44C372.344 322.059 372.248 322.613 372.056 323.104C371.875 323.584 371.613 324 371.272 324.352C371.112 324.533 370.936 324.693 370.744 324.832C370.552 324.96 370.365 325.067 370.184 325.152C370.525 325.216 370.893 325.365 371.288 325.6C371.907 325.963 372.376 326.453 372.696 327.072C373.016 327.68 373.176 328.421 373.176 329.296C373.176 330.48 372.893 331.445 372.328 332.192C371.763 332.939 371.005 333.451 370.056 333.728C369.629 333.845 369.165 333.92 368.664 333.952C368.173 333.984 367.709 334 367.272 334H359.224ZM361.592 332H367.16C367.384 332 367.667 331.984 368.008 331.952C368.349 331.909 368.653 331.856 368.92 331.792C369.549 331.632 370.008 331.312 370.296 330.832C370.595 330.341 370.744 329.808 370.744 329.232C370.744 328.475 370.52 327.856 370.072 327.376C369.635 326.885 369.048 326.587 368.312 326.48C368.067 326.427 367.811 326.395 367.544 326.384C367.277 326.373 367.037 326.368 366.824 326.368H361.592V332ZM361.592 324.352H366.424C366.701 324.352 367.011 324.336 367.352 324.304C367.704 324.261 368.008 324.192 368.264 324.096C368.819 323.904 369.224 323.573 369.48 323.104C369.747 322.635 369.88 322.123 369.88 321.568C369.88 320.96 369.736 320.427 369.448 319.968C369.171 319.509 368.749 319.189 368.184 319.008C367.8 318.869 367.384 318.789 366.936 318.768C366.499 318.747 366.221 318.736 366.104 318.736H361.592V324.352ZM376.349 334V316.72H378.701V324.224H388.445V316.72H390.797V334H388.445V326.48H378.701V334H376.349ZM402.487 334.48C400.77 334.48 399.303 334.091 398.087 333.312C396.871 332.533 395.938 331.456 395.287 330.08C394.637 328.704 394.311 327.125 394.311 325.344C394.311 323.531 394.642 321.941 395.303 320.576C395.965 319.211 396.903 318.149 398.119 317.392C399.346 316.624 400.802 316.24 402.487 316.24C404.215 316.24 405.687 316.629 406.903 317.408C408.13 318.176 409.063 319.248 409.703 320.624C410.354 321.989 410.679 323.563 410.679 325.344C410.679 327.157 410.354 328.752 409.703 330.128C409.053 331.493 408.114 332.56 406.887 333.328C405.661 334.096 404.194 334.48 402.487 334.48ZM402.487 332.224C404.407 332.224 405.837 331.589 406.775 330.32C407.714 329.04 408.183 327.381 408.183 325.344C408.183 323.253 407.709 321.589 406.759 320.352C405.821 319.115 404.397 318.496 402.487 318.496C401.197 318.496 400.13 318.789 399.287 319.376C398.455 319.952 397.831 320.757 397.415 321.792C397.01 322.816 396.807 324 396.807 325.344C396.807 327.424 397.287 329.093 398.247 330.352C399.207 331.6 400.621 332.224 402.487 332.224ZM420.599 334V316.72H427.719C428.082 316.72 428.519 316.741 429.031 316.784C429.554 316.827 430.039 316.907 430.487 317.024C431.458 317.28 432.236 317.803 432.823 318.592C433.42 319.381 433.719 320.331 433.719 321.44C433.719 322.059 433.623 322.613 433.431 323.104C433.25 323.584 432.988 324 432.647 324.352C432.487 324.533 432.311 324.693 432.119 324.832C431.927 324.96 431.74 325.067 431.559 325.152C431.9 325.216 432.268 325.365 432.663 325.6C433.282 325.963 433.751 326.453 434.071 327.072C434.391 327.68 434.551 328.421 434.551 329.296C434.551 330.48 434.268 331.445 433.703 332.192C433.138 332.939 432.38 333.451 431.431 333.728C431.004 333.845 430.54 333.92 430.039 333.952C429.548 333.984 429.084 334 428.647 334H420.599ZM422.967 332H428.535C428.759 332 429.042 331.984 429.383 331.952C429.724 331.909 430.028 331.856 430.295 331.792C430.924 331.632 431.383 331.312 431.671 330.832C431.97 330.341 432.119 329.808 432.119 329.232C432.119 328.475 431.895 327.856 431.447 327.376C431.01 326.885 430.423 326.587 429.687 326.48C429.442 326.427 429.186 326.395 428.919 326.384C428.652 326.373 428.412 326.368 428.199 326.368H422.967V332ZM422.967 324.352H427.799C428.076 324.352 428.386 324.336 428.727 324.304C429.079 324.261 429.383 324.192 429.639 324.096C430.194 323.904 430.599 323.573 430.855 323.104C431.122 322.635 431.255 322.123 431.255 321.568C431.255 320.96 431.111 320.427 430.823 319.968C430.546 319.509 430.124 319.189 429.559 319.008C429.175 318.869 428.759 318.789 428.311 318.768C427.874 318.747 427.596 318.736 427.479 318.736H422.967V324.352ZM444.13 334L444.146 316.72H446.514V325.04L454.226 316.72H457.362L449.266 325.36L458.418 334H454.994L446.514 325.68V334H444.13ZM467.781 334.48C466.192 334.48 464.848 334.08 463.749 333.28C462.651 332.469 461.819 331.376 461.253 330C460.688 328.613 460.405 327.061 460.405 325.344C460.405 323.595 460.688 322.037 461.253 320.672C461.829 319.296 462.672 318.213 463.781 317.424C464.891 316.635 466.256 316.24 467.877 316.24C469.456 316.24 470.811 316.64 471.941 317.44C473.072 318.24 473.936 319.328 474.533 320.704C475.141 322.08 475.445 323.627 475.445 325.344C475.445 327.072 475.141 328.624 474.533 330C473.925 331.376 473.051 332.469 471.909 333.28C470.768 334.08 469.392 334.48 467.781 334.48ZM460.005 341.68V316.72H462.117V329.728H462.373V341.68H460.005ZM467.541 332.288C468.747 332.288 469.749 331.984 470.549 331.376C471.349 330.768 471.947 329.941 472.341 328.896C472.747 327.84 472.949 326.656 472.949 325.344C472.949 324.043 472.752 322.869 472.357 321.824C471.963 320.779 471.36 319.952 470.549 319.344C469.749 318.736 468.731 318.432 467.493 318.432C466.288 318.432 465.285 318.725 464.485 319.312C463.696 319.899 463.104 320.715 462.709 321.76C462.315 322.795 462.117 323.989 462.117 325.344C462.117 326.677 462.315 327.872 462.709 328.928C463.104 329.973 463.701 330.795 464.501 331.392C465.301 331.989 466.315 332.288 467.541 332.288ZM486.271 334.48C484.585 334.48 483.124 334.107 481.887 333.36C480.66 332.613 479.705 331.563 479.023 330.208C478.34 328.853 477.999 327.264 477.999 325.44C477.999 323.552 478.335 321.92 479.007 320.544C479.679 319.168 480.623 318.107 481.839 317.36C483.065 316.613 484.511 316.24 486.175 316.24C487.881 316.24 489.337 316.635 490.543 317.424C491.748 318.203 492.66 319.323 493.279 320.784C493.897 322.245 494.18 323.989 494.127 326.016H491.727V325.184C491.684 322.944 491.199 321.253 490.271 320.112C489.353 318.971 488.009 318.4 486.239 318.4C484.383 318.4 482.959 319.003 481.967 320.208C480.985 321.413 480.495 323.131 480.495 325.36C480.495 327.536 480.985 329.227 481.967 330.432C482.959 331.627 484.361 332.224 486.175 332.224C487.412 332.224 488.489 331.941 489.407 331.376C490.335 330.8 491.065 329.973 491.599 328.896L493.791 329.744C493.108 331.248 492.1 332.416 490.767 333.248C489.444 334.069 487.945 334.48 486.271 334.48ZM479.663 326.016V324.048H492.863V326.016H479.663ZM497.662 334V316.72H511.406V334H509.054V318.976H500.014V334H497.662ZM523.112 334.48C521.395 334.48 519.928 334.091 518.712 333.312C517.496 332.533 516.563 331.456 515.912 330.08C515.262 328.704 514.936 327.125 514.936 325.344C514.936 323.531 515.267 321.941 515.928 320.576C516.59 319.211 517.528 318.149 518.744 317.392C519.971 316.624 521.427 316.24 523.112 316.24C524.84 316.24 526.312 316.629 527.528 317.408C528.755 318.176 529.688 319.248 530.328 320.624C530.979 321.989 531.304 323.563 531.304 325.344C531.304 327.157 530.979 328.752 530.328 330.128C529.678 331.493 528.739 332.56 527.512 333.328C526.286 334.096 524.819 334.48 523.112 334.48ZM523.112 332.224C525.032 332.224 526.462 331.589 527.4 330.32C528.339 329.04 528.808 327.381 528.808 325.344C528.808 323.253 528.334 321.589 527.384 320.352C526.446 319.115 525.022 318.496 523.112 318.496C521.822 318.496 520.755 318.789 519.912 319.376C519.08 319.952 518.456 320.757 518.04 321.792C517.635 322.816 517.432 324 517.432 325.344C517.432 327.424 517.912 329.093 518.872 330.352C519.832 331.6 521.246 332.224 523.112 332.224ZM542.002 334.48C540.263 334.48 538.791 334.091 537.586 333.312C536.38 332.533 535.463 331.461 534.834 330.096C534.215 328.72 533.895 327.141 533.874 325.36C533.895 323.547 534.226 321.957 534.866 320.592C535.506 319.216 536.428 318.149 537.634 317.392C538.839 316.624 540.3 316.24 542.018 316.24C543.767 316.24 545.287 316.667 546.578 317.52C547.879 318.373 548.77 319.541 549.25 321.024L546.946 321.76C546.54 320.725 545.895 319.925 545.01 319.36C544.135 318.784 543.132 318.496 542.002 318.496C540.732 318.496 539.682 318.789 538.85 319.376C538.018 319.952 537.399 320.757 536.994 321.792C536.588 322.827 536.38 324.016 536.37 325.36C536.391 327.429 536.871 329.093 537.81 330.352C538.748 331.6 540.146 332.224 542.002 332.224C543.175 332.224 544.172 331.957 544.994 331.424C545.826 330.88 546.455 330.091 546.882 329.056L549.25 329.76C548.61 331.296 547.671 332.469 546.434 333.28C545.196 334.08 543.719 334.48 542.002 334.48ZM556.834 334V318.896H550.706V316.72H565.314V318.896H559.186V334H556.834ZM582.093 316.72V334H579.805V320.544L570.333 334H568.349V316.72H570.637V330.064L580.125 316.72H582.093ZM600.158 334.48C598.419 334.48 596.947 334.091 595.742 333.312C594.537 332.533 593.619 331.461 592.99 330.096C592.371 328.72 592.051 327.141 592.03 325.36C592.051 323.547 592.382 321.957 593.022 320.592C593.662 319.216 594.585 318.149 595.79 317.392C596.995 316.624 598.457 316.24 600.174 316.24C601.923 316.24 603.443 316.667 604.734 317.52C606.035 318.373 606.926 319.541 607.406 321.024L605.102 321.76C604.697 320.725 604.051 319.925 603.166 319.36C602.291 318.784 601.289 318.496 600.158 318.496C598.889 318.496 597.838 318.789 597.006 319.376C596.174 319.952 595.555 320.757 595.15 321.792C594.745 322.827 594.537 324.016 594.526 325.36C594.547 327.429 595.027 329.093 595.966 330.352C596.905 331.6 598.302 332.224 600.158 332.224C601.331 332.224 602.329 331.957 603.15 331.424C603.982 330.88 604.611 330.091 605.038 329.056L607.406 329.76C606.766 331.296 605.827 332.469 604.59 333.28C603.353 334.08 601.875 334.48 600.158 334.48ZM624.437 316.72V334H622.149V320.544L612.677 334H610.693V316.72H612.981V330.064L622.469 316.72H624.437ZM627.648 337.84V331.984C628.629 331.984 629.333 331.669 629.76 331.04C630.186 330.4 630.533 329.381 630.799 327.984C630.981 327.077 631.13 326.101 631.248 325.056C631.365 324.011 631.466 322.816 631.552 321.472C631.637 320.117 631.717 318.533 631.792 316.72H643.215V331.984H644.88V337.84H642.608V334H629.904V337.84H627.648ZM631.632 331.984H640.88V318.736H633.968C633.936 319.547 633.888 320.405 633.824 321.312C633.77 322.219 633.701 323.125 633.616 324.032C633.541 324.939 633.45 325.792 633.344 326.592C633.248 327.381 633.13 328.075 632.992 328.672C632.832 329.44 632.656 330.096 632.464 330.64C632.282 331.184 632.005 331.632 631.632 331.984ZM661.812 316.72V334H659.524V320.544L650.052 334H648.068V316.72H650.356V330.064L659.844 316.72H661.812ZM670.991 334V318.896H664.863V316.72H679.471V318.896H673.343V334H670.991ZM60.64 436L68.576 412.96H71.696L79.632 436H77.184L69.648 414.272H70.576L63.088 436H60.64ZM64.176 430.416V428.208H76.08V430.416H64.176ZM81.2413 439.84V433.984C82.2226 433.984 82.9266 433.669 83.3533 433.04C83.7799 432.4 84.1266 431.381 84.3932 429.984C84.5746 429.077 84.7239 428.101 84.8413 427.056C84.9586 426.011 85.0599 424.816 85.1453 423.472C85.2306 422.117 85.3106 420.533 85.3853 418.72H96.8092V433.984H98.4733V439.84H96.2013V436H83.4973V439.84H81.2413ZM85.2253 433.984H94.4733V420.736H87.5613C87.5293 421.547 87.4813 422.405 87.4173 423.312C87.3639 424.219 87.2946 425.125 87.2093 426.032C87.1346 426.939 87.0439 427.792 86.9373 428.592C86.8413 429.381 86.7239 430.075 86.5853 430.672C86.4253 431.44 86.2493 432.096 86.0573 432.64C85.8759 433.184 85.5986 433.632 85.2253 433.984ZM101.694 436L101.662 418.72H104.03V425.232H107.038C107.539 425.232 108.03 425.243 108.51 425.264C108.99 425.285 109.422 425.328 109.806 425.392C110.659 425.563 111.416 425.851 112.078 426.256C112.739 426.661 113.262 427.221 113.646 427.936C114.03 428.64 114.222 429.531 114.222 430.608C114.222 432.091 113.838 433.259 113.07 434.112C112.302 434.965 111.336 435.52 110.174 435.776C109.736 435.872 109.262 435.936 108.75 435.968C108.238 435.989 107.736 436 107.246 436H101.694ZM104.03 433.984H107.15C107.502 433.984 107.902 433.973 108.35 433.952C108.798 433.931 109.192 433.872 109.534 433.776C110.11 433.616 110.627 433.296 111.086 432.816C111.555 432.325 111.79 431.589 111.79 430.608C111.79 429.637 111.566 428.907 111.118 428.416C110.67 427.915 110.072 427.584 109.326 427.424C108.984 427.349 108.622 427.301 108.238 427.28C107.864 427.259 107.502 427.248 107.15 427.248H104.03V433.984ZM116.286 436V418.72H118.638V436H116.286ZM123.115 436V418.72H134.955V420.976H125.467V436H123.115ZM144.845 436.48C143.107 436.48 141.635 436.091 140.43 435.312C139.224 434.533 138.307 433.461 137.678 432.096C137.059 430.72 136.739 429.141 136.718 427.36C136.739 425.547 137.07 423.957 137.71 422.592C138.35 421.216 139.272 420.149 140.478 419.392C141.683 418.624 143.144 418.24 144.862 418.24C146.611 418.24 148.131 418.667 149.422 419.52C150.723 420.373 151.614 421.541 152.094 423.024L149.79 423.76C149.384 422.725 148.739 421.925 147.854 421.36C146.979 420.784 145.976 420.496 144.845 420.496C143.576 420.496 142.526 420.789 141.694 421.376C140.862 421.952 140.243 422.757 139.838 423.792C139.432 424.827 139.224 426.016 139.214 427.36C139.235 429.429 139.715 431.093 140.654 432.352C141.592 433.6 142.99 434.224 144.845 434.224C146.019 434.224 147.016 433.957 147.838 433.424C148.67 432.88 149.299 432.091 149.726 431.056L152.094 431.76C151.454 433.296 150.515 434.469 149.278 435.28C148.04 436.08 146.563 436.48 144.845 436.48ZM155.38 436L155.396 418.72H157.764V427.04L165.476 418.72H168.612L160.516 427.36L169.668 436H166.244L157.764 427.68V436H155.38ZM176.215 436.48C174.914 436.48 173.821 436.245 172.935 435.776C172.061 435.307 171.405 434.683 170.967 433.904C170.53 433.125 170.311 432.277 170.311 431.36C170.311 430.421 170.498 429.621 170.871 428.96C171.255 428.288 171.773 427.739 172.423 427.312C173.085 426.885 173.847 426.56 174.711 426.336C175.586 426.123 176.551 425.936 177.607 425.776C178.674 425.605 179.714 425.461 180.727 425.344C181.751 425.216 182.647 425.093 183.415 424.976L182.583 425.488C182.615 423.781 182.285 422.517 181.591 421.696C180.898 420.875 179.693 420.464 177.975 420.464C176.791 420.464 175.789 420.731 174.967 421.264C174.157 421.797 173.586 422.64 173.255 423.792L170.967 423.12C171.362 421.573 172.157 420.373 173.351 419.52C174.546 418.667 176.098 418.24 178.007 418.24C179.586 418.24 180.925 418.539 182.023 419.136C183.133 419.723 183.917 420.576 184.375 421.696C184.589 422.197 184.727 422.757 184.791 423.376C184.855 423.995 184.887 424.624 184.887 425.264V436H182.791V431.664L183.399 431.92C182.813 433.403 181.901 434.533 180.663 435.312C179.426 436.091 177.943 436.48 176.215 436.48ZM176.487 434.448C177.586 434.448 178.546 434.251 179.367 433.856C180.189 433.461 180.85 432.923 181.351 432.24C181.853 431.547 182.178 430.768 182.327 429.904C182.455 429.349 182.525 428.741 182.535 428.08C182.546 427.408 182.551 426.907 182.551 426.576L183.447 427.04C182.647 427.147 181.778 427.253 180.839 427.36C179.911 427.467 178.994 427.589 178.087 427.728C177.191 427.867 176.381 428.032 175.655 428.224C175.165 428.363 174.69 428.56 174.231 428.816C173.773 429.061 173.394 429.392 173.095 429.808C172.807 430.224 172.663 430.741 172.663 431.36C172.663 431.861 172.786 432.347 173.031 432.816C173.287 433.285 173.693 433.675 174.247 433.984C174.813 434.293 175.559 434.448 176.487 434.448ZM199.885 436V429.488H195.852C195.383 429.488 194.898 429.472 194.397 429.44C193.906 429.397 193.447 429.339 193.021 429.264C191.805 429.029 190.77 428.496 189.917 427.664C189.074 426.821 188.653 425.659 188.653 424.176C188.653 422.725 189.047 421.563 189.837 420.688C190.626 419.803 191.581 419.227 192.701 418.96C193.213 418.843 193.73 418.773 194.253 418.752C194.786 418.731 195.245 418.72 195.628 418.72H202.237L202.253 436H199.885ZM188.093 436L192.909 428.752H195.517L190.669 436H188.093ZM195.725 427.472H199.885V420.736H195.725C195.469 420.736 195.111 420.747 194.653 420.768C194.194 420.789 193.762 420.859 193.357 420.976C193.005 421.083 192.653 421.269 192.301 421.536C191.959 421.792 191.671 422.139 191.437 422.576C191.202 423.003 191.085 423.525 191.085 424.144C191.085 425.008 191.319 425.701 191.789 426.224C192.269 426.736 192.866 427.088 193.581 427.28C193.965 427.365 194.349 427.419 194.733 427.44C195.117 427.461 195.447 427.472 195.725 427.472ZM213.13 436V418.72H226.874V436H224.522V420.976H215.482V436H213.13ZM238.581 436.48C236.864 436.48 235.397 436.091 234.181 435.312C232.965 434.533 232.032 433.456 231.381 432.08C230.73 430.704 230.405 429.125 230.405 427.344C230.405 425.531 230.736 423.941 231.397 422.576C232.058 421.211 232.997 420.149 234.213 419.392C235.44 418.624 236.896 418.24 238.581 418.24C240.309 418.24 241.781 418.629 242.997 419.408C244.224 420.176 245.157 421.248 245.797 422.624C246.448 423.989 246.773 425.563 246.773 427.344C246.773 429.157 246.448 430.752 245.797 432.128C245.146 433.493 244.208 434.56 242.981 435.328C241.754 436.096 240.288 436.48 238.581 436.48ZM238.581 434.224C240.501 434.224 241.93 433.589 242.869 432.32C243.808 431.04 244.277 429.381 244.277 427.344C244.277 425.253 243.802 423.589 242.853 422.352C241.914 421.115 240.49 420.496 238.581 420.496C237.29 420.496 236.224 420.789 235.381 421.376C234.549 421.952 233.925 422.757 233.509 423.792C233.104 424.816 232.901 426 232.901 427.344C232.901 429.424 233.381 431.093 234.341 432.352C235.301 433.6 236.714 434.224 238.581 434.224ZM257.47 436.48C255.732 436.48 254.26 436.091 253.055 435.312C251.849 434.533 250.932 433.461 250.303 432.096C249.684 430.72 249.364 429.141 249.343 427.36C249.364 425.547 249.695 423.957 250.335 422.592C250.975 421.216 251.897 420.149 253.103 419.392C254.308 418.624 255.769 418.24 257.487 418.24C259.236 418.24 260.756 418.667 262.047 419.52C263.348 420.373 264.239 421.541 264.719 423.024L262.415 423.76C262.009 422.725 261.364 421.925 260.479 421.36C259.604 420.784 258.601 420.496 257.47 420.496C256.201 420.496 255.151 420.789 254.319 421.376C253.487 421.952 252.868 422.757 252.463 423.792C252.057 424.827 251.849 426.016 251.839 427.36C251.86 429.429 252.34 431.093 253.279 432.352C254.217 433.6 255.615 434.224 257.47 434.224C258.644 434.224 259.641 433.957 260.463 433.424C261.295 432.88 261.924 432.091 262.351 431.056L264.719 431.76C264.079 433.296 263.14 434.469 261.903 435.28C260.665 436.08 259.188 436.48 257.47 436.48ZM265.953 436V433.936C266.593 434.053 267.078 434.027 267.409 433.856C267.75 433.675 268.001 433.376 268.161 432.96C268.321 432.533 268.454 432.005 268.561 431.376C268.731 430.331 268.886 429.179 269.025 427.92C269.163 426.661 269.286 425.275 269.393 423.76C269.51 422.235 269.627 420.555 269.745 418.72H281.489V436H279.153V420.976H271.921C271.846 422.107 271.761 423.232 271.665 424.352C271.569 425.472 271.467 426.549 271.361 427.584C271.265 428.608 271.158 429.552 271.041 430.416C270.923 431.28 270.801 432.027 270.673 432.656C270.481 433.605 270.225 434.363 269.905 434.928C269.595 435.493 269.131 435.867 268.513 436.048C267.894 436.229 267.041 436.213 265.953 436ZM293.175 436.48C291.457 436.48 289.991 436.091 288.775 435.312C287.559 434.533 286.625 433.456 285.975 432.08C285.324 430.704 284.999 429.125 284.999 427.344C284.999 425.531 285.329 423.941 285.991 422.576C286.652 421.211 287.591 420.149 288.807 419.392C290.033 418.624 291.489 418.24 293.175 418.24C294.903 418.24 296.375 418.629 297.591 419.408C298.817 420.176 299.751 421.248 300.391 422.624C301.041 423.989 301.367 425.563 301.367 427.344C301.367 429.157 301.041 430.752 300.391 432.128C299.74 433.493 298.801 434.56 297.575 435.328C296.348 436.096 294.881 436.48 293.175 436.48ZM293.175 434.224C295.095 434.224 296.524 433.589 297.463 432.32C298.401 431.04 298.871 429.381 298.871 427.344C298.871 425.253 298.396 423.589 297.447 422.352C296.508 421.115 295.084 420.496 293.175 420.496C291.884 420.496 290.817 420.789 289.975 421.376C289.143 421.952 288.519 422.757 288.103 423.792C287.697 424.816 287.495 426 287.495 427.344C287.495 429.424 287.975 431.093 288.935 432.352C289.895 433.6 291.308 434.224 293.175 434.224ZM304.88 436V418.72H312C312.363 418.72 312.8 418.741 313.312 418.784C313.835 418.827 314.32 418.907 314.768 419.024C315.739 419.28 316.518 419.803 317.104 420.592C317.702 421.381 318 422.331 318 423.44C318 424.059 317.904 424.613 317.712 425.104C317.531 425.584 317.27 426 316.928 426.352C316.768 426.533 316.592 426.693 316.4 426.832C316.208 426.96 316.022 427.067 315.84 427.152C316.182 427.216 316.55 427.365 316.944 427.6C317.563 427.963 318.032 428.453 318.352 429.072C318.672 429.68 318.832 430.421 318.832 431.296C318.832 432.48 318.55 433.445 317.984 434.192C317.419 434.939 316.662 435.451 315.712 435.728C315.286 435.845 314.822 435.92 314.32 435.952C313.83 435.984 313.366 436 312.928 436H304.88ZM307.248 434H312.816C313.04 434 313.323 433.984 313.664 433.952C314.006 433.909 314.31 433.856 314.576 433.792C315.206 433.632 315.664 433.312 315.952 432.832C316.251 432.341 316.4 431.808 316.4 431.232C316.4 430.475 316.176 429.856 315.728 429.376C315.291 428.885 314.704 428.587 313.968 428.48C313.723 428.427 313.467 428.395 313.2 428.384C312.934 428.373 312.694 428.368 312.48 428.368H307.248V434ZM307.248 426.352H312.08C312.358 426.352 312.667 426.336 313.008 426.304C313.36 426.261 313.664 426.192 313.92 426.096C314.475 425.904 314.88 425.573 315.136 425.104C315.403 424.635 315.536 424.123 315.536 423.568C315.536 422.96 315.392 422.427 315.104 421.968C314.827 421.509 314.406 421.189 313.84 421.008C313.456 420.869 313.04 420.789 312.592 420.768C312.155 420.747 311.878 420.736 311.76 420.736H307.248V426.352ZM335.749 418.72V436H333.461V422.544L323.989 436H322.005V418.72H324.293V432.064L333.781 418.72H335.749ZM355.088 438.992V436H340.224V418.72H342.576V433.744H351.616V418.72H353.968V433.824H357.44V438.992H355.088ZM364.934 436.48C363.633 436.48 362.539 436.245 361.654 435.776C360.779 435.307 360.123 434.683 359.686 433.904C359.249 433.125 359.03 432.277 359.03 431.36C359.03 430.421 359.217 429.621 359.59 428.96C359.974 428.288 360.491 427.739 361.142 427.312C361.803 426.885 362.566 426.56 363.43 426.336C364.305 426.123 365.27 425.936 366.326 425.776C367.393 425.605 368.433 425.461 369.446 425.344C370.47 425.216 371.366 425.093 372.134 424.976L371.302 425.488C371.334 423.781 371.003 422.517 370.31 421.696C369.617 420.875 368.411 420.464 366.694 420.464C365.51 420.464 364.507 420.731 363.686 421.264C362.875 421.797 362.305 422.64 361.974 423.792L359.686 423.12C360.081 421.573 360.875 420.373 362.07 419.52C363.265 418.667 364.817 418.24 366.726 418.24C368.305 418.24 369.643 418.539 370.742 419.136C371.851 419.723 372.635 420.576 373.094 421.696C373.307 422.197 373.446 422.757 373.51 423.376C373.574 423.995 373.606 424.624 373.606 425.264V436H371.51V431.664L372.118 431.92C371.531 433.403 370.619 434.533 369.382 435.312C368.145 436.091 366.662 436.48 364.934 436.48ZM365.206 434.448C366.305 434.448 367.265 434.251 368.086 433.856C368.907 433.461 369.569 432.923 370.07 432.24C370.571 431.547 370.897 430.768 371.046 429.904C371.174 429.349 371.243 428.741 371.254 428.08C371.265 427.408 371.27 426.907 371.27 426.576L372.166 427.04C371.366 427.147 370.497 427.253 369.558 427.36C368.63 427.467 367.713 427.589 366.806 427.728C365.91 427.867 365.099 428.032 364.374 428.224C363.883 428.363 363.409 428.56 362.95 428.816C362.491 429.061 362.113 429.392 361.814 429.808C361.526 430.224 361.382 430.741 361.382 431.36C361.382 431.861 361.505 432.347 361.75 432.816C362.006 433.285 362.411 433.675 362.966 433.984C363.531 434.293 364.278 434.448 365.206 434.448Z" fill="#414141"/>
<defs>
<filter id="filter0_ddi_1981_3286" x="0" y="0" width="743" height="696" filterUnits="userSpaceOnUse" color-interpolation-filters="sRGB">
<feFlood flood-opacity="0" result="BackgroundImageFix"/>
<feColorMatrix in="SourceAlpha" type="matrix" values="0 0 0 0 0 0 0 0 0 0 0 0 0 0 0 0 0 0 127 0" result="hardAlpha"/>
<feOffset dx="-1" dy="-1"/>
<feGaussianBlur stdDeviation="0.5"/>
<feComposite in2="hardAlpha" operator="out"/>
<feColorMatrix type="matrix" values="0 0 0 0 1 0 0 0 0 1 0 0 0 0 1 0 0 0 0.2 0"/>
<feBlend mode="normal" in2="BackgroundImageFix" result="effect1_dropShadow_1981_3286"/>
<feColorMatrix in="SourceAlpha" type="matrix" values="0 0 0 0 0 0 0 0 0 0 0 0 0 0 0 0 0 0 127 0" result="hardAlpha"/>
<feOffset dx="1" dy="1"/>
<feGaussianBlur stdDeviation="2"/>
<feComposite in2="hardAlpha" operator="out"/>
<feColorMatrix type="matrix" values="0 0 0 0 0 0 0 0 0 0 0 0 0 0 0 0 0 0 0.1 0"/>
<feBlend mode="normal" in2="effect1_dropShadow_1981_3286" result="effect2_dropShadow_1981_3286"/>
<feBlend mode="normal" in="SourceGraphic" in2="effect2_dropShadow_1981_3286" result="shape"/>
<feColorMatrix in="SourceAlpha" type="matrix" values="0 0 0 0 0 0 0 0 0 0 0 0 0 0 0 0 0 0 127 0" result="hardAlpha"/>
<feOffset/>
<feGaussianBlur stdDeviation="0.5"/>
<feComposite in2="hardAlpha" operator="arithmetic" k2="-1" k3="1"/>
<feColorMatrix type="matrix" values="0 0 0 0 0 0 0 0 0 0 0 0 0 0 0 0 0 0 0.1 0"/>
<feBlend mode="normal" in2="shape" result="effect3_innerShadow_1981_3286"/>
</filter>
</defs>
</svg>
