<svg width="743" height="696" viewBox="0 0 743 696" fill="none" xmlns="http://www.w3.org/2000/svg">
<g filter="url(#filter0_ddi_1981_3301)">
<rect x="3" y="3" width="735" height="688" rx="40" fill="white"/>
</g>
<path d="M82.24 207V183.96H85.584V194.712L95.232 183.96H99.392L89.2 195.208L100.144 207H95.856L85.584 195.992V207H82.24ZM107.276 207.48C105.996 207.48 104.924 207.245 104.06 206.776C103.196 206.296 102.54 205.667 102.092 204.888C101.655 204.099 101.436 203.235 101.436 202.296C101.436 201.421 101.591 200.653 101.9 199.992C102.21 199.331 102.668 198.771 103.276 198.312C103.884 197.843 104.631 197.464 105.516 197.176C106.284 196.952 107.154 196.755 108.124 196.584C109.095 196.413 110.114 196.253 111.18 196.104C112.258 195.955 113.324 195.805 114.38 195.656L113.164 196.328C113.186 194.973 112.898 193.971 112.3 193.32C111.714 192.659 110.7 192.328 109.26 192.328C108.354 192.328 107.522 192.541 106.764 192.968C106.007 193.384 105.479 194.077 105.18 195.048L102.06 194.088C102.487 192.605 103.298 191.427 104.492 190.552C105.698 189.677 107.298 189.24 109.292 189.24C110.839 189.24 112.183 189.507 113.324 190.04C114.476 190.563 115.319 191.395 115.852 192.536C116.13 193.101 116.3 193.699 116.364 194.328C116.428 194.957 116.46 195.635 116.46 196.36V207H113.5V203.048L114.076 203.56C113.362 204.883 112.45 205.869 111.34 206.52C110.242 207.16 108.887 207.48 107.276 207.48ZM107.868 204.744C108.818 204.744 109.634 204.579 110.316 204.248C110.999 203.907 111.548 203.475 111.964 202.952C112.38 202.429 112.652 201.885 112.78 201.32C112.962 200.808 113.063 200.232 113.084 199.592C113.116 198.952 113.132 198.44 113.132 198.056L114.22 198.456C113.164 198.616 112.204 198.76 111.34 198.888C110.476 199.016 109.692 199.144 108.988 199.272C108.295 199.389 107.676 199.533 107.132 199.704C106.674 199.864 106.263 200.056 105.9 200.28C105.548 200.504 105.266 200.776 105.052 201.096C104.85 201.416 104.748 201.805 104.748 202.264C104.748 202.712 104.86 203.128 105.084 203.512C105.308 203.885 105.65 204.184 106.108 204.408C106.567 204.632 107.154 204.744 107.868 204.744ZM126.775 207.48C125.1 207.48 123.596 207.123 122.263 206.408C120.94 205.693 119.895 204.707 119.127 203.448L121.783 201.704C122.402 202.536 123.116 203.181 123.927 203.64C124.748 204.099 125.671 204.328 126.695 204.328C127.762 204.328 128.604 204.088 129.223 203.608C129.852 203.117 130.167 202.461 130.167 201.64C130.167 200.989 129.986 200.509 129.623 200.2C129.271 199.88 128.78 199.672 128.151 199.576C127.532 199.48 126.828 199.432 126.039 199.432H124.503V196.744H126.039C127.084 196.744 127.943 196.6 128.615 196.312C129.298 196.013 129.639 195.453 129.639 194.632C129.639 193.832 129.346 193.256 128.759 192.904C128.183 192.552 127.495 192.376 126.695 192.376C125.799 192.376 124.93 192.568 124.087 192.952C123.244 193.325 122.508 193.789 121.879 194.344L119.927 192.056C120.844 191.171 121.89 190.483 123.063 189.992C124.247 189.491 125.516 189.24 126.871 189.24C127.98 189.24 129.004 189.437 129.943 189.832C130.892 190.216 131.65 190.787 132.215 191.544C132.791 192.301 133.079 193.235 133.079 194.344C133.079 195.208 132.887 195.997 132.503 196.712C132.119 197.427 131.532 198.077 130.743 198.664L130.647 197.528C131.298 197.731 131.842 198.056 132.279 198.504C132.716 198.952 133.042 199.48 133.255 200.088C133.479 200.685 133.591 201.32 133.591 201.992C133.591 203.155 133.282 204.147 132.663 204.968C132.055 205.789 131.234 206.413 130.199 206.84C129.164 207.267 128.023 207.48 126.775 207.48ZM144.219 207.496C142.576 207.485 141.179 207.128 140.027 206.424C138.875 205.72 137.974 204.707 137.323 203.384C136.683 202.051 136.31 200.445 136.203 198.568C136.15 197.661 136.155 196.659 136.219 195.56C136.283 194.451 136.4 193.379 136.571 192.344C136.752 191.309 136.982 190.445 137.259 189.752C137.568 188.984 137.99 188.28 138.523 187.64C139.056 186.989 139.643 186.445 140.283 186.008C140.966 185.539 141.723 185.176 142.555 184.92C143.387 184.653 144.256 184.445 145.163 184.296C146.08 184.147 147.003 184.019 147.931 183.912C148.87 183.795 149.782 183.651 150.667 183.48L150.987 186.472C150.4 186.611 149.707 186.723 148.907 186.808C148.118 186.893 147.296 186.989 146.443 187.096C145.6 187.203 144.795 187.352 144.027 187.544C143.259 187.736 142.592 188.008 142.027 188.36C141.227 188.851 140.614 189.565 140.187 190.504C139.771 191.443 139.52 192.461 139.435 193.56C140.096 192.557 140.939 191.837 141.963 191.4C142.987 190.952 144.048 190.728 145.147 190.728C146.683 190.728 148.006 191.091 149.115 191.816C150.235 192.541 151.094 193.528 151.691 194.776C152.288 196.024 152.587 197.437 152.587 199.016C152.587 200.723 152.235 202.216 151.531 203.496C150.838 204.765 149.862 205.757 148.603 206.472C147.344 207.176 145.883 207.517 144.219 207.496ZM144.395 204.344C145.931 204.344 147.088 203.869 147.867 202.92C148.656 201.971 149.051 200.707 149.051 199.128C149.051 197.507 148.646 196.232 147.835 195.304C147.024 194.376 145.878 193.912 144.395 193.912C142.891 193.912 141.739 194.376 140.939 195.304C140.15 196.232 139.755 197.507 139.755 199.128C139.755 200.771 140.155 202.051 140.955 202.968C141.755 203.885 142.902 204.344 144.395 204.344ZM163.779 207.48C162.062 207.48 160.552 207.107 159.251 206.36C157.96 205.603 156.952 204.552 156.227 203.208C155.512 201.853 155.155 200.285 155.155 198.504C155.155 196.616 155.507 194.979 156.211 193.592C156.926 192.205 157.918 191.133 159.187 190.376C160.456 189.619 161.934 189.24 163.619 189.24C165.379 189.24 166.878 189.651 168.115 190.472C169.352 191.283 170.275 192.44 170.883 193.944C171.502 195.448 171.747 197.235 171.619 199.304H168.275V198.088C168.254 196.083 167.87 194.6 167.123 193.64C166.387 192.68 165.262 192.2 163.747 192.2C162.072 192.2 160.814 192.728 159.971 193.784C159.128 194.84 158.707 196.365 158.707 198.36C158.707 200.259 159.128 201.731 159.971 202.776C160.814 203.811 162.03 204.328 163.619 204.328C164.664 204.328 165.566 204.093 166.323 203.624C167.091 203.144 167.688 202.461 168.115 201.576L171.395 202.616C170.723 204.163 169.704 205.363 168.339 206.216C166.974 207.059 165.454 207.48 163.779 207.48ZM157.619 199.304V196.696H169.955V199.304H157.619ZM175.193 207L175.209 189.72H178.601V198.04L185.385 189.72H189.641L182.473 198.36L190.377 207H185.833L178.601 198.68V207H175.193ZM197.228 210.84V203.848C198.018 203.848 198.668 203.651 199.18 203.256C199.692 202.851 200.098 202.301 200.396 201.608C200.706 200.904 200.94 200.104 201.1 199.208C201.271 198.312 201.399 197.368 201.484 196.376C201.612 195.032 201.719 193.72 201.804 192.44C201.9 191.149 201.986 189.816 202.06 188.44C202.146 187.064 202.236 185.565 202.332 183.944L217.084 183.96V203.848H218.796V210.84H215.436V207H200.572V210.84H197.228ZM202.716 203.848H213.74V187.112L205.42 187.096C205.346 188.269 205.282 189.384 205.228 190.44C205.175 191.496 205.106 192.563 205.02 193.64C204.946 194.707 204.85 195.853 204.732 197.08C204.615 198.253 204.492 199.251 204.364 200.072C204.236 200.883 204.044 201.587 203.788 202.184C203.543 202.781 203.186 203.336 202.716 203.848ZM224.639 214.68L227.983 205.576L228.031 208.264L220.495 189.72H223.983L229.615 204.04H228.591L233.967 189.72H237.359L227.823 214.68H224.639ZM239.865 207V189.72H252.025V192.872H243.209V207H239.865ZM256.951 214.68L260.295 205.576L260.343 208.264L252.807 189.72H256.295L261.927 204.04H260.903L266.279 189.72H269.671L260.135 214.68H256.951ZM270.258 207L276.914 198.36L270.626 189.72H274.306L280.322 198.152V189.72H283.33V198.152L289.346 189.72H293.042L286.753 198.36L293.41 207H289.522L283.33 198.568V207H280.322V198.568L274.146 207H270.258ZM298.295 214.68L301.639 205.576L301.687 208.264L294.151 189.72H297.639L303.271 204.04H302.247L307.623 189.72H311.015L301.479 214.68H298.295ZM313.505 207L313.521 189.72H316.913V198.04L323.697 189.72H327.953L320.785 198.36L328.689 207H324.145L316.913 198.68V207H313.505ZM337.494 207.48C335.766 207.48 334.267 207.091 332.998 206.312C331.729 205.533 330.747 204.461 330.054 203.096C329.371 201.72 329.03 200.136 329.03 198.344C329.03 196.541 329.382 194.957 330.086 193.592C330.79 192.216 331.777 191.149 333.046 190.392C334.315 189.624 335.798 189.24 337.494 189.24C339.222 189.24 340.721 189.629 341.99 190.408C343.259 191.187 344.241 192.259 344.934 193.624C345.627 194.989 345.974 196.563 345.974 198.344C345.974 200.147 345.622 201.736 344.918 203.112C344.225 204.477 343.243 205.549 341.974 206.328C340.705 207.096 339.211 207.48 337.494 207.48ZM337.494 204.328C339.147 204.328 340.379 203.773 341.19 202.664C342.011 201.544 342.422 200.104 342.422 198.344C342.422 196.541 342.006 195.101 341.174 194.024C340.353 192.936 339.126 192.392 337.494 192.392C336.374 192.392 335.451 192.648 334.726 193.16C334.001 193.661 333.462 194.36 333.11 195.256C332.758 196.141 332.582 197.171 332.582 198.344C332.582 200.157 332.998 201.608 333.83 202.696C334.662 203.784 335.883 204.328 337.494 204.328ZM355.576 197.928V195.912H376.696V197.928H355.576ZM80.64 258V255.936C81.28 256.053 81.7653 256.027 82.096 255.856C82.4373 255.675 82.688 255.376 82.848 254.96C83.008 254.533 83.1413 254.005 83.248 253.376C83.4187 252.331 83.5733 251.179 83.712 249.92C83.8507 248.661 83.9733 247.275 84.08 245.76C84.1973 244.235 84.3147 242.555 84.432 240.72H96.176V258H93.84V242.976H86.608C86.5333 244.107 86.448 245.232 86.352 246.352C86.256 247.472 86.1547 248.549 86.048 249.584C85.952 250.608 85.8453 251.552 85.728 252.416C85.6107 253.28 85.488 254.027 85.36 254.656C85.168 255.605 84.912 256.363 84.592 256.928C84.2827 257.493 83.8187 257.867 83.2 258.048C82.5813 258.229 81.728 258.213 80.64 258ZM107.958 258.48C106.273 258.48 104.812 258.107 103.574 257.36C102.348 256.613 101.393 255.563 100.71 254.208C100.028 252.853 99.6863 251.264 99.6863 249.44C99.6863 247.552 100.022 245.92 100.694 244.544C101.366 243.168 102.31 242.107 103.526 241.36C104.753 240.613 106.198 240.24 107.862 240.24C109.569 240.24 111.025 240.635 112.23 241.424C113.436 242.203 114.348 243.323 114.966 244.784C115.585 246.245 115.868 247.989 115.814 250.016H113.414V249.184C113.372 246.944 112.886 245.253 111.958 244.112C111.041 242.971 109.697 242.4 107.926 242.4C106.07 242.4 104.646 243.003 103.654 244.208C102.673 245.413 102.182 247.131 102.182 249.36C102.182 251.536 102.673 253.227 103.654 254.432C104.646 255.627 106.049 256.224 107.862 256.224C109.1 256.224 110.177 255.941 111.094 255.376C112.022 254.8 112.753 253.973 113.286 252.896L115.478 253.744C114.796 255.248 113.788 256.416 112.454 257.248C111.132 258.069 109.633 258.48 107.958 258.48ZM101.35 250.016V248.048H114.55V250.016H101.35ZM119.365 258V240.72H131.205V242.976H121.717V258H119.365ZM141.552 258.48C139.867 258.48 138.405 258.107 137.168 257.36C135.941 256.613 134.987 255.563 134.304 254.208C133.621 252.853 133.28 251.264 133.28 249.44C133.28 247.552 133.616 245.92 134.288 244.544C134.96 243.168 135.904 242.107 137.12 241.36C138.347 240.613 139.792 240.24 141.456 240.24C143.163 240.24 144.619 240.635 145.824 241.424C147.029 242.203 147.941 243.323 148.56 244.784C149.179 246.245 149.461 247.989 149.408 250.016H147.008V249.184C146.965 246.944 146.48 245.253 145.552 244.112C144.635 242.971 143.291 242.4 141.52 242.4C139.664 242.4 138.24 243.003 137.248 244.208C136.267 245.413 135.776 247.131 135.776 249.36C135.776 251.536 136.267 253.227 137.248 254.432C138.24 255.627 139.643 256.224 141.456 256.224C142.693 256.224 143.771 255.941 144.688 255.376C145.616 254.8 146.347 253.973 146.88 252.896L149.072 253.744C148.389 255.248 147.381 256.416 146.048 257.248C144.725 258.069 143.227 258.48 141.552 258.48ZM134.944 250.016V248.048H148.144V250.016H134.944ZM152.943 258V240.72H155.295V248.224H165.039V240.72H167.391V258H165.039V250.48H155.295V258H152.943ZM170.585 261.84V255.984C171.566 255.984 172.27 255.669 172.697 255.04C173.124 254.4 173.47 253.381 173.737 251.984C173.918 251.077 174.068 250.101 174.185 249.056C174.302 248.011 174.404 246.816 174.489 245.472C174.574 244.117 174.654 242.533 174.729 240.72H186.153V255.984H187.817V261.84H185.545V258H172.841V261.84H170.585ZM174.569 255.984H183.817V242.736H176.905C176.873 243.547 176.825 244.405 176.761 245.312C176.708 246.219 176.638 247.125 176.553 248.032C176.478 248.939 176.388 249.792 176.281 250.592C176.185 251.381 176.068 252.075 175.929 252.672C175.769 253.44 175.593 254.096 175.401 254.64C175.22 255.184 174.942 255.632 174.569 255.984ZM195.965 258.48C194.664 258.48 193.571 258.245 192.685 257.776C191.811 257.307 191.155 256.683 190.717 255.904C190.28 255.125 190.061 254.277 190.061 253.36C190.061 252.421 190.248 251.621 190.621 250.96C191.005 250.288 191.523 249.739 192.173 249.312C192.835 248.885 193.597 248.56 194.461 248.336C195.336 248.123 196.301 247.936 197.357 247.776C198.424 247.605 199.464 247.461 200.477 247.344C201.501 247.216 202.397 247.093 203.165 246.976L202.333 247.488C202.365 245.781 202.035 244.517 201.341 243.696C200.648 242.875 199.443 242.464 197.725 242.464C196.541 242.464 195.539 242.731 194.717 243.264C193.907 243.797 193.336 244.64 193.005 245.792L190.717 245.12C191.112 243.573 191.907 242.373 193.101 241.52C194.296 240.667 195.848 240.24 197.757 240.24C199.336 240.24 200.675 240.539 201.773 241.136C202.883 241.723 203.667 242.576 204.125 243.696C204.339 244.197 204.477 244.757 204.541 245.376C204.605 245.995 204.637 246.624 204.637 247.264V258H202.541V253.664L203.149 253.92C202.563 255.403 201.651 256.533 200.413 257.312C199.176 258.091 197.693 258.48 195.965 258.48ZM196.237 256.448C197.336 256.448 198.296 256.251 199.117 255.856C199.939 255.461 200.6 254.923 201.101 254.24C201.603 253.547 201.928 252.768 202.077 251.904C202.205 251.349 202.275 250.741 202.285 250.08C202.296 249.408 202.301 248.907 202.301 248.576L203.197 249.04C202.397 249.147 201.528 249.253 200.589 249.36C199.661 249.467 198.744 249.589 197.837 249.728C196.941 249.867 196.131 250.032 195.405 250.224C194.915 250.363 194.44 250.56 193.981 250.816C193.523 251.061 193.144 251.392 192.845 251.808C192.557 252.224 192.413 252.741 192.413 253.36C192.413 253.861 192.536 254.347 192.781 254.816C193.037 255.285 193.443 255.675 193.997 255.984C194.563 256.293 195.309 256.448 196.237 256.448ZM216.562 258.48C214.973 258.48 213.629 258.08 212.531 257.28C211.432 256.469 210.6 255.376 210.035 254C209.469 252.613 209.187 251.061 209.187 249.344C209.187 247.595 209.469 246.037 210.035 244.672C210.611 243.296 211.453 242.213 212.563 241.424C213.672 240.635 215.037 240.24 216.659 240.24C218.237 240.24 219.592 240.64 220.723 241.44C221.853 242.24 222.717 243.328 223.315 244.704C223.923 246.08 224.227 247.627 224.227 249.344C224.227 251.072 223.923 252.624 223.315 254C222.707 255.376 221.832 256.469 220.691 257.28C219.549 258.08 218.173 258.48 216.562 258.48ZM208.787 265.68V240.72H210.899V253.728H211.155V265.68H208.787ZM216.323 256.288C217.528 256.288 218.531 255.984 219.331 255.376C220.131 254.768 220.728 253.941 221.123 252.896C221.528 251.84 221.731 250.656 221.731 249.344C221.731 248.043 221.533 246.869 221.139 245.824C220.744 244.779 220.141 243.952 219.331 243.344C218.531 242.736 217.512 242.432 216.275 242.432C215.069 242.432 214.067 242.725 213.267 243.312C212.477 243.899 211.885 244.715 211.491 245.76C211.096 246.795 210.899 247.989 210.899 249.344C210.899 250.677 211.096 251.872 211.491 252.928C211.885 253.973 212.483 254.795 213.283 255.392C214.083 255.989 215.096 256.288 216.323 256.288ZM227.724 258V240.72H230.076V248.224H239.82V240.72H242.172V258H239.82V250.48H230.076V258H227.724ZM246.662 258L246.63 240.72H248.998V247.232H252.006C252.508 247.232 252.998 247.243 253.478 247.264C253.958 247.285 254.39 247.328 254.774 247.392C255.628 247.563 256.385 247.851 257.046 248.256C257.708 248.661 258.23 249.221 258.614 249.936C258.998 250.64 259.19 251.531 259.19 252.608C259.19 254.091 258.806 255.259 258.038 256.112C257.27 256.965 256.305 257.52 255.142 257.776C254.705 257.872 254.23 257.936 253.718 257.968C253.206 257.989 252.705 258 252.214 258H246.662ZM248.998 255.984H252.118C252.47 255.984 252.87 255.973 253.318 255.952C253.766 255.931 254.161 255.872 254.502 255.776C255.078 255.616 255.596 255.296 256.054 254.816C256.524 254.325 256.758 253.589 256.758 252.608C256.758 251.637 256.534 250.907 256.086 250.416C255.638 249.915 255.041 249.584 254.294 249.424C253.953 249.349 253.59 249.301 253.206 249.28C252.833 249.259 252.47 249.248 252.118 249.248H248.998V255.984ZM261.254 258V240.72H263.606V258H261.254ZM275.252 238.672C274.494 238.672 273.801 238.485 273.172 238.112C272.542 237.739 272.041 237.243 271.668 236.624C271.305 235.995 271.124 235.301 271.124 234.544H273.076C273.076 235.141 273.289 235.653 273.716 236.08C274.142 236.507 274.654 236.72 275.252 236.72C275.86 236.72 276.372 236.507 276.788 236.08C277.214 235.653 277.428 235.141 277.428 234.544H279.38C279.38 235.301 279.193 235.995 278.82 236.624C278.457 237.243 277.961 237.739 277.332 238.112C276.702 238.485 276.009 238.672 275.252 238.672ZM281.812 240.72V258H279.524V244.544L270.052 258H268.068V240.72H270.356V254.064L279.844 240.72H281.812ZM292.693 258V240.72H294.981V255.824H301.461V240.72H303.749V255.824H310.213V240.72H312.501V258H292.693ZM321.934 258.48C320.633 258.48 319.539 258.245 318.654 257.776C317.779 257.307 317.123 256.683 316.686 255.904C316.249 255.125 316.03 254.277 316.03 253.36C316.03 252.421 316.217 251.621 316.59 250.96C316.974 250.288 317.491 249.739 318.142 249.312C318.803 248.885 319.566 248.56 320.43 248.336C321.305 248.123 322.27 247.936 323.326 247.776C324.393 247.605 325.433 247.461 326.446 247.344C327.47 247.216 328.366 247.093 329.134 246.976L328.302 247.488C328.334 245.781 328.003 244.517 327.31 243.696C326.617 242.875 325.411 242.464 323.694 242.464C322.51 242.464 321.507 242.731 320.686 243.264C319.875 243.797 319.305 244.64 318.974 245.792L316.686 245.12C317.081 243.573 317.875 242.373 319.07 241.52C320.265 240.667 321.817 240.24 323.726 240.24C325.305 240.24 326.643 240.539 327.742 241.136C328.851 241.723 329.635 242.576 330.094 243.696C330.307 244.197 330.446 244.757 330.51 245.376C330.574 245.995 330.606 246.624 330.606 247.264V258H328.51V253.664L329.118 253.92C328.531 255.403 327.619 256.533 326.382 257.312C325.145 258.091 323.662 258.48 321.934 258.48ZM322.206 256.448C323.305 256.448 324.265 256.251 325.086 255.856C325.907 255.461 326.569 254.923 327.07 254.24C327.571 253.547 327.897 252.768 328.046 251.904C328.174 251.349 328.243 250.741 328.254 250.08C328.265 249.408 328.27 248.907 328.27 248.576L329.166 249.04C328.366 249.147 327.497 249.253 326.558 249.36C325.63 249.467 324.713 249.589 323.806 249.728C322.91 249.867 322.099 250.032 321.374 250.224C320.883 250.363 320.409 250.56 319.95 250.816C319.491 251.061 319.113 251.392 318.814 251.808C318.526 252.224 318.382 252.741 318.382 253.36C318.382 253.861 318.505 254.347 318.75 254.816C319.006 255.285 319.411 255.675 319.966 255.984C320.531 256.293 321.278 256.448 322.206 256.448ZM334.755 258V240.72H348.499V258H346.147V242.976H337.107V258H334.755ZM360.158 258.48C358.419 258.48 356.947 258.091 355.742 257.312C354.537 256.533 353.619 255.461 352.99 254.096C352.371 252.72 352.051 251.141 352.03 249.36C352.051 247.547 352.382 245.957 353.022 244.592C353.662 243.216 354.585 242.149 355.79 241.392C356.995 240.624 358.457 240.24 360.174 240.24C361.923 240.24 363.443 240.667 364.734 241.52C366.035 242.373 366.926 243.541 367.406 245.024L365.102 245.76C364.697 244.725 364.051 243.925 363.166 243.36C362.291 242.784 361.289 242.496 360.158 242.496C358.889 242.496 357.838 242.789 357.006 243.376C356.174 243.952 355.555 244.757 355.15 245.792C354.745 246.827 354.537 248.016 354.526 249.36C354.547 251.429 355.027 253.093 355.966 254.352C356.905 255.6 358.302 256.224 360.158 256.224C361.331 256.224 362.329 255.957 363.15 255.424C363.982 254.88 364.611 254.091 365.038 253.056L367.406 253.76C366.766 255.296 365.827 256.469 364.59 257.28C363.353 258.08 361.875 258.48 360.158 258.48ZM372.548 265.68L375.892 256.608L375.94 259.296L368.372 240.72H370.868L377.076 256.256H376.052L381.78 240.72H384.18L374.9 265.68H372.548ZM386.959 258V240.72H398.799V242.976H389.311V258H386.959ZM408.689 258.48C406.951 258.48 405.479 258.091 404.273 257.312C403.068 256.533 402.151 255.461 401.521 254.096C400.903 252.72 400.583 251.141 400.561 249.36C400.583 247.547 400.913 245.957 401.553 244.592C402.193 243.216 403.116 242.149 404.321 241.392C405.527 240.624 406.988 240.24 408.705 240.24C410.455 240.24 411.975 240.667 413.265 241.52C414.567 242.373 415.457 243.541 415.937 245.024L413.633 245.76C413.228 244.725 412.583 243.925 411.697 243.36C410.823 242.784 409.82 242.496 408.689 242.496C407.42 242.496 406.369 242.789 405.537 243.376C404.705 243.952 404.087 244.757 403.681 245.792C403.276 246.827 403.068 248.016 403.057 249.36C403.079 251.429 403.559 253.093 404.497 254.352C405.436 255.6 406.833 256.224 408.689 256.224C409.863 256.224 410.86 255.957 411.681 255.424C412.513 254.88 413.143 254.091 413.569 253.056L415.937 253.76C415.297 255.296 414.359 256.469 413.121 257.28C411.884 258.08 410.407 258.48 408.689 258.48ZM419.224 258L419.24 240.72H421.608V249.04L429.32 240.72H432.456L424.36 249.36L433.512 258H430.088L421.608 249.68V258H419.224ZM448.843 240.72V258H446.555V244.544L437.083 258H435.099V240.72H437.387V254.064L446.875 240.72H448.843ZM460.502 238.672C459.744 238.672 459.051 238.485 458.422 238.112C457.792 237.739 457.291 237.243 456.918 236.624C456.555 235.995 456.374 235.301 456.374 234.544H458.326C458.326 235.141 458.539 235.653 458.966 236.08C459.392 236.507 459.904 236.72 460.502 236.72C461.11 236.72 461.622 236.507 462.038 236.08C462.464 235.653 462.678 235.141 462.678 234.544H464.63C464.63 235.301 464.443 235.995 464.07 236.624C463.707 237.243 463.211 237.739 462.582 238.112C461.952 238.485 461.259 238.672 460.502 238.672ZM467.062 240.72V258H464.774V244.544L455.302 258H453.318V240.72H455.606V254.064L465.094 240.72H467.062ZM477.943 258V240.72H491.687V258H489.335V242.976H480.295V258H477.943ZM503.394 258.48C501.676 258.48 500.21 258.091 498.994 257.312C497.778 256.533 496.844 255.456 496.194 254.08C495.543 252.704 495.218 251.125 495.218 249.344C495.218 247.531 495.548 245.941 496.21 244.576C496.871 243.211 497.81 242.149 499.026 241.392C500.252 240.624 501.708 240.24 503.394 240.24C505.122 240.24 506.594 240.629 507.81 241.408C509.036 242.176 509.97 243.248 510.61 244.624C511.26 245.989 511.586 247.563 511.586 249.344C511.586 251.157 511.26 252.752 510.61 254.128C509.959 255.493 509.02 256.56 507.794 257.328C506.567 258.096 505.1 258.48 503.394 258.48ZM503.394 256.224C505.314 256.224 506.743 255.589 507.682 254.32C508.62 253.04 509.09 251.381 509.09 249.344C509.09 247.253 508.615 245.589 507.666 244.352C506.727 243.115 505.303 242.496 503.394 242.496C502.103 242.496 501.036 242.789 500.194 243.376C499.362 243.952 498.738 244.757 498.322 245.792C497.916 246.816 497.714 248 497.714 249.344C497.714 251.424 498.194 253.093 499.154 254.352C500.114 255.6 501.527 256.224 503.394 256.224ZM513.515 258V255.936C514.155 256.053 514.64 256.027 514.971 255.856C515.312 255.675 515.563 255.376 515.723 254.96C515.883 254.533 516.016 254.005 516.123 253.376C516.294 252.331 516.448 251.179 516.587 249.92C516.726 248.661 516.848 247.275 516.955 245.76C517.072 244.235 517.19 242.555 517.307 240.72H529.051V258H526.715V242.976H519.483C519.408 244.107 519.323 245.232 519.227 246.352C519.131 247.472 519.03 248.549 518.923 249.584C518.827 250.608 518.72 251.552 518.603 252.416C518.486 253.28 518.363 254.027 518.235 254.656C518.043 255.605 517.787 256.363 517.467 256.928C517.158 257.493 516.694 257.867 516.075 258.048C515.456 258.229 514.603 258.213 513.515 258ZM533.505 258L533.521 240.72H535.889V249.04L543.601 240.72H546.737L538.641 249.36L547.793 258H544.369L535.889 249.68V258H533.505ZM556.3 258.48C554.582 258.48 553.116 258.091 551.9 257.312C550.684 256.533 549.75 255.456 549.1 254.08C548.449 252.704 548.124 251.125 548.124 249.344C548.124 247.531 548.454 245.941 549.116 244.576C549.777 243.211 550.716 242.149 551.932 241.392C553.158 240.624 554.614 240.24 556.3 240.24C558.028 240.24 559.5 240.629 560.716 241.408C561.942 242.176 562.876 243.248 563.516 244.624C564.166 245.989 564.492 247.563 564.492 249.344C564.492 251.157 564.166 252.752 563.516 254.128C562.865 255.493 561.926 256.56 560.7 257.328C559.473 258.096 558.006 258.48 556.3 258.48ZM556.3 256.224C558.22 256.224 559.649 255.589 560.588 254.32C561.526 253.04 561.996 251.381 561.996 249.344C561.996 247.253 561.521 245.589 560.572 244.352C559.633 243.115 558.209 242.496 556.3 242.496C555.009 242.496 553.942 242.789 553.1 243.376C552.268 243.952 551.644 244.757 551.228 245.792C550.822 246.816 550.62 248 550.62 249.344C550.62 251.424 551.1 253.093 552.06 254.352C553.02 255.6 554.433 256.224 556.3 256.224ZM568.005 258V240.72H575.125C575.488 240.72 575.925 240.741 576.437 240.784C576.96 240.827 577.445 240.907 577.893 241.024C578.864 241.28 579.643 241.803 580.229 242.592C580.827 243.381 581.125 244.331 581.125 245.44C581.125 246.059 581.029 246.613 580.837 247.104C580.656 247.584 580.395 248 580.053 248.352C579.893 248.533 579.717 248.693 579.525 248.832C579.333 248.96 579.147 249.067 578.965 249.152C579.307 249.216 579.675 249.365 580.069 249.6C580.688 249.963 581.157 250.453 581.477 251.072C581.797 251.68 581.957 252.421 581.957 253.296C581.957 254.48 581.675 255.445 581.109 256.192C580.544 256.939 579.787 257.451 578.837 257.728C578.411 257.845 577.947 257.92 577.445 257.952C576.955 257.984 576.491 258 576.053 258H568.005ZM570.373 256H575.941C576.165 256 576.448 255.984 576.789 255.952C577.131 255.909 577.435 255.856 577.701 255.792C578.331 255.632 578.789 255.312 579.077 254.832C579.376 254.341 579.525 253.808 579.525 253.232C579.525 252.475 579.301 251.856 578.853 251.376C578.416 250.885 577.829 250.587 577.093 250.48C576.848 250.427 576.592 250.395 576.325 250.384C576.059 250.373 575.819 250.368 575.605 250.368H570.373V256ZM570.373 248.352H575.205C575.483 248.352 575.792 248.336 576.133 248.304C576.485 248.261 576.789 248.192 577.045 248.096C577.6 247.904 578.005 247.573 578.261 247.104C578.528 246.635 578.661 246.123 578.661 245.568C578.661 244.96 578.517 244.427 578.229 243.968C577.952 243.509 577.531 243.189 576.965 243.008C576.581 242.869 576.165 242.789 575.717 242.768C575.28 242.747 575.003 242.736 574.885 242.736H570.373V248.352ZM592.362 258.48C590.645 258.48 589.178 258.091 587.962 257.312C586.746 256.533 585.813 255.456 585.162 254.08C584.512 252.704 584.186 251.125 584.186 249.344C584.186 247.531 584.517 245.941 585.178 244.576C585.84 243.211 586.778 242.149 587.994 241.392C589.221 240.624 590.677 240.24 592.362 240.24C594.09 240.24 595.562 240.629 596.778 241.408C598.005 242.176 598.938 243.248 599.578 244.624C600.229 245.989 600.554 247.563 600.554 249.344C600.554 251.157 600.229 252.752 599.578 254.128C598.928 255.493 597.989 256.56 596.762 257.328C595.536 258.096 594.069 258.48 592.362 258.48ZM592.362 256.224C594.282 256.224 595.712 255.589 596.65 254.32C597.589 253.04 598.058 251.381 598.058 249.344C598.058 247.253 597.584 245.589 596.634 244.352C595.696 243.115 594.272 242.496 592.362 242.496C591.072 242.496 590.005 242.789 589.162 243.376C588.33 243.952 587.706 244.757 587.29 245.792C586.885 246.816 586.682 248 586.682 249.344C586.682 251.424 587.162 253.093 588.122 254.352C589.082 255.6 590.496 256.224 592.362 256.224ZM602.804 261.84V255.984C603.785 255.984 604.489 255.669 604.916 255.04C605.342 254.4 605.689 253.381 605.956 251.984C606.137 251.077 606.286 250.101 606.404 249.056C606.521 248.011 606.622 246.816 606.708 245.472C606.793 244.117 606.873 242.533 606.948 240.72H618.372V255.984H620.036V261.84H617.764V258H605.06V261.84H602.804ZM606.788 255.984H616.036V242.736H609.124C609.092 243.547 609.044 244.405 608.98 245.312C608.926 246.219 608.857 247.125 608.772 248.032C608.697 248.939 608.606 249.792 608.5 250.592C608.404 251.381 608.286 252.075 608.148 252.672C607.988 253.44 607.812 254.096 607.62 254.64C607.438 255.184 607.161 255.632 606.788 255.984ZM630.552 258.48C628.867 258.48 627.405 258.107 626.168 257.36C624.941 256.613 623.987 255.563 623.304 254.208C622.621 252.853 622.28 251.264 622.28 249.44C622.28 247.552 622.616 245.92 623.288 244.544C623.96 243.168 624.904 242.107 626.12 241.36C627.347 240.613 628.792 240.24 630.456 240.24C632.163 240.24 633.619 240.635 634.824 241.424C636.029 242.203 636.941 243.323 637.56 244.784C638.179 246.245 638.461 247.989 638.408 250.016H636.008V249.184C635.965 246.944 635.48 245.253 634.552 244.112C633.635 242.971 632.291 242.4 630.52 242.4C628.664 242.4 627.24 243.003 626.248 244.208C625.267 245.413 624.776 247.131 624.776 249.36C624.776 251.536 625.267 253.227 626.248 254.432C627.24 255.627 628.643 256.224 630.456 256.224C631.693 256.224 632.771 255.941 633.688 255.376C634.616 254.8 635.347 253.973 635.88 252.896L638.072 253.744C637.389 255.248 636.381 256.416 635.048 257.248C633.725 258.069 632.227 258.48 630.552 258.48ZM623.944 250.016V248.048H637.144V250.016H623.944ZM656.807 260.992V258H641.943V240.72H644.295V255.744H653.335V240.72H655.687V255.824H659.159V260.992H656.807ZM82.224 309V291.72H89.344C89.7067 291.72 90.144 291.741 90.656 291.784C91.1787 291.827 91.664 291.907 92.112 292.024C93.0827 292.28 93.8613 292.803 94.448 293.592C95.0453 294.381 95.344 295.331 95.344 296.44C95.344 297.059 95.248 297.613 95.056 298.104C94.8747 298.584 94.6133 299 94.272 299.352C94.112 299.533 93.936 299.693 93.744 299.832C93.552 299.96 93.3653 300.067 93.184 300.152C93.5253 300.216 93.8933 300.365 94.288 300.6C94.9067 300.963 95.376 301.453 95.696 302.072C96.016 302.68 96.176 303.421 96.176 304.296C96.176 305.48 95.8933 306.445 95.328 307.192C94.7627 307.939 94.0053 308.451 93.056 308.728C92.6293 308.845 92.1653 308.92 91.664 308.952C91.1733 308.984 90.7093 309 90.272 309H82.224ZM84.592 307H90.16C90.384 307 90.6667 306.984 91.008 306.952C91.3493 306.909 91.6533 306.856 91.92 306.792C92.5493 306.632 93.008 306.312 93.296 305.832C93.5947 305.341 93.744 304.808 93.744 304.232C93.744 303.475 93.52 302.856 93.072 302.376C92.6347 301.885 92.048 301.587 91.312 301.48C91.0667 301.427 90.8107 301.395 90.544 301.384C90.2773 301.373 90.0373 301.368 89.824 301.368H84.592V307ZM84.592 299.352H89.424C89.7013 299.352 90.0107 299.336 90.352 299.304C90.704 299.261 91.008 299.192 91.264 299.096C91.8187 298.904 92.224 298.573 92.48 298.104C92.7467 297.635 92.88 297.123 92.88 296.568C92.88 295.96 92.736 295.427 92.448 294.968C92.1707 294.509 91.7493 294.189 91.184 294.008C90.8 293.869 90.384 293.789 89.936 293.768C89.4987 293.747 89.2213 293.736 89.104 293.736H84.592V299.352ZM107.125 309.48C105.536 309.48 104.192 309.08 103.093 308.28C101.994 307.469 101.162 306.376 100.597 305C100.032 303.613 99.749 302.061 99.749 300.344C99.749 298.595 100.032 297.037 100.597 295.672C101.173 294.296 102.016 293.213 103.125 292.424C104.234 291.635 105.6 291.24 107.221 291.24C108.8 291.24 110.154 291.64 111.285 292.44C112.416 293.24 113.28 294.328 113.877 295.704C114.485 297.08 114.789 298.627 114.789 300.344C114.789 302.072 114.485 303.624 113.877 305C113.269 306.376 112.394 307.469 111.253 308.28C110.112 309.08 108.736 309.48 107.125 309.48ZM99.349 316.68V291.72H101.461V304.728H101.717V316.68H99.349ZM106.885 307.288C108.09 307.288 109.093 306.984 109.893 306.376C110.693 305.768 111.29 304.941 111.685 303.896C112.09 302.84 112.293 301.656 112.293 300.344C112.293 299.043 112.096 297.869 111.701 296.824C111.306 295.779 110.704 294.952 109.893 294.344C109.093 293.736 108.074 293.432 106.837 293.432C105.632 293.432 104.629 293.725 103.829 294.312C103.04 294.899 102.448 295.715 102.053 296.76C101.658 297.795 101.461 298.989 101.461 300.344C101.461 301.677 101.658 302.872 102.053 303.928C102.448 304.973 103.045 305.795 103.845 306.392C104.645 306.989 105.658 307.288 106.885 307.288ZM125.615 309.48C123.929 309.48 122.468 309.107 121.231 308.36C120.004 307.613 119.049 306.563 118.367 305.208C117.684 303.853 117.343 302.264 117.343 300.44C117.343 298.552 117.679 296.92 118.351 295.544C119.023 294.168 119.967 293.107 121.183 292.36C122.409 291.613 123.855 291.24 125.519 291.24C127.225 291.24 128.681 291.635 129.887 292.424C131.092 293.203 132.004 294.323 132.623 295.784C133.241 297.245 133.524 298.989 133.471 301.016H131.071V300.184C131.028 297.944 130.543 296.253 129.615 295.112C128.697 293.971 127.353 293.4 125.583 293.4C123.727 293.4 122.303 294.003 121.311 295.208C120.329 296.413 119.839 298.131 119.839 300.36C119.839 302.536 120.329 304.227 121.311 305.432C122.303 306.627 123.705 307.224 125.519 307.224C126.756 307.224 127.833 306.941 128.751 306.376C129.679 305.8 130.409 304.973 130.943 303.896L133.135 304.744C132.452 306.248 131.444 307.416 130.111 308.248C128.788 309.069 127.289 309.48 125.615 309.48ZM119.007 301.016V299.048H132.207V301.016H119.007ZM136.537 309V291.72H138.633L145.369 305.864L152.121 291.72H154.201V309H151.929V296.744L146.121 309H144.633L138.825 296.744V309H136.537ZM165.99 309.48C164.304 309.48 162.843 309.107 161.606 308.36C160.379 307.613 159.424 306.563 158.742 305.208C158.059 303.853 157.718 302.264 157.718 300.44C157.718 298.552 158.054 296.92 158.726 295.544C159.398 294.168 160.342 293.107 161.558 292.36C162.784 291.613 164.23 291.24 165.894 291.24C167.6 291.24 169.056 291.635 170.262 292.424C171.467 293.203 172.379 294.323 172.998 295.784C173.616 297.245 173.899 298.989 173.846 301.016H171.446V300.184C171.403 297.944 170.918 296.253 169.99 295.112C169.072 293.971 167.728 293.4 165.958 293.4C164.102 293.4 162.678 294.003 161.686 295.208C160.704 296.413 160.214 298.131 160.214 300.36C160.214 302.536 160.704 304.227 161.686 305.432C162.678 306.627 164.08 307.224 165.894 307.224C167.131 307.224 168.208 306.941 169.126 306.376C170.054 305.8 170.784 304.973 171.318 303.896L173.51 304.744C172.827 306.248 171.819 307.416 170.486 308.248C169.163 309.069 167.664 309.48 165.99 309.48ZM159.382 301.016V299.048H172.582V301.016H159.382ZM177.38 309V291.72H179.732V299.224H189.476V291.72H191.828V309H189.476V301.48H179.732V309H177.38ZM202.709 309V285.96H205.061V296.84L215.573 285.96H218.581L207.845 297.08L219.461 309H216.389L205.061 297.48V309H202.709ZM226.653 309.48C225.351 309.48 224.258 309.245 223.373 308.776C222.498 308.307 221.842 307.683 221.405 306.904C220.967 306.125 220.749 305.277 220.749 304.36C220.749 303.421 220.935 302.621 221.309 301.96C221.693 301.288 222.21 300.739 222.861 300.312C223.522 299.885 224.285 299.56 225.149 299.336C226.023 299.123 226.989 298.936 228.045 298.776C229.111 298.605 230.151 298.461 231.165 298.344C232.189 298.216 233.085 298.093 233.853 297.976L233.021 298.488C233.053 296.781 232.722 295.517 232.029 294.696C231.335 293.875 230.13 293.464 228.413 293.464C227.229 293.464 226.226 293.731 225.405 294.264C224.594 294.797 224.023 295.64 223.693 296.792L221.405 296.12C221.799 294.573 222.594 293.373 223.789 292.52C224.983 291.667 226.535 291.24 228.445 291.24C230.023 291.24 231.362 291.539 232.461 292.136C233.57 292.723 234.354 293.576 234.813 294.696C235.026 295.197 235.165 295.757 235.229 296.376C235.293 296.995 235.325 297.624 235.325 298.264V309H233.229V304.664L233.837 304.92C233.25 306.403 232.338 307.533 231.101 308.312C229.863 309.091 228.381 309.48 226.653 309.48ZM226.925 307.448C228.023 307.448 228.983 307.251 229.805 306.856C230.626 306.461 231.287 305.923 231.789 305.24C232.29 304.547 232.615 303.768 232.765 302.904C232.893 302.349 232.962 301.741 232.973 301.08C232.983 300.408 232.989 299.907 232.989 299.576L233.885 300.04C233.085 300.147 232.215 300.253 231.277 300.36C230.349 300.467 229.431 300.589 228.525 300.728C227.629 300.867 226.818 301.032 226.093 301.224C225.602 301.363 225.127 301.56 224.669 301.816C224.21 302.061 223.831 302.392 223.533 302.808C223.245 303.224 223.101 303.741 223.101 304.36C223.101 304.861 223.223 305.347 223.469 305.816C223.725 306.285 224.13 306.675 224.685 306.984C225.25 307.293 225.997 307.448 226.925 307.448ZM239.474 309V291.72H246.594C246.957 291.72 247.394 291.741 247.906 291.784C248.429 291.827 248.914 291.907 249.362 292.024C250.333 292.28 251.111 292.803 251.698 293.592C252.295 294.381 252.594 295.331 252.594 296.44C252.594 297.059 252.498 297.613 252.306 298.104C252.125 298.584 251.863 299 251.522 299.352C251.362 299.533 251.186 299.693 250.994 299.832C250.802 299.96 250.615 300.067 250.434 300.152C250.775 300.216 251.143 300.365 251.538 300.6C252.157 300.963 252.626 301.453 252.946 302.072C253.266 302.68 253.426 303.421 253.426 304.296C253.426 305.48 253.143 306.445 252.578 307.192C252.013 307.939 251.255 308.451 250.306 308.728C249.879 308.845 249.415 308.92 248.914 308.952C248.423 308.984 247.959 309 247.522 309H239.474ZM241.842 307H247.41C247.634 307 247.917 306.984 248.258 306.952C248.599 306.909 248.903 306.856 249.17 306.792C249.799 306.632 250.258 306.312 250.546 305.832C250.845 305.341 250.994 304.808 250.994 304.232C250.994 303.475 250.77 302.856 250.322 302.376C249.885 301.885 249.298 301.587 248.562 301.48C248.317 301.427 248.061 301.395 247.794 301.384C247.527 301.373 247.287 301.368 247.074 301.368H241.842V307ZM241.842 299.352H246.674C246.951 299.352 247.261 299.336 247.602 299.304C247.954 299.261 248.258 299.192 248.514 299.096C249.069 298.904 249.474 298.573 249.73 298.104C249.997 297.635 250.13 297.123 250.13 296.568C250.13 295.96 249.986 295.427 249.698 294.968C249.421 294.509 248.999 294.189 248.434 294.008C248.05 293.869 247.634 293.789 247.186 293.768C246.749 293.747 246.471 293.736 246.354 293.736H241.842V299.352ZM256.599 309L256.615 291.72H258.983V300.04L266.695 291.72H269.831L261.735 300.36L270.887 309H267.463L258.983 300.68V309H256.599ZM277.434 309.48C276.133 309.48 275.039 309.245 274.154 308.776C273.279 308.307 272.623 307.683 272.186 306.904C271.749 306.125 271.53 305.277 271.53 304.36C271.53 303.421 271.717 302.621 272.09 301.96C272.474 301.288 272.991 300.739 273.642 300.312C274.303 299.885 275.066 299.56 275.93 299.336C276.805 299.123 277.77 298.936 278.826 298.776C279.893 298.605 280.933 298.461 281.946 298.344C282.97 298.216 283.866 298.093 284.634 297.976L283.802 298.488C283.834 296.781 283.503 295.517 282.81 294.696C282.117 293.875 280.911 293.464 279.194 293.464C278.01 293.464 277.007 293.731 276.186 294.264C275.375 294.797 274.805 295.64 274.474 296.792L272.186 296.12C272.581 294.573 273.375 293.373 274.57 292.52C275.765 291.667 277.317 291.24 279.226 291.24C280.805 291.24 282.143 291.539 283.242 292.136C284.351 292.723 285.135 293.576 285.594 294.696C285.807 295.197 285.946 295.757 286.01 296.376C286.074 296.995 286.106 297.624 286.106 298.264V309H284.01V304.664L284.618 304.92C284.031 306.403 283.119 307.533 281.882 308.312C280.645 309.091 279.162 309.48 277.434 309.48ZM277.706 307.448C278.805 307.448 279.765 307.251 280.586 306.856C281.407 306.461 282.069 305.923 282.57 305.24C283.071 304.547 283.397 303.768 283.546 302.904C283.674 302.349 283.743 301.741 283.754 301.08C283.765 300.408 283.77 299.907 283.77 299.576L284.666 300.04C283.866 300.147 282.997 300.253 282.058 300.36C281.13 300.467 280.213 300.589 279.306 300.728C278.41 300.867 277.599 301.032 276.874 301.224C276.383 301.363 275.909 301.56 275.45 301.816C274.991 302.061 274.613 302.392 274.314 302.808C274.026 303.224 273.882 303.741 273.882 304.36C273.882 304.861 274.005 305.347 274.25 305.816C274.506 306.285 274.911 306.675 275.466 306.984C276.031 307.293 276.778 307.448 277.706 307.448ZM296.495 309.48C294.757 309.48 293.237 309.101 291.935 308.344C290.645 307.576 289.626 306.515 288.879 305.16L290.767 303.96C291.397 305.027 292.181 305.837 293.119 306.392C294.058 306.947 295.135 307.224 296.351 307.224C297.621 307.224 298.639 306.931 299.407 306.344C300.175 305.757 300.559 304.952 300.559 303.928C300.559 303.224 300.394 302.664 300.063 302.248C299.743 301.832 299.253 301.533 298.591 301.352C297.941 301.171 297.125 301.08 296.143 301.08H294.095V299.064H296.111C297.306 299.064 298.266 298.851 298.991 298.424C299.727 297.987 300.095 297.304 300.095 296.376C300.095 295.395 299.727 294.669 298.991 294.2C298.266 293.72 297.397 293.48 296.383 293.48C295.359 293.48 294.389 293.693 293.471 294.12C292.565 294.536 291.802 295.075 291.183 295.736L289.679 294.152C290.543 293.203 291.551 292.483 292.703 291.992C293.866 291.491 295.151 291.24 296.559 291.24C297.669 291.24 298.671 291.437 299.567 291.832C300.474 292.216 301.189 292.781 301.711 293.528C302.245 294.275 302.511 295.171 302.511 296.216C302.511 297.197 302.271 298.045 301.791 298.76C301.322 299.475 300.655 300.067 299.791 300.536L299.663 299.656C300.41 299.795 301.029 300.093 301.519 300.552C302.01 301.011 302.373 301.56 302.607 302.2C302.842 302.84 302.959 303.491 302.959 304.152C302.959 305.251 302.671 306.2 302.095 307C301.53 307.789 300.757 308.403 299.775 308.84C298.805 309.267 297.711 309.48 296.495 309.48ZM313.658 309.48C311.919 309.48 310.447 309.091 309.242 308.312C308.037 307.533 307.119 306.461 306.49 305.096C305.871 303.72 305.551 302.141 305.53 300.36C305.551 298.547 305.882 296.957 306.522 295.592C307.162 294.216 308.085 293.149 309.29 292.392C310.495 291.624 311.957 291.24 313.674 291.24C315.423 291.24 316.943 291.667 318.234 292.52C319.535 293.373 320.426 294.541 320.906 296.024L318.602 296.76C318.197 295.725 317.551 294.925 316.666 294.36C315.791 293.784 314.789 293.496 313.658 293.496C312.389 293.496 311.338 293.789 310.506 294.376C309.674 294.952 309.055 295.757 308.65 296.792C308.245 297.827 308.037 299.016 308.026 300.36C308.047 302.429 308.527 304.093 309.466 305.352C310.405 306.6 311.802 307.224 313.658 307.224C314.831 307.224 315.829 306.957 316.65 306.424C317.482 305.88 318.111 305.091 318.538 304.056L320.906 304.76C320.266 306.296 319.327 307.469 318.09 308.28C316.853 309.08 315.375 309.48 313.658 309.48ZM324.193 309L324.209 291.72H326.577V300.04L334.289 291.72H337.425L329.329 300.36L338.481 309H335.057L326.577 300.68V309H324.193ZM346.987 309.48C345.27 309.48 343.803 309.091 342.587 308.312C341.371 307.533 340.438 306.456 339.787 305.08C339.137 303.704 338.811 302.125 338.811 300.344C338.811 298.531 339.142 296.941 339.803 295.576C340.465 294.211 341.403 293.149 342.619 292.392C343.846 291.624 345.302 291.24 346.987 291.24C348.715 291.24 350.187 291.629 351.403 292.408C352.63 293.176 353.563 294.248 354.203 295.624C354.854 296.989 355.179 298.563 355.179 300.344C355.179 302.157 354.854 303.752 354.203 305.128C353.553 306.493 352.614 307.56 351.387 308.328C350.161 309.096 348.694 309.48 346.987 309.48ZM346.987 307.224C348.907 307.224 350.337 306.589 351.275 305.32C352.214 304.04 352.683 302.381 352.683 300.344C352.683 298.253 352.209 296.589 351.259 295.352C350.321 294.115 348.897 293.496 346.987 293.496C345.697 293.496 344.63 293.789 343.787 294.376C342.955 294.952 342.331 295.757 341.915 296.792C341.51 297.816 341.307 299 341.307 300.344C341.307 302.424 341.787 304.093 342.747 305.352C343.707 306.6 345.121 307.224 346.987 307.224ZM365.877 289.672C365.119 289.672 364.426 289.485 363.797 289.112C363.167 288.739 362.666 288.243 362.293 287.624C361.93 286.995 361.749 286.301 361.749 285.544H363.701C363.701 286.141 363.914 286.653 364.341 287.08C364.767 287.507 365.279 287.72 365.877 287.72C366.485 287.72 366.997 287.507 367.413 287.08C367.839 286.653 368.053 286.141 368.053 285.544H370.005C370.005 286.301 369.818 286.995 369.445 287.624C369.082 288.243 368.586 288.739 367.957 289.112C367.327 289.485 366.634 289.672 365.877 289.672ZM372.437 291.72V309H370.149V295.544L360.677 309H358.693V291.72H360.981V305.064L370.469 291.72H372.437ZM383.318 309V291.72H390.438C390.8 291.72 391.238 291.741 391.75 291.784C392.272 291.827 392.758 291.907 393.206 292.024C394.176 292.28 394.955 292.803 395.542 293.592C396.139 294.381 396.438 295.331 396.438 296.44C396.438 297.059 396.342 297.613 396.15 298.104C395.968 298.584 395.707 299 395.366 299.352C395.206 299.533 395.03 299.693 394.838 299.832C394.646 299.96 394.459 300.067 394.278 300.152C394.619 300.216 394.987 300.365 395.382 300.6C396 300.963 396.47 301.453 396.79 302.072C397.11 302.68 397.27 303.421 397.27 304.296C397.27 305.48 396.987 306.445 396.422 307.192C395.856 307.939 395.099 308.451 394.15 308.728C393.723 308.845 393.259 308.92 392.758 308.952C392.267 308.984 391.803 309 391.366 309H383.318ZM385.686 307H391.254C391.478 307 391.76 306.984 392.102 306.952C392.443 306.909 392.747 306.856 393.014 306.792C393.643 306.632 394.102 306.312 394.39 305.832C394.688 305.341 394.838 304.808 394.838 304.232C394.838 303.475 394.614 302.856 394.166 302.376C393.728 301.885 393.142 301.587 392.406 301.48C392.16 301.427 391.904 301.395 391.638 301.384C391.371 301.373 391.131 301.368 390.918 301.368H385.686V307ZM385.686 299.352H390.518C390.795 299.352 391.104 299.336 391.446 299.304C391.798 299.261 392.102 299.192 392.358 299.096C392.912 298.904 393.318 298.573 393.574 298.104C393.84 297.635 393.974 297.123 393.974 296.568C393.974 295.96 393.83 295.427 393.542 294.968C393.264 294.509 392.843 294.189 392.278 294.008C391.894 293.869 391.478 293.789 391.03 293.768C390.592 293.747 390.315 293.736 390.198 293.736H385.686V299.352ZM407.675 309.48C405.957 309.48 404.491 309.091 403.275 308.312C402.059 307.533 401.125 306.456 400.475 305.08C399.824 303.704 399.499 302.125 399.499 300.344C399.499 298.531 399.829 296.941 400.491 295.576C401.152 294.211 402.091 293.149 403.307 292.392C404.533 291.624 405.989 291.24 407.675 291.24C409.403 291.24 410.875 291.629 412.091 292.408C413.317 293.176 414.251 294.248 414.891 295.624C415.541 296.989 415.867 298.563 415.867 300.344C415.867 302.157 415.541 303.752 414.891 305.128C414.24 306.493 413.301 307.56 412.075 308.328C410.848 309.096 409.381 309.48 407.675 309.48ZM407.675 307.224C409.595 307.224 411.024 306.589 411.963 305.32C412.901 304.04 413.371 302.381 413.371 300.344C413.371 298.253 412.896 296.589 411.947 295.352C411.008 294.115 409.584 293.496 407.675 293.496C406.384 293.496 405.317 293.789 404.475 294.376C403.643 294.952 403.019 295.757 402.603 296.792C402.197 297.816 401.995 299 401.995 300.344C401.995 302.424 402.475 304.093 403.435 305.352C404.395 306.6 405.808 307.224 407.675 307.224ZM426.564 289.672C425.807 289.672 425.114 289.485 424.484 289.112C423.855 288.739 423.354 288.243 422.98 287.624C422.618 286.995 422.436 286.301 422.436 285.544H424.388C424.388 286.141 424.602 286.653 425.028 287.08C425.455 287.507 425.967 287.72 426.564 287.72C427.172 287.72 427.684 287.507 428.1 287.08C428.527 286.653 428.74 286.141 428.74 285.544H430.692C430.692 286.301 430.506 286.995 430.132 287.624C429.77 288.243 429.274 288.739 428.644 289.112C428.015 289.485 427.322 289.672 426.564 289.672ZM433.124 291.72V309H430.836V295.544L421.364 309H419.38V291.72H421.668V305.064L431.156 291.72H433.124ZM437.599 309V291.72H439.951V299.224H449.695V291.72H452.047V309H449.695V301.48H439.951V309H437.599ZM456.537 309L456.505 291.72H458.873V298.232H461.881C462.383 298.232 462.873 298.243 463.353 298.264C463.833 298.285 464.265 298.328 464.649 298.392C465.503 298.563 466.26 298.851 466.921 299.256C467.583 299.661 468.105 300.221 468.489 300.936C468.873 301.64 469.065 302.531 469.065 303.608C469.065 305.091 468.681 306.259 467.913 307.112C467.145 307.965 466.18 308.52 465.017 308.776C464.58 308.872 464.105 308.936 463.593 308.968C463.081 308.989 462.58 309 462.089 309H456.537ZM458.873 306.984H461.993C462.345 306.984 462.745 306.973 463.193 306.952C463.641 306.931 464.036 306.872 464.377 306.776C464.953 306.616 465.471 306.296 465.929 305.816C466.399 305.325 466.633 304.589 466.633 303.608C466.633 302.637 466.409 301.907 465.961 301.416C465.513 300.915 464.916 300.584 464.169 300.424C463.828 300.349 463.465 300.301 463.081 300.28C462.708 300.259 462.345 300.248 461.993 300.248H458.873V306.984ZM471.129 309V291.72H473.481V309H471.129ZM477.639 312.344L477.783 311.176C478.209 311.208 478.519 311.123 478.711 310.92C478.903 310.717 479.02 310.445 479.063 310.104C479.105 309.763 479.116 309.395 479.095 309H477.639V305.624H480.375V309.64C480.375 310.621 480.124 311.357 479.623 311.848C479.132 312.339 478.471 312.504 477.639 312.344ZM492.849 309V291.72H506.593V309H504.241V293.976H495.201V309H492.849ZM518.844 309.48C517.254 309.48 515.91 309.08 514.812 308.28C513.713 307.469 512.881 306.376 512.316 305C511.75 303.613 511.468 302.061 511.468 300.344C511.468 298.595 511.75 297.037 512.316 295.672C512.892 294.296 513.734 293.213 514.844 292.424C515.953 291.635 517.318 291.24 518.94 291.24C520.518 291.24 521.873 291.64 523.004 292.44C524.134 293.24 524.998 294.328 525.596 295.704C526.204 297.08 526.508 298.627 526.508 300.344C526.508 302.072 526.204 303.624 525.596 305C524.988 306.376 524.113 307.469 522.972 308.28C521.83 309.08 520.454 309.48 518.844 309.48ZM511.068 316.68V291.72H513.18V304.728H513.436V316.68H511.068ZM518.604 307.288C519.809 307.288 520.812 306.984 521.612 306.376C522.412 305.768 523.009 304.941 523.404 303.896C523.809 302.84 524.012 301.656 524.012 300.344C524.012 299.043 523.814 297.869 523.42 296.824C523.025 295.779 522.422 294.952 521.612 294.344C520.812 293.736 519.793 293.432 518.556 293.432C517.35 293.432 516.348 293.725 515.548 294.312C514.758 294.899 514.166 295.715 513.772 296.76C513.377 297.795 513.18 298.989 513.18 300.344C513.18 301.677 513.377 302.872 513.772 303.928C514.166 304.973 514.764 305.795 515.564 306.392C516.364 306.989 517.377 307.288 518.604 307.288ZM537.237 309.48C535.52 309.48 534.053 309.091 532.837 308.312C531.621 307.533 530.688 306.456 530.037 305.08C529.387 303.704 529.061 302.125 529.061 300.344C529.061 298.531 529.392 296.941 530.053 295.576C530.715 294.211 531.653 293.149 532.869 292.392C534.096 291.624 535.552 291.24 537.237 291.24C538.965 291.24 540.437 291.629 541.653 292.408C542.88 293.176 543.813 294.248 544.453 295.624C545.104 296.989 545.429 298.563 545.429 300.344C545.429 302.157 545.104 303.752 544.453 305.128C543.803 306.493 542.864 307.56 541.637 308.328C540.411 309.096 538.944 309.48 537.237 309.48ZM537.237 307.224C539.157 307.224 540.587 306.589 541.525 305.32C542.464 304.04 542.933 302.381 542.933 300.344C542.933 298.253 542.459 296.589 541.509 295.352C540.571 294.115 539.147 293.496 537.237 293.496C535.947 293.496 534.88 293.789 534.037 294.376C533.205 294.952 532.581 295.757 532.165 296.792C531.76 297.816 531.557 299 531.557 300.344C531.557 302.424 532.037 304.093 532.997 305.352C533.957 306.6 535.371 307.224 537.237 307.224ZM553.241 309V293.896H547.113V291.72H561.721V293.896H555.593V309H553.241ZM571.675 309.48C569.957 309.48 568.491 309.091 567.275 308.312C566.059 307.533 565.125 306.456 564.475 305.08C563.824 303.704 563.499 302.125 563.499 300.344C563.499 298.531 563.829 296.941 564.491 295.576C565.152 294.211 566.091 293.149 567.307 292.392C568.533 291.624 569.989 291.24 571.675 291.24C573.403 291.24 574.875 291.629 576.091 292.408C577.317 293.176 578.251 294.248 578.891 295.624C579.541 296.989 579.867 298.563 579.867 300.344C579.867 302.157 579.541 303.752 578.891 305.128C578.24 306.493 577.301 307.56 576.075 308.328C574.848 309.096 573.381 309.48 571.675 309.48ZM571.675 307.224C573.595 307.224 575.024 306.589 575.963 305.32C576.901 304.04 577.371 302.381 577.371 300.344C577.371 298.253 576.896 296.589 575.947 295.352C575.008 294.115 573.584 293.496 571.675 293.496C570.384 293.496 569.317 293.789 568.475 294.376C567.643 294.952 567.019 295.757 566.603 296.792C566.197 297.816 565.995 299 565.995 300.344C565.995 302.424 566.475 304.093 567.435 305.352C568.395 306.6 569.808 307.224 571.675 307.224ZM587.678 309V293.896H581.55V291.72H596.158V293.896H590.03V309H587.678ZM612.937 291.72V309H610.649V295.544L601.177 309H599.193V291.72H601.481V305.064L610.969 291.72H612.937ZM617.412 309V291.72H631.156V309H628.804V293.976H619.764V309H617.412ZM80.64 360V357.904C81.2267 357.957 81.712 357.936 82.096 357.84C82.48 357.733 82.7893 357.499 83.024 357.136C83.2693 356.773 83.4827 356.235 83.664 355.52C83.8453 354.795 84.0267 353.851 84.208 352.688C84.4107 351.429 84.5813 350.176 84.72 348.928C84.8693 347.68 84.9973 346.416 85.104 345.136C85.2213 343.845 85.3173 342.523 85.392 341.168C85.4667 339.813 85.536 338.411 85.6 336.96H100.144V360H97.792V339.216H87.872C87.7973 340.315 87.7227 341.44 87.648 342.592C87.584 343.744 87.4987 344.923 87.392 346.128C87.296 347.333 87.1733 348.576 87.024 349.856C86.8853 351.125 86.7093 352.437 86.496 353.792C86.3253 354.816 86.1227 355.765 85.888 356.64C85.664 357.515 85.344 358.251 84.928 358.848C84.5227 359.445 83.9733 359.856 83.28 360.08C82.5973 360.304 81.7173 360.277 80.64 360ZM111.927 360.48C110.242 360.48 108.78 360.107 107.543 359.36C106.316 358.613 105.362 357.563 104.679 356.208C103.996 354.853 103.655 353.264 103.655 351.44C103.655 349.552 103.991 347.92 104.663 346.544C105.335 345.168 106.279 344.107 107.495 343.36C108.722 342.613 110.167 342.24 111.831 342.24C113.538 342.24 114.994 342.635 116.199 343.424C117.404 344.203 118.316 345.323 118.935 346.784C119.554 348.245 119.836 349.989 119.783 352.016H117.383V351.184C117.34 348.944 116.855 347.253 115.927 346.112C115.01 344.971 113.666 344.4 111.895 344.4C110.039 344.4 108.615 345.003 107.623 346.208C106.642 347.413 106.151 349.131 106.151 351.36C106.151 353.536 106.642 355.227 107.623 356.432C108.615 357.627 110.018 358.224 111.831 358.224C113.068 358.224 114.146 357.941 115.063 357.376C115.991 356.8 116.722 355.973 117.255 354.896L119.447 355.744C118.764 357.248 117.756 358.416 116.423 359.248C115.1 360.069 113.602 360.48 111.927 360.48ZM105.319 352.016V350.048H118.519V352.016H105.319ZM131.094 360.48C129.504 360.48 128.16 360.08 127.062 359.28C125.963 358.469 125.131 357.376 124.566 356C124 354.613 123.718 353.061 123.718 351.344C123.718 349.595 124 348.037 124.566 346.672C125.142 345.296 125.984 344.213 127.094 343.424C128.203 342.635 129.568 342.24 131.19 342.24C132.768 342.24 134.123 342.64 135.254 343.44C136.384 344.24 137.248 345.328 137.846 346.704C138.454 348.08 138.758 349.627 138.758 351.344C138.758 353.072 138.454 354.624 137.846 356C137.238 357.376 136.363 358.469 135.222 359.28C134.08 360.08 132.704 360.48 131.094 360.48ZM123.318 367.68V342.72H125.43V355.728H125.686V367.68H123.318ZM130.854 358.288C132.059 358.288 133.062 357.984 133.862 357.376C134.662 356.768 135.259 355.941 135.654 354.896C136.059 353.84 136.262 352.656 136.262 351.344C136.262 350.043 136.064 348.869 135.67 347.824C135.275 346.779 134.672 345.952 133.862 345.344C133.062 344.736 132.043 344.432 130.806 344.432C129.6 344.432 128.598 344.725 127.798 345.312C127.008 345.899 126.416 346.715 126.022 347.76C125.627 348.795 125.43 349.989 125.43 351.344C125.43 352.677 125.627 353.872 126.022 354.928C126.416 355.973 127.014 356.795 127.814 357.392C128.614 357.989 129.627 358.288 130.854 358.288ZM142.255 360V342.72H144.351L151.087 356.864L157.839 342.72H159.919V360H157.647V347.744L151.839 360H150.351L144.543 347.744V360H142.255ZM171.612 360.48C169.895 360.48 168.428 360.091 167.212 359.312C165.996 358.533 165.063 357.456 164.412 356.08C163.762 354.704 163.436 353.125 163.436 351.344C163.436 349.531 163.767 347.941 164.428 346.576C165.09 345.211 166.028 344.149 167.244 343.392C168.471 342.624 169.927 342.24 171.612 342.24C173.34 342.24 174.812 342.629 176.028 343.408C177.255 344.176 178.188 345.248 178.828 346.624C179.479 347.989 179.804 349.563 179.804 351.344C179.804 353.157 179.479 354.752 178.828 356.128C178.178 357.493 177.239 358.56 176.012 359.328C174.786 360.096 173.319 360.48 171.612 360.48ZM171.612 358.224C173.532 358.224 174.962 357.589 175.9 356.32C176.839 355.04 177.308 353.381 177.308 351.344C177.308 349.253 176.834 347.589 175.884 346.352C174.946 345.115 173.522 344.496 171.612 344.496C170.322 344.496 169.255 344.789 168.412 345.376C167.58 345.952 166.956 346.757 166.54 347.792C166.135 348.816 165.932 350 165.932 351.344C165.932 353.424 166.412 355.093 167.372 356.352C168.332 357.6 169.746 358.224 171.612 358.224ZM183.318 360V342.72H185.67V350.224H195.414V342.72H197.766V360H195.414V352.48H185.67V360H183.318ZM206.928 360V344.896H200.8V342.72H215.408V344.896H209.28V360H206.928ZM225.362 360.48C223.645 360.48 222.178 360.091 220.962 359.312C219.746 358.533 218.813 357.456 218.162 356.08C217.512 354.704 217.186 353.125 217.186 351.344C217.186 349.531 217.517 347.941 218.178 346.576C218.84 345.211 219.778 344.149 220.994 343.392C222.221 342.624 223.677 342.24 225.362 342.24C227.09 342.24 228.562 342.629 229.778 343.408C231.005 344.176 231.938 345.248 232.578 346.624C233.229 347.989 233.554 349.563 233.554 351.344C233.554 353.157 233.229 354.752 232.578 356.128C231.928 357.493 230.989 358.56 229.762 359.328C228.536 360.096 227.069 360.48 225.362 360.48ZM225.362 358.224C227.282 358.224 228.712 357.589 229.65 356.32C230.589 355.04 231.058 353.381 231.058 351.344C231.058 349.253 230.584 347.589 229.634 346.352C228.696 345.115 227.272 344.496 225.362 344.496C224.072 344.496 223.005 344.789 222.162 345.376C221.33 345.952 220.706 346.757 220.29 347.792C219.885 348.816 219.682 350 219.682 351.344C219.682 353.424 220.162 355.093 221.122 356.352C222.082 357.6 223.496 358.224 225.362 358.224ZM237.068 360V342.72H244.188C244.55 342.72 244.988 342.741 245.5 342.784C246.022 342.827 246.508 342.907 246.956 343.024C247.926 343.28 248.705 343.803 249.292 344.592C249.889 345.381 250.188 346.331 250.188 347.44C250.188 348.059 250.092 348.613 249.9 349.104C249.718 349.584 249.457 350 249.116 350.352C248.956 350.533 248.78 350.693 248.588 350.832C248.396 350.96 248.209 351.067 248.028 351.152C248.369 351.216 248.737 351.365 249.132 351.6C249.75 351.963 250.22 352.453 250.54 353.072C250.86 353.68 251.02 354.421 251.02 355.296C251.02 356.48 250.737 357.445 250.172 358.192C249.606 358.939 248.849 359.451 247.9 359.728C247.473 359.845 247.009 359.92 246.508 359.952C246.017 359.984 245.553 360 245.116 360H237.068ZM239.436 358H245.004C245.228 358 245.51 357.984 245.852 357.952C246.193 357.909 246.497 357.856 246.764 357.792C247.393 357.632 247.852 357.312 248.14 356.832C248.438 356.341 248.588 355.808 248.588 355.232C248.588 354.475 248.364 353.856 247.916 353.376C247.478 352.885 246.892 352.587 246.156 352.48C245.91 352.427 245.654 352.395 245.388 352.384C245.121 352.373 244.881 352.368 244.668 352.368H239.436V358ZM239.436 350.352H244.268C244.545 350.352 244.854 350.336 245.196 350.304C245.548 350.261 245.852 350.192 246.108 350.096C246.662 349.904 247.068 349.573 247.324 349.104C247.59 348.635 247.724 348.123 247.724 347.568C247.724 346.96 247.58 346.427 247.292 345.968C247.014 345.509 246.593 345.189 246.028 345.008C245.644 344.869 245.228 344.789 244.78 344.768C244.342 344.747 244.065 344.736 243.948 344.736H239.436V350.352ZM261.377 360.48C259.638 360.48 258.166 360.091 256.961 359.312C255.755 358.533 254.838 357.461 254.209 356.096C253.59 354.72 253.27 353.141 253.249 351.36C253.27 349.547 253.601 347.957 254.241 346.592C254.881 345.216 255.803 344.149 257.009 343.392C258.214 342.624 259.675 342.24 261.393 342.24C263.142 342.24 264.662 342.667 265.953 343.52C267.254 344.373 268.145 345.541 268.625 347.024L266.321 347.76C265.915 346.725 265.27 345.925 264.385 345.36C263.51 344.784 262.507 344.496 261.377 344.496C260.107 344.496 259.057 344.789 258.225 345.376C257.393 345.952 256.774 346.757 256.369 347.792C255.963 348.827 255.755 350.016 255.745 351.36C255.766 353.429 256.246 355.093 257.185 356.352C258.123 357.6 259.521 358.224 261.377 358.224C262.55 358.224 263.547 357.957 264.369 357.424C265.201 356.88 265.83 356.091 266.257 355.056L268.625 355.76C267.985 357.296 267.046 358.469 265.809 359.28C264.571 360.08 263.094 360.48 261.377 360.48ZM271.912 360L271.928 342.72H274.296V351.04L282.008 342.72H285.144L277.048 351.36L286.2 360H282.776L274.296 351.68V360H271.912ZM294.706 360.48C292.989 360.48 291.522 360.091 290.306 359.312C289.09 358.533 288.157 357.456 287.506 356.08C286.855 354.704 286.53 353.125 286.53 351.344C286.53 349.531 286.861 347.941 287.522 346.576C288.183 345.211 289.122 344.149 290.338 343.392C291.565 342.624 293.021 342.24 294.706 342.24C296.434 342.24 297.906 342.629 299.122 343.408C300.349 344.176 301.282 345.248 301.922 346.624C302.573 347.989 302.898 349.563 302.898 351.344C302.898 353.157 302.573 354.752 301.922 356.128C301.271 357.493 300.333 358.56 299.106 359.328C297.879 360.096 296.413 360.48 294.706 360.48ZM294.706 358.224C296.626 358.224 298.055 357.589 298.994 356.32C299.933 355.04 300.402 353.381 300.402 351.344C300.402 349.253 299.927 347.589 298.978 346.352C298.039 345.115 296.615 344.496 294.706 344.496C293.415 344.496 292.349 344.789 291.506 345.376C290.674 345.952 290.05 346.757 289.634 347.792C289.229 348.816 289.026 350 289.026 351.344C289.026 353.424 289.506 355.093 290.466 356.352C291.426 357.6 292.839 358.224 294.706 358.224ZM306.428 360V342.72H318.268V344.976H308.78V360H306.428ZM328.206 360.48C326.489 360.48 325.022 360.091 323.806 359.312C322.59 358.533 321.657 357.456 321.006 356.08C320.355 354.704 320.03 353.125 320.03 351.344C320.03 349.531 320.361 347.941 321.022 346.576C321.683 345.211 322.622 344.149 323.838 343.392C325.065 342.624 326.521 342.24 328.206 342.24C329.934 342.24 331.406 342.629 332.622 343.408C333.849 344.176 334.782 345.248 335.422 346.624C336.073 347.989 336.398 349.563 336.398 351.344C336.398 353.157 336.073 354.752 335.422 356.128C334.771 357.493 333.833 358.56 332.606 359.328C331.379 360.096 329.913 360.48 328.206 360.48ZM328.206 358.224C330.126 358.224 331.555 357.589 332.494 356.32C333.433 355.04 333.902 353.381 333.902 351.344C333.902 349.253 333.427 347.589 332.478 346.352C331.539 345.115 330.115 344.496 328.206 344.496C326.915 344.496 325.849 344.789 325.006 345.376C324.174 345.952 323.55 346.757 323.134 347.792C322.729 348.816 322.526 350 322.526 351.344C322.526 353.424 323.006 355.093 323.966 356.352C324.926 357.6 326.339 358.224 328.206 358.224ZM346.334 360V336.96H348.686V347.84L359.198 336.96H362.206L351.47 348.08L363.086 360H360.014L348.686 348.48V360H346.334ZM370.278 360.48C368.976 360.48 367.883 360.245 366.998 359.776C366.123 359.307 365.467 358.683 365.03 357.904C364.592 357.125 364.374 356.277 364.374 355.36C364.374 354.421 364.56 353.621 364.934 352.96C365.318 352.288 365.835 351.739 366.486 351.312C367.147 350.885 367.91 350.56 368.774 350.336C369.648 350.123 370.614 349.936 371.67 349.776C372.736 349.605 373.776 349.461 374.79 349.344C375.814 349.216 376.71 349.093 377.478 348.976L376.646 349.488C376.678 347.781 376.347 346.517 375.654 345.696C374.96 344.875 373.755 344.464 372.038 344.464C370.854 344.464 369.851 344.731 369.03 345.264C368.219 345.797 367.648 346.64 367.318 347.792L365.03 347.12C365.424 345.573 366.219 344.373 367.414 343.52C368.608 342.667 370.16 342.24 372.07 342.24C373.648 342.24 374.987 342.539 376.086 343.136C377.195 343.723 377.979 344.576 378.438 345.696C378.651 346.197 378.79 346.757 378.854 347.376C378.918 347.995 378.95 348.624 378.95 349.264V360H376.854V355.664L377.462 355.92C376.875 357.403 375.963 358.533 374.726 359.312C373.488 360.091 372.006 360.48 370.278 360.48ZM370.55 358.448C371.648 358.448 372.608 358.251 373.43 357.856C374.251 357.461 374.912 356.923 375.414 356.24C375.915 355.547 376.24 354.768 376.39 353.904C376.518 353.349 376.587 352.741 376.598 352.08C376.608 351.408 376.614 350.907 376.614 350.576L377.51 351.04C376.71 351.147 375.84 351.253 374.902 351.36C373.974 351.467 373.056 351.589 372.15 351.728C371.254 351.867 370.443 352.032 369.718 352.224C369.227 352.363 368.752 352.56 368.294 352.816C367.835 353.061 367.456 353.392 367.158 353.808C366.87 354.224 366.726 354.741 366.726 355.36C366.726 355.861 366.848 356.347 367.094 356.816C367.35 357.285 367.755 357.675 368.31 357.984C368.875 358.293 369.622 358.448 370.55 358.448ZM389.339 360.48C387.6 360.48 386.08 360.101 384.779 359.344C383.488 358.576 382.47 357.515 381.723 356.16L383.611 354.96C384.24 356.027 385.024 356.837 385.963 357.392C386.902 357.947 387.979 358.224 389.195 358.224C390.464 358.224 391.483 357.931 392.251 357.344C393.019 356.757 393.403 355.952 393.403 354.928C393.403 354.224 393.238 353.664 392.907 353.248C392.587 352.832 392.096 352.533 391.435 352.352C390.784 352.171 389.968 352.08 388.987 352.08H386.939V350.064H388.955C390.15 350.064 391.11 349.851 391.835 349.424C392.571 348.987 392.939 348.304 392.939 347.376C392.939 346.395 392.571 345.669 391.835 345.2C391.11 344.72 390.24 344.48 389.227 344.48C388.203 344.48 387.232 344.693 386.315 345.12C385.408 345.536 384.646 346.075 384.027 346.736L382.523 345.152C383.387 344.203 384.395 343.483 385.547 342.992C386.71 342.491 387.995 342.24 389.403 342.24C390.512 342.24 391.515 342.437 392.411 342.832C393.318 343.216 394.032 343.781 394.555 344.528C395.088 345.275 395.355 346.171 395.355 347.216C395.355 348.197 395.115 349.045 394.635 349.76C394.166 350.475 393.499 351.067 392.635 351.536L392.507 350.656C393.254 350.795 393.872 351.093 394.363 351.552C394.854 352.011 395.216 352.56 395.451 353.2C395.686 353.84 395.803 354.491 395.803 355.152C395.803 356.251 395.515 357.2 394.939 358C394.374 358.789 393.6 359.403 392.619 359.84C391.648 360.267 390.555 360.48 389.339 360.48ZM406.262 360.496C404.651 360.485 403.27 360.133 402.118 359.44C400.966 358.747 400.07 357.712 399.43 356.336C398.8 354.96 398.459 353.243 398.406 351.184C398.374 350.277 398.395 349.291 398.47 348.224C398.544 347.147 398.662 346.123 398.822 345.152C398.982 344.181 399.174 343.392 399.398 342.784C399.675 341.995 400.07 341.259 400.582 340.576C401.104 339.883 401.707 339.317 402.39 338.88C403.051 338.432 403.798 338.085 404.63 337.84C405.472 337.584 406.347 337.387 407.254 337.248C408.171 337.109 409.078 336.987 409.974 336.88C410.88 336.773 411.718 336.64 412.486 336.48L412.742 338.608C412.155 338.725 411.462 338.832 410.662 338.928C409.862 339.024 409.024 339.141 408.15 339.28C407.275 339.408 406.438 339.584 405.638 339.808C404.838 340.032 404.155 340.325 403.59 340.688C402.726 341.211 402.059 342 401.59 343.056C401.131 344.112 400.848 345.323 400.742 346.688C401.403 345.653 402.278 344.875 403.366 344.352C404.464 343.829 405.654 343.568 406.934 343.568C408.491 343.568 409.83 343.925 410.95 344.64C412.08 345.355 412.95 346.347 413.558 347.616C414.166 348.885 414.47 350.341 414.47 351.984C414.47 353.701 414.134 355.2 413.462 356.48C412.8 357.76 411.856 358.752 410.63 359.456C409.403 360.149 407.947 360.496 406.262 360.496ZM406.438 358.24C408.251 358.24 409.627 357.675 410.566 356.544C411.515 355.413 411.99 353.909 411.99 352.032C411.99 350.112 411.499 348.597 410.518 347.488C409.547 346.379 408.176 345.824 406.406 345.824C404.635 345.824 403.275 346.379 402.326 347.488C401.376 348.597 400.902 350.112 400.902 352.032C400.902 353.952 401.376 355.467 402.326 356.576C403.275 357.685 404.646 358.24 406.438 358.24ZM425.302 360.48C423.617 360.48 422.155 360.107 420.918 359.36C419.691 358.613 418.737 357.563 418.054 356.208C417.371 354.853 417.03 353.264 417.03 351.44C417.03 349.552 417.366 347.92 418.038 346.544C418.71 345.168 419.654 344.107 420.87 343.36C422.097 342.613 423.542 342.24 425.206 342.24C426.913 342.24 428.369 342.635 429.574 343.424C430.779 344.203 431.691 345.323 432.31 346.784C432.929 348.245 433.211 349.989 433.158 352.016H430.758V351.184C430.715 348.944 430.23 347.253 429.302 346.112C428.385 344.971 427.041 344.4 425.27 344.4C423.414 344.4 421.99 345.003 420.998 346.208C420.017 347.413 419.526 349.131 419.526 351.36C419.526 353.536 420.017 355.227 420.998 356.432C421.99 357.627 423.393 358.224 425.206 358.224C426.443 358.224 427.521 357.941 428.438 357.376C429.366 356.8 430.097 355.973 430.63 354.896L432.822 355.744C432.139 357.248 431.131 358.416 429.798 359.248C428.475 360.069 426.977 360.48 425.302 360.48ZM418.694 352.016V350.048H431.894V352.016H418.694ZM436.693 360L436.709 342.72H439.077V351.04L446.789 342.72H449.925L441.829 351.36L450.981 360H447.557L439.077 351.68V360H436.693ZM457.528 360.48C456.226 360.48 455.133 360.245 454.248 359.776C453.373 359.307 452.717 358.683 452.28 357.904C451.842 357.125 451.624 356.277 451.624 355.36C451.624 354.421 451.81 353.621 452.184 352.96C452.568 352.288 453.085 351.739 453.736 351.312C454.397 350.885 455.16 350.56 456.024 350.336C456.898 350.123 457.864 349.936 458.92 349.776C459.986 349.605 461.026 349.461 462.04 349.344C463.064 349.216 463.96 349.093 464.728 348.976L463.896 349.488C463.928 347.781 463.597 346.517 462.904 345.696C462.21 344.875 461.005 344.464 459.288 344.464C458.104 344.464 457.101 344.731 456.28 345.264C455.469 345.797 454.898 346.64 454.568 347.792L452.28 347.12C452.674 345.573 453.469 344.373 454.664 343.52C455.858 342.667 457.41 342.24 459.32 342.24C460.898 342.24 462.237 342.539 463.336 343.136C464.445 343.723 465.229 344.576 465.688 345.696C465.901 346.197 466.04 346.757 466.104 347.376C466.168 347.995 466.2 348.624 466.2 349.264V360H464.104V355.664L464.712 355.92C464.125 357.403 463.213 358.533 461.976 359.312C460.738 360.091 459.256 360.48 457.528 360.48ZM457.8 358.448C458.898 358.448 459.858 358.251 460.68 357.856C461.501 357.461 462.162 356.923 462.664 356.24C463.165 355.547 463.49 354.768 463.64 353.904C463.768 353.349 463.837 352.741 463.848 352.08C463.858 351.408 463.864 350.907 463.864 350.576L464.76 351.04C463.96 351.147 463.09 351.253 462.152 351.36C461.224 351.467 460.306 351.589 459.4 351.728C458.504 351.867 457.693 352.032 456.968 352.224C456.477 352.363 456.002 352.56 455.544 352.816C455.085 353.061 454.706 353.392 454.408 353.808C454.12 354.224 453.976 354.741 453.976 355.36C453.976 355.861 454.098 356.347 454.344 356.816C454.6 357.285 455.005 357.675 455.56 357.984C456.125 358.293 456.872 358.448 457.8 358.448ZM95.968 393.72V411H93.68V397.544L84.208 411H82.224V393.72H84.512V407.064L94 393.72H95.968ZM106.683 411.48C104.944 411.48 103.424 411.101 102.123 410.344C100.832 409.576 99.8134 408.515 99.0668 407.16L100.955 405.96C101.584 407.027 102.368 407.837 103.307 408.392C104.245 408.947 105.323 409.224 106.539 409.224C107.808 409.224 108.827 408.931 109.595 408.344C110.363 407.757 110.747 406.952 110.747 405.928C110.747 405.224 110.581 404.664 110.251 404.248C109.931 403.832 109.44 403.533 108.779 403.352C108.128 403.171 107.312 403.08 106.331 403.08H104.283V401.064H106.299C107.493 401.064 108.453 400.851 109.179 400.424C109.915 399.987 110.283 399.304 110.283 398.376C110.283 397.395 109.915 396.669 109.179 396.2C108.453 395.72 107.584 395.48 106.571 395.48C105.547 395.48 104.576 395.693 103.659 396.12C102.752 396.536 101.989 397.075 101.371 397.736L99.8668 396.152C100.731 395.203 101.739 394.483 102.891 393.992C104.053 393.491 105.339 393.24 106.747 393.24C107.856 393.24 108.859 393.437 109.755 393.832C110.661 394.216 111.376 394.781 111.899 395.528C112.432 396.275 112.699 397.171 112.699 398.216C112.699 399.197 112.459 400.045 111.979 400.76C111.509 401.475 110.843 402.067 109.979 402.536L109.851 401.656C110.597 401.795 111.216 402.093 111.707 402.552C112.197 403.011 112.56 403.56 112.795 404.2C113.029 404.84 113.147 405.491 113.147 406.152C113.147 407.251 112.859 408.2 112.283 409C111.717 409.789 110.944 410.403 109.963 410.84C108.992 411.267 107.899 411.48 106.683 411.48ZM134.428 409.304L128.892 402.344L134.428 395.4L135.852 396.504L131.196 402.344L135.852 408.2L134.428 409.304ZM128.94 409.304L123.404 402.344L128.94 395.4L130.364 396.504L125.692 402.344L130.364 408.2L128.94 409.304ZM140.209 411V387.96H154.609V390.216H142.561V411H140.209ZM162.24 411.48C160.554 411.48 159.093 411.107 157.856 410.36C156.629 409.613 155.674 408.563 154.992 407.208C154.309 405.853 153.968 404.264 153.968 402.44C153.968 400.552 154.304 398.92 154.976 397.544C155.648 396.168 156.592 395.107 157.808 394.36C159.034 393.613 160.48 393.24 162.144 393.24C163.85 393.24 165.306 393.635 166.512 394.424C167.717 395.203 168.629 396.323 169.248 397.784C169.866 399.245 170.149 400.989 170.096 403.016H167.696V402.184C167.653 399.944 167.168 398.253 166.24 397.112C165.322 395.971 163.978 395.4 162.208 395.4C160.352 395.4 158.928 396.003 157.936 397.208C156.954 398.413 156.464 400.131 156.464 402.36C156.464 404.536 156.954 406.227 157.936 407.432C158.928 408.627 160.33 409.224 162.144 409.224C163.381 409.224 164.458 408.941 165.376 408.376C166.304 407.8 167.034 406.973 167.568 405.896L169.76 406.744C169.077 408.248 168.069 409.416 166.736 410.248C165.413 411.069 163.914 411.48 162.24 411.48ZM155.632 403.016V401.048H168.832V403.016H155.632ZM181.406 411.48C179.817 411.48 178.473 411.08 177.374 410.28C176.276 409.469 175.444 408.376 174.878 407C174.313 405.613 174.03 404.061 174.03 402.344C174.03 400.595 174.313 399.037 174.878 397.672C175.454 396.296 176.297 395.213 177.406 394.424C178.516 393.635 179.881 393.24 181.502 393.24C183.081 393.24 184.436 393.64 185.566 394.44C186.697 395.24 187.561 396.328 188.158 397.704C188.766 399.08 189.07 400.627 189.07 402.344C189.07 404.072 188.766 405.624 188.158 407C187.55 408.376 186.676 409.469 185.534 410.28C184.393 411.08 183.017 411.48 181.406 411.48ZM173.63 418.68V393.72H175.742V406.728H175.998V418.68H173.63ZM181.166 409.288C182.372 409.288 183.374 408.984 184.174 408.376C184.974 407.768 185.572 406.941 185.966 405.896C186.372 404.84 186.574 403.656 186.574 402.344C186.574 401.043 186.377 399.869 185.982 398.824C185.588 397.779 184.985 396.952 184.174 396.344C183.374 395.736 182.356 395.432 181.118 395.432C179.913 395.432 178.91 395.725 178.11 396.312C177.321 396.899 176.729 397.715 176.334 398.76C175.94 399.795 175.742 400.989 175.742 402.344C175.742 403.677 175.94 404.872 176.334 405.928C176.729 406.973 177.326 407.795 178.126 408.392C178.926 408.989 179.94 409.288 181.166 409.288ZM199.8 411.48C198.082 411.48 196.616 411.091 195.4 410.312C194.184 409.533 193.25 408.456 192.6 407.08C191.949 405.704 191.624 404.125 191.624 402.344C191.624 400.531 191.954 398.941 192.616 397.576C193.277 396.211 194.216 395.149 195.432 394.392C196.658 393.624 198.114 393.24 199.8 393.24C201.528 393.24 203 393.629 204.216 394.408C205.442 395.176 206.376 396.248 207.016 397.624C207.666 398.989 207.992 400.563 207.992 402.344C207.992 404.157 207.666 405.752 207.016 407.128C206.365 408.493 205.426 409.56 204.2 410.328C202.973 411.096 201.506 411.48 199.8 411.48ZM199.8 409.224C201.72 409.224 203.149 408.589 204.088 407.32C205.026 406.04 205.496 404.381 205.496 402.344C205.496 400.253 205.021 398.589 204.072 397.352C203.133 396.115 201.709 395.496 199.8 395.496C198.509 395.496 197.442 395.789 196.6 396.376C195.768 396.952 195.144 397.757 194.728 398.792C194.322 399.816 194.12 401 194.12 402.344C194.12 404.424 194.6 406.093 195.56 407.352C196.52 408.6 197.933 409.224 199.8 409.224ZM222.353 411V404.488H218.321C217.852 404.488 217.367 404.472 216.865 404.44C216.375 404.397 215.916 404.339 215.489 404.264C214.273 404.029 213.239 403.496 212.385 402.664C211.543 401.821 211.121 400.659 211.121 399.176C211.121 397.725 211.516 396.563 212.305 395.688C213.095 394.803 214.049 394.227 215.169 393.96C215.681 393.843 216.199 393.773 216.721 393.752C217.255 393.731 217.713 393.72 218.097 393.72H224.705L224.721 411H222.353ZM210.561 411L215.377 403.752H217.985L213.137 411H210.561ZM218.193 402.472H222.353V395.736H218.193C217.937 395.736 217.58 395.747 217.121 395.768C216.663 395.789 216.231 395.859 215.825 395.976C215.473 396.083 215.121 396.269 214.769 396.536C214.428 396.792 214.14 397.139 213.905 397.576C213.671 398.003 213.553 398.525 213.553 399.144C213.553 400.008 213.788 400.701 214.257 401.224C214.737 401.736 215.335 402.088 216.049 402.28C216.433 402.365 216.817 402.419 217.201 402.44C217.585 402.461 217.916 402.472 218.193 402.472ZM235.599 411V393.72H237.951V401.224H247.695V393.72H250.047V411H247.695V403.48H237.951V411H235.599ZM259.465 411.48C258.164 411.48 257.071 411.245 256.185 410.776C255.311 410.307 254.655 409.683 254.217 408.904C253.78 408.125 253.561 407.277 253.561 406.36C253.561 405.421 253.748 404.621 254.121 403.96C254.505 403.288 255.023 402.739 255.673 402.312C256.335 401.885 257.097 401.56 257.961 401.336C258.836 401.123 259.801 400.936 260.857 400.776C261.924 400.605 262.964 400.461 263.977 400.344C265.001 400.216 265.897 400.093 266.665 399.976L265.833 400.488C265.865 398.781 265.535 397.517 264.841 396.696C264.148 395.875 262.943 395.464 261.225 395.464C260.041 395.464 259.039 395.731 258.217 396.264C257.407 396.797 256.836 397.64 256.505 398.792L254.217 398.12C254.612 396.573 255.407 395.373 256.601 394.52C257.796 393.667 259.348 393.24 261.257 393.24C262.836 393.24 264.175 393.539 265.273 394.136C266.383 394.723 267.167 395.576 267.625 396.696C267.839 397.197 267.977 397.757 268.041 398.376C268.105 398.995 268.137 399.624 268.137 400.264V411H266.041V406.664L266.649 406.92C266.063 408.403 265.151 409.533 263.913 410.312C262.676 411.091 261.193 411.48 259.465 411.48ZM259.737 409.448C260.836 409.448 261.796 409.251 262.617 408.856C263.439 408.461 264.1 407.923 264.601 407.24C265.103 406.547 265.428 405.768 265.577 404.904C265.705 404.349 265.775 403.741 265.785 403.08C265.796 402.408 265.801 401.907 265.801 401.576L266.697 402.04C265.897 402.147 265.028 402.253 264.089 402.36C263.161 402.467 262.244 402.589 261.337 402.728C260.441 402.867 259.631 403.032 258.905 403.224C258.415 403.363 257.94 403.56 257.481 403.816C257.023 404.061 256.644 404.392 256.345 404.808C256.057 405.224 255.913 405.741 255.913 406.36C255.913 406.861 256.036 407.347 256.281 407.816C256.537 408.285 256.943 408.675 257.497 408.984C258.063 409.293 258.809 409.448 259.737 409.448ZM272.287 411V393.72H274.575V408.824H281.055V393.72H283.343V408.824H289.807V393.72H292.095V411H272.287ZM303.896 411.48C302.21 411.48 300.749 411.107 299.512 410.36C298.285 409.613 297.33 408.563 296.648 407.208C295.965 405.853 295.624 404.264 295.624 402.44C295.624 400.552 295.96 398.92 296.632 397.544C297.304 396.168 298.248 395.107 299.464 394.36C300.69 393.613 302.136 393.24 303.8 393.24C305.506 393.24 306.962 393.635 308.168 394.424C309.373 395.203 310.285 396.323 310.904 397.784C311.522 399.245 311.805 400.989 311.752 403.016H309.352V402.184C309.309 399.944 308.824 398.253 307.896 397.112C306.978 395.971 305.634 395.4 303.864 395.4C302.008 395.4 300.584 396.003 299.592 397.208C298.61 398.413 298.12 400.131 298.12 402.36C298.12 404.536 298.61 406.227 299.592 407.432C300.584 408.627 301.986 409.224 303.8 409.224C305.037 409.224 306.114 408.941 307.032 408.376C307.96 407.8 308.69 406.973 309.224 405.896L311.416 406.744C310.733 408.248 309.725 409.416 308.392 410.248C307.069 411.069 305.57 411.48 303.896 411.48ZM297.288 403.016V401.048H310.488V403.016H297.288ZM315.303 411V393.72H327.143V395.976H317.655V411H315.303ZM337.081 411.48C335.364 411.48 333.897 411.091 332.681 410.312C331.465 409.533 330.532 408.456 329.881 407.08C329.23 405.704 328.905 404.125 328.905 402.344C328.905 400.531 329.236 398.941 329.897 397.576C330.558 396.211 331.497 395.149 332.713 394.392C333.94 393.624 335.396 393.24 337.081 393.24C338.809 393.24 340.281 393.629 341.497 394.408C342.724 395.176 343.657 396.248 344.297 397.624C344.948 398.989 345.273 400.563 345.273 402.344C345.273 404.157 344.948 405.752 344.297 407.128C343.646 408.493 342.708 409.56 341.481 410.328C340.254 411.096 338.788 411.48 337.081 411.48ZM337.081 409.224C339.001 409.224 340.43 408.589 341.369 407.32C342.308 406.04 342.777 404.381 342.777 402.344C342.777 400.253 342.302 398.589 341.353 397.352C340.414 396.115 338.99 395.496 337.081 395.496C335.79 395.496 334.724 395.789 333.881 396.376C333.049 396.952 332.425 397.757 332.009 398.792C331.604 399.816 331.401 401 331.401 402.344C331.401 404.424 331.881 406.093 332.841 407.352C333.801 408.6 335.214 409.224 337.081 409.224ZM355.193 411V393.72H362.313C362.675 393.72 363.113 393.741 363.625 393.784C364.147 393.827 364.633 393.907 365.081 394.024C366.051 394.28 366.83 394.803 367.417 395.592C368.014 396.381 368.313 397.331 368.313 398.44C368.313 399.059 368.217 399.613 368.025 400.104C367.843 400.584 367.582 401 367.241 401.352C367.081 401.533 366.905 401.693 366.713 401.832C366.521 401.96 366.334 402.067 366.153 402.152C366.494 402.216 366.862 402.365 367.257 402.6C367.875 402.963 368.345 403.453 368.665 404.072C368.985 404.68 369.145 405.421 369.145 406.296C369.145 407.48 368.862 408.445 368.297 409.192C367.731 409.939 366.974 410.451 366.025 410.728C365.598 410.845 365.134 410.92 364.633 410.952C364.142 410.984 363.678 411 363.241 411H355.193ZM357.561 409H363.129C363.353 409 363.635 408.984 363.977 408.952C364.318 408.909 364.622 408.856 364.889 408.792C365.518 408.632 365.977 408.312 366.265 407.832C366.563 407.341 366.713 406.808 366.713 406.232C366.713 405.475 366.489 404.856 366.041 404.376C365.603 403.885 365.017 403.587 364.281 403.48C364.035 403.427 363.779 403.395 363.513 403.384C363.246 403.373 363.006 403.368 362.793 403.368H357.561V409ZM357.561 401.352H362.393C362.67 401.352 362.979 401.336 363.321 401.304C363.673 401.261 363.977 401.192 364.233 401.096C364.787 400.904 365.193 400.573 365.449 400.104C365.715 399.635 365.849 399.123 365.849 398.568C365.849 397.96 365.705 397.427 365.417 396.968C365.139 396.509 364.718 396.189 364.153 396.008C363.769 395.869 363.353 395.789 362.905 395.768C362.467 395.747 362.19 395.736 362.073 395.736H357.561V401.352ZM380.094 411.48C378.504 411.48 377.16 411.08 376.062 410.28C374.963 409.469 374.131 408.376 373.566 407C373 405.613 372.718 404.061 372.718 402.344C372.718 400.595 373 399.037 373.566 397.672C374.142 396.296 374.984 395.213 376.094 394.424C377.203 393.635 378.568 393.24 380.19 393.24C381.768 393.24 383.123 393.64 384.254 394.44C385.384 395.24 386.248 396.328 386.846 397.704C387.454 399.08 387.758 400.627 387.758 402.344C387.758 404.072 387.454 405.624 386.846 407C386.238 408.376 385.363 409.469 384.222 410.28C383.08 411.08 381.704 411.48 380.094 411.48ZM372.318 418.68V393.72H374.43V406.728H374.686V418.68H372.318ZM379.854 409.288C381.059 409.288 382.062 408.984 382.862 408.376C383.662 407.768 384.259 406.941 384.654 405.896C385.059 404.84 385.262 403.656 385.262 402.344C385.262 401.043 385.064 399.869 384.67 398.824C384.275 397.779 383.672 396.952 382.862 396.344C382.062 395.736 381.043 395.432 379.806 395.432C378.6 395.432 377.598 395.725 376.798 396.312C376.008 396.899 375.416 397.715 375.022 398.76C374.627 399.795 374.43 400.989 374.43 402.344C374.43 403.677 374.627 404.872 375.022 405.928C375.416 406.973 376.014 407.795 376.814 408.392C377.614 408.989 378.627 409.288 379.854 409.288ZM398.583 411.48C396.898 411.48 395.437 411.107 394.199 410.36C392.973 409.613 392.018 408.563 391.335 407.208C390.653 405.853 390.311 404.264 390.311 402.44C390.311 400.552 390.647 398.92 391.319 397.544C391.991 396.168 392.935 395.107 394.151 394.36C395.378 393.613 396.823 393.24 398.487 393.24C400.194 393.24 401.65 393.635 402.855 394.424C404.061 395.203 404.973 396.323 405.591 397.784C406.21 399.245 406.493 400.989 406.439 403.016H404.039V402.184C403.997 399.944 403.511 398.253 402.583 397.112C401.666 395.971 400.322 395.4 398.551 395.4C396.695 395.4 395.271 396.003 394.279 397.208C393.298 398.413 392.807 400.131 392.807 402.36C392.807 404.536 393.298 406.227 394.279 407.432C395.271 408.627 396.674 409.224 398.487 409.224C399.725 409.224 400.802 408.941 401.719 408.376C402.647 407.8 403.378 406.973 403.911 405.896L406.103 406.744C405.421 408.248 404.413 409.416 403.079 410.248C401.757 411.069 400.258 411.48 398.583 411.48ZM391.975 403.016V401.048H405.175V403.016H391.975ZM409.505 411V393.72H411.601L418.337 407.864L425.089 393.72H427.169V411H424.897V398.744L419.089 411H417.601L411.793 398.744V411H409.505ZM438.958 411.48C437.273 411.48 435.812 411.107 434.574 410.36C433.348 409.613 432.393 408.563 431.71 407.208C431.028 405.853 430.686 404.264 430.686 402.44C430.686 400.552 431.022 398.92 431.694 397.544C432.366 396.168 433.31 395.107 434.526 394.36C435.753 393.613 437.198 393.24 438.862 393.24C440.569 393.24 442.025 393.635 443.23 394.424C444.436 395.203 445.348 396.323 445.966 397.784C446.585 399.245 446.868 400.989 446.814 403.016H444.414V402.184C444.372 399.944 443.886 398.253 442.958 397.112C442.041 395.971 440.697 395.4 438.926 395.4C437.07 395.4 435.646 396.003 434.654 397.208C433.673 398.413 433.182 400.131 433.182 402.36C433.182 404.536 433.673 406.227 434.654 407.432C435.646 408.627 437.049 409.224 438.862 409.224C440.1 409.224 441.177 408.941 442.094 408.376C443.022 407.8 443.753 406.973 444.286 405.896L446.478 406.744C445.796 408.248 444.788 409.416 443.454 410.248C442.132 411.069 440.633 411.48 438.958 411.48ZM432.35 403.016V401.048H445.55V403.016H432.35ZM450.349 411V393.72H452.701V401.224H462.445V393.72H464.797V411H462.445V403.48H452.701V411H450.349ZM482.999 393.72V411H480.711V397.544L471.239 411H469.255V393.72H471.543V407.064L481.031 393.72H482.999ZM488.802 409.304L487.378 408.2L492.05 402.344L487.378 396.504L488.802 395.4L494.338 402.344L488.802 409.304ZM494.29 409.304L492.882 408.2L497.538 402.344L492.882 396.504L494.29 395.4L499.826 402.344L494.29 409.304ZM99.664 513H97.296V494.104L84.608 513H82.24V489.96H84.608V508.84L97.296 489.96H99.664V513ZM110.37 513.48C108.632 513.48 107.112 513.101 105.81 512.344C104.52 511.576 103.501 510.515 102.754 509.16L104.642 507.96C105.272 509.027 106.056 509.837 106.994 510.392C107.933 510.947 109.01 511.224 110.226 511.224C111.496 511.224 112.514 510.931 113.282 510.344C114.05 509.757 114.434 508.952 114.434 507.928C114.434 507.224 114.269 506.664 113.938 506.248C113.618 505.832 113.128 505.533 112.466 505.352C111.816 505.171 111 505.08 110.018 505.08H107.97V503.064H109.986C111.181 503.064 112.141 502.851 112.866 502.424C113.602 501.987 113.97 501.304 113.97 500.376C113.97 499.395 113.602 498.669 112.866 498.2C112.141 497.72 111.272 497.48 110.258 497.48C109.234 497.48 108.264 497.693 107.346 498.12C106.44 498.536 105.677 499.075 105.058 499.736L103.554 498.152C104.418 497.203 105.426 496.483 106.578 495.992C107.741 495.491 109.026 495.24 110.434 495.24C111.544 495.24 112.546 495.437 113.442 495.832C114.349 496.216 115.064 496.781 115.586 497.528C116.12 498.275 116.386 499.171 116.386 500.216C116.386 501.197 116.146 502.045 115.666 502.76C115.197 503.475 114.53 504.067 113.666 504.536L113.538 503.656C114.285 503.795 114.904 504.093 115.394 504.552C115.885 505.011 116.248 505.56 116.482 506.2C116.717 506.84 116.834 507.491 116.834 508.152C116.834 509.251 116.546 510.2 115.97 511C115.405 511.789 114.632 512.403 113.65 512.84C112.68 513.267 111.586 513.48 110.37 513.48ZM120.349 513V495.72H127.469C127.832 495.72 128.269 495.741 128.781 495.784C129.304 495.827 129.789 495.907 130.237 496.024C131.208 496.28 131.986 496.803 132.573 497.592C133.17 498.381 133.469 499.331 133.469 500.44C133.469 501.059 133.373 501.613 133.181 502.104C133 502.584 132.738 503 132.397 503.352C132.237 503.533 132.061 503.693 131.869 503.832C131.677 503.96 131.49 504.067 131.309 504.152C131.65 504.216 132.018 504.365 132.413 504.6C133.032 504.963 133.501 505.453 133.821 506.072C134.141 506.68 134.301 507.421 134.301 508.296C134.301 509.48 134.018 510.445 133.453 511.192C132.888 511.939 132.13 512.451 131.181 512.728C130.754 512.845 130.29 512.92 129.789 512.952C129.298 512.984 128.834 513 128.397 513H120.349ZM122.717 511H128.285C128.509 511 128.792 510.984 129.133 510.952C129.474 510.909 129.778 510.856 130.045 510.792C130.674 510.632 131.133 510.312 131.421 509.832C131.72 509.341 131.869 508.808 131.869 508.232C131.869 507.475 131.645 506.856 131.197 506.376C130.76 505.885 130.173 505.587 129.437 505.48C129.192 505.427 128.936 505.395 128.669 505.384C128.402 505.373 128.162 505.368 127.949 505.368H122.717V511ZM122.717 503.352H127.549C127.826 503.352 128.136 503.336 128.477 503.304C128.829 503.261 129.133 503.192 129.389 503.096C129.944 502.904 130.349 502.573 130.605 502.104C130.872 501.635 131.005 501.123 131.005 500.568C131.005 499.96 130.861 499.427 130.573 498.968C130.296 498.509 129.874 498.189 129.309 498.008C128.925 497.869 128.509 497.789 128.061 497.768C127.624 497.747 127.346 497.736 127.229 497.736H122.717V503.352ZM144.802 513.48C143.117 513.48 141.655 513.107 140.418 512.36C139.191 511.613 138.237 510.563 137.554 509.208C136.871 507.853 136.53 506.264 136.53 504.44C136.53 502.552 136.866 500.92 137.538 499.544C138.21 498.168 139.154 497.107 140.37 496.36C141.597 495.613 143.042 495.24 144.706 495.24C146.413 495.24 147.869 495.635 149.074 496.424C150.279 497.203 151.191 498.323 151.81 499.784C152.429 501.245 152.711 502.989 152.658 505.016H150.258V504.184C150.215 501.944 149.73 500.253 148.802 499.112C147.885 497.971 146.541 497.4 144.77 497.4C142.914 497.4 141.49 498.003 140.498 499.208C139.517 500.413 139.026 502.131 139.026 504.36C139.026 506.536 139.517 508.227 140.498 509.432C141.49 510.627 142.893 511.224 144.706 511.224C145.943 511.224 147.021 510.941 147.938 510.376C148.866 509.8 149.597 508.973 150.13 507.896L152.322 508.744C151.639 510.248 150.631 511.416 149.298 512.248C147.975 513.069 146.477 513.48 144.802 513.48ZM138.194 505.016V503.048H151.394V505.016H138.194ZM163.377 513.48C161.638 513.48 160.166 513.091 158.961 512.312C157.755 511.533 156.838 510.461 156.209 509.096C155.59 507.72 155.27 506.141 155.249 504.36C155.27 502.547 155.601 500.957 156.241 499.592C156.881 498.216 157.803 497.149 159.009 496.392C160.214 495.624 161.675 495.24 163.393 495.24C165.142 495.24 166.662 495.667 167.953 496.52C169.254 497.373 170.145 498.541 170.625 500.024L168.321 500.76C167.915 499.725 167.27 498.925 166.385 498.36C165.51 497.784 164.507 497.496 163.377 497.496C162.107 497.496 161.057 497.789 160.225 498.376C159.393 498.952 158.774 499.757 158.369 500.792C157.963 501.827 157.755 503.016 157.745 504.36C157.766 506.429 158.246 508.093 159.185 509.352C160.123 510.6 161.521 511.224 163.377 511.224C164.55 511.224 165.547 510.957 166.369 510.424C167.201 509.88 167.83 509.091 168.257 508.056L170.625 508.76C169.985 510.296 169.046 511.469 167.809 512.28C166.571 513.08 165.094 513.48 163.377 513.48ZM178.209 513V497.896H172.081V495.72H186.689V497.896H180.561V513H178.209ZM189.724 513V495.72H192.076V503.224H201.82V495.72H204.172V513H201.82V505.48H192.076V513H189.724ZM208.662 513L208.63 495.72H210.998V502.232H214.006C214.508 502.232 214.998 502.243 215.478 502.264C215.958 502.285 216.39 502.328 216.774 502.392C217.628 502.563 218.385 502.851 219.046 503.256C219.708 503.661 220.23 504.221 220.614 504.936C220.998 505.64 221.19 506.531 221.19 507.608C221.19 509.091 220.806 510.259 220.038 511.112C219.27 511.965 218.305 512.52 217.142 512.776C216.705 512.872 216.23 512.936 215.718 512.968C215.206 512.989 214.705 513 214.214 513H208.662ZM210.998 510.984H214.118C214.47 510.984 214.87 510.973 215.318 510.952C215.766 510.931 216.161 510.872 216.502 510.776C217.078 510.616 217.596 510.296 218.054 509.816C218.524 509.325 218.758 508.589 218.758 507.608C218.758 506.637 218.534 505.907 218.086 505.416C217.638 504.915 217.041 504.584 216.294 504.424C215.953 504.349 215.59 504.301 215.206 504.28C214.833 504.259 214.47 504.248 214.118 504.248H210.998V510.984ZM223.254 513V495.72H225.606V513H223.254ZM237.396 513.48C235.71 513.48 234.249 513.107 233.012 512.36C231.785 511.613 230.83 510.563 230.148 509.208C229.465 507.853 229.124 506.264 229.124 504.44C229.124 502.552 229.46 500.92 230.132 499.544C230.804 498.168 231.748 497.107 232.964 496.36C234.19 495.613 235.636 495.24 237.3 495.24C239.006 495.24 240.462 495.635 241.668 496.424C242.873 497.203 243.785 498.323 244.404 499.784C245.022 501.245 245.305 502.989 245.252 505.016H242.852V504.184C242.809 501.944 242.324 500.253 241.396 499.112C240.478 497.971 239.134 497.4 237.364 497.4C235.508 497.4 234.084 498.003 233.092 499.208C232.11 500.413 231.62 502.131 231.62 504.36C231.62 506.536 232.11 508.227 233.092 509.432C234.084 510.627 235.486 511.224 237.3 511.224C238.537 511.224 239.614 510.941 240.532 510.376C241.46 509.8 242.19 508.973 242.724 507.896L244.916 508.744C244.233 510.248 243.225 511.416 241.892 512.248C240.569 513.069 239.07 513.48 237.396 513.48ZM230.788 505.016V503.048H243.988V505.016H230.788ZM253.609 513L261.545 489.96H264.665L272.601 513H270.153L262.617 491.272H263.545L256.057 513H253.609ZM257.145 507.416V505.208H269.049V507.416H257.145ZM274.21 516.84V510.984C275.191 510.984 275.895 510.669 276.322 510.04C276.749 509.4 277.095 508.381 277.362 506.984C277.543 506.077 277.693 505.101 277.81 504.056C277.927 503.011 278.029 501.816 278.114 500.472C278.199 499.117 278.279 497.533 278.354 495.72H289.778V510.984H291.442V516.84H289.17V513H276.466V516.84H274.21ZM278.194 510.984H287.442V497.736H280.53C280.498 498.547 280.45 499.405 280.386 500.312C280.333 501.219 280.263 502.125 280.178 503.032C280.103 503.939 280.013 504.792 279.906 505.592C279.81 506.381 279.693 507.075 279.554 507.672C279.394 508.44 279.218 509.096 279.026 509.64C278.845 510.184 278.567 510.632 278.194 510.984ZM294.662 513L294.63 495.72H296.998V502.232H300.006C300.508 502.232 300.998 502.243 301.478 502.264C301.958 502.285 302.39 502.328 302.774 502.392C303.628 502.563 304.385 502.851 305.046 503.256C305.708 503.661 306.23 504.221 306.614 504.936C306.998 505.64 307.19 506.531 307.19 507.608C307.19 509.091 306.806 510.259 306.038 511.112C305.27 511.965 304.305 512.52 303.142 512.776C302.705 512.872 302.23 512.936 301.718 512.968C301.206 512.989 300.705 513 300.214 513H294.662ZM296.998 510.984H300.118C300.47 510.984 300.87 510.973 301.318 510.952C301.766 510.931 302.161 510.872 302.502 510.776C303.078 510.616 303.596 510.296 304.054 509.816C304.524 509.325 304.758 508.589 304.758 507.608C304.758 506.637 304.534 505.907 304.086 505.416C303.638 504.915 303.041 504.584 302.294 504.424C301.953 504.349 301.59 504.301 301.206 504.28C300.833 504.259 300.47 504.248 300.118 504.248H296.998V510.984ZM309.254 513V495.72H311.606V513H309.254ZM316.084 513V495.72H327.924V497.976H318.436V513H316.084ZM344.687 495.72V513H342.399V499.544L332.927 513H330.943V495.72H333.231V509.064L342.719 495.72H344.687Z" fill="#414141"/>
<defs>
<filter id="filter0_ddi_1981_3301" x="0" y="0" width="743" height="696" filterUnits="userSpaceOnUse" color-interpolation-filters="sRGB">
<feFlood flood-opacity="0" result="BackgroundImageFix"/>
<feColorMatrix in="SourceAlpha" type="matrix" values="0 0 0 0 0 0 0 0 0 0 0 0 0 0 0 0 0 0 127 0" result="hardAlpha"/>
<feOffset dx="-1" dy="-1"/>
<feGaussianBlur stdDeviation="0.5"/>
<feComposite in2="hardAlpha" operator="out"/>
<feColorMatrix type="matrix" values="0 0 0 0 1 0 0 0 0 1 0 0 0 0 1 0 0 0 0.2 0"/>
<feBlend mode="normal" in2="BackgroundImageFix" result="effect1_dropShadow_1981_3301"/>
<feColorMatrix in="SourceAlpha" type="matrix" values="0 0 0 0 0 0 0 0 0 0 0 0 0 0 0 0 0 0 127 0" result="hardAlpha"/>
<feOffset dx="1" dy="1"/>
<feGaussianBlur stdDeviation="2"/>
<feComposite in2="hardAlpha" operator="out"/>
<feColorMatrix type="matrix" values="0 0 0 0 0 0 0 0 0 0 0 0 0 0 0 0 0 0 0.1 0"/>
<feBlend mode="normal" in2="effect1_dropShadow_1981_3301" result="effect2_dropShadow_1981_3301"/>
<feBlend mode="normal" in="SourceGraphic" in2="effect2_dropShadow_1981_3301" result="shape"/>
<feColorMatrix in="SourceAlpha" type="matrix" values="0 0 0 0 0 0 0 0 0 0 0 0 0 0 0 0 0 0 127 0" result="hardAlpha"/>
<feOffset/>
<feGaussianBlur stdDeviation="0.5"/>
<feComposite in2="hardAlpha" operator="arithmetic" k2="-1" k3="1"/>
<feColorMatrix type="matrix" values="0 0 0 0 0 0 0 0 0 0 0 0 0 0 0 0 0 0 0.1 0"/>
<feBlend mode="normal" in2="shape" result="effect3_innerShadow_1981_3301"/>
</filter>
</defs>
</svg>
