<svg width="743" height="696" viewBox="0 0 743 696" fill="none" xmlns="http://www.w3.org/2000/svg">
<g filter="url(#filter0_ddi_1981_3291)">
<rect x="3" y="3" width="735" height="688" rx="40" fill="white"/>
</g>
<path d="M110.368 232H106.976V214.864L95.632 232H92.24V208.96H95.632V226.08L106.976 208.96H110.368V232ZM114.818 232V214.72H118.162V221.776H126.594V214.72H129.938V232H126.594V224.928H118.162V232H114.818ZM139.308 232.48C138.028 232.48 136.956 232.245 136.092 231.776C135.228 231.296 134.572 230.667 134.124 229.888C133.686 229.099 133.468 228.235 133.468 227.296C133.468 226.421 133.622 225.653 133.932 224.992C134.241 224.331 134.7 223.771 135.308 223.312C135.916 222.843 136.662 222.464 137.548 222.176C138.316 221.952 139.185 221.755 140.156 221.584C141.126 221.413 142.145 221.253 143.212 221.104C144.289 220.955 145.356 220.805 146.412 220.656L145.196 221.328C145.217 219.973 144.929 218.971 144.332 218.32C143.745 217.659 142.732 217.328 141.292 217.328C140.385 217.328 139.553 217.541 138.796 217.968C138.038 218.384 137.51 219.077 137.212 220.048L134.092 219.088C134.518 217.605 135.329 216.427 136.524 215.552C137.729 214.677 139.329 214.24 141.324 214.24C142.87 214.24 144.214 214.507 145.356 215.04C146.508 215.563 147.35 216.395 147.884 217.536C148.161 218.101 148.332 218.699 148.396 219.328C148.46 219.957 148.492 220.635 148.492 221.36V232H145.532V228.048L146.108 228.56C145.393 229.883 144.481 230.869 143.372 231.52C142.273 232.16 140.918 232.48 139.308 232.48ZM139.9 229.744C140.849 229.744 141.665 229.579 142.348 229.248C143.03 228.907 143.58 228.475 143.996 227.952C144.412 227.429 144.684 226.885 144.812 226.32C144.993 225.808 145.094 225.232 145.116 224.592C145.148 223.952 145.164 223.44 145.164 223.056L146.252 223.456C145.196 223.616 144.236 223.76 143.372 223.888C142.508 224.016 141.724 224.144 141.02 224.272C140.326 224.389 139.708 224.533 139.164 224.704C138.705 224.864 138.294 225.056 137.932 225.28C137.58 225.504 137.297 225.776 137.084 226.096C136.881 226.416 136.78 226.805 136.78 227.264C136.78 227.712 136.892 228.128 137.116 228.512C137.34 228.885 137.681 229.184 138.14 229.408C138.598 229.632 139.185 229.744 139.9 229.744ZM151.046 232V229.168C151.686 229.285 152.172 229.269 152.502 229.12C152.844 228.96 153.094 228.672 153.254 228.256C153.425 227.84 153.569 227.301 153.686 226.64C153.868 225.669 154.022 224.565 154.15 223.328C154.289 222.08 154.412 220.731 154.518 219.28C154.625 217.829 154.721 216.309 154.806 214.72H167.222V232H163.862V217.872H157.814C157.75 218.715 157.676 219.611 157.59 220.56C157.516 221.499 157.43 222.432 157.334 223.36C157.238 224.288 157.137 225.157 157.03 225.968C156.924 226.779 156.812 227.472 156.694 228.048C156.481 229.2 156.166 230.117 155.75 230.8C155.345 231.472 154.769 231.904 154.022 232.096C153.276 232.299 152.284 232.267 151.046 232ZM177.795 222.928V220.912H198.915V222.928H177.795ZM90.64 283V280.936C91.28 281.053 91.7653 281.027 92.096 280.856C92.4373 280.675 92.688 280.376 92.848 279.96C93.008 279.533 93.1413 279.005 93.248 278.376C93.4187 277.331 93.5733 276.179 93.712 274.92C93.8507 273.661 93.9733 272.275 94.08 270.76C94.1973 269.235 94.3147 267.555 94.432 265.72H106.176V283H103.84V267.976H96.608C96.5333 269.107 96.448 270.232 96.352 271.352C96.256 272.472 96.1547 273.549 96.048 274.584C95.952 275.608 95.8453 276.552 95.728 277.416C95.6107 278.28 95.488 279.027 95.36 279.656C95.168 280.605 94.912 281.363 94.592 281.928C94.2827 282.493 93.8187 282.867 93.2 283.048C92.5813 283.229 91.728 283.213 90.64 283ZM117.958 283.48C116.273 283.48 114.812 283.107 113.574 282.36C112.348 281.613 111.393 280.563 110.71 279.208C110.028 277.853 109.686 276.264 109.686 274.44C109.686 272.552 110.022 270.92 110.694 269.544C111.366 268.168 112.31 267.107 113.526 266.36C114.753 265.613 116.198 265.24 117.862 265.24C119.569 265.24 121.025 265.635 122.23 266.424C123.436 267.203 124.348 268.323 124.966 269.784C125.585 271.245 125.868 272.989 125.814 275.016H123.414V274.184C123.372 271.944 122.886 270.253 121.958 269.112C121.041 267.971 119.697 267.4 117.926 267.4C116.07 267.4 114.646 268.003 113.654 269.208C112.673 270.413 112.182 272.131 112.182 274.36C112.182 276.536 112.673 278.227 113.654 279.432C114.646 280.627 116.049 281.224 117.862 281.224C119.1 281.224 120.177 280.941 121.094 280.376C122.022 279.8 122.753 278.973 123.286 277.896L125.478 278.744C124.796 280.248 123.788 281.416 122.454 282.248C121.132 283.069 119.633 283.48 117.958 283.48ZM111.35 275.016V273.048H124.55V275.016H111.35ZM129.365 283V265.72H141.205V267.976H131.717V283H129.365ZM151.552 283.48C149.867 283.48 148.405 283.107 147.168 282.36C145.941 281.613 144.987 280.563 144.304 279.208C143.621 277.853 143.28 276.264 143.28 274.44C143.28 272.552 143.616 270.92 144.288 269.544C144.96 268.168 145.904 267.107 147.12 266.36C148.347 265.613 149.792 265.24 151.456 265.24C153.163 265.24 154.619 265.635 155.824 266.424C157.029 267.203 157.941 268.323 158.56 269.784C159.179 271.245 159.461 272.989 159.408 275.016H157.008V274.184C156.965 271.944 156.48 270.253 155.552 269.112C154.635 267.971 153.291 267.4 151.52 267.4C149.664 267.4 148.24 268.003 147.248 269.208C146.267 270.413 145.776 272.131 145.776 274.36C145.776 276.536 146.267 278.227 147.248 279.432C148.24 280.627 149.643 281.224 151.456 281.224C152.693 281.224 153.771 280.941 154.688 280.376C155.616 279.8 156.347 278.973 156.88 277.896L159.072 278.744C158.389 280.248 157.381 281.416 156.048 282.248C154.725 283.069 153.227 283.48 151.552 283.48ZM144.944 275.016V273.048H158.144V275.016H144.944ZM162.943 283V265.72H165.295V273.224H175.039V265.72H177.391V283H175.039V275.48H165.295V283H162.943ZM180.585 286.84V280.984C181.566 280.984 182.27 280.669 182.697 280.04C183.124 279.4 183.47 278.381 183.737 276.984C183.918 276.077 184.068 275.101 184.185 274.056C184.302 273.011 184.404 271.816 184.489 270.472C184.574 269.117 184.654 267.533 184.729 265.72H196.153V280.984H197.817V286.84H195.545V283H182.841V286.84H180.585ZM184.569 280.984H193.817V267.736H186.905C186.873 268.547 186.825 269.405 186.761 270.312C186.708 271.219 186.638 272.125 186.553 273.032C186.478 273.939 186.388 274.792 186.281 275.592C186.185 276.381 186.068 277.075 185.929 277.672C185.769 278.44 185.593 279.096 185.401 279.64C185.22 280.184 184.942 280.632 184.569 280.984ZM205.965 283.48C204.664 283.48 203.571 283.245 202.685 282.776C201.811 282.307 201.155 281.683 200.717 280.904C200.28 280.125 200.061 279.277 200.061 278.36C200.061 277.421 200.248 276.621 200.621 275.96C201.005 275.288 201.523 274.739 202.173 274.312C202.835 273.885 203.597 273.56 204.461 273.336C205.336 273.123 206.301 272.936 207.357 272.776C208.424 272.605 209.464 272.461 210.477 272.344C211.501 272.216 212.397 272.093 213.165 271.976L212.333 272.488C212.365 270.781 212.035 269.517 211.341 268.696C210.648 267.875 209.443 267.464 207.725 267.464C206.541 267.464 205.539 267.731 204.717 268.264C203.907 268.797 203.336 269.64 203.005 270.792L200.717 270.12C201.112 268.573 201.907 267.373 203.101 266.52C204.296 265.667 205.848 265.24 207.757 265.24C209.336 265.24 210.675 265.539 211.773 266.136C212.883 266.723 213.667 267.576 214.125 268.696C214.339 269.197 214.477 269.757 214.541 270.376C214.605 270.995 214.637 271.624 214.637 272.264V283H212.541V278.664L213.149 278.92C212.563 280.403 211.651 281.533 210.413 282.312C209.176 283.091 207.693 283.48 205.965 283.48ZM206.237 281.448C207.336 281.448 208.296 281.251 209.117 280.856C209.939 280.461 210.6 279.923 211.101 279.24C211.603 278.547 211.928 277.768 212.077 276.904C212.205 276.349 212.275 275.741 212.285 275.08C212.296 274.408 212.301 273.907 212.301 273.576L213.197 274.04C212.397 274.147 211.528 274.253 210.589 274.36C209.661 274.467 208.744 274.589 207.837 274.728C206.941 274.867 206.131 275.032 205.405 275.224C204.915 275.363 204.44 275.56 203.981 275.816C203.523 276.061 203.144 276.392 202.845 276.808C202.557 277.224 202.413 277.741 202.413 278.36C202.413 278.861 202.536 279.347 202.781 279.816C203.037 280.285 203.443 280.675 203.997 280.984C204.563 281.293 205.309 281.448 206.237 281.448ZM226.562 283.48C224.973 283.48 223.629 283.08 222.531 282.28C221.432 281.469 220.6 280.376 220.035 279C219.469 277.613 219.187 276.061 219.187 274.344C219.187 272.595 219.469 271.037 220.035 269.672C220.611 268.296 221.453 267.213 222.563 266.424C223.672 265.635 225.037 265.24 226.659 265.24C228.237 265.24 229.592 265.64 230.723 266.44C231.853 267.24 232.717 268.328 233.315 269.704C233.923 271.08 234.227 272.627 234.227 274.344C234.227 276.072 233.923 277.624 233.315 279C232.707 280.376 231.832 281.469 230.691 282.28C229.549 283.08 228.173 283.48 226.562 283.48ZM218.787 290.68V265.72H220.899V278.728H221.155V290.68H218.787ZM226.323 281.288C227.528 281.288 228.531 280.984 229.331 280.376C230.131 279.768 230.728 278.941 231.123 277.896C231.528 276.84 231.731 275.656 231.731 274.344C231.731 273.043 231.533 271.869 231.139 270.824C230.744 269.779 230.141 268.952 229.331 268.344C228.531 267.736 227.512 267.432 226.275 267.432C225.069 267.432 224.067 267.725 223.267 268.312C222.477 268.899 221.885 269.715 221.491 270.76C221.096 271.795 220.899 272.989 220.899 274.344C220.899 275.677 221.096 276.872 221.491 277.928C221.885 278.973 222.483 279.795 223.283 280.392C224.083 280.989 225.096 281.288 226.323 281.288ZM237.724 283V265.72H240.076V273.224H249.82V265.72H252.172V283H249.82V275.48H240.076V283H237.724ZM256.662 283L256.63 265.72H258.998V272.232H262.006C262.508 272.232 262.998 272.243 263.478 272.264C263.958 272.285 264.39 272.328 264.774 272.392C265.628 272.563 266.385 272.851 267.046 273.256C267.708 273.661 268.23 274.221 268.614 274.936C268.998 275.64 269.19 276.531 269.19 277.608C269.19 279.091 268.806 280.259 268.038 281.112C267.27 281.965 266.305 282.52 265.142 282.776C264.705 282.872 264.23 282.936 263.718 282.968C263.206 282.989 262.705 283 262.214 283H256.662ZM258.998 280.984H262.118C262.47 280.984 262.87 280.973 263.318 280.952C263.766 280.931 264.161 280.872 264.502 280.776C265.078 280.616 265.596 280.296 266.054 279.816C266.524 279.325 266.758 278.589 266.758 277.608C266.758 276.637 266.534 275.907 266.086 275.416C265.638 274.915 265.041 274.584 264.294 274.424C263.953 274.349 263.59 274.301 263.206 274.28C262.833 274.259 262.47 274.248 262.118 274.248H258.998V280.984ZM271.254 283V265.72H273.606V283H271.254ZM285.252 263.672C284.494 263.672 283.801 263.485 283.172 263.112C282.542 262.739 282.041 262.243 281.668 261.624C281.305 260.995 281.124 260.301 281.124 259.544H283.076C283.076 260.141 283.289 260.653 283.716 261.08C284.142 261.507 284.654 261.72 285.252 261.72C285.86 261.72 286.372 261.507 286.788 261.08C287.214 260.653 287.428 260.141 287.428 259.544H289.38C289.38 260.301 289.193 260.995 288.82 261.624C288.457 262.243 287.961 262.739 287.332 263.112C286.702 263.485 286.009 263.672 285.252 263.672ZM291.812 265.72V283H289.524V269.544L280.052 283H278.068V265.72H280.356V279.064L289.844 265.72H291.812ZM302.693 283V265.72H316.437V283H314.085V267.976H305.045V283H302.693ZM328.688 283.48C327.098 283.48 325.754 283.08 324.656 282.28C323.557 281.469 322.725 280.376 322.16 279C321.594 277.613 321.312 276.061 321.312 274.344C321.312 272.595 321.594 271.037 322.16 269.672C322.736 268.296 323.578 267.213 324.688 266.424C325.797 265.635 327.162 265.24 328.784 265.24C330.362 265.24 331.717 265.64 332.848 266.44C333.978 267.24 334.842 268.328 335.44 269.704C336.048 271.08 336.352 272.627 336.352 274.344C336.352 276.072 336.048 277.624 335.44 279C334.832 280.376 333.957 281.469 332.816 282.28C331.674 283.08 330.298 283.48 328.688 283.48ZM320.912 290.68V265.72H323.024V278.728H323.28V290.68H320.912ZM328.448 281.288C329.653 281.288 330.656 280.984 331.456 280.376C332.256 279.768 332.853 278.941 333.248 277.896C333.653 276.84 333.856 275.656 333.856 274.344C333.856 273.043 333.658 271.869 333.264 270.824C332.869 269.779 332.266 268.952 331.456 268.344C330.656 267.736 329.637 267.432 328.4 267.432C327.194 267.432 326.192 267.725 325.392 268.312C324.602 268.899 324.01 269.715 323.616 270.76C323.221 271.795 323.024 272.989 323.024 274.344C323.024 275.677 323.221 276.872 323.616 277.928C324.01 278.973 324.608 279.795 325.408 280.392C326.208 280.989 327.221 281.288 328.448 281.288ZM344.809 283.48C343.508 283.48 342.414 283.245 341.529 282.776C340.654 282.307 339.998 281.683 339.561 280.904C339.124 280.125 338.905 279.277 338.905 278.36C338.905 277.421 339.092 276.621 339.465 275.96C339.849 275.288 340.366 274.739 341.017 274.312C341.678 273.885 342.441 273.56 343.305 273.336C344.18 273.123 345.145 272.936 346.201 272.776C347.268 272.605 348.308 272.461 349.321 272.344C350.345 272.216 351.241 272.093 352.009 271.976L351.177 272.488C351.209 270.781 350.878 269.517 350.185 268.696C349.492 267.875 348.286 267.464 346.569 267.464C345.385 267.464 344.382 267.731 343.561 268.264C342.75 268.797 342.18 269.64 341.849 270.792L339.561 270.12C339.956 268.573 340.75 267.373 341.945 266.52C343.14 265.667 344.692 265.24 346.601 265.24C348.18 265.24 349.518 265.539 350.617 266.136C351.726 266.723 352.51 267.576 352.969 268.696C353.182 269.197 353.321 269.757 353.385 270.376C353.449 270.995 353.481 271.624 353.481 272.264V283H351.385V278.664L351.993 278.92C351.406 280.403 350.494 281.533 349.257 282.312C348.02 283.091 346.537 283.48 344.809 283.48ZM345.081 281.448C346.18 281.448 347.14 281.251 347.961 280.856C348.782 280.461 349.444 279.923 349.945 279.24C350.446 278.547 350.772 277.768 350.921 276.904C351.049 276.349 351.118 275.741 351.129 275.08C351.14 274.408 351.145 273.907 351.145 273.576L352.041 274.04C351.241 274.147 350.372 274.253 349.433 274.36C348.505 274.467 347.588 274.589 346.681 274.728C345.785 274.867 344.974 275.032 344.249 275.224C343.758 275.363 343.284 275.56 342.825 275.816C342.366 276.061 341.988 276.392 341.689 276.808C341.401 277.224 341.257 277.741 341.257 278.36C341.257 278.861 341.38 279.347 341.625 279.816C341.881 280.285 342.286 280.675 342.841 280.984C343.406 281.293 344.153 281.448 345.081 281.448ZM365.406 283.48C363.817 283.48 362.473 283.08 361.374 282.28C360.276 281.469 359.444 280.376 358.878 279C358.313 277.613 358.03 276.061 358.03 274.344C358.03 272.595 358.313 271.037 358.878 269.672C359.454 268.296 360.297 267.213 361.406 266.424C362.516 265.635 363.881 265.24 365.502 265.24C367.081 265.24 368.436 265.64 369.566 266.44C370.697 267.24 371.561 268.328 372.158 269.704C372.766 271.08 373.07 272.627 373.07 274.344C373.07 276.072 372.766 277.624 372.158 279C371.55 280.376 370.676 281.469 369.534 282.28C368.393 283.08 367.017 283.48 365.406 283.48ZM357.63 290.68V265.72H359.742V278.728H359.998V290.68H357.63ZM365.166 281.288C366.372 281.288 367.374 280.984 368.174 280.376C368.974 279.768 369.572 278.941 369.966 277.896C370.372 276.84 370.574 275.656 370.574 274.344C370.574 273.043 370.377 271.869 369.982 270.824C369.588 269.779 368.985 268.952 368.174 268.344C367.374 267.736 366.356 267.432 365.118 267.432C363.913 267.432 362.91 267.725 362.11 268.312C361.321 268.899 360.729 269.715 360.334 270.76C359.94 271.795 359.742 272.989 359.742 274.344C359.742 275.677 359.94 276.872 360.334 277.928C360.729 278.973 361.326 279.795 362.126 280.392C362.926 280.989 363.94 281.288 365.166 281.288ZM383.8 283.48C382.082 283.48 380.616 283.091 379.4 282.312C378.184 281.533 377.25 280.456 376.6 279.08C375.949 277.704 375.624 276.125 375.624 274.344C375.624 272.531 375.954 270.941 376.616 269.576C377.277 268.211 378.216 267.149 379.432 266.392C380.658 265.624 382.114 265.24 383.8 265.24C385.528 265.24 387 265.629 388.216 266.408C389.442 267.176 390.376 268.248 391.016 269.624C391.666 270.989 391.992 272.563 391.992 274.344C391.992 276.157 391.666 277.752 391.016 279.128C390.365 280.493 389.426 281.56 388.2 282.328C386.973 283.096 385.506 283.48 383.8 283.48ZM383.8 281.224C385.72 281.224 387.149 280.589 388.088 279.32C389.026 278.04 389.496 276.381 389.496 274.344C389.496 272.253 389.021 270.589 388.072 269.352C387.133 268.115 385.709 267.496 383.8 267.496C382.509 267.496 381.442 267.789 380.6 268.376C379.768 268.952 379.144 269.757 378.728 270.792C378.322 271.816 378.12 273 378.12 274.344C378.12 276.424 378.6 278.093 379.56 279.352C380.52 280.6 381.933 281.224 383.8 281.224ZM394.241 286.84V280.984C395.223 280.984 395.927 280.669 396.353 280.04C396.78 279.4 397.127 278.381 397.393 276.984C397.575 276.077 397.724 275.101 397.841 274.056C397.959 273.011 398.06 271.816 398.145 270.472C398.231 269.117 398.311 267.533 398.385 265.72H409.809V280.984H411.473V286.84H409.201V283H396.497V286.84H394.241ZM398.225 280.984H407.473V267.736H400.561C400.529 268.547 400.481 269.405 400.417 270.312C400.364 271.219 400.295 272.125 400.209 273.032C400.135 273.939 400.044 274.792 399.937 275.592C399.841 276.381 399.724 277.075 399.585 277.672C399.425 278.44 399.249 279.096 399.057 279.64C398.876 280.184 398.599 280.632 398.225 280.984ZM428.406 265.72V283H426.118V269.544L416.646 283H414.662V265.72H416.95V279.064L426.438 265.72H428.406ZM437.584 283V267.896H431.456V265.72H446.064V267.896H439.936V283H437.584ZM456.427 283.48C454.742 283.48 453.28 283.107 452.043 282.36C450.816 281.613 449.862 280.563 449.179 279.208C448.496 277.853 448.155 276.264 448.155 274.44C448.155 272.552 448.491 270.92 449.163 269.544C449.835 268.168 450.779 267.107 451.995 266.36C453.222 265.613 454.667 265.24 456.331 265.24C458.038 265.24 459.494 265.635 460.699 266.424C461.904 267.203 462.816 268.323 463.435 269.784C464.054 271.245 464.336 272.989 464.283 275.016H461.883V274.184C461.84 271.944 461.355 270.253 460.427 269.112C459.51 267.971 458.166 267.4 456.395 267.4C454.539 267.4 453.115 268.003 452.123 269.208C451.142 270.413 450.651 272.131 450.651 274.36C450.651 276.536 451.142 278.227 452.123 279.432C453.115 280.627 454.518 281.224 456.331 281.224C457.568 281.224 458.646 280.941 459.563 280.376C460.491 279.8 461.222 278.973 461.755 277.896L463.947 278.744C463.264 280.248 462.256 281.416 460.923 282.248C459.6 283.069 458.102 283.48 456.427 283.48ZM449.819 275.016V273.048H463.019V275.016H449.819ZM466.234 283V280.936C466.874 281.053 467.359 281.027 467.69 280.856C468.031 280.675 468.282 280.376 468.442 279.96C468.602 279.533 468.735 279.005 468.842 278.376C469.012 277.331 469.167 276.179 469.306 274.92C469.444 273.661 469.567 272.275 469.674 270.76C469.791 269.235 469.908 267.555 470.026 265.72H481.77V283H479.434V267.976H472.202C472.127 269.107 472.042 270.232 471.946 271.352C471.85 272.472 471.748 273.549 471.642 274.584C471.546 275.608 471.439 276.552 471.322 277.416C471.204 278.28 471.082 279.027 470.954 279.656C470.762 280.605 470.506 281.363 470.186 281.928C469.876 282.493 469.412 282.867 468.794 283.048C468.175 283.229 467.322 283.213 466.234 283ZM486.256 283L486.224 265.72H488.592V272.232H492.64C493.141 272.232 493.632 272.243 494.112 272.264C494.603 272.285 495.035 272.328 495.408 272.392C496.261 272.552 497.019 272.835 497.68 273.24C498.352 273.645 498.875 274.205 499.248 274.92C499.632 275.635 499.824 276.531 499.824 277.608C499.824 279.091 499.44 280.259 498.672 281.112C497.915 281.965 496.955 282.52 495.792 282.776C495.355 282.872 494.88 282.936 494.368 282.968C493.856 282.989 493.349 283 492.848 283H486.256ZM488.592 280.984H492.752C493.115 280.984 493.52 280.973 493.968 280.952C494.416 280.931 494.811 280.872 495.152 280.776C495.717 280.616 496.229 280.296 496.688 279.816C497.157 279.325 497.392 278.589 497.392 277.608C497.392 276.637 497.168 275.907 496.72 275.416C496.272 274.915 495.675 274.584 494.928 274.424C494.597 274.349 494.24 274.301 493.856 274.28C493.472 274.259 493.104 274.248 492.752 274.248H488.592V280.984ZM514.684 283.48C513.383 283.48 512.289 283.245 511.404 282.776C510.529 282.307 509.873 281.683 509.436 280.904C508.999 280.125 508.78 279.277 508.78 278.36C508.78 277.421 508.967 276.621 509.34 275.96C509.724 275.288 510.241 274.739 510.892 274.312C511.553 273.885 512.316 273.56 513.18 273.336C514.055 273.123 515.02 272.936 516.076 272.776C517.143 272.605 518.183 272.461 519.196 272.344C520.22 272.216 521.116 272.093 521.884 271.976L521.052 272.488C521.084 270.781 520.753 269.517 520.06 268.696C519.367 267.875 518.161 267.464 516.444 267.464C515.26 267.464 514.257 267.731 513.436 268.264C512.625 268.797 512.055 269.64 511.724 270.792L509.436 270.12C509.831 268.573 510.625 267.373 511.82 266.52C513.015 265.667 514.567 265.24 516.476 265.24C518.055 265.24 519.393 265.539 520.492 266.136C521.601 266.723 522.385 267.576 522.844 268.696C523.057 269.197 523.196 269.757 523.26 270.376C523.324 270.995 523.356 271.624 523.356 272.264V283H521.26V278.664L521.868 278.92C521.281 280.403 520.369 281.533 519.132 282.312C517.895 283.091 516.412 283.48 514.684 283.48ZM514.956 281.448C516.055 281.448 517.015 281.251 517.836 280.856C518.657 280.461 519.319 279.923 519.82 279.24C520.321 278.547 520.647 277.768 520.796 276.904C520.924 276.349 520.993 275.741 521.004 275.08C521.015 274.408 521.02 273.907 521.02 273.576L521.916 274.04C521.116 274.147 520.247 274.253 519.308 274.36C518.38 274.467 517.463 274.589 516.556 274.728C515.66 274.867 514.849 275.032 514.124 275.224C513.633 275.363 513.159 275.56 512.7 275.816C512.241 276.061 511.863 276.392 511.564 276.808C511.276 277.224 511.132 277.741 511.132 278.36C511.132 278.861 511.255 279.347 511.5 279.816C511.756 280.285 512.161 280.675 512.716 280.984C513.281 281.293 514.028 281.448 514.956 281.448ZM526.241 286.84V280.984C527.223 280.984 527.927 280.669 528.353 280.04C528.78 279.4 529.127 278.381 529.393 276.984C529.575 276.077 529.724 275.101 529.841 274.056C529.959 273.011 530.06 271.816 530.145 270.472C530.231 269.117 530.311 267.533 530.385 265.72H541.809V280.984H543.473V286.84H541.201V283H528.497V286.84H526.241ZM530.225 280.984H539.473V267.736H532.561C532.529 268.547 532.481 269.405 532.417 270.312C532.364 271.219 532.295 272.125 532.209 273.032C532.135 273.939 532.044 274.792 531.937 275.592C531.841 276.381 531.724 277.075 531.585 277.672C531.425 278.44 531.249 279.096 531.057 279.64C530.876 280.184 530.599 280.632 530.225 280.984ZM546.694 283L546.662 265.72H549.03V272.232H552.038C552.539 272.232 553.03 272.243 553.51 272.264C553.99 272.285 554.422 272.328 554.806 272.392C555.659 272.563 556.416 272.851 557.078 273.256C557.739 273.661 558.262 274.221 558.646 274.936C559.03 275.64 559.222 276.531 559.222 277.608C559.222 279.091 558.838 280.259 558.07 281.112C557.302 281.965 556.336 282.52 555.174 282.776C554.736 282.872 554.262 282.936 553.75 282.968C553.238 282.989 552.736 283 552.246 283H546.694ZM549.03 280.984H552.15C552.502 280.984 552.902 280.973 553.35 280.952C553.798 280.931 554.192 280.872 554.534 280.776C555.11 280.616 555.627 280.296 556.086 279.816C556.555 279.325 556.79 278.589 556.79 277.608C556.79 276.637 556.566 275.907 556.118 275.416C555.67 274.915 555.072 274.584 554.326 274.424C553.984 274.349 553.622 274.301 553.238 274.28C552.864 274.259 552.502 274.248 552.15 274.248H549.03V280.984ZM561.286 283V265.72H563.638V283H561.286ZM568.115 283V265.72H579.955V267.976H570.467V283H568.115ZM589.845 283.48C588.107 283.48 586.635 283.091 585.43 282.312C584.224 281.533 583.307 280.461 582.678 279.096C582.059 277.72 581.739 276.141 581.718 274.36C581.739 272.547 582.07 270.957 582.71 269.592C583.35 268.216 584.272 267.149 585.478 266.392C586.683 265.624 588.144 265.24 589.862 265.24C591.611 265.24 593.131 265.667 594.422 266.52C595.723 267.373 596.614 268.541 597.094 270.024L594.79 270.76C594.384 269.725 593.739 268.925 592.854 268.36C591.979 267.784 590.976 267.496 589.845 267.496C588.576 267.496 587.526 267.789 586.694 268.376C585.862 268.952 585.243 269.757 584.838 270.792C584.432 271.827 584.224 273.016 584.214 274.36C584.235 276.429 584.715 278.093 585.654 279.352C586.592 280.6 587.99 281.224 589.845 281.224C591.019 281.224 592.016 280.957 592.838 280.424C593.67 279.88 594.299 279.091 594.726 278.056L597.094 278.76C596.454 280.296 595.515 281.469 594.278 282.28C593.04 283.08 591.563 283.48 589.845 283.48ZM600.38 283L600.396 265.72H602.764V274.04L610.476 265.72H613.612L605.516 274.36L614.668 283H611.244L602.764 274.68V283H600.38ZM629.999 265.72V283H627.711V269.544L618.239 283H616.255V265.72H618.543V279.064L628.031 265.72H629.999ZM632.57 283L639.322 274.264L632.714 265.72H635.53L640.698 272.456L645.818 265.72H648.634L642.026 274.264L648.794 283H645.962L640.698 276.072L635.402 283H632.57ZM92.224 334L92.24 316.72H94.608V325.04L102.32 316.72H105.456L97.36 325.36L106.512 334H103.088L94.608 325.68V334H92.224ZM108.099 334V316.72H110.451V324.224H120.195V316.72H122.547V334H120.195V326.48H110.451V334H108.099ZM137.853 334V327.488H133.821C133.352 327.488 132.867 327.472 132.365 327.44C131.875 327.397 131.416 327.339 130.989 327.264C129.773 327.029 128.739 326.496 127.885 325.664C127.043 324.821 126.621 323.659 126.621 322.176C126.621 320.725 127.016 319.563 127.805 318.688C128.595 317.803 129.549 317.227 130.669 316.96C131.181 316.843 131.699 316.773 132.221 316.752C132.755 316.731 133.213 316.72 133.597 316.72H140.205L140.221 334H137.853ZM126.061 334L130.877 326.752H133.485L128.637 334H126.061ZM133.693 325.472H137.853V318.736H133.693C133.437 318.736 133.08 318.747 132.621 318.768C132.163 318.789 131.731 318.859 131.325 318.976C130.973 319.083 130.621 319.269 130.269 319.536C129.928 319.792 129.64 320.139 129.405 320.576C129.171 321.003 129.053 321.525 129.053 322.144C129.053 323.008 129.288 323.701 129.757 324.224C130.237 324.736 130.835 325.088 131.549 325.28C131.933 325.365 132.317 325.419 132.701 325.44C133.085 325.461 133.416 325.472 133.693 325.472ZM150.933 334.48C149.194 334.48 147.674 334.101 146.373 333.344C145.082 332.576 144.063 331.515 143.317 330.16L145.205 328.96C145.834 330.027 146.618 330.837 147.557 331.392C148.495 331.947 149.573 332.224 150.789 332.224C152.058 332.224 153.077 331.931 153.845 331.344C154.613 330.757 154.997 329.952 154.997 328.928C154.997 328.224 154.831 327.664 154.501 327.248C154.181 326.832 153.69 326.533 153.029 326.352C152.378 326.171 151.562 326.08 150.581 326.08H148.533V324.064H150.549C151.743 324.064 152.703 323.851 153.429 323.424C154.165 322.987 154.533 322.304 154.533 321.376C154.533 320.395 154.165 319.669 153.429 319.2C152.703 318.72 151.834 318.48 150.821 318.48C149.797 318.48 148.826 318.693 147.909 319.12C147.002 319.536 146.239 320.075 145.621 320.736L144.117 319.152C144.981 318.203 145.989 317.483 147.141 316.992C148.303 316.491 149.589 316.24 150.997 316.24C152.106 316.24 153.109 316.437 154.005 316.832C154.911 317.216 155.626 317.781 156.149 318.528C156.682 319.275 156.949 320.171 156.949 321.216C156.949 322.197 156.709 323.045 156.229 323.76C155.759 324.475 155.093 325.067 154.229 325.536L154.101 324.656C154.847 324.795 155.466 325.093 155.957 325.552C156.447 326.011 156.81 326.56 157.045 327.2C157.279 327.84 157.397 328.491 157.397 329.152C157.397 330.251 157.109 331.2 156.533 332C155.967 332.789 155.194 333.403 154.213 333.84C153.242 334.267 152.149 334.48 150.933 334.48ZM168.24 334.48C166.554 334.48 165.093 334.107 163.856 333.36C162.629 332.613 161.674 331.563 160.992 330.208C160.309 328.853 159.968 327.264 159.968 325.44C159.968 323.552 160.304 321.92 160.976 320.544C161.648 319.168 162.592 318.107 163.808 317.36C165.034 316.613 166.48 316.24 168.144 316.24C169.85 316.24 171.306 316.635 172.512 317.424C173.717 318.203 174.629 319.323 175.248 320.784C175.866 322.245 176.149 323.989 176.096 326.016H173.696V325.184C173.653 322.944 173.168 321.253 172.24 320.112C171.322 318.971 169.978 318.4 168.208 318.4C166.352 318.4 164.928 319.003 163.936 320.208C162.954 321.413 162.464 323.131 162.464 325.36C162.464 327.536 162.954 329.227 163.936 330.432C164.928 331.627 166.33 332.224 168.144 332.224C169.381 332.224 170.458 331.941 171.376 331.376C172.304 330.8 173.034 329.973 173.568 328.896L175.76 329.744C175.077 331.248 174.069 332.416 172.736 333.248C171.413 334.069 169.914 334.48 168.24 334.48ZM161.632 326.016V324.048H174.832V326.016H161.632ZM186.814 314.672C186.057 314.672 185.364 314.485 184.734 314.112C184.105 313.739 183.604 313.243 183.23 312.624C182.868 311.995 182.686 311.301 182.686 310.544H184.638C184.638 311.141 184.852 311.653 185.278 312.08C185.705 312.507 186.217 312.72 186.814 312.72C187.422 312.72 187.934 312.507 188.35 312.08C188.777 311.653 188.99 311.141 188.99 310.544H190.942C190.942 311.301 190.756 311.995 190.382 312.624C190.02 313.243 189.524 313.739 188.894 314.112C188.265 314.485 187.572 314.672 186.814 314.672ZM193.374 316.72V334H191.086V320.544L181.614 334H179.63V316.72H181.918V330.064L191.406 316.72H193.374ZM197.545 337.344L197.689 336.176C198.116 336.208 198.425 336.123 198.617 335.92C198.809 335.717 198.926 335.445 198.969 335.104C199.012 334.763 199.022 334.395 199.001 334H197.545V330.624H200.281V334.64C200.281 335.621 200.03 336.357 199.529 336.848C199.038 337.339 198.377 337.504 197.545 337.344ZM218.995 334.48C217.257 334.48 215.737 334.101 214.435 333.344C213.145 332.576 212.126 331.515 211.379 330.16L213.267 328.96C213.897 330.027 214.681 330.837 215.619 331.392C216.558 331.947 217.635 332.224 218.851 332.224C220.121 332.224 221.139 331.931 221.907 331.344C222.675 330.757 223.059 329.952 223.059 328.928C223.059 328.224 222.894 327.664 222.563 327.248C222.243 326.832 221.753 326.533 221.091 326.352C220.441 326.171 219.625 326.08 218.643 326.08H216.595V324.064H218.611C219.806 324.064 220.766 323.851 221.491 323.424C222.227 322.987 222.595 322.304 222.595 321.376C222.595 320.395 222.227 319.669 221.491 319.2C220.766 318.72 219.897 318.48 218.883 318.48C217.859 318.48 216.889 318.693 215.971 319.12C215.065 319.536 214.302 320.075 213.683 320.736L212.179 319.152C213.043 318.203 214.051 317.483 215.203 316.992C216.366 316.491 217.651 316.24 219.059 316.24C220.169 316.24 221.171 316.437 222.067 316.832C222.974 317.216 223.689 317.781 224.211 318.528C224.745 319.275 225.011 320.171 225.011 321.216C225.011 322.197 224.771 323.045 224.291 323.76C223.822 324.475 223.155 325.067 222.291 325.536L222.163 324.656C222.91 324.795 223.529 325.093 224.019 325.552C224.51 326.011 224.873 326.56 225.107 327.2C225.342 327.84 225.459 328.491 225.459 329.152C225.459 330.251 225.171 331.2 224.595 332C224.03 332.789 223.257 333.403 222.275 333.84C221.305 334.267 220.211 334.48 218.995 334.48ZM228.974 334V316.72H231.326V324.224H241.07V316.72H243.422V334H241.07V326.48H231.326V334H228.974ZM252.84 334.48C251.539 334.48 250.446 334.245 249.56 333.776C248.686 333.307 248.03 332.683 247.592 331.904C247.155 331.125 246.936 330.277 246.936 329.36C246.936 328.421 247.123 327.621 247.496 326.96C247.88 326.288 248.398 325.739 249.048 325.312C249.71 324.885 250.472 324.56 251.336 324.336C252.211 324.123 253.176 323.936 254.232 323.776C255.299 323.605 256.339 323.461 257.352 323.344C258.376 323.216 259.272 323.093 260.04 322.976L259.208 323.488C259.24 321.781 258.91 320.517 258.216 319.696C257.523 318.875 256.318 318.464 254.6 318.464C253.416 318.464 252.414 318.731 251.592 319.264C250.782 319.797 250.211 320.64 249.88 321.792L247.592 321.12C247.987 319.573 248.782 318.373 249.976 317.52C251.171 316.667 252.723 316.24 254.632 316.24C256.211 316.24 257.55 316.539 258.648 317.136C259.758 317.723 260.542 318.576 261 319.696C261.214 320.197 261.352 320.757 261.416 321.376C261.48 321.995 261.512 322.624 261.512 323.264V334H259.416V329.664L260.024 329.92C259.438 331.403 258.526 332.533 257.288 333.312C256.051 334.091 254.568 334.48 252.84 334.48ZM253.112 332.448C254.211 332.448 255.171 332.251 255.992 331.856C256.814 331.461 257.475 330.923 257.976 330.24C258.478 329.547 258.803 328.768 258.952 327.904C259.08 327.349 259.15 326.741 259.16 326.08C259.171 325.408 259.176 324.907 259.176 324.576L260.072 325.04C259.272 325.147 258.403 325.253 257.464 325.36C256.536 325.467 255.619 325.589 254.712 325.728C253.816 325.867 253.006 326.032 252.28 326.224C251.79 326.363 251.315 326.56 250.856 326.816C250.398 327.061 250.019 327.392 249.72 327.808C249.432 328.224 249.288 328.741 249.288 329.36C249.288 329.861 249.411 330.347 249.656 330.816C249.912 331.285 250.318 331.675 250.872 331.984C251.438 332.293 252.184 332.448 253.112 332.448ZM265.662 334V316.72H267.758L274.494 330.864L281.246 316.72H283.326V334H281.054V321.744L275.246 334H273.758L267.95 321.744V334H265.662ZM295.115 334.48C293.429 334.48 291.968 334.107 290.731 333.36C289.504 332.613 288.549 331.563 287.867 330.208C287.184 328.853 286.843 327.264 286.843 325.44C286.843 323.552 287.179 321.92 287.851 320.544C288.523 319.168 289.467 318.107 290.683 317.36C291.909 316.613 293.355 316.24 295.019 316.24C296.725 316.24 298.181 316.635 299.387 317.424C300.592 318.203 301.504 319.323 302.123 320.784C302.741 322.245 303.024 323.989 302.971 326.016H300.571V325.184C300.528 322.944 300.043 321.253 299.115 320.112C298.197 318.971 296.853 318.4 295.083 318.4C293.227 318.4 291.803 319.003 290.811 320.208C289.829 321.413 289.339 323.131 289.339 325.36C289.339 327.536 289.829 329.227 290.811 330.432C291.803 331.627 293.205 332.224 295.019 332.224C296.256 332.224 297.333 331.941 298.251 331.376C299.179 330.8 299.909 329.973 300.443 328.896L302.635 329.744C301.952 331.248 300.944 332.416 299.611 333.248C298.288 334.069 296.789 334.48 295.115 334.48ZM288.507 326.016V324.048H301.707V326.016H288.507ZM306.505 334V316.72H308.857V324.224H318.601V316.72H320.953V334H318.601V326.48H308.857V334H306.505ZM339.156 316.72V334H336.868V320.544L327.396 334H325.412V316.72H327.7V330.064L337.188 316.72H339.156ZM348.334 334V318.896H342.206V316.72H356.814V318.896H350.686V334H348.334ZM359.881 334L359.849 316.72H362.217V323.232H365.225C365.726 323.232 366.217 323.243 366.697 323.264C367.177 323.285 367.609 323.328 367.993 323.392C368.846 323.563 369.604 323.851 370.265 324.256C370.926 324.661 371.449 325.221 371.833 325.936C372.217 326.64 372.409 327.531 372.409 328.608C372.409 330.091 372.025 331.259 371.257 332.112C370.489 332.965 369.524 333.52 368.361 333.776C367.924 333.872 367.449 333.936 366.937 333.968C366.425 333.989 365.924 334 365.433 334H359.881ZM362.217 331.984H365.337C365.689 331.984 366.089 331.973 366.537 331.952C366.985 331.931 367.38 331.872 367.721 331.776C368.297 331.616 368.814 331.296 369.273 330.816C369.742 330.325 369.977 329.589 369.977 328.608C369.977 327.637 369.753 326.907 369.305 326.416C368.857 325.915 368.26 325.584 367.513 325.424C367.172 325.349 366.809 325.301 366.425 325.28C366.052 325.259 365.689 325.248 365.337 325.248H362.217V331.984ZM374.473 334V316.72H376.825V334H374.473ZM388.47 314.672C387.713 314.672 387.02 314.485 386.391 314.112C385.761 313.739 385.26 313.243 384.887 312.624C384.524 311.995 384.343 311.301 384.343 310.544H386.295C386.295 311.141 386.508 311.653 386.935 312.08C387.361 312.507 387.873 312.72 388.47 312.72C389.079 312.72 389.591 312.507 390.007 312.08C390.433 311.653 390.647 311.141 390.647 310.544H392.599C392.599 311.301 392.412 311.995 392.039 312.624C391.676 313.243 391.18 313.739 390.551 314.112C389.921 314.485 389.228 314.672 388.47 314.672ZM395.031 316.72V334H392.743V320.544L383.271 334H381.287V316.72H383.575V330.064L393.063 316.72H395.031ZM405.912 334V316.72H419.656V334H417.304V318.976H408.264V334H405.912ZM431.362 334.48C429.645 334.48 428.178 334.091 426.962 333.312C425.746 332.533 424.813 331.456 424.162 330.08C423.512 328.704 423.186 327.125 423.186 325.344C423.186 323.531 423.517 321.941 424.178 320.576C424.84 319.211 425.778 318.149 426.994 317.392C428.221 316.624 429.677 316.24 431.362 316.24C433.09 316.24 434.562 316.629 435.778 317.408C437.005 318.176 437.938 319.248 438.578 320.624C439.229 321.989 439.554 323.563 439.554 325.344C439.554 327.157 439.229 328.752 438.578 330.128C437.928 331.493 436.989 332.56 435.762 333.328C434.536 334.096 433.069 334.48 431.362 334.48ZM431.362 332.224C433.282 332.224 434.712 331.589 435.65 330.32C436.589 329.04 437.058 327.381 437.058 325.344C437.058 323.253 436.584 321.589 435.634 320.352C434.696 319.115 433.272 318.496 431.362 318.496C430.072 318.496 429.005 318.789 428.162 319.376C427.33 319.952 426.706 320.757 426.29 321.792C425.885 322.816 425.682 324 425.682 325.344C425.682 327.424 426.162 329.093 427.122 330.352C428.082 331.6 429.496 332.224 431.362 332.224ZM441.484 334V331.936C442.124 332.053 442.609 332.027 442.94 331.856C443.281 331.675 443.532 331.376 443.692 330.96C443.852 330.533 443.985 330.005 444.092 329.376C444.262 328.331 444.417 327.179 444.556 325.92C444.694 324.661 444.817 323.275 444.924 321.76C445.041 320.235 445.158 318.555 445.276 316.72H457.02V334H454.684V318.976H447.452C447.377 320.107 447.292 321.232 447.196 322.352C447.1 323.472 446.998 324.549 446.892 325.584C446.796 326.608 446.689 327.552 446.572 328.416C446.454 329.28 446.332 330.027 446.204 330.656C446.012 331.605 445.756 332.363 445.436 332.928C445.126 333.493 444.662 333.867 444.044 334.048C443.425 334.229 442.572 334.213 441.484 334ZM475.218 316.72V334H472.93V320.544L463.458 334H461.474V316.72H463.762V330.064L473.25 316.72H475.218ZM484.397 334V318.896H478.269V316.72H492.877V318.896H486.749V334H484.397ZM509.656 316.72V334H507.368V320.544L497.896 334H495.912V316.72H498.2V330.064L507.688 316.72H509.656ZM514.13 334L514.146 316.72H516.514V325.04L524.226 316.72H527.362L519.266 325.36L528.418 334H524.994L516.514 325.68V334H514.13ZM105.968 367.72V385H103.68V371.544L94.208 385H92.224V367.72H94.512V381.064L104 367.72H105.968ZM116.849 385V367.72H130.593V385H128.241V369.976H119.201V385H116.849ZM142.3 385.48C140.582 385.48 139.116 385.091 137.9 384.312C136.684 383.533 135.75 382.456 135.1 381.08C134.449 379.704 134.124 378.125 134.124 376.344C134.124 374.531 134.454 372.941 135.116 371.576C135.777 370.211 136.716 369.149 137.932 368.392C139.158 367.624 140.614 367.24 142.3 367.24C144.028 367.24 145.5 367.629 146.716 368.408C147.942 369.176 148.876 370.248 149.516 371.624C150.166 372.989 150.492 374.563 150.492 376.344C150.492 378.157 150.166 379.752 149.516 381.128C148.865 382.493 147.926 383.56 146.7 384.328C145.473 385.096 144.006 385.48 142.3 385.48ZM142.3 383.224C144.22 383.224 145.649 382.589 146.588 381.32C147.526 380.04 147.996 378.381 147.996 376.344C147.996 374.253 147.521 372.589 146.572 371.352C145.633 370.115 144.209 369.496 142.3 369.496C141.009 369.496 139.942 369.789 139.1 370.376C138.268 370.952 137.644 371.757 137.228 372.792C136.822 373.816 136.62 375 136.62 376.344C136.62 378.424 137.1 380.093 138.06 381.352C139.02 382.6 140.433 383.224 142.3 383.224ZM152.421 385V382.936C153.061 383.053 153.547 383.027 153.877 382.856C154.219 382.675 154.469 382.376 154.629 381.96C154.789 381.533 154.923 381.005 155.029 380.376C155.2 379.331 155.355 378.179 155.493 376.92C155.632 375.661 155.755 374.275 155.861 372.76C155.979 371.235 156.096 369.555 156.213 367.72H167.957V385H165.621V369.976H158.389C158.315 371.107 158.229 372.232 158.133 373.352C158.037 374.472 157.936 375.549 157.829 376.584C157.733 377.608 157.627 378.552 157.509 379.416C157.392 380.28 157.269 381.027 157.141 381.656C156.949 382.605 156.693 383.363 156.373 383.928C156.064 384.493 155.6 384.867 154.981 385.048C154.363 385.229 153.509 385.213 152.421 385ZM172.412 385L172.428 367.72H174.796V376.04L182.508 367.72H185.644L177.548 376.36L186.7 385H183.276L174.796 376.68V385H172.412ZM195.206 385.48C193.489 385.48 192.022 385.091 190.806 384.312C189.59 383.533 188.657 382.456 188.006 381.08C187.355 379.704 187.03 378.125 187.03 376.344C187.03 374.531 187.361 372.941 188.022 371.576C188.683 370.211 189.622 369.149 190.838 368.392C192.065 367.624 193.521 367.24 195.206 367.24C196.934 367.24 198.406 367.629 199.622 368.408C200.849 369.176 201.782 370.248 202.422 371.624C203.073 372.989 203.398 374.563 203.398 376.344C203.398 378.157 203.073 379.752 202.422 381.128C201.771 382.493 200.833 383.56 199.606 384.328C198.379 385.096 196.913 385.48 195.206 385.48ZM195.206 383.224C197.126 383.224 198.555 382.589 199.494 381.32C200.433 380.04 200.902 378.381 200.902 376.344C200.902 374.253 200.427 372.589 199.478 371.352C198.539 370.115 197.115 369.496 195.206 369.496C193.915 369.496 192.849 369.789 192.006 370.376C191.174 370.952 190.55 371.757 190.134 372.792C189.729 373.816 189.526 375 189.526 376.344C189.526 378.424 190.006 380.093 190.966 381.352C191.926 382.6 193.339 383.224 195.206 383.224ZM206.912 385V367.72H214.032C214.394 367.72 214.832 367.741 215.344 367.784C215.866 367.827 216.352 367.907 216.8 368.024C217.77 368.28 218.549 368.803 219.136 369.592C219.733 370.381 220.032 371.331 220.032 372.44C220.032 373.059 219.936 373.613 219.744 374.104C219.562 374.584 219.301 375 218.96 375.352C218.8 375.533 218.624 375.693 218.432 375.832C218.24 375.96 218.053 376.067 217.872 376.152C218.213 376.216 218.581 376.365 218.976 376.6C219.594 376.963 220.064 377.453 220.384 378.072C220.704 378.68 220.864 379.421 220.864 380.296C220.864 381.48 220.581 382.445 220.016 383.192C219.45 383.939 218.693 384.451 217.744 384.728C217.317 384.845 216.853 384.92 216.352 384.952C215.861 384.984 215.397 385 214.96 385H206.912ZM209.28 383H214.848C215.072 383 215.354 382.984 215.696 382.952C216.037 382.909 216.341 382.856 216.608 382.792C217.237 382.632 217.696 382.312 217.984 381.832C218.282 381.341 218.432 380.808 218.432 380.232C218.432 379.475 218.208 378.856 217.76 378.376C217.322 377.885 216.736 377.587 216 377.48C215.754 377.427 215.498 377.395 215.232 377.384C214.965 377.373 214.725 377.368 214.512 377.368H209.28V383ZM209.28 375.352H214.112C214.389 375.352 214.698 375.336 215.04 375.304C215.392 375.261 215.696 375.192 215.952 375.096C216.506 374.904 216.912 374.573 217.168 374.104C217.434 373.635 217.568 373.123 217.568 372.568C217.568 371.96 217.424 371.427 217.136 370.968C216.858 370.509 216.437 370.189 215.872 370.008C215.488 369.869 215.072 369.789 214.624 369.768C214.186 369.747 213.909 369.736 213.792 369.736H209.28V375.352ZM231.269 385.48C229.551 385.48 228.085 385.091 226.869 384.312C225.653 383.533 224.719 382.456 224.069 381.08C223.418 379.704 223.093 378.125 223.093 376.344C223.093 374.531 223.423 372.941 224.085 371.576C224.746 370.211 225.685 369.149 226.901 368.392C228.127 367.624 229.583 367.24 231.269 367.24C232.997 367.24 234.469 367.629 235.685 368.408C236.911 369.176 237.845 370.248 238.485 371.624C239.135 372.989 239.461 374.563 239.461 376.344C239.461 378.157 239.135 379.752 238.485 381.128C237.834 382.493 236.895 383.56 235.669 384.328C234.442 385.096 232.975 385.48 231.269 385.48ZM231.269 383.224C233.189 383.224 234.618 382.589 235.557 381.32C236.495 380.04 236.965 378.381 236.965 376.344C236.965 374.253 236.49 372.589 235.541 371.352C234.602 370.115 233.178 369.496 231.269 369.496C229.978 369.496 228.911 369.789 228.069 370.376C227.237 370.952 226.613 371.757 226.197 372.792C225.791 373.816 225.589 375 225.589 376.344C225.589 378.424 226.069 380.093 227.029 381.352C227.989 382.6 229.402 383.224 231.269 383.224ZM241.71 388.84V382.984C242.691 382.984 243.395 382.669 243.822 382.04C244.249 381.4 244.595 380.381 244.862 378.984C245.043 378.077 245.193 377.101 245.31 376.056C245.427 375.011 245.529 373.816 245.614 372.472C245.699 371.117 245.779 369.533 245.854 367.72H257.278V382.984H258.942V388.84H256.67V385H243.966V388.84H241.71ZM245.694 382.984H254.942V369.736H248.03C247.998 370.547 247.95 371.405 247.886 372.312C247.833 373.219 247.763 374.125 247.678 375.032C247.603 375.939 247.513 376.792 247.406 377.592C247.31 378.381 247.193 379.075 247.054 379.672C246.894 380.44 246.718 381.096 246.526 381.64C246.345 382.184 246.067 382.632 245.694 382.984ZM269.458 385.48C267.773 385.48 266.312 385.107 265.074 384.36C263.848 383.613 262.893 382.563 262.21 381.208C261.528 379.853 261.186 378.264 261.186 376.44C261.186 374.552 261.522 372.92 262.194 371.544C262.866 370.168 263.81 369.107 265.026 368.36C266.253 367.613 267.698 367.24 269.362 367.24C271.069 367.24 272.525 367.635 273.73 368.424C274.936 369.203 275.848 370.323 276.466 371.784C277.085 373.245 277.368 374.989 277.314 377.016H274.914V376.184C274.872 373.944 274.386 372.253 273.458 371.112C272.541 369.971 271.197 369.4 269.426 369.4C267.57 369.4 266.146 370.003 265.154 371.208C264.173 372.413 263.682 374.131 263.682 376.36C263.682 378.536 264.173 380.227 265.154 381.432C266.146 382.627 267.549 383.224 269.362 383.224C270.6 383.224 271.677 382.941 272.594 382.376C273.522 381.8 274.253 380.973 274.786 379.896L276.978 380.744C276.296 382.248 275.288 383.416 273.954 384.248C272.632 385.069 271.133 385.48 269.458 385.48ZM262.85 377.016V375.048H276.05V377.016H262.85ZM295.713 387.992V385H280.849V367.72H283.201V382.744H292.241V367.72H294.593V382.824H298.065V387.992H295.713ZM109.664 487H107.296V468.104L94.608 487H92.24V463.96H94.608V482.84L107.296 463.96H109.664V487ZM120.37 487.48C118.632 487.48 117.112 487.101 115.81 486.344C114.52 485.576 113.501 484.515 112.754 483.16L114.642 481.96C115.272 483.027 116.056 483.837 116.994 484.392C117.933 484.947 119.01 485.224 120.226 485.224C121.496 485.224 122.514 484.931 123.282 484.344C124.05 483.757 124.434 482.952 124.434 481.928C124.434 481.224 124.269 480.664 123.938 480.248C123.618 479.832 123.128 479.533 122.466 479.352C121.816 479.171 121 479.08 120.018 479.08H117.97V477.064H119.986C121.181 477.064 122.141 476.851 122.866 476.424C123.602 475.987 123.97 475.304 123.97 474.376C123.97 473.395 123.602 472.669 122.866 472.2C122.141 471.72 121.272 471.48 120.258 471.48C119.234 471.48 118.264 471.693 117.346 472.12C116.44 472.536 115.677 473.075 115.058 473.736L113.554 472.152C114.418 471.203 115.426 470.483 116.578 469.992C117.741 469.491 119.026 469.24 120.434 469.24C121.544 469.24 122.546 469.437 123.442 469.832C124.349 470.216 125.064 470.781 125.586 471.528C126.12 472.275 126.386 473.171 126.386 474.216C126.386 475.197 126.146 476.045 125.666 476.76C125.197 477.475 124.53 478.067 123.666 478.536L123.538 477.656C124.285 477.795 124.904 478.093 125.394 478.552C125.885 479.011 126.248 479.56 126.482 480.2C126.717 480.84 126.834 481.491 126.834 482.152C126.834 483.251 126.546 484.2 125.97 485C125.405 485.789 124.632 486.403 123.65 486.84C122.68 487.267 121.586 487.48 120.37 487.48ZM130.349 487V469.72H137.469C137.832 469.72 138.269 469.741 138.781 469.784C139.304 469.827 139.789 469.907 140.237 470.024C141.208 470.28 141.986 470.803 142.573 471.592C143.17 472.381 143.469 473.331 143.469 474.44C143.469 475.059 143.373 475.613 143.181 476.104C143 476.584 142.738 477 142.397 477.352C142.237 477.533 142.061 477.693 141.869 477.832C141.677 477.96 141.49 478.067 141.309 478.152C141.65 478.216 142.018 478.365 142.413 478.6C143.032 478.963 143.501 479.453 143.821 480.072C144.141 480.68 144.301 481.421 144.301 482.296C144.301 483.48 144.018 484.445 143.453 485.192C142.888 485.939 142.13 486.451 141.181 486.728C140.754 486.845 140.29 486.92 139.789 486.952C139.298 486.984 138.834 487 138.397 487H130.349ZM132.717 485H138.285C138.509 485 138.792 484.984 139.133 484.952C139.474 484.909 139.778 484.856 140.045 484.792C140.674 484.632 141.133 484.312 141.421 483.832C141.72 483.341 141.869 482.808 141.869 482.232C141.869 481.475 141.645 480.856 141.197 480.376C140.76 479.885 140.173 479.587 139.437 479.48C139.192 479.427 138.936 479.395 138.669 479.384C138.402 479.373 138.162 479.368 137.949 479.368H132.717V485ZM132.717 477.352H137.549C137.826 477.352 138.136 477.336 138.477 477.304C138.829 477.261 139.133 477.192 139.389 477.096C139.944 476.904 140.349 476.573 140.605 476.104C140.872 475.635 141.005 475.123 141.005 474.568C141.005 473.96 140.861 473.427 140.573 472.968C140.296 472.509 139.874 472.189 139.309 472.008C138.925 471.869 138.509 471.789 138.061 471.768C137.624 471.747 137.346 471.736 137.229 471.736H132.717V477.352ZM154.802 487.48C153.117 487.48 151.655 487.107 150.418 486.36C149.191 485.613 148.237 484.563 147.554 483.208C146.871 481.853 146.53 480.264 146.53 478.44C146.53 476.552 146.866 474.92 147.538 473.544C148.21 472.168 149.154 471.107 150.37 470.36C151.597 469.613 153.042 469.24 154.706 469.24C156.413 469.24 157.869 469.635 159.074 470.424C160.279 471.203 161.191 472.323 161.81 473.784C162.429 475.245 162.711 476.989 162.658 479.016H160.258V478.184C160.215 475.944 159.73 474.253 158.802 473.112C157.885 471.971 156.541 471.4 154.77 471.4C152.914 471.4 151.49 472.003 150.498 473.208C149.517 474.413 149.026 476.131 149.026 478.36C149.026 480.536 149.517 482.227 150.498 483.432C151.49 484.627 152.893 485.224 154.706 485.224C155.943 485.224 157.021 484.941 157.938 484.376C158.866 483.8 159.597 482.973 160.13 481.896L162.322 482.744C161.639 484.248 160.631 485.416 159.298 486.248C157.975 487.069 156.477 487.48 154.802 487.48ZM148.194 479.016V477.048H161.394V479.016H148.194ZM173.377 487.48C171.638 487.48 170.166 487.091 168.961 486.312C167.755 485.533 166.838 484.461 166.209 483.096C165.59 481.72 165.27 480.141 165.249 478.36C165.27 476.547 165.601 474.957 166.241 473.592C166.881 472.216 167.803 471.149 169.009 470.392C170.214 469.624 171.675 469.24 173.393 469.24C175.142 469.24 176.662 469.667 177.953 470.52C179.254 471.373 180.145 472.541 180.625 474.024L178.321 474.76C177.915 473.725 177.27 472.925 176.385 472.36C175.51 471.784 174.507 471.496 173.377 471.496C172.107 471.496 171.057 471.789 170.225 472.376C169.393 472.952 168.774 473.757 168.369 474.792C167.963 475.827 167.755 477.016 167.745 478.36C167.766 480.429 168.246 482.093 169.185 483.352C170.123 484.6 171.521 485.224 173.377 485.224C174.55 485.224 175.547 484.957 176.369 484.424C177.201 483.88 177.83 483.091 178.257 482.056L180.625 482.76C179.985 484.296 179.046 485.469 177.809 486.28C176.571 487.08 175.094 487.48 173.377 487.48ZM188.209 487V471.896H182.081V469.72H196.689V471.896H190.561V487H188.209ZM199.724 487V469.72H202.076V477.224H211.82V469.72H214.172V487H211.82V479.48H202.076V487H199.724ZM218.662 487L218.63 469.72H220.998V476.232H224.006C224.508 476.232 224.998 476.243 225.478 476.264C225.958 476.285 226.39 476.328 226.774 476.392C227.628 476.563 228.385 476.851 229.046 477.256C229.708 477.661 230.23 478.221 230.614 478.936C230.998 479.64 231.19 480.531 231.19 481.608C231.19 483.091 230.806 484.259 230.038 485.112C229.27 485.965 228.305 486.52 227.142 486.776C226.705 486.872 226.23 486.936 225.718 486.968C225.206 486.989 224.705 487 224.214 487H218.662ZM220.998 484.984H224.118C224.47 484.984 224.87 484.973 225.318 484.952C225.766 484.931 226.161 484.872 226.502 484.776C227.078 484.616 227.596 484.296 228.054 483.816C228.524 483.325 228.758 482.589 228.758 481.608C228.758 480.637 228.534 479.907 228.086 479.416C227.638 478.915 227.041 478.584 226.294 478.424C225.953 478.349 225.59 478.301 225.206 478.28C224.833 478.259 224.47 478.248 224.118 478.248H220.998V484.984ZM233.254 487V469.72H235.606V487H233.254ZM247.396 487.48C245.71 487.48 244.249 487.107 243.012 486.36C241.785 485.613 240.83 484.563 240.148 483.208C239.465 481.853 239.124 480.264 239.124 478.44C239.124 476.552 239.46 474.92 240.132 473.544C240.804 472.168 241.748 471.107 242.964 470.36C244.19 469.613 245.636 469.24 247.3 469.24C249.006 469.24 250.462 469.635 251.668 470.424C252.873 471.203 253.785 472.323 254.404 473.784C255.022 475.245 255.305 476.989 255.252 479.016H252.852V478.184C252.809 475.944 252.324 474.253 251.396 473.112C250.478 471.971 249.134 471.4 247.364 471.4C245.508 471.4 244.084 472.003 243.092 473.208C242.11 474.413 241.62 476.131 241.62 478.36C241.62 480.536 242.11 482.227 243.092 483.432C244.084 484.627 245.486 485.224 247.3 485.224C248.537 485.224 249.614 484.941 250.532 484.376C251.46 483.8 252.19 482.973 252.724 481.896L254.916 482.744C254.233 484.248 253.225 485.416 251.892 486.248C250.569 487.069 249.07 487.48 247.396 487.48ZM240.788 479.016V477.048H253.988V479.016H240.788ZM263.609 487L271.545 463.96H274.665L282.601 487H280.153L272.617 465.272H273.545L266.057 487H263.609ZM267.145 481.416V479.208H279.049V481.416H267.145ZM284.21 490.84V484.984C285.191 484.984 285.895 484.669 286.322 484.04C286.749 483.4 287.095 482.381 287.362 480.984C287.543 480.077 287.693 479.101 287.81 478.056C287.927 477.011 288.029 475.816 288.114 474.472C288.199 473.117 288.279 471.533 288.354 469.72H299.778V484.984H301.442V490.84H299.17V487H286.466V490.84H284.21ZM288.194 484.984H297.442V471.736H290.53C290.498 472.547 290.45 473.405 290.386 474.312C290.333 475.219 290.263 476.125 290.178 477.032C290.103 477.939 290.013 478.792 289.906 479.592C289.81 480.381 289.693 481.075 289.554 481.672C289.394 482.44 289.218 483.096 289.026 483.64C288.845 484.184 288.567 484.632 288.194 484.984ZM304.662 487L304.63 469.72H306.998V476.232H310.006C310.508 476.232 310.998 476.243 311.478 476.264C311.958 476.285 312.39 476.328 312.774 476.392C313.628 476.563 314.385 476.851 315.046 477.256C315.708 477.661 316.23 478.221 316.614 478.936C316.998 479.64 317.19 480.531 317.19 481.608C317.19 483.091 316.806 484.259 316.038 485.112C315.27 485.965 314.305 486.52 313.142 486.776C312.705 486.872 312.23 486.936 311.718 486.968C311.206 486.989 310.705 487 310.214 487H304.662ZM306.998 484.984H310.118C310.47 484.984 310.87 484.973 311.318 484.952C311.766 484.931 312.161 484.872 312.502 484.776C313.078 484.616 313.596 484.296 314.054 483.816C314.524 483.325 314.758 482.589 314.758 481.608C314.758 480.637 314.534 479.907 314.086 479.416C313.638 478.915 313.041 478.584 312.294 478.424C311.953 478.349 311.59 478.301 311.206 478.28C310.833 478.259 310.47 478.248 310.118 478.248H306.998V484.984ZM319.254 487V469.72H321.606V487H319.254ZM326.084 487V469.72H337.924V471.976H328.436V487H326.084ZM354.687 469.72V487H352.399V473.544L342.927 487H340.943V469.72H343.231V483.064L352.719 469.72H354.687Z" fill="#414141"/>
<defs>
<filter id="filter0_ddi_1981_3291" x="0" y="0" width="743" height="696" filterUnits="userSpaceOnUse" color-interpolation-filters="sRGB">
<feFlood flood-opacity="0" result="BackgroundImageFix"/>
<feColorMatrix in="SourceAlpha" type="matrix" values="0 0 0 0 0 0 0 0 0 0 0 0 0 0 0 0 0 0 127 0" result="hardAlpha"/>
<feOffset dx="-1" dy="-1"/>
<feGaussianBlur stdDeviation="0.5"/>
<feComposite in2="hardAlpha" operator="out"/>
<feColorMatrix type="matrix" values="0 0 0 0 1 0 0 0 0 1 0 0 0 0 1 0 0 0 0.2 0"/>
<feBlend mode="normal" in2="BackgroundImageFix" result="effect1_dropShadow_1981_3291"/>
<feColorMatrix in="SourceAlpha" type="matrix" values="0 0 0 0 0 0 0 0 0 0 0 0 0 0 0 0 0 0 127 0" result="hardAlpha"/>
<feOffset dx="1" dy="1"/>
<feGaussianBlur stdDeviation="2"/>
<feComposite in2="hardAlpha" operator="out"/>
<feColorMatrix type="matrix" values="0 0 0 0 0 0 0 0 0 0 0 0 0 0 0 0 0 0 0.1 0"/>
<feBlend mode="normal" in2="effect1_dropShadow_1981_3291" result="effect2_dropShadow_1981_3291"/>
<feBlend mode="normal" in="SourceGraphic" in2="effect2_dropShadow_1981_3291" result="shape"/>
<feColorMatrix in="SourceAlpha" type="matrix" values="0 0 0 0 0 0 0 0 0 0 0 0 0 0 0 0 0 0 127 0" result="hardAlpha"/>
<feOffset/>
<feGaussianBlur stdDeviation="0.5"/>
<feComposite in2="hardAlpha" operator="arithmetic" k2="-1" k3="1"/>
<feColorMatrix type="matrix" values="0 0 0 0 0 0 0 0 0 0 0 0 0 0 0 0 0 0 0.1 0"/>
<feBlend mode="normal" in2="shape" result="effect3_innerShadow_1981_3291"/>
</filter>
</defs>
</svg>
