<svg width="743" height="696" viewBox="0 0 743 696" fill="none" xmlns="http://www.w3.org/2000/svg">
<g filter="url(#filter0_ddi_1981_3296)">
<rect x="3" y="3" width="735" height="688" rx="40" fill="white"/>
</g>
<path d="M83.24 232V208.96H97.96V212.112H86.584V232H83.24ZM100.607 239.68L103.951 230.576L103.999 233.264L96.4633 214.72H99.9513L105.583 229.04H104.559L109.935 214.72H113.327L103.791 239.68H100.607ZM134.794 235.408V232H115.818V214.72H119.034V228.992H124.458V214.72H127.674V228.992H133.082V214.72H136.298V228.992H138.138V235.408H134.794ZM140.693 232V214.72H144.053V220.72H146.325C146.815 220.72 147.343 220.731 147.909 220.752C148.474 220.773 148.954 220.827 149.349 220.912C150.277 221.104 151.082 221.424 151.765 221.872C152.447 222.32 152.97 222.917 153.333 223.664C153.706 224.4 153.893 225.307 153.893 226.384C153.893 227.888 153.503 229.088 152.725 229.984C151.946 230.869 150.89 231.467 149.557 231.776C149.13 231.872 148.623 231.936 148.037 231.968C147.461 231.989 146.927 232 146.437 232H140.693ZM144.053 229.312H146.629C146.906 229.312 147.215 229.301 147.557 229.28C147.898 229.259 148.213 229.211 148.501 229.136C149.002 228.987 149.455 228.683 149.861 228.224C150.266 227.765 150.469 227.152 150.469 226.384C150.469 225.595 150.266 224.965 149.861 224.496C149.466 224.027 148.965 223.723 148.357 223.584C148.079 223.509 147.786 223.461 147.477 223.44C147.178 223.419 146.895 223.408 146.629 223.408H144.053V229.312ZM155.797 232V214.72H159.141V232H155.797ZM163.935 232V208.96H167.279V232H163.935ZM178.436 232.48C176.58 232.48 175.001 232.032 173.7 231.136C172.398 230.229 171.46 228.933 170.884 227.248L174.276 226.448C174.628 227.376 175.14 228.091 175.812 228.592C176.484 229.083 177.353 229.328 178.42 229.328C179.806 229.328 180.889 228.907 181.668 228.064C182.446 227.221 182.926 226.096 183.108 224.688H176.692V222H183.108C182.937 220.656 182.473 219.552 181.716 218.688C180.958 217.824 179.886 217.392 178.5 217.392C177.497 217.392 176.617 217.659 175.86 218.192C175.102 218.715 174.553 219.472 174.212 220.464L170.884 219.504C171.31 217.872 172.196 216.587 173.54 215.648C174.884 214.709 176.51 214.24 178.42 214.24C180.148 214.24 181.636 214.629 182.884 215.408C184.132 216.187 185.092 217.264 185.764 218.64C186.436 220.016 186.772 221.595 186.772 223.376C186.772 225.147 186.441 226.72 185.78 228.096C185.118 229.461 184.164 230.533 182.916 231.312C181.668 232.091 180.174 232.48 178.436 232.48ZM195.429 235.84V229.312C196.378 229.312 197.055 228.997 197.461 228.368C197.877 227.728 198.207 226.645 198.453 225.12C198.602 224.192 198.725 223.205 198.821 222.16C198.927 221.115 199.018 219.984 199.093 218.768C199.167 217.541 199.242 216.192 199.317 214.72H211.701V229.312H213.397V235.84H210.229V232H198.613V235.84H195.429ZM200.213 229.312H208.341V217.408H202.293C202.25 218.112 202.202 218.837 202.149 219.584C202.106 220.331 202.053 221.072 201.989 221.808C201.935 222.544 201.871 223.248 201.797 223.92C201.722 224.592 201.637 225.2 201.541 225.744C201.413 226.587 201.258 227.291 201.077 227.856C200.906 228.421 200.618 228.907 200.213 229.312ZM221.464 232.48C220.184 232.48 219.112 232.245 218.248 231.776C217.384 231.296 216.728 230.667 216.28 229.888C215.842 229.099 215.624 228.235 215.624 227.296C215.624 226.421 215.778 225.653 216.088 224.992C216.397 224.331 216.856 223.771 217.464 223.312C218.072 222.843 218.818 222.464 219.704 222.176C220.472 221.952 221.341 221.755 222.312 221.584C223.282 221.413 224.301 221.253 225.368 221.104C226.445 220.955 227.512 220.805 228.568 220.656L227.352 221.328C227.373 219.973 227.085 218.971 226.488 218.32C225.901 217.659 224.888 217.328 223.448 217.328C222.541 217.328 221.709 217.541 220.952 217.968C220.194 218.384 219.666 219.077 219.368 220.048L216.248 219.088C216.674 217.605 217.485 216.427 218.68 215.552C219.885 214.677 221.485 214.24 223.48 214.24C225.026 214.24 226.37 214.507 227.512 215.04C228.664 215.563 229.506 216.395 230.04 217.536C230.317 218.101 230.488 218.699 230.552 219.328C230.616 219.957 230.648 220.635 230.648 221.36V232H227.688V228.048L228.264 228.56C227.549 229.883 226.637 230.869 225.528 231.52C224.429 232.16 223.074 232.48 221.464 232.48ZM222.056 229.744C223.005 229.744 223.821 229.579 224.504 229.248C225.186 228.907 225.736 228.475 226.152 227.952C226.568 227.429 226.84 226.885 226.968 226.32C227.149 225.808 227.25 225.232 227.272 224.592C227.304 223.952 227.32 223.44 227.32 223.056L228.408 223.456C227.352 223.616 226.392 223.76 225.528 223.888C224.664 224.016 223.88 224.144 223.176 224.272C222.482 224.389 221.864 224.533 221.32 224.704C220.861 224.864 220.45 225.056 220.088 225.28C219.736 225.504 219.453 225.776 219.24 226.096C219.037 226.416 218.936 226.805 218.936 227.264C218.936 227.712 219.048 228.128 219.272 228.512C219.496 228.885 219.837 229.184 220.296 229.408C220.754 229.632 221.341 229.744 222.056 229.744ZM232.883 232L239.347 223.264L233.027 214.72H236.995L241.299 220.656L245.555 214.72H249.523L243.203 223.264L249.683 232H245.699L241.299 225.872L236.867 232H232.883ZM257.967 232.48C256.111 232.48 254.532 232.032 253.231 231.136C251.93 230.229 250.991 228.933 250.415 227.248L253.807 226.448C254.159 227.376 254.671 228.091 255.343 228.592C256.015 229.083 256.884 229.328 257.951 229.328C259.338 229.328 260.42 228.907 261.199 228.064C261.978 227.221 262.458 226.096 262.639 224.688H256.223V222H262.639C262.468 220.656 262.004 219.552 261.247 218.688C260.49 217.824 259.418 217.392 258.031 217.392C257.028 217.392 256.148 217.659 255.391 218.192C254.634 218.715 254.084 219.472 253.743 220.464L250.415 219.504C250.842 217.872 251.727 216.587 253.071 215.648C254.415 214.709 256.042 214.24 257.951 214.24C259.679 214.24 261.167 214.629 262.415 215.408C263.663 216.187 264.623 217.264 265.295 218.64C265.967 220.016 266.303 221.595 266.303 223.376C266.303 225.147 265.972 226.72 265.311 228.096C264.65 229.461 263.695 230.533 262.447 231.312C261.199 232.091 259.706 232.48 257.967 232.48ZM269.818 232V214.72H272.618L279.002 227.392L285.37 214.72H288.186V232H284.954V221.568L279.754 232H278.234L273.034 221.568V232H269.818ZM303.548 232V217.728H297.644V214.72H312.796V217.728H306.892V232H303.548ZM320.214 232.48C318.934 232.48 317.862 232.245 316.998 231.776C316.134 231.296 315.478 230.667 315.03 229.888C314.592 229.099 314.374 228.235 314.374 227.296C314.374 226.421 314.528 225.653 314.838 224.992C315.147 224.331 315.606 223.771 316.214 223.312C316.822 222.843 317.568 222.464 318.454 222.176C319.222 221.952 320.091 221.755 321.062 221.584C322.032 221.413 323.051 221.253 324.118 221.104C325.195 220.955 326.262 220.805 327.318 220.656L326.102 221.328C326.123 219.973 325.835 218.971 325.238 218.32C324.651 217.659 323.638 217.328 322.198 217.328C321.291 217.328 320.459 217.541 319.702 217.968C318.944 218.384 318.416 219.077 318.118 220.048L314.998 219.088C315.424 217.605 316.235 216.427 317.43 215.552C318.635 214.677 320.235 214.24 322.23 214.24C323.776 214.24 325.12 214.507 326.262 215.04C327.414 215.563 328.256 216.395 328.79 217.536C329.067 218.101 329.238 218.699 329.302 219.328C329.366 219.957 329.398 220.635 329.398 221.36V232H326.438V228.048L327.014 228.56C326.299 229.883 325.387 230.869 324.278 231.52C323.179 232.16 321.824 232.48 320.214 232.48ZM320.806 229.744C321.755 229.744 322.571 229.579 323.254 229.248C323.936 228.907 324.486 228.475 324.902 227.952C325.318 227.429 325.59 226.885 325.718 226.32C325.899 225.808 326 225.232 326.022 224.592C326.054 223.952 326.07 223.44 326.07 223.056L327.158 223.456C326.102 223.616 325.142 223.76 324.278 223.888C323.414 224.016 322.63 224.144 321.926 224.272C321.232 224.389 320.614 224.533 320.07 224.704C319.611 224.864 319.2 225.056 318.838 225.28C318.486 225.504 318.203 225.776 317.99 226.096C317.787 226.416 317.686 226.805 317.686 227.264C317.686 227.712 317.798 228.128 318.022 228.512C318.246 228.885 318.587 229.184 319.046 229.408C319.504 229.632 320.091 229.744 320.806 229.744ZM333.537 232V214.72H336.337L342.721 227.392L349.089 214.72H351.905V232H348.673V221.568L343.473 232H341.953L336.753 221.568V232H333.537ZM362.748 232.48C360.892 232.48 359.314 232.032 358.012 231.136C356.711 230.229 355.772 228.933 355.196 227.248L358.588 226.448C358.94 227.376 359.452 228.091 360.124 228.592C360.796 229.083 361.666 229.328 362.732 229.328C364.119 229.328 365.202 228.907 365.98 228.064C366.759 227.221 367.239 226.096 367.42 224.688H361.004V222H367.42C367.25 220.656 366.786 219.552 366.028 218.688C365.271 217.824 364.199 217.392 362.812 217.392C361.81 217.392 360.93 217.659 360.172 218.192C359.415 218.715 358.866 219.472 358.524 220.464L355.196 219.504C355.623 217.872 356.508 216.587 357.852 215.648C359.196 214.709 360.823 214.24 362.732 214.24C364.46 214.24 365.948 214.629 367.196 215.408C368.444 216.187 369.404 217.264 370.076 218.64C370.748 220.016 371.084 221.595 371.084 223.376C371.084 225.147 370.754 226.72 370.092 228.096C369.431 229.461 368.476 230.533 367.228 231.312C365.98 232.091 364.487 232.48 362.748 232.48ZM381.005 232L381.021 214.72H384.413V223.04L391.197 214.72H395.453L388.285 223.36L396.189 232H391.645L384.413 223.68V232H381.005ZM398.667 232L398.651 217.408H396.203V214.72H402.011V220.72H405.435C405.925 220.72 406.448 220.731 407.003 220.752C407.568 220.773 408.048 220.827 408.443 220.912C409.381 221.104 410.187 221.424 410.859 221.872C411.541 222.32 412.064 222.917 412.427 223.664C412.8 224.4 412.987 225.307 412.987 226.384C412.987 227.888 412.597 229.088 411.819 229.984C411.04 230.869 409.984 231.467 408.651 231.776C408.224 231.872 407.717 231.936 407.131 231.968C406.555 231.989 406.021 232 405.531 232H398.667ZM402.011 229.312H405.723C406 229.312 406.309 229.301 406.651 229.28C406.992 229.259 407.307 229.211 407.595 229.136C408.107 228.987 408.56 228.683 408.955 228.224C409.36 227.765 409.563 227.152 409.563 226.384C409.563 225.595 409.36 224.965 408.955 224.496C408.56 224.027 408.059 223.723 407.451 223.584C407.173 223.509 406.88 223.461 406.571 223.44C406.272 223.419 405.989 223.408 405.723 223.408H402.011V229.312ZM416.037 232V214.72H419.397V220.72H421.669C422.159 220.72 422.687 220.731 423.253 220.752C423.818 220.773 424.298 220.827 424.693 220.912C425.621 221.104 426.426 221.424 427.109 221.872C427.791 222.32 428.314 222.917 428.677 223.664C429.05 224.4 429.237 225.307 429.237 226.384C429.237 227.888 428.847 229.088 428.069 229.984C427.29 230.869 426.234 231.467 424.901 231.776C424.474 231.872 423.967 231.936 423.381 231.968C422.805 231.989 422.271 232 421.781 232H416.037ZM419.397 229.312H421.973C422.25 229.312 422.559 229.301 422.901 229.28C423.242 229.259 423.557 229.211 423.845 229.136C424.346 228.987 424.799 228.683 425.205 228.224C425.61 227.765 425.813 227.152 425.813 226.384C425.813 225.595 425.61 224.965 425.205 224.496C424.81 224.027 424.309 223.723 423.701 223.584C423.423 223.509 423.13 223.461 422.821 223.44C422.522 223.419 422.239 223.408 421.973 223.408H419.397V229.312ZM431.141 232V214.72H434.485V232H431.141ZM446.063 232.496C444.42 232.485 443.023 232.128 441.871 231.424C440.719 230.72 439.817 229.707 439.167 228.384C438.527 227.051 438.153 225.445 438.047 223.568C437.993 222.661 437.999 221.659 438.063 220.56C438.127 219.451 438.244 218.379 438.415 217.344C438.596 216.309 438.825 215.445 439.103 214.752C439.412 213.984 439.833 213.28 440.367 212.64C440.9 211.989 441.487 211.445 442.127 211.008C442.809 210.539 443.567 210.176 444.399 209.92C445.231 209.653 446.1 209.445 447.007 209.296C447.924 209.147 448.847 209.019 449.775 208.912C450.713 208.795 451.625 208.651 452.511 208.48L452.831 211.472C452.244 211.611 451.551 211.723 450.751 211.808C449.961 211.893 449.14 211.989 448.287 212.096C447.444 212.203 446.639 212.352 445.871 212.544C445.103 212.736 444.436 213.008 443.871 213.36C443.071 213.851 442.457 214.565 442.031 215.504C441.615 216.443 441.364 217.461 441.279 218.56C441.94 217.557 442.783 216.837 443.807 216.4C444.831 215.952 445.892 215.728 446.991 215.728C448.527 215.728 449.849 216.091 450.959 216.816C452.079 217.541 452.937 218.528 453.535 219.776C454.132 221.024 454.431 222.437 454.431 224.016C454.431 225.723 454.079 227.216 453.375 228.496C452.681 229.765 451.705 230.757 450.447 231.472C449.188 232.176 447.727 232.517 446.063 232.496ZM446.239 229.344C447.775 229.344 448.932 228.869 449.711 227.92C450.5 226.971 450.895 225.707 450.895 224.128C450.895 222.507 450.489 221.232 449.679 220.304C448.868 219.376 447.721 218.912 446.239 218.912C444.735 218.912 443.583 219.376 442.783 220.304C441.993 221.232 441.599 222.507 441.599 224.128C441.599 225.771 441.999 227.051 442.799 227.968C443.599 228.885 444.745 229.344 446.239 229.344ZM457.959 232V214.72H470.119V217.872H461.303V232H457.959ZM475.045 239.68L478.389 230.576L478.437 233.264L470.901 214.72H474.389L480.021 229.04H478.997L484.373 214.72H487.765L478.229 239.68H475.045ZM497.935 232.48C496.218 232.48 494.709 232.107 493.407 231.36C492.117 230.603 491.109 229.552 490.383 228.208C489.669 226.853 489.311 225.285 489.311 223.504C489.311 221.616 489.663 219.979 490.367 218.592C491.082 217.205 492.074 216.133 493.343 215.376C494.613 214.619 496.09 214.24 497.775 214.24C499.535 214.24 501.034 214.651 502.271 215.472C503.509 216.283 504.431 217.44 505.039 218.944C505.658 220.448 505.903 222.235 505.775 224.304H502.431V223.088C502.41 221.083 502.026 219.6 501.279 218.64C500.543 217.68 499.418 217.2 497.903 217.2C496.229 217.2 494.97 217.728 494.127 218.784C493.285 219.84 492.863 221.365 492.863 223.36C492.863 225.259 493.285 226.731 494.127 227.776C494.97 228.811 496.186 229.328 497.775 229.328C498.821 229.328 499.722 229.093 500.479 228.624C501.247 228.144 501.845 227.461 502.271 226.576L505.551 227.616C504.879 229.163 503.861 230.363 502.495 231.216C501.13 232.059 499.61 232.48 497.935 232.48ZM491.775 224.304V221.696H504.111V224.304H491.775ZM509.365 232V214.72H521.525V217.872H512.709V232H509.365ZM525.417 232L525.401 217.408H522.953V214.72H528.761V220.72H532.185C532.675 220.72 533.198 220.731 533.753 220.752C534.318 220.773 534.798 220.827 535.193 220.912C536.131 221.104 536.937 221.424 537.609 221.872C538.291 222.32 538.814 222.917 539.177 223.664C539.55 224.4 539.737 225.307 539.737 226.384C539.737 227.888 539.347 229.088 538.569 229.984C537.79 230.869 536.734 231.467 535.401 231.776C534.974 231.872 534.467 231.936 533.881 231.968C533.305 231.989 532.771 232 532.281 232H525.417ZM528.761 229.312H532.473C532.75 229.312 533.059 229.301 533.401 229.28C533.742 229.259 534.057 229.211 534.345 229.136C534.857 228.987 535.31 228.683 535.705 228.224C536.11 227.765 536.313 227.152 536.313 226.384C536.313 225.595 536.11 224.965 535.705 224.496C535.31 224.027 534.809 223.723 534.201 223.584C533.923 223.509 533.63 223.461 533.321 223.44C533.022 223.419 532.739 223.408 532.473 223.408H528.761V229.312ZM548.151 232.48C546.871 232.48 545.799 232.245 544.935 231.776C544.071 231.296 543.415 230.667 542.967 229.888C542.53 229.099 542.311 228.235 542.311 227.296C542.311 226.421 542.466 225.653 542.775 224.992C543.085 224.331 543.543 223.771 544.151 223.312C544.759 222.843 545.506 222.464 546.391 222.176C547.159 221.952 548.029 221.755 548.999 221.584C549.97 221.413 550.989 221.253 552.055 221.104C553.133 220.955 554.199 220.805 555.255 220.656L554.039 221.328C554.061 219.973 553.773 218.971 553.175 218.32C552.589 217.659 551.575 217.328 550.135 217.328C549.229 217.328 548.397 217.541 547.639 217.968C546.882 218.384 546.354 219.077 546.055 220.048L542.935 219.088C543.362 217.605 544.173 216.427 545.367 215.552C546.573 214.677 548.173 214.24 550.167 214.24C551.714 214.24 553.058 214.507 554.199 215.04C555.351 215.563 556.194 216.395 556.727 217.536C557.005 218.101 557.175 218.699 557.239 219.328C557.303 219.957 557.335 220.635 557.335 221.36V232H554.375V228.048L554.951 228.56C554.237 229.883 553.325 230.869 552.215 231.52C551.117 232.16 549.762 232.48 548.151 232.48ZM548.743 229.744C549.693 229.744 550.509 229.579 551.191 229.248C551.874 228.907 552.423 228.475 552.839 227.952C553.255 227.429 553.527 226.885 553.655 226.32C553.837 225.808 553.938 225.232 553.959 224.592C553.991 223.952 554.007 223.44 554.007 223.056L555.095 223.456C554.039 223.616 553.079 223.76 552.215 223.888C551.351 224.016 550.567 224.144 549.863 224.272C549.17 224.389 548.551 224.533 548.007 224.704C547.549 224.864 547.138 225.056 546.775 225.28C546.423 225.504 546.141 225.776 545.927 226.096C545.725 226.416 545.623 226.805 545.623 227.264C545.623 227.712 545.735 228.128 545.959 228.512C546.183 228.885 546.525 229.184 546.983 229.408C547.442 229.632 548.029 229.744 548.743 229.744ZM561.474 232L561.49 214.72H564.882V223.04L571.666 214.72H575.922L568.754 223.36L576.658 232H572.114L564.882 223.68V232H561.474ZM578.591 232V208.96H581.935V232H578.591ZM593.092 232.48C591.236 232.48 589.657 232.032 588.356 231.136C587.055 230.229 586.116 228.933 585.54 227.248L588.932 226.448C589.284 227.376 589.796 228.091 590.468 228.592C591.14 229.083 592.009 229.328 593.076 229.328C594.463 229.328 595.545 228.907 596.324 228.064C597.103 227.221 597.583 226.096 597.764 224.688H591.348V222H597.764C597.593 220.656 597.129 219.552 596.372 218.688C595.615 217.824 594.543 217.392 593.156 217.392C592.153 217.392 591.273 217.659 590.516 218.192C589.759 218.715 589.209 219.472 588.868 220.464L585.54 219.504C585.967 217.872 586.852 216.587 588.196 215.648C589.54 214.709 591.167 214.24 593.076 214.24C594.804 214.24 596.292 214.629 597.54 215.408C598.788 216.187 599.748 217.264 600.42 218.64C601.092 220.016 601.428 221.595 601.428 223.376C601.428 225.147 601.097 226.72 600.436 228.096C599.775 229.461 598.82 230.533 597.572 231.312C596.324 232.091 594.831 232.48 593.092 232.48ZM604.014 235.824L604.222 234.336C604.68 234.368 605.038 234.283 605.294 234.08C605.55 233.877 605.72 233.595 605.806 233.232C605.891 232.869 605.907 232.459 605.854 232H604.014V228.144H607.55V232.32C607.55 233.579 607.246 234.528 606.638 235.168C606.04 235.808 605.166 236.027 604.014 235.824ZM83.24 283V265.72H95.4V268.872H86.584V283H83.24ZM100.326 290.68L103.67 281.576L103.718 284.264L96.182 265.72H99.67L105.302 280.04H104.278L109.654 265.72H113.046L103.51 290.68H100.326ZM134.513 286.408V283H115.537V265.72H118.753V279.992H124.177V265.72H127.393V279.992H132.801V265.72H136.017V279.992H137.857V286.408H134.513ZM140.412 283V265.72H143.772V271.72H146.044C146.534 271.72 147.062 271.731 147.628 271.752C148.193 271.773 148.673 271.827 149.068 271.912C149.996 272.104 150.801 272.424 151.484 272.872C152.166 273.32 152.689 273.917 153.052 274.664C153.425 275.4 153.612 276.307 153.612 277.384C153.612 278.888 153.222 280.088 152.444 280.984C151.665 281.869 150.609 282.467 149.276 282.776C148.849 282.872 148.342 282.936 147.756 282.968C147.18 282.989 146.646 283 146.156 283H140.412ZM143.772 280.312H146.348C146.625 280.312 146.934 280.301 147.276 280.28C147.617 280.259 147.932 280.211 148.22 280.136C148.721 279.987 149.174 279.683 149.58 279.224C149.985 278.765 150.188 278.152 150.188 277.384C150.188 276.595 149.985 275.965 149.58 275.496C149.185 275.027 148.684 274.723 148.076 274.584C147.798 274.509 147.505 274.461 147.196 274.44C146.897 274.419 146.614 274.408 146.348 274.408H143.772V280.312ZM155.516 283V265.72H158.86V283H155.516ZM163.654 283V259.96H166.998V283H163.654ZM178.155 283.48C176.299 283.48 174.72 283.032 173.419 282.136C172.117 281.229 171.179 279.933 170.603 278.248L173.995 277.448C174.347 278.376 174.859 279.091 175.531 279.592C176.203 280.083 177.072 280.328 178.139 280.328C179.525 280.328 180.608 279.907 181.387 279.064C182.165 278.221 182.645 277.096 182.827 275.688H176.411V273H182.827C182.656 271.656 182.192 270.552 181.435 269.688C180.677 268.824 179.605 268.392 178.219 268.392C177.216 268.392 176.336 268.659 175.579 269.192C174.821 269.715 174.272 270.472 173.931 271.464L170.603 270.504C171.029 268.872 171.915 267.587 173.259 266.648C174.603 265.709 176.229 265.24 178.139 265.24C179.867 265.24 181.355 265.629 182.603 266.408C183.851 267.187 184.811 268.264 185.483 269.64C186.155 271.016 186.491 272.595 186.491 274.376C186.491 276.147 186.16 277.72 185.499 279.096C184.837 280.461 183.883 281.533 182.635 282.312C181.387 283.091 179.893 283.48 178.155 283.48ZM196.748 283V259.96H200.092V283H196.748ZM209.776 283.48C208.496 283.48 207.424 283.245 206.56 282.776C205.696 282.296 205.04 281.667 204.592 280.888C204.155 280.099 203.936 279.235 203.936 278.296C203.936 277.421 204.091 276.653 204.4 275.992C204.71 275.331 205.168 274.771 205.776 274.312C206.384 273.843 207.131 273.464 208.016 273.176C208.784 272.952 209.654 272.755 210.624 272.584C211.595 272.413 212.614 272.253 213.68 272.104C214.758 271.955 215.824 271.805 216.88 271.656L215.664 272.328C215.686 270.973 215.398 269.971 214.8 269.32C214.214 268.659 213.2 268.328 211.76 268.328C210.854 268.328 210.022 268.541 209.264 268.968C208.507 269.384 207.979 270.077 207.68 271.048L204.56 270.088C204.987 268.605 205.798 267.427 206.992 266.552C208.198 265.677 209.798 265.24 211.792 265.24C213.339 265.24 214.683 265.507 215.824 266.04C216.976 266.563 217.819 267.395 218.352 268.536C218.63 269.101 218.8 269.699 218.864 270.328C218.928 270.957 218.96 271.635 218.96 272.36V283H216V279.048L216.576 279.56C215.862 280.883 214.95 281.869 213.84 282.52C212.742 283.16 211.387 283.48 209.776 283.48ZM210.368 280.744C211.318 280.744 212.134 280.579 212.816 280.248C213.499 279.907 214.048 279.475 214.464 278.952C214.88 278.429 215.152 277.885 215.28 277.32C215.462 276.808 215.563 276.232 215.584 275.592C215.616 274.952 215.632 274.44 215.632 274.056L216.72 274.456C215.664 274.616 214.704 274.76 213.84 274.888C212.976 275.016 212.192 275.144 211.488 275.272C210.795 275.389 210.176 275.533 209.632 275.704C209.174 275.864 208.763 276.056 208.4 276.28C208.048 276.504 207.766 276.776 207.552 277.096C207.35 277.416 207.248 277.805 207.248 278.264C207.248 278.712 207.36 279.128 207.584 279.512C207.808 279.885 208.15 280.184 208.608 280.408C209.067 280.632 209.654 280.744 210.368 280.744ZM230.779 283.48C229.062 283.48 227.552 283.107 226.251 282.36C224.96 281.603 223.952 280.552 223.227 279.208C222.512 277.853 222.155 276.285 222.155 274.504C222.155 272.616 222.507 270.979 223.211 269.592C223.926 268.205 224.918 267.133 226.187 266.376C227.456 265.619 228.934 265.24 230.619 265.24C232.379 265.24 233.878 265.651 235.115 266.472C236.352 267.283 237.275 268.44 237.883 269.944C238.502 271.448 238.747 273.235 238.619 275.304H235.275V274.088C235.254 272.083 234.87 270.6 234.123 269.64C233.387 268.68 232.262 268.2 230.747 268.2C229.072 268.2 227.814 268.728 226.971 269.784C226.128 270.84 225.707 272.365 225.707 274.36C225.707 276.259 226.128 277.731 226.971 278.776C227.814 279.811 229.03 280.328 230.619 280.328C231.664 280.328 232.566 280.093 233.323 279.624C234.091 279.144 234.688 278.461 235.115 277.576L238.395 278.616C237.723 280.163 236.704 281.363 235.339 282.216C233.974 283.059 232.454 283.48 230.779 283.48ZM224.619 275.304V272.696H236.955V275.304H224.619ZM241.724 283V265.72H244.524L250.908 278.392L257.276 265.72H260.092V283H256.86V272.568L251.66 283H250.14L244.94 272.568V283H241.724ZM273.326 290.68L276.67 281.576L276.718 284.264L269.182 265.72H272.67L278.302 280.04H277.278L282.654 265.72H286.046L276.51 290.68H273.326ZM294.713 283.48C293.038 283.48 291.534 283.123 290.201 282.408C288.878 281.693 287.833 280.707 287.065 279.448L289.721 277.704C290.339 278.536 291.054 279.181 291.865 279.64C292.686 280.099 293.609 280.328 294.633 280.328C295.699 280.328 296.542 280.088 297.161 279.608C297.79 279.117 298.105 278.461 298.105 277.64C298.105 276.989 297.923 276.509 297.561 276.2C297.209 275.88 296.718 275.672 296.089 275.576C295.47 275.48 294.766 275.432 293.977 275.432H292.441V272.744H293.977C295.022 272.744 295.881 272.6 296.553 272.312C297.235 272.013 297.577 271.453 297.577 270.632C297.577 269.832 297.283 269.256 296.697 268.904C296.121 268.552 295.433 268.376 294.633 268.376C293.737 268.376 292.867 268.568 292.025 268.952C291.182 269.325 290.446 269.789 289.817 270.344L287.865 268.056C288.782 267.171 289.827 266.483 291.001 265.992C292.185 265.491 293.454 265.24 294.809 265.24C295.918 265.24 296.942 265.437 297.881 265.832C298.83 266.216 299.587 266.787 300.153 267.544C300.729 268.301 301.017 269.235 301.017 270.344C301.017 271.208 300.825 271.997 300.441 272.712C300.057 273.427 299.47 274.077 298.681 274.664L298.585 273.528C299.235 273.731 299.779 274.056 300.217 274.504C300.654 274.952 300.979 275.48 301.193 276.088C301.417 276.685 301.529 277.32 301.529 277.992C301.529 279.155 301.219 280.147 300.601 280.968C299.993 281.789 299.171 282.413 298.137 282.84C297.102 283.267 295.961 283.48 294.713 283.48ZM311.405 283.48C309.549 283.48 307.97 283.032 306.669 282.136C305.367 281.229 304.429 279.933 303.853 278.248L307.245 277.448C307.597 278.376 308.109 279.091 308.781 279.592C309.453 280.083 310.322 280.328 311.389 280.328C312.775 280.328 313.858 279.907 314.637 279.064C315.415 278.221 315.895 277.096 316.077 275.688H309.661V273H316.077C315.906 271.656 315.442 270.552 314.685 269.688C313.927 268.824 312.855 268.392 311.469 268.392C310.466 268.392 309.586 268.659 308.829 269.192C308.071 269.715 307.522 270.472 307.181 271.464L303.853 270.504C304.279 268.872 305.165 267.587 306.509 266.648C307.853 265.709 309.479 265.24 311.389 265.24C313.117 265.24 314.605 265.629 315.853 266.408C317.101 267.187 318.061 268.264 318.733 269.64C319.405 271.016 319.741 272.595 319.741 274.376C319.741 276.147 319.41 277.72 318.749 279.096C318.087 280.461 317.133 281.533 315.885 282.312C314.637 283.091 313.143 283.48 311.405 283.48ZM320.883 283L327.347 274.264L321.027 265.72H324.995L329.299 271.656L333.555 265.72H337.523L331.203 274.264L337.683 283H333.699L329.299 276.872L324.867 283H320.883ZM347.279 283.48C345.562 283.48 344.052 283.107 342.751 282.36C341.46 281.603 340.452 280.552 339.727 279.208C339.012 277.853 338.655 276.285 338.655 274.504C338.655 272.616 339.007 270.979 339.711 269.592C340.426 268.205 341.418 267.133 342.687 266.376C343.956 265.619 345.434 265.24 347.119 265.24C348.879 265.24 350.378 265.651 351.615 266.472C352.852 267.283 353.775 268.44 354.383 269.944C355.002 271.448 355.247 273.235 355.119 275.304H351.775V274.088C351.754 272.083 351.37 270.6 350.623 269.64C349.887 268.68 348.762 268.2 347.247 268.2C345.572 268.2 344.314 268.728 343.471 269.784C342.628 270.84 342.207 272.365 342.207 274.36C342.207 276.259 342.628 277.731 343.471 278.776C344.314 279.811 345.53 280.328 347.119 280.328C348.164 280.328 349.066 280.093 349.823 279.624C350.591 279.144 351.188 278.461 351.615 277.576L354.895 278.616C354.223 280.163 353.204 281.363 351.839 282.216C350.474 283.059 348.954 283.48 347.279 283.48ZM341.119 275.304V272.696H353.455V275.304H341.119ZM358.709 283V265.72H370.869V268.872H362.053V283H358.709ZM374.76 283L374.744 268.408H372.296V265.72H378.104V271.72H381.528C382.019 271.72 382.542 271.731 383.096 271.752C383.662 271.773 384.142 271.827 384.536 271.912C385.475 272.104 386.28 272.424 386.952 272.872C387.635 273.32 388.158 273.917 388.52 274.664C388.894 275.4 389.08 276.307 389.08 277.384C389.08 278.888 388.691 280.088 387.912 280.984C387.134 281.869 386.078 282.467 384.744 282.776C384.318 282.872 383.811 282.936 383.224 282.968C382.648 282.989 382.115 283 381.624 283H374.76ZM378.104 280.312H381.816C382.094 280.312 382.403 280.301 382.744 280.28C383.086 280.259 383.4 280.211 383.688 280.136C384.2 279.987 384.654 279.683 385.048 279.224C385.454 278.765 385.656 278.152 385.656 277.384C385.656 276.595 385.454 275.965 385.048 275.496C384.654 275.027 384.152 274.723 383.544 274.584C383.267 274.509 382.974 274.461 382.664 274.44C382.366 274.419 382.083 274.408 381.816 274.408H378.104V280.312ZM397.495 283.48C396.215 283.48 395.143 283.245 394.279 282.776C393.415 282.296 392.759 281.667 392.311 280.888C391.874 280.099 391.655 279.235 391.655 278.296C391.655 277.421 391.81 276.653 392.119 275.992C392.428 275.331 392.887 274.771 393.495 274.312C394.103 273.843 394.85 273.464 395.735 273.176C396.503 272.952 397.372 272.755 398.343 272.584C399.314 272.413 400.332 272.253 401.399 272.104C402.476 271.955 403.543 271.805 404.599 271.656L403.383 272.328C403.404 270.973 403.116 269.971 402.519 269.32C401.932 268.659 400.919 268.328 399.479 268.328C398.572 268.328 397.74 268.541 396.983 268.968C396.226 269.384 395.698 270.077 395.399 271.048L392.279 270.088C392.706 268.605 393.516 267.427 394.711 266.552C395.916 265.677 397.516 265.24 399.511 265.24C401.058 265.24 402.402 265.507 403.543 266.04C404.695 266.563 405.538 267.395 406.071 268.536C406.348 269.101 406.519 269.699 406.583 270.328C406.647 270.957 406.679 271.635 406.679 272.36V283H403.719V279.048L404.295 279.56C403.58 280.883 402.668 281.869 401.559 282.52C400.46 283.16 399.106 283.48 397.495 283.48ZM398.087 280.744C399.036 280.744 399.852 280.579 400.535 280.248C401.218 279.907 401.767 279.475 402.183 278.952C402.599 278.429 402.871 277.885 402.999 277.32C403.18 276.808 403.282 276.232 403.303 275.592C403.335 274.952 403.351 274.44 403.351 274.056L404.439 274.456C403.383 274.616 402.423 274.76 401.559 274.888C400.695 275.016 399.911 275.144 399.207 275.272C398.514 275.389 397.895 275.533 397.351 275.704C396.892 275.864 396.482 276.056 396.119 276.28C395.767 276.504 395.484 276.776 395.271 277.096C395.068 277.416 394.967 277.805 394.967 278.264C394.967 278.712 395.079 279.128 395.303 279.512C395.527 279.885 395.868 280.184 396.327 280.408C396.786 280.632 397.372 280.744 398.087 280.744ZM418.962 290.2V283.304C417.276 283.571 415.746 283.389 414.37 282.76C412.994 282.131 411.9 281.107 411.09 279.688C410.279 278.269 409.874 276.499 409.874 274.376C409.874 272.253 410.279 270.477 411.09 269.048C411.9 267.619 412.994 266.589 414.37 265.96C415.746 265.331 417.276 265.149 418.962 265.416V260.184H421.97V265.416C423.655 265.149 425.186 265.331 426.562 265.96C427.938 266.589 429.031 267.619 429.842 269.048C430.652 270.477 431.058 272.253 431.058 274.376C431.058 276.499 430.652 278.269 429.842 279.688C429.031 281.107 427.938 282.131 426.562 282.76C425.186 283.389 423.655 283.571 421.97 283.304V290.2H418.962ZM418.962 280.28V268.456C418.098 268.307 417.314 268.333 416.61 268.536C415.916 268.739 415.324 269.096 414.834 269.608C414.343 270.109 413.964 270.765 413.698 271.576C413.431 272.376 413.298 273.309 413.298 274.376C413.298 275.443 413.431 276.376 413.698 277.176C413.975 277.976 414.364 278.632 414.866 279.144C415.378 279.645 415.98 279.997 416.674 280.2C417.367 280.392 418.13 280.419 418.962 280.28ZM421.97 280.28C422.802 280.419 423.564 280.392 424.258 280.2C424.951 280.008 425.548 279.661 426.05 279.16C426.562 278.659 426.951 278.008 427.218 277.208C427.495 276.397 427.634 275.453 427.634 274.376C427.634 273.288 427.5 272.344 427.234 271.544C426.967 270.733 426.588 270.077 426.098 269.576C425.607 269.064 425.01 268.712 424.306 268.52C423.612 268.328 422.834 268.307 421.97 268.456V280.28ZM440.936 283.48C439.08 283.48 437.501 283.032 436.2 282.136C434.898 281.229 433.96 279.933 433.384 278.248L436.776 277.448C437.128 278.376 437.64 279.091 438.312 279.592C438.984 280.083 439.853 280.328 440.92 280.328C442.306 280.328 443.389 279.907 444.168 279.064C444.946 278.221 445.426 277.096 445.608 275.688H439.192V273H445.608C445.437 271.656 444.973 270.552 444.216 269.688C443.458 268.824 442.386 268.392 441 268.392C439.997 268.392 439.117 268.659 438.36 269.192C437.602 269.715 437.053 270.472 436.712 271.464L433.384 270.504C433.81 268.872 434.696 267.587 436.04 266.648C437.384 265.709 439.01 265.24 440.92 265.24C442.648 265.24 444.136 265.629 445.384 266.408C446.632 267.187 447.592 268.264 448.264 269.64C448.936 271.016 449.272 272.595 449.272 274.376C449.272 276.147 448.941 277.72 448.28 279.096C447.618 280.461 446.664 281.533 445.416 282.312C444.168 283.091 442.674 283.48 440.936 283.48ZM458.889 273.928V271.912H480.009V273.928H458.889ZM92.568 334.48C90.2747 334.48 88.3387 333.973 86.76 332.96C85.1813 331.936 83.9867 330.523 83.176 328.72C82.3653 326.917 81.96 324.837 81.96 322.48C81.96 320.123 82.3653 318.043 83.176 316.24C83.9867 314.437 85.1813 313.029 86.76 312.016C88.3387 310.992 90.2747 310.48 92.568 310.48C94.872 310.48 96.808 310.992 98.376 312.016C99.9547 313.029 101.149 314.437 101.96 316.24C102.781 318.043 103.192 320.123 103.192 322.48C103.192 324.837 102.781 326.917 101.96 328.72C101.149 330.523 99.9547 331.936 98.376 332.96C96.808 333.973 94.872 334.48 92.568 334.48ZM92.568 332.224C94.3707 332.224 95.8747 331.813 97.08 330.992C98.2853 330.171 99.1867 329.029 99.784 327.568C100.392 326.096 100.696 324.4 100.696 322.48C100.696 320.56 100.392 318.869 99.784 317.408C99.1867 315.947 98.2853 314.805 97.08 313.984C95.8747 313.163 94.3707 312.747 92.568 312.736C90.7653 312.736 89.2667 313.147 88.072 313.968C86.8773 314.789 85.976 315.936 85.368 317.408C84.7707 318.869 84.4667 320.56 84.456 322.48C84.4453 324.4 84.7387 326.091 85.336 327.552C85.944 329.003 86.8507 330.144 88.056 330.976C89.2613 331.797 90.7653 332.213 92.568 332.224ZM111.084 334V318.896H104.956V316.72H119.564V318.896H113.436V334H111.084ZM127.741 337.84V331.984C128.723 331.984 129.427 331.669 129.853 331.04C130.28 330.4 130.627 329.381 130.893 327.984C131.075 327.077 131.224 326.101 131.341 325.056C131.459 324.011 131.56 322.816 131.645 321.472C131.731 320.117 131.811 318.533 131.885 316.72H143.309V331.984H144.973V337.84H142.701V334H129.997V337.84H127.741ZM131.725 331.984H140.973V318.736H134.061C134.029 319.547 133.981 320.405 133.917 321.312C133.864 322.219 133.795 323.125 133.709 324.032C133.635 324.939 133.544 325.792 133.437 326.592C133.341 327.381 133.224 328.075 133.085 328.672C132.925 329.44 132.749 330.096 132.557 330.64C132.376 331.184 132.099 331.632 131.725 331.984ZM155.394 334.48C153.676 334.48 152.21 334.091 150.994 333.312C149.778 332.533 148.844 331.456 148.194 330.08C147.543 328.704 147.218 327.125 147.218 325.344C147.218 323.531 147.548 321.941 148.21 320.576C148.871 319.211 149.81 318.149 151.026 317.392C152.252 316.624 153.708 316.24 155.394 316.24C157.122 316.24 158.594 316.629 159.81 317.408C161.036 318.176 161.97 319.248 162.61 320.624C163.26 321.989 163.586 323.563 163.586 325.344C163.586 327.157 163.26 328.752 162.61 330.128C161.959 331.493 161.02 332.56 159.794 333.328C158.567 334.096 157.1 334.48 155.394 334.48ZM155.394 332.224C157.314 332.224 158.743 331.589 159.682 330.32C160.62 329.04 161.09 327.381 161.09 325.344C161.09 323.253 160.615 321.589 159.666 320.352C158.727 319.115 157.303 318.496 155.394 318.496C154.103 318.496 153.036 318.789 152.194 319.376C151.362 319.952 150.738 320.757 150.322 321.792C149.916 322.816 149.714 324 149.714 325.344C149.714 327.424 150.194 329.093 151.154 330.352C152.114 331.6 153.527 332.224 155.394 332.224ZM174.043 334.496C172.432 334.485 171.051 334.133 169.899 333.44C168.747 332.747 167.851 331.712 167.211 330.336C166.582 328.96 166.24 327.243 166.187 325.184C166.155 324.277 166.176 323.291 166.251 322.224C166.326 321.147 166.443 320.123 166.603 319.152C166.763 318.181 166.955 317.392 167.179 316.784C167.456 315.995 167.851 315.259 168.363 314.576C168.886 313.883 169.488 313.317 170.171 312.88C170.832 312.432 171.579 312.085 172.411 311.84C173.254 311.584 174.128 311.387 175.035 311.248C175.952 311.109 176.859 310.987 177.755 310.88C178.662 310.773 179.499 310.64 180.267 310.48L180.523 312.608C179.936 312.725 179.243 312.832 178.443 312.928C177.643 313.024 176.806 313.141 175.931 313.28C175.056 313.408 174.219 313.584 173.419 313.808C172.619 314.032 171.936 314.325 171.371 314.688C170.507 315.211 169.84 316 169.371 317.056C168.912 318.112 168.63 319.323 168.523 320.688C169.184 319.653 170.059 318.875 171.147 318.352C172.246 317.829 173.435 317.568 174.715 317.568C176.272 317.568 177.611 317.925 178.731 318.64C179.862 319.355 180.731 320.347 181.339 321.616C181.947 322.885 182.251 324.341 182.251 325.984C182.251 327.701 181.915 329.2 181.243 330.48C180.582 331.76 179.638 332.752 178.411 333.456C177.184 334.149 175.728 334.496 174.043 334.496ZM174.219 332.24C176.032 332.24 177.408 331.675 178.347 330.544C179.296 329.413 179.771 327.909 179.771 326.032C179.771 324.112 179.28 322.597 178.299 321.488C177.328 320.379 175.958 319.824 174.187 319.824C172.416 319.824 171.056 320.379 170.107 321.488C169.158 322.597 168.683 324.112 168.683 326.032C168.683 327.952 169.158 329.467 170.107 330.576C171.056 331.685 172.427 332.24 174.219 332.24ZM193.531 334.48C191.942 334.48 190.598 334.08 189.499 333.28C188.401 332.469 187.569 331.376 187.003 330C186.438 328.613 186.155 327.061 186.155 325.344C186.155 323.595 186.438 322.037 187.003 320.672C187.579 319.296 188.422 318.213 189.531 317.424C190.641 316.635 192.006 316.24 193.627 316.24C195.206 316.24 196.561 316.64 197.691 317.44C198.822 318.24 199.686 319.328 200.283 320.704C200.891 322.08 201.195 323.627 201.195 325.344C201.195 327.072 200.891 328.624 200.283 330C199.675 331.376 198.801 332.469 197.659 333.28C196.518 334.08 195.142 334.48 193.531 334.48ZM185.755 341.68V316.72H187.867V329.728H188.123V341.68H185.755ZM193.291 332.288C194.497 332.288 195.499 331.984 196.299 331.376C197.099 330.768 197.697 329.941 198.091 328.896C198.497 327.84 198.699 326.656 198.699 325.344C198.699 324.043 198.502 322.869 198.107 321.824C197.713 320.779 197.11 319.952 196.299 319.344C195.499 318.736 194.481 318.432 193.243 318.432C192.038 318.432 191.035 318.725 190.235 319.312C189.446 319.899 188.854 320.715 188.459 321.76C188.065 322.795 187.867 323.989 187.867 325.344C187.867 326.677 188.065 327.872 188.459 328.928C188.854 329.973 189.451 330.795 190.251 331.392C191.051 331.989 192.065 332.288 193.291 332.288ZM211.925 334.48C210.207 334.48 208.741 334.091 207.525 333.312C206.309 332.533 205.375 331.456 204.725 330.08C204.074 328.704 203.749 327.125 203.749 325.344C203.749 323.531 204.079 321.941 204.741 320.576C205.402 319.211 206.341 318.149 207.557 317.392C208.783 316.624 210.239 316.24 211.925 316.24C213.653 316.24 215.125 316.629 216.341 317.408C217.567 318.176 218.501 319.248 219.141 320.624C219.791 321.989 220.117 323.563 220.117 325.344C220.117 327.157 219.791 328.752 219.141 330.128C218.49 331.493 217.551 332.56 216.325 333.328C215.098 334.096 213.631 334.48 211.925 334.48ZM211.925 332.224C213.845 332.224 215.274 331.589 216.213 330.32C217.151 329.04 217.621 327.381 217.621 325.344C217.621 323.253 217.146 321.589 216.197 320.352C215.258 319.115 213.834 318.496 211.925 318.496C210.634 318.496 209.567 318.789 208.725 319.376C207.893 319.952 207.269 320.757 206.853 321.792C206.447 322.816 206.245 324 206.245 325.344C206.245 327.424 206.725 329.093 207.685 330.352C208.645 331.6 210.058 332.224 211.925 332.224ZM223.646 334V316.72H235.486V318.976H225.998V334H223.646ZM245.425 334.48C243.707 334.48 242.241 334.091 241.025 333.312C239.809 332.533 238.875 331.456 238.225 330.08C237.574 328.704 237.249 327.125 237.249 325.344C237.249 323.531 237.579 321.941 238.241 320.576C238.902 319.211 239.841 318.149 241.057 317.392C242.283 316.624 243.739 316.24 245.425 316.24C247.153 316.24 248.625 316.629 249.841 317.408C251.067 318.176 252.001 319.248 252.641 320.624C253.291 321.989 253.617 323.563 253.617 325.344C253.617 327.157 253.291 328.752 252.641 330.128C251.99 331.493 251.051 332.56 249.825 333.328C248.598 334.096 247.131 334.48 245.425 334.48ZM245.425 332.224C247.345 332.224 248.774 331.589 249.713 330.32C250.651 329.04 251.121 327.381 251.121 325.344C251.121 323.253 250.646 321.589 249.697 320.352C248.758 319.115 247.334 318.496 245.425 318.496C244.134 318.496 243.067 318.789 242.225 319.376C241.393 319.952 240.769 320.757 240.353 321.792C239.947 322.816 239.745 324 239.745 325.344C239.745 327.424 240.225 329.093 241.185 330.352C242.145 331.6 243.558 332.224 245.425 332.224ZM270.72 334.48C268.982 334.48 267.51 334.091 266.305 333.312C265.099 332.533 264.182 331.461 263.553 330.096C262.934 328.72 262.614 327.141 262.593 325.36C262.614 323.547 262.945 321.957 263.585 320.592C264.225 319.216 265.147 318.149 266.353 317.392C267.558 316.624 269.019 316.24 270.737 316.24C272.486 316.24 274.006 316.667 275.297 317.52C276.598 318.373 277.489 319.541 277.969 321.024L275.665 321.76C275.259 320.725 274.614 319.925 273.729 319.36C272.854 318.784 271.851 318.496 270.72 318.496C269.451 318.496 268.401 318.789 267.569 319.376C266.737 319.952 266.118 320.757 265.713 321.792C265.307 322.827 265.099 324.016 265.089 325.36C265.11 327.429 265.59 329.093 266.529 330.352C267.467 331.6 268.865 332.224 270.72 332.224C271.894 332.224 272.891 331.957 273.713 331.424C274.545 330.88 275.174 330.091 275.601 329.056L277.969 329.76C277.329 331.296 276.39 332.469 275.153 333.28C273.915 334.08 272.438 334.48 270.72 334.48ZM279.203 334V331.936C279.843 332.053 280.328 332.027 280.659 331.856C281 331.675 281.251 331.376 281.411 330.96C281.571 330.533 281.704 330.005 281.811 329.376C281.981 328.331 282.136 327.179 282.275 325.92C282.413 324.661 282.536 323.275 282.643 321.76C282.76 320.235 282.877 318.555 282.995 316.72H294.739V334H292.403V318.976H285.171C285.096 320.107 285.011 321.232 284.915 322.352C284.819 323.472 284.717 324.549 284.611 325.584C284.515 326.608 284.408 327.552 284.291 328.416C284.173 329.28 284.051 330.027 283.923 330.656C283.731 331.605 283.475 332.363 283.155 332.928C282.845 333.493 282.381 333.867 281.763 334.048C281.144 334.229 280.291 334.213 279.203 334ZM306.425 334.48C304.707 334.48 303.241 334.091 302.025 333.312C300.809 332.533 299.875 331.456 299.225 330.08C298.574 328.704 298.249 327.125 298.249 325.344C298.249 323.531 298.579 321.941 299.241 320.576C299.902 319.211 300.841 318.149 302.057 317.392C303.283 316.624 304.739 316.24 306.425 316.24C308.153 316.24 309.625 316.629 310.841 317.408C312.067 318.176 313.001 319.248 313.641 320.624C314.291 321.989 314.617 323.563 314.617 325.344C314.617 327.157 314.291 328.752 313.641 330.128C312.99 331.493 312.051 332.56 310.825 333.328C309.598 334.096 308.131 334.48 306.425 334.48ZM306.425 332.224C308.345 332.224 309.774 331.589 310.713 330.32C311.651 329.04 312.121 327.381 312.121 325.344C312.121 323.253 311.646 321.589 310.697 320.352C309.758 319.115 308.334 318.496 306.425 318.496C305.134 318.496 304.067 318.789 303.225 319.376C302.393 319.952 301.769 320.757 301.353 321.792C300.947 322.816 300.745 324 300.745 325.344C300.745 327.424 301.225 329.093 302.185 330.352C303.145 331.6 304.558 332.224 306.425 332.224ZM318.13 334V316.72H325.25C325.613 316.72 326.05 316.741 326.562 316.784C327.085 316.827 327.57 316.907 328.018 317.024C328.989 317.28 329.768 317.803 330.354 318.592C330.952 319.381 331.25 320.331 331.25 321.44C331.25 322.059 331.154 322.613 330.962 323.104C330.781 323.584 330.52 324 330.178 324.352C330.018 324.533 329.842 324.693 329.65 324.832C329.458 324.96 329.272 325.067 329.09 325.152C329.432 325.216 329.8 325.365 330.194 325.6C330.813 325.963 331.282 326.453 331.602 327.072C331.922 327.68 332.082 328.421 332.082 329.296C332.082 330.48 331.8 331.445 331.234 332.192C330.669 332.939 329.912 333.451 328.962 333.728C328.536 333.845 328.072 333.92 327.57 333.952C327.08 333.984 326.616 334 326.178 334H318.13ZM320.498 332H326.066C326.29 332 326.573 331.984 326.914 331.952C327.256 331.909 327.56 331.856 327.826 331.792C328.456 331.632 328.914 331.312 329.202 330.832C329.501 330.341 329.65 329.808 329.65 329.232C329.65 328.475 329.426 327.856 328.978 327.376C328.541 326.885 327.954 326.587 327.218 326.48C326.973 326.427 326.717 326.395 326.45 326.384C326.184 326.373 325.944 326.368 325.73 326.368H320.498V332ZM320.498 324.352H325.33C325.608 324.352 325.917 324.336 326.258 324.304C326.61 324.261 326.914 324.192 327.17 324.096C327.725 323.904 328.13 323.573 328.386 323.104C328.653 322.635 328.786 322.123 328.786 321.568C328.786 320.96 328.642 320.427 328.354 319.968C328.077 319.509 327.656 319.189 327.09 319.008C326.706 318.869 326.29 318.789 325.842 318.768C325.405 318.747 325.128 318.736 325.01 318.736H320.498V324.352ZM340.215 334.48C338.914 334.48 337.821 334.245 336.935 333.776C336.061 333.307 335.405 332.683 334.967 331.904C334.53 331.125 334.311 330.277 334.311 329.36C334.311 328.421 334.498 327.621 334.871 326.96C335.255 326.288 335.773 325.739 336.423 325.312C337.085 324.885 337.847 324.56 338.711 324.336C339.586 324.123 340.551 323.936 341.607 323.776C342.674 323.605 343.714 323.461 344.727 323.344C345.751 323.216 346.647 323.093 347.415 322.976L346.583 323.488C346.615 321.781 346.285 320.517 345.591 319.696C344.898 318.875 343.693 318.464 341.975 318.464C340.791 318.464 339.789 318.731 338.967 319.264C338.157 319.797 337.586 320.64 337.255 321.792L334.967 321.12C335.362 319.573 336.157 318.373 337.351 317.52C338.546 316.667 340.098 316.24 342.007 316.24C343.586 316.24 344.925 316.539 346.023 317.136C347.133 317.723 347.917 318.576 348.375 319.696C348.589 320.197 348.727 320.757 348.791 321.376C348.855 321.995 348.887 322.624 348.887 323.264V334H346.791V329.664L347.399 329.92C346.813 331.403 345.901 332.533 344.663 333.312C343.426 334.091 341.943 334.48 340.215 334.48ZM340.487 332.448C341.586 332.448 342.546 332.251 343.367 331.856C344.189 331.461 344.85 330.923 345.351 330.24C345.853 329.547 346.178 328.768 346.327 327.904C346.455 327.349 346.525 326.741 346.535 326.08C346.546 325.408 346.551 324.907 346.551 324.576L347.447 325.04C346.647 325.147 345.778 325.253 344.839 325.36C343.911 325.467 342.994 325.589 342.087 325.728C341.191 325.867 340.381 326.032 339.655 326.224C339.165 326.363 338.69 326.56 338.231 326.816C337.773 327.061 337.394 327.392 337.095 327.808C336.807 328.224 336.663 328.741 336.663 329.36C336.663 329.861 336.786 330.347 337.031 330.816C337.287 331.285 337.693 331.675 338.247 331.984C338.813 332.293 339.559 332.448 340.487 332.448ZM359.443 334V316.72H366.563C366.925 316.72 367.363 316.741 367.875 316.784C368.397 316.827 368.883 316.907 369.331 317.024C370.301 317.28 371.08 317.803 371.667 318.592C372.264 319.381 372.563 320.331 372.563 321.44C372.563 322.059 372.467 322.613 372.275 323.104C372.093 323.584 371.832 324 371.491 324.352C371.331 324.533 371.155 324.693 370.963 324.832C370.771 324.96 370.584 325.067 370.403 325.152C370.744 325.216 371.112 325.365 371.507 325.6C372.125 325.963 372.595 326.453 372.915 327.072C373.235 327.68 373.395 328.421 373.395 329.296C373.395 330.48 373.112 331.445 372.547 332.192C371.981 332.939 371.224 333.451 370.275 333.728C369.848 333.845 369.384 333.92 368.883 333.952C368.392 333.984 367.928 334 367.491 334H359.443ZM361.811 332H367.379C367.603 332 367.885 331.984 368.227 331.952C368.568 331.909 368.872 331.856 369.139 331.792C369.768 331.632 370.227 331.312 370.515 330.832C370.813 330.341 370.963 329.808 370.963 329.232C370.963 328.475 370.739 327.856 370.291 327.376C369.853 326.885 369.267 326.587 368.531 326.48C368.285 326.427 368.029 326.395 367.763 326.384C367.496 326.373 367.256 326.368 367.043 326.368H361.811V332ZM361.811 324.352H366.643C366.92 324.352 367.229 324.336 367.571 324.304C367.923 324.261 368.227 324.192 368.483 324.096C369.037 323.904 369.443 323.573 369.699 323.104C369.965 322.635 370.099 322.123 370.099 321.568C370.099 320.96 369.955 320.427 369.667 319.968C369.389 319.509 368.968 319.189 368.403 319.008C368.019 318.869 367.603 318.789 367.155 318.768C366.717 318.747 366.44 318.736 366.323 318.736H361.811V324.352ZM382.808 334.48C381.069 334.48 379.549 334.101 378.248 333.344C376.957 332.576 375.938 331.515 375.192 330.16L377.08 328.96C377.709 330.027 378.493 330.837 379.432 331.392C380.37 331.947 381.448 332.224 382.664 332.224C383.933 332.224 384.952 331.931 385.72 331.344C386.488 330.757 386.872 329.952 386.872 328.928C386.872 328.224 386.706 327.664 386.376 327.248C386.056 326.832 385.565 326.533 384.904 326.352C384.253 326.171 383.437 326.08 382.456 326.08H380.408V324.064H382.424C383.618 324.064 384.578 323.851 385.304 323.424C386.04 322.987 386.408 322.304 386.408 321.376C386.408 320.395 386.04 319.669 385.304 319.2C384.578 318.72 383.709 318.48 382.696 318.48C381.672 318.48 380.701 318.693 379.784 319.12C378.877 319.536 378.114 320.075 377.496 320.736L375.992 319.152C376.856 318.203 377.864 317.483 379.016 316.992C380.178 316.491 381.464 316.24 382.872 316.24C383.981 316.24 384.984 316.437 385.88 316.832C386.786 317.216 387.501 317.781 388.024 318.528C388.557 319.275 388.824 320.171 388.824 321.216C388.824 322.197 388.584 323.045 388.104 323.76C387.634 324.475 386.968 325.067 386.104 325.536L385.976 324.656C386.722 324.795 387.341 325.093 387.832 325.552C388.322 326.011 388.685 326.56 388.92 327.2C389.154 327.84 389.272 328.491 389.272 329.152C389.272 330.251 388.984 331.2 388.408 332C387.842 332.789 387.069 333.403 386.088 333.84C385.117 334.267 384.024 334.48 382.808 334.48ZM391.203 334V331.936C391.843 332.053 392.328 332.027 392.659 331.856C393 331.675 393.251 331.376 393.411 330.96C393.571 330.533 393.704 330.005 393.811 329.376C393.981 328.331 394.136 327.179 394.275 325.92C394.413 324.661 394.536 323.275 394.643 321.76C394.76 320.235 394.877 318.555 394.995 316.72H406.739V334H404.403V318.976H397.171C397.096 320.107 397.011 321.232 396.915 322.352C396.819 323.472 396.717 324.549 396.611 325.584C396.515 326.608 396.408 327.552 396.291 328.416C396.173 329.28 396.051 330.027 395.923 330.656C395.731 331.605 395.475 332.363 395.155 332.928C394.845 333.493 394.381 333.867 393.763 334.048C393.144 334.229 392.291 334.213 391.203 334ZM418.521 334.48C416.835 334.48 415.374 334.107 414.137 333.36C412.91 332.613 411.955 331.563 411.273 330.208C410.59 328.853 410.249 327.264 410.249 325.44C410.249 323.552 410.585 321.92 411.257 320.544C411.929 319.168 412.873 318.107 414.089 317.36C415.315 316.613 416.761 316.24 418.425 316.24C420.131 316.24 421.587 316.635 422.793 317.424C423.998 318.203 424.91 319.323 425.529 320.784C426.147 322.245 426.43 323.989 426.377 326.016H423.977V325.184C423.934 322.944 423.449 321.253 422.521 320.112C421.603 318.971 420.259 318.4 418.489 318.4C416.633 318.4 415.209 319.003 414.217 320.208C413.235 321.413 412.745 323.131 412.745 325.36C412.745 327.536 413.235 329.227 414.217 330.432C415.209 331.627 416.611 332.224 418.425 332.224C419.662 332.224 420.739 331.941 421.657 331.376C422.585 330.8 423.315 329.973 423.849 328.896L426.041 329.744C425.358 331.248 424.35 332.416 423.017 333.248C421.694 334.069 420.195 334.48 418.521 334.48ZM411.913 326.016V324.048H425.113V326.016H411.913ZM434.397 334V318.896H428.269V316.72H442.877V318.896H436.749V334H434.397ZM459.656 316.72V334H457.368V320.544L447.896 334H445.912V316.72H448.2V330.064L457.688 316.72H459.656ZM464.13 334V316.72H466.418V331.824H472.898V316.72H475.186V331.824H481.65V316.72H483.938V334H464.13ZM488.444 334L488.412 316.72H490.78V323.232H494.828C495.329 323.232 495.82 323.243 496.3 323.264C496.79 323.285 497.222 323.328 497.596 323.392C498.449 323.552 499.206 323.835 499.868 324.24C500.54 324.645 501.062 325.205 501.436 325.92C501.82 326.635 502.012 327.531 502.012 328.608C502.012 330.091 501.628 331.259 500.86 332.112C500.102 332.965 499.142 333.52 497.98 333.776C497.542 333.872 497.068 333.936 496.556 333.968C496.044 333.989 495.537 334 495.036 334H488.444ZM490.78 331.984H494.94C495.302 331.984 495.708 331.973 496.156 331.952C496.604 331.931 496.998 331.872 497.34 331.776C497.905 331.616 498.417 331.296 498.876 330.816C499.345 330.325 499.58 329.589 499.58 328.608C499.58 327.637 499.356 326.907 498.908 326.416C498.46 325.915 497.862 325.584 497.116 325.424C496.785 325.349 496.428 325.301 496.044 325.28C495.66 325.259 495.292 325.248 494.94 325.248H490.78V331.984ZM511.912 334L511.928 316.72H514.296V325.04L522.008 316.72H525.144L517.048 325.36L526.2 334H522.776L514.296 325.68V334H511.912ZM532.747 334.48C531.445 334.48 530.352 334.245 529.467 333.776C528.592 333.307 527.936 332.683 527.499 331.904C527.061 331.125 526.843 330.277 526.843 329.36C526.843 328.421 527.029 327.621 527.403 326.96C527.787 326.288 528.304 325.739 528.955 325.312C529.616 324.885 530.379 324.56 531.243 324.336C532.117 324.123 533.083 323.936 534.139 323.776C535.205 323.605 536.245 323.461 537.259 323.344C538.283 323.216 539.179 323.093 539.947 322.976L539.115 323.488C539.147 321.781 538.816 320.517 538.123 319.696C537.429 318.875 536.224 318.464 534.507 318.464C533.323 318.464 532.32 318.731 531.499 319.264C530.688 319.797 530.117 320.64 529.786 321.792L527.499 321.12C527.893 319.573 528.688 318.373 529.883 317.52C531.077 316.667 532.629 316.24 534.539 316.24C536.117 316.24 537.456 316.539 538.555 317.136C539.664 317.723 540.448 318.576 540.907 319.696C541.12 320.197 541.259 320.757 541.323 321.376C541.387 321.995 541.419 322.624 541.419 323.264V334H539.323V329.664L539.931 329.92C539.344 331.403 538.432 332.533 537.195 333.312C535.957 334.091 534.475 334.48 532.747 334.48ZM533.019 332.448C534.117 332.448 535.077 332.251 535.899 331.856C536.72 331.461 537.381 330.923 537.883 330.24C538.384 329.547 538.709 328.768 538.859 327.904C538.987 327.349 539.056 326.741 539.067 326.08C539.077 325.408 539.083 324.907 539.083 324.576L539.979 325.04C539.179 325.147 538.309 325.253 537.371 325.36C536.443 325.467 535.525 325.589 534.619 325.728C533.723 325.867 532.912 326.032 532.187 326.224C531.696 326.363 531.221 326.56 530.763 326.816C530.304 327.061 529.925 327.392 529.627 327.808C529.339 328.224 529.195 328.741 529.195 329.36C529.195 329.861 529.317 330.347 529.562 330.816C529.819 331.285 530.224 331.675 530.779 331.984C531.344 332.293 532.091 332.448 533.019 332.448ZM545.568 334L545.584 316.72H547.952V325.04L555.664 316.72H558.8L550.704 325.36L559.856 334H556.432L547.952 325.68V334H545.568ZM83.224 385V367.72H85.576V375.224H95.32V367.72H97.672V385H95.32V377.48H85.576V385H83.224ZM107.09 385.48C105.789 385.48 104.696 385.245 103.81 384.776C102.936 384.307 102.28 383.683 101.842 382.904C101.405 382.125 101.186 381.277 101.186 380.36C101.186 379.421 101.373 378.621 101.746 377.96C102.13 377.288 102.648 376.739 103.298 376.312C103.96 375.885 104.722 375.56 105.586 375.336C106.461 375.123 107.426 374.936 108.482 374.776C109.549 374.605 110.589 374.461 111.602 374.344C112.626 374.216 113.522 374.093 114.29 373.976L113.458 374.488C113.49 372.781 113.16 371.517 112.466 370.696C111.773 369.875 110.568 369.464 108.85 369.464C107.666 369.464 106.664 369.731 105.842 370.264C105.032 370.797 104.461 371.64 104.13 372.792L101.842 372.12C102.237 370.573 103.032 369.373 104.226 368.52C105.421 367.667 106.973 367.24 108.882 367.24C110.461 367.24 111.8 367.539 112.898 368.136C114.008 368.723 114.792 369.576 115.25 370.696C115.464 371.197 115.602 371.757 115.666 372.376C115.73 372.995 115.762 373.624 115.762 374.264V385H113.666V380.664L114.274 380.92C113.688 382.403 112.776 383.533 111.538 384.312C110.301 385.091 108.818 385.48 107.09 385.48ZM107.362 383.448C108.461 383.448 109.421 383.251 110.242 382.856C111.064 382.461 111.725 381.923 112.226 381.24C112.728 380.547 113.053 379.768 113.202 378.904C113.33 378.349 113.4 377.741 113.41 377.08C113.421 376.408 113.426 375.907 113.426 375.576L114.322 376.04C113.522 376.147 112.653 376.253 111.714 376.36C110.786 376.467 109.869 376.589 108.962 376.728C108.066 376.867 107.256 377.032 106.53 377.224C106.04 377.363 105.565 377.56 105.106 377.816C104.648 378.061 104.269 378.392 103.97 378.808C103.682 379.224 103.538 379.741 103.538 380.36C103.538 380.861 103.661 381.347 103.906 381.816C104.162 382.285 104.568 382.675 105.122 382.984C105.688 383.293 106.434 383.448 107.362 383.448ZM126.318 385L126.334 367.72H128.702V376.04L136.414 367.72H139.55L131.454 376.36L140.606 385H137.182L128.702 376.68V385H126.318ZM149.969 385.48C148.379 385.48 147.035 385.08 145.937 384.28C144.838 383.469 144.006 382.376 143.441 381C142.875 379.613 142.593 378.061 142.593 376.344C142.593 374.595 142.875 373.037 143.441 371.672C144.017 370.296 144.859 369.213 145.969 368.424C147.078 367.635 148.443 367.24 150.065 367.24C151.643 367.24 152.998 367.64 154.129 368.44C155.259 369.24 156.123 370.328 156.721 371.704C157.329 373.08 157.633 374.627 157.633 376.344C157.633 378.072 157.329 379.624 156.721 381C156.113 382.376 155.238 383.469 154.097 384.28C152.955 385.08 151.579 385.48 149.969 385.48ZM142.193 392.68V367.72H144.305V380.728H144.561V392.68H142.193ZM149.729 383.288C150.934 383.288 151.937 382.984 152.737 382.376C153.537 381.768 154.134 380.941 154.529 379.896C154.934 378.84 155.137 377.656 155.137 376.344C155.137 375.043 154.939 373.869 154.545 372.824C154.15 371.779 153.547 370.952 152.737 370.344C151.937 369.736 150.918 369.432 149.681 369.432C148.475 369.432 147.473 369.725 146.673 370.312C145.883 370.899 145.291 371.715 144.897 372.76C144.502 373.795 144.305 374.989 144.305 376.344C144.305 377.677 144.502 378.872 144.897 379.928C145.291 380.973 145.889 381.795 146.689 382.392C147.489 382.989 148.502 383.288 149.729 383.288ZM161.162 385L161.13 367.72H163.498V374.232H166.506C167.008 374.232 167.498 374.243 167.978 374.264C168.458 374.285 168.89 374.328 169.274 374.392C170.128 374.563 170.885 374.851 171.546 375.256C172.208 375.661 172.73 376.221 173.114 376.936C173.498 377.64 173.69 378.531 173.69 379.608C173.69 381.091 173.306 382.259 172.538 383.112C171.77 383.965 170.805 384.52 169.642 384.776C169.205 384.872 168.73 384.936 168.218 384.968C167.706 384.989 167.205 385 166.714 385H161.162ZM163.498 382.984H166.618C166.97 382.984 167.37 382.973 167.818 382.952C168.266 382.931 168.661 382.872 169.002 382.776C169.578 382.616 170.096 382.296 170.554 381.816C171.024 381.325 171.258 380.589 171.258 379.608C171.258 378.637 171.034 377.907 170.586 377.416C170.138 376.915 169.541 376.584 168.794 376.424C168.453 376.349 168.09 376.301 167.706 376.28C167.333 376.259 166.97 376.248 166.618 376.248H163.498V382.984ZM175.754 385V367.72H178.106V385H175.754ZM180.984 385V382.936C181.624 383.053 182.109 383.027 182.44 382.856C182.781 382.675 183.032 382.376 183.192 381.96C183.352 381.533 183.485 381.005 183.592 380.376C183.762 379.331 183.917 378.179 184.056 376.92C184.194 375.661 184.317 374.275 184.424 372.76C184.541 371.235 184.658 369.555 184.776 367.72H196.52V385H194.184V369.976H186.952C186.877 371.107 186.792 372.232 186.696 373.352C186.6 374.472 186.498 375.549 186.392 376.584C186.296 377.608 186.189 378.552 186.072 379.416C185.954 380.28 185.832 381.027 185.704 381.656C185.512 382.605 185.256 383.363 184.936 383.928C184.626 384.493 184.162 384.867 183.544 385.048C182.925 385.229 182.072 385.213 180.984 385ZM201.006 385L200.974 367.72H203.342V374.232H207.39C207.891 374.232 208.382 374.243 208.862 374.264C209.353 374.285 209.785 374.328 210.158 374.392C211.011 374.552 211.769 374.835 212.43 375.24C213.102 375.645 213.625 376.205 213.998 376.92C214.382 377.635 214.574 378.531 214.574 379.608C214.574 381.091 214.19 382.259 213.422 383.112C212.665 383.965 211.705 384.52 210.542 384.776C210.105 384.872 209.63 384.936 209.118 384.968C208.606 384.989 208.099 385 207.598 385H201.006ZM203.342 382.984H207.502C207.865 382.984 208.27 382.973 208.718 382.952C209.166 382.931 209.561 382.872 209.902 382.776C210.467 382.616 210.979 382.296 211.438 381.816C211.907 381.325 212.142 380.589 212.142 379.608C212.142 378.637 211.918 377.907 211.47 377.416C211.022 376.915 210.425 376.584 209.678 376.424C209.347 376.349 208.99 376.301 208.606 376.28C208.222 376.259 207.854 376.248 207.502 376.248H203.342V382.984ZM228.916 385V378.488H224.884C224.414 378.488 223.929 378.472 223.428 378.44C222.937 378.397 222.478 378.339 222.052 378.264C220.836 378.029 219.801 377.496 218.948 376.664C218.105 375.821 217.684 374.659 217.684 373.176C217.684 371.725 218.078 370.563 218.868 369.688C219.657 368.803 220.612 368.227 221.732 367.96C222.244 367.843 222.761 367.773 223.284 367.752C223.817 367.731 224.276 367.72 224.66 367.72H231.268L231.284 385H228.916ZM217.124 385L221.94 377.752H224.548L219.7 385H217.124ZM224.756 376.472H228.916V369.736H224.756C224.5 369.736 224.142 369.747 223.684 369.768C223.225 369.789 222.793 369.859 222.388 369.976C222.036 370.083 221.684 370.269 221.332 370.536C220.99 370.792 220.702 371.139 220.468 371.576C220.233 372.003 220.116 372.525 220.116 373.144C220.116 374.008 220.35 374.701 220.82 375.224C221.3 375.736 221.897 376.088 222.612 376.28C222.996 376.365 223.38 376.419 223.764 376.44C224.148 376.461 224.478 376.472 224.756 376.472ZM233.851 385L240.603 376.264L233.995 367.72H236.811L241.979 374.456L247.099 367.72H249.915L243.307 376.264L250.075 385H247.243L241.979 378.072L236.683 385H233.851ZM252.326 388.344L252.47 387.176C252.897 387.208 253.206 387.123 253.398 386.92C253.59 386.717 253.708 386.445 253.75 386.104C253.793 385.763 253.804 385.395 253.782 385H252.326V381.624H255.062V385.64C255.062 386.621 254.812 387.357 254.31 387.848C253.82 388.339 253.158 388.504 252.326 388.344ZM274.769 385.48C273.051 385.48 271.585 385.091 270.369 384.312C269.153 383.533 268.219 382.456 267.569 381.08C266.918 379.704 266.593 378.125 266.593 376.344C266.593 374.531 266.923 372.941 267.585 371.576C268.246 370.211 269.185 369.149 270.401 368.392C271.627 367.624 273.083 367.24 274.769 367.24C276.497 367.24 277.969 367.629 279.185 368.408C280.411 369.176 281.345 370.248 281.985 371.624C282.635 372.989 282.961 374.563 282.961 376.344C282.961 378.157 282.635 379.752 281.985 381.128C281.334 382.493 280.395 383.56 279.169 384.328C277.942 385.096 276.475 385.48 274.769 385.48ZM274.769 383.224C276.689 383.224 278.118 382.589 279.057 381.32C279.995 380.04 280.465 378.381 280.465 376.344C280.465 374.253 279.99 372.589 279.041 371.352C278.102 370.115 276.678 369.496 274.769 369.496C273.478 369.496 272.411 369.789 271.569 370.376C270.737 370.952 270.113 371.757 269.697 372.792C269.291 373.816 269.089 375 269.089 376.344C269.089 378.424 269.569 380.093 270.529 381.352C271.489 382.6 272.902 383.224 274.769 383.224ZM290.772 385V369.896H284.644V367.72H299.252V369.896H293.124V385H290.772ZM314.933 385.48C313.194 385.48 311.674 385.101 310.373 384.344C309.082 383.576 308.063 382.515 307.317 381.16L309.205 379.96C309.834 381.027 310.618 381.837 311.557 382.392C312.495 382.947 313.573 383.224 314.789 383.224C316.058 383.224 317.077 382.931 317.845 382.344C318.613 381.757 318.997 380.952 318.997 379.928C318.997 379.224 318.831 378.664 318.501 378.248C318.181 377.832 317.69 377.533 317.029 377.352C316.378 377.171 315.562 377.08 314.581 377.08H312.533V375.064H314.549C315.743 375.064 316.703 374.851 317.429 374.424C318.165 373.987 318.533 373.304 318.533 372.376C318.533 371.395 318.165 370.669 317.429 370.2C316.703 369.72 315.834 369.48 314.821 369.48C313.797 369.48 312.826 369.693 311.909 370.12C311.002 370.536 310.239 371.075 309.621 371.736L308.117 370.152C308.981 369.203 309.989 368.483 311.141 367.992C312.303 367.491 313.589 367.24 314.997 367.24C316.106 367.24 317.109 367.437 318.005 367.832C318.911 368.216 319.626 368.781 320.149 369.528C320.682 370.275 320.949 371.171 320.949 372.216C320.949 373.197 320.709 374.045 320.229 374.76C319.759 375.475 319.093 376.067 318.229 376.536L318.101 375.656C318.847 375.795 319.466 376.093 319.957 376.552C320.447 377.011 320.81 377.56 321.045 378.2C321.279 378.84 321.397 379.491 321.397 380.152C321.397 381.251 321.109 382.2 320.533 383C319.967 383.789 319.194 384.403 318.213 384.84C317.242 385.267 316.149 385.48 314.933 385.48ZM323.328 385V382.936C323.968 383.053 324.453 383.027 324.784 382.856C325.125 382.675 325.376 382.376 325.536 381.96C325.696 381.533 325.829 381.005 325.936 380.376C326.106 379.331 326.261 378.179 326.4 376.92C326.538 375.661 326.661 374.275 326.768 372.76C326.885 371.235 327.002 369.555 327.12 367.72H338.864V385H336.528V369.976H329.296C329.221 371.107 329.136 372.232 329.04 373.352C328.944 374.472 328.842 375.549 328.736 376.584C328.64 377.608 328.533 378.552 328.416 379.416C328.298 380.28 328.176 381.027 328.048 381.656C327.856 382.605 327.6 383.363 327.28 383.928C326.97 384.493 326.506 384.867 325.888 385.048C325.269 385.229 324.416 385.213 323.328 385ZM350.55 385.48C348.832 385.48 347.366 385.091 346.15 384.312C344.934 383.533 344 382.456 343.35 381.08C342.699 379.704 342.374 378.125 342.374 376.344C342.374 374.531 342.704 372.941 343.366 371.576C344.027 370.211 344.966 369.149 346.182 368.392C347.408 367.624 348.864 367.24 350.55 367.24C352.278 367.24 353.75 367.629 354.966 368.408C356.192 369.176 357.126 370.248 357.766 371.624C358.416 372.989 358.742 374.563 358.742 376.344C358.742 378.157 358.416 379.752 357.766 381.128C357.115 382.493 356.176 383.56 354.95 384.328C353.723 385.096 352.256 385.48 350.55 385.48ZM350.55 383.224C352.47 383.224 353.899 382.589 354.838 381.32C355.776 380.04 356.246 378.381 356.246 376.344C356.246 374.253 355.771 372.589 354.822 371.352C353.883 370.115 352.459 369.496 350.55 369.496C349.259 369.496 348.192 369.789 347.35 370.376C346.518 370.952 345.894 371.757 345.478 372.792C345.072 373.816 344.87 375 344.87 376.344C344.87 378.424 345.35 380.093 346.31 381.352C347.27 382.6 348.683 383.224 350.55 383.224ZM362.271 385V367.72H374.111V369.976H364.623V385H362.271ZM384.05 385.48C382.332 385.48 380.866 385.091 379.65 384.312C378.434 383.533 377.5 382.456 376.85 381.08C376.199 379.704 375.874 378.125 375.874 376.344C375.874 374.531 376.204 372.941 376.866 371.576C377.527 370.211 378.466 369.149 379.682 368.392C380.908 367.624 382.364 367.24 384.05 367.24C385.778 367.24 387.25 367.629 388.466 368.408C389.692 369.176 390.626 370.248 391.266 371.624C391.916 372.989 392.242 374.563 392.242 376.344C392.242 378.157 391.916 379.752 391.266 381.128C390.615 382.493 389.676 383.56 388.45 384.328C387.223 385.096 385.756 385.48 384.05 385.48ZM384.05 383.224C385.97 383.224 387.399 382.589 388.338 381.32C389.276 380.04 389.746 378.381 389.746 376.344C389.746 374.253 389.271 372.589 388.322 371.352C387.383 370.115 385.959 369.496 384.05 369.496C382.759 369.496 381.692 369.789 380.85 370.376C380.018 370.952 379.394 371.757 378.978 372.792C378.572 373.816 378.37 375 378.37 376.344C378.37 378.424 378.85 380.093 379.81 381.352C380.77 382.6 382.183 383.224 384.05 383.224ZM409.345 385.48C407.607 385.48 406.135 385.091 404.93 384.312C403.724 383.533 402.807 382.461 402.178 381.096C401.559 379.72 401.239 378.141 401.218 376.36C401.239 374.547 401.57 372.957 402.21 371.592C402.85 370.216 403.772 369.149 404.978 368.392C406.183 367.624 407.644 367.24 409.362 367.24C411.111 367.24 412.631 367.667 413.922 368.52C415.223 369.373 416.114 370.541 416.594 372.024L414.29 372.76C413.884 371.725 413.239 370.925 412.354 370.36C411.479 369.784 410.476 369.496 409.345 369.496C408.076 369.496 407.026 369.789 406.194 370.376C405.362 370.952 404.743 371.757 404.338 372.792C403.932 373.827 403.724 375.016 403.714 376.36C403.735 378.429 404.215 380.093 405.154 381.352C406.092 382.6 407.49 383.224 409.345 383.224C410.519 383.224 411.516 382.957 412.338 382.424C413.17 381.88 413.799 381.091 414.226 380.056L416.594 380.76C415.954 382.296 415.015 383.469 413.778 384.28C412.54 385.08 411.063 385.48 409.345 385.48ZM417.828 385V382.936C418.468 383.053 418.953 383.027 419.284 382.856C419.625 382.675 419.876 382.376 420.036 381.96C420.196 381.533 420.329 381.005 420.436 380.376C420.606 379.331 420.761 378.179 420.9 376.92C421.038 375.661 421.161 374.275 421.268 372.76C421.385 371.235 421.502 369.555 421.62 367.72H433.364V385H431.028V369.976H423.796C423.721 371.107 423.636 372.232 423.54 373.352C423.444 374.472 423.342 375.549 423.236 376.584C423.14 377.608 423.033 378.552 422.916 379.416C422.798 380.28 422.676 381.027 422.548 381.656C422.356 382.605 422.1 383.363 421.78 383.928C421.47 384.493 421.006 384.867 420.388 385.048C419.769 385.229 418.916 385.213 417.828 385ZM445.05 385.48C443.332 385.48 441.866 385.091 440.65 384.312C439.434 383.533 438.5 382.456 437.85 381.08C437.199 379.704 436.874 378.125 436.874 376.344C436.874 374.531 437.204 372.941 437.866 371.576C438.527 370.211 439.466 369.149 440.682 368.392C441.908 367.624 443.364 367.24 445.05 367.24C446.778 367.24 448.25 367.629 449.466 368.408C450.692 369.176 451.626 370.248 452.266 371.624C452.916 372.989 453.242 374.563 453.242 376.344C453.242 378.157 452.916 379.752 452.266 381.128C451.615 382.493 450.676 383.56 449.45 384.328C448.223 385.096 446.756 385.48 445.05 385.48ZM445.05 383.224C446.97 383.224 448.399 382.589 449.338 381.32C450.276 380.04 450.746 378.381 450.746 376.344C450.746 374.253 450.271 372.589 449.322 371.352C448.383 370.115 446.959 369.496 445.05 369.496C443.759 369.496 442.692 369.789 441.85 370.376C441.018 370.952 440.394 371.757 439.978 372.792C439.572 373.816 439.37 375 439.37 376.344C439.37 378.424 439.85 380.093 440.81 381.352C441.77 382.6 443.183 383.224 445.05 383.224ZM456.755 385V367.72H463.875C464.238 367.72 464.675 367.741 465.187 367.784C465.71 367.827 466.195 367.907 466.643 368.024C467.614 368.28 468.393 368.803 468.979 369.592C469.577 370.381 469.875 371.331 469.875 372.44C469.875 373.059 469.779 373.613 469.587 374.104C469.406 374.584 469.145 375 468.803 375.352C468.643 375.533 468.467 375.693 468.275 375.832C468.083 375.96 467.897 376.067 467.715 376.152C468.057 376.216 468.425 376.365 468.819 376.6C469.438 376.963 469.907 377.453 470.227 378.072C470.547 378.68 470.707 379.421 470.707 380.296C470.707 381.48 470.425 382.445 469.859 383.192C469.294 383.939 468.537 384.451 467.587 384.728C467.161 384.845 466.697 384.92 466.195 384.952C465.705 384.984 465.241 385 464.803 385H456.755ZM459.123 383H464.691C464.915 383 465.198 382.984 465.539 382.952C465.881 382.909 466.185 382.856 466.451 382.792C467.081 382.632 467.539 382.312 467.827 381.832C468.126 381.341 468.275 380.808 468.275 380.232C468.275 379.475 468.051 378.856 467.603 378.376C467.166 377.885 466.579 377.587 465.843 377.48C465.598 377.427 465.342 377.395 465.075 377.384C464.809 377.373 464.569 377.368 464.355 377.368H459.123V383ZM459.123 375.352H463.955C464.233 375.352 464.542 375.336 464.883 375.304C465.235 375.261 465.539 375.192 465.795 375.096C466.35 374.904 466.755 374.573 467.011 374.104C467.278 373.635 467.411 373.123 467.411 372.568C467.411 371.96 467.267 371.427 466.979 370.968C466.702 370.509 466.281 370.189 465.715 370.008C465.331 369.869 464.915 369.789 464.467 369.768C464.03 369.747 463.753 369.736 463.635 369.736H459.123V375.352ZM478.84 385.48C477.539 385.48 476.446 385.245 475.56 384.776C474.686 384.307 474.03 383.683 473.592 382.904C473.155 382.125 472.936 381.277 472.936 380.36C472.936 379.421 473.123 378.621 473.496 377.96C473.88 377.288 474.398 376.739 475.048 376.312C475.71 375.885 476.472 375.56 477.336 375.336C478.211 375.123 479.176 374.936 480.232 374.776C481.299 374.605 482.339 374.461 483.352 374.344C484.376 374.216 485.272 374.093 486.04 373.976L485.208 374.488C485.24 372.781 484.91 371.517 484.216 370.696C483.523 369.875 482.318 369.464 480.6 369.464C479.416 369.464 478.414 369.731 477.592 370.264C476.782 370.797 476.211 371.64 475.88 372.792L473.592 372.12C473.987 370.573 474.782 369.373 475.976 368.52C477.171 367.667 478.723 367.24 480.632 367.24C482.211 367.24 483.55 367.539 484.648 368.136C485.758 368.723 486.542 369.576 487 370.696C487.214 371.197 487.352 371.757 487.416 372.376C487.48 372.995 487.512 373.624 487.512 374.264V385H485.416V380.664L486.024 380.92C485.438 382.403 484.526 383.533 483.288 384.312C482.051 385.091 480.568 385.48 478.84 385.48ZM479.112 383.448C480.211 383.448 481.171 383.251 481.992 382.856C482.814 382.461 483.475 381.923 483.976 381.24C484.478 380.547 484.803 379.768 484.952 378.904C485.08 378.349 485.15 377.741 485.16 377.08C485.171 376.408 485.176 375.907 485.176 375.576L486.072 376.04C485.272 376.147 484.403 376.253 483.464 376.36C482.536 376.467 481.619 376.589 480.712 376.728C479.816 376.867 479.006 377.032 478.28 377.224C477.79 377.363 477.315 377.56 476.856 377.816C476.398 378.061 476.019 378.392 475.72 378.808C475.432 379.224 475.288 379.741 475.288 380.36C475.288 380.861 475.411 381.347 475.656 381.816C475.912 382.285 476.318 382.675 476.872 382.984C477.438 383.293 478.184 383.448 479.112 383.448ZM497.764 375.928V373.912H511.204V375.928H497.764ZM524.235 392.68L527.579 383.608L527.627 386.296L520.059 367.72H522.555L528.763 383.256H527.739L533.467 367.72H535.867L526.587 392.68H524.235ZM538.63 385V367.72H552.374V385H550.022V369.976H540.982V385H538.63ZM561.809 385.48C560.508 385.48 559.414 385.245 558.529 384.776C557.654 384.307 556.998 383.683 556.561 382.904C556.124 382.125 555.905 381.277 555.905 380.36C555.905 379.421 556.092 378.621 556.465 377.96C556.849 377.288 557.366 376.739 558.017 376.312C558.678 375.885 559.441 375.56 560.305 375.336C561.18 375.123 562.145 374.936 563.201 374.776C564.268 374.605 565.308 374.461 566.321 374.344C567.345 374.216 568.241 374.093 569.009 373.976L568.177 374.488C568.209 372.781 567.878 371.517 567.185 370.696C566.492 369.875 565.286 369.464 563.569 369.464C562.385 369.464 561.382 369.731 560.561 370.264C559.75 370.797 559.18 371.64 558.849 372.792L556.561 372.12C556.956 370.573 557.75 369.373 558.945 368.52C560.14 367.667 561.692 367.24 563.601 367.24C565.18 367.24 566.518 367.539 567.617 368.136C568.726 368.723 569.51 369.576 569.969 370.696C570.182 371.197 570.321 371.757 570.385 372.376C570.449 372.995 570.481 373.624 570.481 374.264V385H568.385V380.664L568.993 380.92C568.406 382.403 567.494 383.533 566.257 384.312C565.02 385.091 563.537 385.48 561.809 385.48ZM562.081 383.448C563.18 383.448 564.14 383.251 564.961 382.856C565.782 382.461 566.444 381.923 566.945 381.24C567.446 380.547 567.772 379.768 567.921 378.904C568.049 378.349 568.118 377.741 568.129 377.08C568.14 376.408 568.145 375.907 568.145 375.576L569.041 376.04C568.241 376.147 567.372 376.253 566.433 376.36C565.505 376.467 564.588 376.589 563.681 376.728C562.785 376.867 561.974 377.032 561.249 377.224C560.758 377.363 560.284 377.56 559.825 377.816C559.366 378.061 558.988 378.392 558.689 378.808C558.401 379.224 558.257 379.741 558.257 380.36C558.257 380.861 558.38 381.347 558.625 381.816C558.881 382.285 559.286 382.675 559.841 382.984C560.406 383.293 561.153 383.448 562.081 383.448ZM573.366 388.84V382.984C574.348 382.984 575.052 382.669 575.478 382.04C575.905 381.4 576.252 380.381 576.518 378.984C576.7 378.077 576.849 377.101 576.966 376.056C577.084 375.011 577.185 373.816 577.27 372.472C577.356 371.117 577.436 369.533 577.51 367.72H588.934V382.984H590.598V388.84H588.326V385H575.622V388.84H573.366ZM577.35 382.984H586.598V369.736H579.686C579.654 370.547 579.606 371.405 579.542 372.312C579.489 373.219 579.42 374.125 579.334 375.032C579.26 375.939 579.169 376.792 579.062 377.592C578.966 378.381 578.849 379.075 578.71 379.672C578.55 380.44 578.374 381.096 578.182 381.64C578.001 382.184 577.724 382.632 577.35 382.984ZM601.115 385.48C599.429 385.48 597.968 385.107 596.731 384.36C595.504 383.613 594.549 382.563 593.867 381.208C593.184 379.853 592.843 378.264 592.843 376.44C592.843 374.552 593.179 372.92 593.851 371.544C594.523 370.168 595.467 369.107 596.683 368.36C597.909 367.613 599.355 367.24 601.019 367.24C602.725 367.24 604.181 367.635 605.387 368.424C606.592 369.203 607.504 370.323 608.123 371.784C608.741 373.245 609.024 374.989 608.971 377.016H606.571V376.184C606.528 373.944 606.043 372.253 605.115 371.112C604.197 369.971 602.853 369.4 601.083 369.4C599.227 369.4 597.803 370.003 596.811 371.208C595.829 372.413 595.339 374.131 595.339 376.36C595.339 378.536 595.829 380.227 596.811 381.432C597.803 382.627 599.205 383.224 601.019 383.224C602.256 383.224 603.333 382.941 604.251 382.376C605.179 381.8 605.909 380.973 606.443 379.896L608.635 380.744C607.952 382.248 606.944 383.416 605.611 384.248C604.288 385.069 602.789 385.48 601.115 385.48ZM594.507 377.016V375.048H607.707V377.016H594.507ZM612.505 385V367.72H614.793V382.824H621.273V367.72H623.561V382.824H630.025V367.72H632.313V385H612.505ZM636.819 385L636.787 367.72H639.155V374.232H643.203C643.704 374.232 644.195 374.243 644.675 374.264C645.165 374.285 645.597 374.328 645.971 374.392C646.824 374.552 647.581 374.835 648.243 375.24C648.915 375.645 649.437 376.205 649.811 376.92C650.195 377.635 650.387 378.531 650.387 379.608C650.387 381.091 650.003 382.259 649.235 383.112C648.477 383.965 647.517 384.52 646.355 384.776C645.917 384.872 645.443 384.936 644.931 384.968C644.419 384.989 643.912 385 643.411 385H636.819ZM639.155 382.984H643.315C643.677 382.984 644.083 382.973 644.531 382.952C644.979 382.931 645.373 382.872 645.715 382.776C646.28 382.616 646.792 382.296 647.251 381.816C647.72 381.325 647.955 380.589 647.955 379.608C647.955 378.637 647.731 377.907 647.283 377.416C646.835 376.915 646.237 376.584 645.491 376.424C645.16 376.349 644.803 376.301 644.419 376.28C644.035 376.259 643.667 376.248 643.315 376.248H639.155V382.984ZM654.344 385V382.264H657.08V385H654.344ZM81.64 487L89.576 463.96H92.696L100.632 487H98.184L90.648 465.272H91.576L84.088 487H81.64ZM85.176 481.416V479.208H97.08V481.416H85.176ZM102.241 490.84V484.984C103.223 484.984 103.927 484.669 104.353 484.04C104.78 483.4 105.127 482.381 105.393 480.984C105.575 480.077 105.724 479.101 105.841 478.056C105.959 477.011 106.06 475.816 106.145 474.472C106.231 473.117 106.311 471.533 106.385 469.72H117.809V484.984H119.473V490.84H117.201V487H104.497V490.84H102.241ZM106.225 484.984H115.473V471.736H108.561C108.529 472.547 108.481 473.405 108.417 474.312C108.364 475.219 108.295 476.125 108.209 477.032C108.135 477.939 108.044 478.792 107.937 479.592C107.841 480.381 107.724 481.075 107.585 481.672C107.425 482.44 107.249 483.096 107.057 483.64C106.876 484.184 106.599 484.632 106.225 484.984ZM122.694 487L122.662 469.72H125.03V476.232H128.038C128.539 476.232 129.03 476.243 129.51 476.264C129.99 476.285 130.422 476.328 130.806 476.392C131.659 476.563 132.416 476.851 133.078 477.256C133.739 477.661 134.262 478.221 134.646 478.936C135.03 479.64 135.222 480.531 135.222 481.608C135.222 483.091 134.838 484.259 134.07 485.112C133.302 485.965 132.336 486.52 131.174 486.776C130.736 486.872 130.262 486.936 129.75 486.968C129.238 486.989 128.736 487 128.246 487H122.694ZM125.03 484.984H128.15C128.502 484.984 128.902 484.973 129.35 484.952C129.798 484.931 130.192 484.872 130.534 484.776C131.11 484.616 131.627 484.296 132.086 483.816C132.555 483.325 132.79 482.589 132.79 481.608C132.79 480.637 132.566 479.907 132.118 479.416C131.67 478.915 131.072 478.584 130.326 478.424C129.984 478.349 129.622 478.301 129.238 478.28C128.864 478.259 128.502 478.248 128.15 478.248H125.03V484.984ZM137.286 487V469.72H139.638V487H137.286ZM144.115 487V469.72H155.955V471.976H146.467V487H144.115ZM165.845 487.48C164.107 487.48 162.635 487.091 161.43 486.312C160.224 485.533 159.307 484.461 158.678 483.096C158.059 481.72 157.739 480.141 157.718 478.36C157.739 476.547 158.07 474.957 158.71 473.592C159.35 472.216 160.272 471.149 161.478 470.392C162.683 469.624 164.144 469.24 165.862 469.24C167.611 469.24 169.131 469.667 170.422 470.52C171.723 471.373 172.614 472.541 173.094 474.024L170.79 474.76C170.384 473.725 169.739 472.925 168.854 472.36C167.979 471.784 166.976 471.496 165.845 471.496C164.576 471.496 163.526 471.789 162.694 472.376C161.862 472.952 161.243 473.757 160.838 474.792C160.432 475.827 160.224 477.016 160.214 478.36C160.235 480.429 160.715 482.093 161.654 483.352C162.592 484.6 163.99 485.224 165.845 485.224C167.019 485.224 168.016 484.957 168.838 484.424C169.67 483.88 170.299 483.091 170.726 482.056L173.094 482.76C172.454 484.296 171.515 485.469 170.278 486.28C169.04 487.08 167.563 487.48 165.845 487.48ZM176.38 487L176.396 469.72H178.764V478.04L186.476 469.72H189.612L181.516 478.36L190.668 487H187.244L178.764 478.68V487H176.38ZM197.215 487.48C195.914 487.48 194.821 487.245 193.935 486.776C193.061 486.307 192.405 485.683 191.967 484.904C191.53 484.125 191.311 483.277 191.311 482.36C191.311 481.421 191.498 480.621 191.871 479.96C192.255 479.288 192.773 478.739 193.423 478.312C194.085 477.885 194.847 477.56 195.711 477.336C196.586 477.123 197.551 476.936 198.607 476.776C199.674 476.605 200.714 476.461 201.727 476.344C202.751 476.216 203.647 476.093 204.415 475.976L203.583 476.488C203.615 474.781 203.285 473.517 202.591 472.696C201.898 471.875 200.693 471.464 198.975 471.464C197.791 471.464 196.789 471.731 195.967 472.264C195.157 472.797 194.586 473.64 194.255 474.792L191.967 474.12C192.362 472.573 193.157 471.373 194.351 470.52C195.546 469.667 197.098 469.24 199.007 469.24C200.586 469.24 201.925 469.539 203.023 470.136C204.133 470.723 204.917 471.576 205.375 472.696C205.589 473.197 205.727 473.757 205.791 474.376C205.855 474.995 205.887 475.624 205.887 476.264V487H203.791V482.664L204.399 482.92C203.813 484.403 202.901 485.533 201.663 486.312C200.426 487.091 198.943 487.48 197.215 487.48ZM197.487 485.448C198.586 485.448 199.546 485.251 200.367 484.856C201.189 484.461 201.85 483.923 202.351 483.24C202.853 482.547 203.178 481.768 203.327 480.904C203.455 480.349 203.525 479.741 203.535 479.08C203.546 478.408 203.551 477.907 203.551 477.576L204.447 478.04C203.647 478.147 202.778 478.253 201.839 478.36C200.911 478.467 199.994 478.589 199.087 478.728C198.191 478.867 197.381 479.032 196.655 479.224C196.165 479.363 195.69 479.56 195.231 479.816C194.773 480.061 194.394 480.392 194.095 480.808C193.807 481.224 193.663 481.741 193.663 482.36C193.663 482.861 193.786 483.347 194.031 483.816C194.287 484.285 194.693 484.675 195.247 484.984C195.813 485.293 196.559 485.448 197.487 485.448ZM220.885 487V480.488H216.852C216.383 480.488 215.898 480.472 215.397 480.44C214.906 480.397 214.447 480.339 214.021 480.264C212.805 480.029 211.77 479.496 210.917 478.664C210.074 477.821 209.653 476.659 209.653 475.176C209.653 473.725 210.047 472.563 210.837 471.688C211.626 470.803 212.581 470.227 213.701 469.96C214.213 469.843 214.73 469.773 215.253 469.752C215.786 469.731 216.245 469.72 216.628 469.72H223.237L223.253 487H220.885ZM209.093 487L213.909 479.752H216.517L211.669 487H209.093ZM216.725 478.472H220.885V471.736H216.725C216.469 471.736 216.111 471.747 215.653 471.768C215.194 471.789 214.762 471.859 214.357 471.976C214.005 472.083 213.653 472.269 213.301 472.536C212.959 472.792 212.671 473.139 212.437 473.576C212.202 474.003 212.085 474.525 212.085 475.144C212.085 476.008 212.319 476.701 212.789 477.224C213.269 477.736 213.866 478.088 214.581 478.28C214.965 478.365 215.349 478.419 215.733 478.44C216.117 478.461 216.447 478.472 216.725 478.472ZM234.13 487V469.72H247.874V487H245.522V471.976H236.482V487H234.13ZM259.581 487.48C257.864 487.48 256.397 487.091 255.181 486.312C253.965 485.533 253.032 484.456 252.381 483.08C251.73 481.704 251.405 480.125 251.405 478.344C251.405 476.531 251.736 474.941 252.397 473.576C253.058 472.211 253.997 471.149 255.213 470.392C256.44 469.624 257.896 469.24 259.581 469.24C261.309 469.24 262.781 469.629 263.997 470.408C265.224 471.176 266.157 472.248 266.797 473.624C267.448 474.989 267.773 476.563 267.773 478.344C267.773 480.157 267.448 481.752 266.797 483.128C266.146 484.493 265.208 485.56 263.981 486.328C262.754 487.096 261.288 487.48 259.581 487.48ZM259.581 485.224C261.501 485.224 262.93 484.589 263.869 483.32C264.808 482.04 265.277 480.381 265.277 478.344C265.277 476.253 264.802 474.589 263.853 473.352C262.914 472.115 261.49 471.496 259.581 471.496C258.29 471.496 257.224 471.789 256.381 472.376C255.549 472.952 254.925 473.757 254.509 474.792C254.104 475.816 253.901 477 253.901 478.344C253.901 480.424 254.381 482.093 255.341 483.352C256.301 484.6 257.714 485.224 259.581 485.224ZM278.47 487.48C276.732 487.48 275.26 487.091 274.055 486.312C272.849 485.533 271.932 484.461 271.303 483.096C270.684 481.72 270.364 480.141 270.343 478.36C270.364 476.547 270.695 474.957 271.335 473.592C271.975 472.216 272.897 471.149 274.103 470.392C275.308 469.624 276.769 469.24 278.487 469.24C280.236 469.24 281.756 469.667 283.047 470.52C284.348 471.373 285.239 472.541 285.719 474.024L283.415 474.76C283.009 473.725 282.364 472.925 281.479 472.36C280.604 471.784 279.601 471.496 278.47 471.496C277.201 471.496 276.151 471.789 275.319 472.376C274.487 472.952 273.868 473.757 273.463 474.792C273.057 475.827 272.849 477.016 272.839 478.36C272.86 480.429 273.34 482.093 274.279 483.352C275.217 484.6 276.615 485.224 278.47 485.224C279.644 485.224 280.641 484.957 281.463 484.424C282.295 483.88 282.924 483.091 283.351 482.056L285.719 482.76C285.079 484.296 284.14 485.469 282.903 486.28C281.665 487.08 280.188 487.48 278.47 487.48ZM286.953 487V484.936C287.593 485.053 288.078 485.027 288.409 484.856C288.75 484.675 289.001 484.376 289.161 483.96C289.321 483.533 289.454 483.005 289.561 482.376C289.731 481.331 289.886 480.179 290.025 478.92C290.163 477.661 290.286 476.275 290.393 474.76C290.51 473.235 290.627 471.555 290.745 469.72H302.489V487H300.153V471.976H292.921C292.846 473.107 292.761 474.232 292.665 475.352C292.569 476.472 292.467 477.549 292.361 478.584C292.265 479.608 292.158 480.552 292.041 481.416C291.923 482.28 291.801 483.027 291.673 483.656C291.481 484.605 291.225 485.363 290.905 485.928C290.595 486.493 290.131 486.867 289.513 487.048C288.894 487.229 288.041 487.213 286.953 487ZM314.175 487.48C312.457 487.48 310.991 487.091 309.775 486.312C308.559 485.533 307.625 484.456 306.975 483.08C306.324 481.704 305.999 480.125 305.999 478.344C305.999 476.531 306.329 474.941 306.991 473.576C307.652 472.211 308.591 471.149 309.807 470.392C311.033 469.624 312.489 469.24 314.175 469.24C315.903 469.24 317.375 469.629 318.591 470.408C319.817 471.176 320.751 472.248 321.391 473.624C322.041 474.989 322.367 476.563 322.367 478.344C322.367 480.157 322.041 481.752 321.391 483.128C320.74 484.493 319.801 485.56 318.575 486.328C317.348 487.096 315.881 487.48 314.175 487.48ZM314.175 485.224C316.095 485.224 317.524 484.589 318.463 483.32C319.401 482.04 319.871 480.381 319.871 478.344C319.871 476.253 319.396 474.589 318.447 473.352C317.508 472.115 316.084 471.496 314.175 471.496C312.884 471.496 311.817 471.789 310.975 472.376C310.143 472.952 309.519 473.757 309.103 474.792C308.697 475.816 308.495 477 308.495 478.344C308.495 480.424 308.975 482.093 309.935 483.352C310.895 484.6 312.308 485.224 314.175 485.224ZM325.88 487V469.72H333C333.363 469.72 333.8 469.741 334.312 469.784C334.835 469.827 335.32 469.907 335.768 470.024C336.739 470.28 337.518 470.803 338.104 471.592C338.702 472.381 339 473.331 339 474.44C339 475.059 338.904 475.613 338.712 476.104C338.531 476.584 338.27 477 337.928 477.352C337.768 477.533 337.592 477.693 337.4 477.832C337.208 477.96 337.022 478.067 336.84 478.152C337.182 478.216 337.55 478.365 337.944 478.6C338.563 478.963 339.032 479.453 339.352 480.072C339.672 480.68 339.832 481.421 339.832 482.296C339.832 483.48 339.55 484.445 338.984 485.192C338.419 485.939 337.662 486.451 336.712 486.728C336.286 486.845 335.822 486.92 335.32 486.952C334.83 486.984 334.366 487 333.928 487H325.88ZM328.248 485H333.816C334.04 485 334.323 484.984 334.664 484.952C335.006 484.909 335.31 484.856 335.576 484.792C336.206 484.632 336.664 484.312 336.952 483.832C337.251 483.341 337.4 482.808 337.4 482.232C337.4 481.475 337.176 480.856 336.728 480.376C336.291 479.885 335.704 479.587 334.968 479.48C334.723 479.427 334.467 479.395 334.2 479.384C333.934 479.373 333.694 479.368 333.48 479.368H328.248V485ZM328.248 477.352H333.08C333.358 477.352 333.667 477.336 334.008 477.304C334.36 477.261 334.664 477.192 334.92 477.096C335.475 476.904 335.88 476.573 336.136 476.104C336.403 475.635 336.536 475.123 336.536 474.568C336.536 473.96 336.392 473.427 336.104 472.968C335.827 472.509 335.406 472.189 334.84 472.008C334.456 471.869 334.04 471.789 333.592 471.768C333.155 471.747 332.878 471.736 332.76 471.736H328.248V477.352ZM356.749 469.72V487H354.461V473.544L344.989 487H343.005V469.72H345.293V483.064L354.781 469.72H356.749ZM376.088 489.992V487H361.224V469.72H363.576V484.744H372.616V469.72H374.968V484.824H378.44V489.992H376.088ZM385.934 487.48C384.633 487.48 383.539 487.245 382.654 486.776C381.779 486.307 381.123 485.683 380.686 484.904C380.249 484.125 380.03 483.277 380.03 482.36C380.03 481.421 380.217 480.621 380.59 479.96C380.974 479.288 381.491 478.739 382.142 478.312C382.803 477.885 383.566 477.56 384.43 477.336C385.305 477.123 386.27 476.936 387.326 476.776C388.393 476.605 389.433 476.461 390.446 476.344C391.47 476.216 392.366 476.093 393.134 475.976L392.302 476.488C392.334 474.781 392.003 473.517 391.31 472.696C390.617 471.875 389.411 471.464 387.694 471.464C386.51 471.464 385.507 471.731 384.686 472.264C383.875 472.797 383.305 473.64 382.974 474.792L380.686 474.12C381.081 472.573 381.875 471.373 383.07 470.52C384.265 469.667 385.817 469.24 387.726 469.24C389.305 469.24 390.643 469.539 391.742 470.136C392.851 470.723 393.635 471.576 394.094 472.696C394.307 473.197 394.446 473.757 394.51 474.376C394.574 474.995 394.606 475.624 394.606 476.264V487H392.51V482.664L393.118 482.92C392.531 484.403 391.619 485.533 390.382 486.312C389.145 487.091 387.662 487.48 385.934 487.48ZM386.206 485.448C387.305 485.448 388.265 485.251 389.086 484.856C389.907 484.461 390.569 483.923 391.07 483.24C391.571 482.547 391.897 481.768 392.046 480.904C392.174 480.349 392.243 479.741 392.254 479.08C392.265 478.408 392.27 477.907 392.27 477.576L393.166 478.04C392.366 478.147 391.497 478.253 390.558 478.36C389.63 478.467 388.713 478.589 387.806 478.728C386.91 478.867 386.099 479.032 385.374 479.224C384.883 479.363 384.409 479.56 383.95 479.816C383.491 480.061 383.113 480.392 382.814 480.808C382.526 481.224 382.382 481.741 382.382 482.36C382.382 482.861 382.505 483.347 382.75 483.816C383.006 484.285 383.411 484.675 383.966 484.984C384.531 485.293 385.278 485.448 386.206 485.448Z" fill="#414141"/>
<defs>
<filter id="filter0_ddi_1981_3296" x="0" y="0" width="743" height="696" filterUnits="userSpaceOnUse" color-interpolation-filters="sRGB">
<feFlood flood-opacity="0" result="BackgroundImageFix"/>
<feColorMatrix in="SourceAlpha" type="matrix" values="0 0 0 0 0 0 0 0 0 0 0 0 0 0 0 0 0 0 127 0" result="hardAlpha"/>
<feOffset dx="-1" dy="-1"/>
<feGaussianBlur stdDeviation="0.5"/>
<feComposite in2="hardAlpha" operator="out"/>
<feColorMatrix type="matrix" values="0 0 0 0 1 0 0 0 0 1 0 0 0 0 1 0 0 0 0.2 0"/>
<feBlend mode="normal" in2="BackgroundImageFix" result="effect1_dropShadow_1981_3296"/>
<feColorMatrix in="SourceAlpha" type="matrix" values="0 0 0 0 0 0 0 0 0 0 0 0 0 0 0 0 0 0 127 0" result="hardAlpha"/>
<feOffset dx="1" dy="1"/>
<feGaussianBlur stdDeviation="2"/>
<feComposite in2="hardAlpha" operator="out"/>
<feColorMatrix type="matrix" values="0 0 0 0 0 0 0 0 0 0 0 0 0 0 0 0 0 0 0.1 0"/>
<feBlend mode="normal" in2="effect1_dropShadow_1981_3296" result="effect2_dropShadow_1981_3296"/>
<feBlend mode="normal" in="SourceGraphic" in2="effect2_dropShadow_1981_3296" result="shape"/>
<feColorMatrix in="SourceAlpha" type="matrix" values="0 0 0 0 0 0 0 0 0 0 0 0 0 0 0 0 0 0 127 0" result="hardAlpha"/>
<feOffset/>
<feGaussianBlur stdDeviation="0.5"/>
<feComposite in2="hardAlpha" operator="arithmetic" k2="-1" k3="1"/>
<feColorMatrix type="matrix" values="0 0 0 0 0 0 0 0 0 0 0 0 0 0 0 0 0 0 0.1 0"/>
<feBlend mode="normal" in2="shape" result="effect3_innerShadow_1981_3296"/>
</filter>
</defs>
</svg>
