<svg width="188" height="337" viewBox="0 0 188 337" fill="none" xmlns="http://www.w3.org/2000/svg">
<path d="M41.3784 149.156C41.3784 147.499 42.7216 146.156 44.3784 146.156H76.6283C78.2852 146.156 79.6283 147.499 79.6283 149.156V173.25C79.6283 173.673 79.4604 174.078 79.1615 174.377C78.8627 174.676 78.4573 174.844 78.0346 174.844H42.9722C42.5495 174.844 42.1441 174.676 41.8452 174.377C41.5463 174.078 41.3784 173.673 41.3784 173.25V149.156Z" stroke="#4CAA89" stroke-width="2" stroke-linecap="round" stroke-linejoin="round"/>
<path d="M41.3784 155.719H79.6284" stroke="#4CAA89" stroke-width="2" stroke-linecap="round" stroke-linejoin="round"/>
<path d="M41.3784 165.281H79.6284" stroke="#4CAA89" stroke-width="2" stroke-linecap="round" stroke-linejoin="round"/>
<path d="M52.5347 155.719V174.844" stroke="#4CAA89" stroke-width="2" stroke-linecap="round" stroke-linejoin="round"/>
<rect x="20.5034" y="1.5" width="144" height="308" rx="16.5" stroke="#4CAA89" stroke-width="3"/>
<path d="M101.66 175V160C101.66 158.343 103.003 157 104.66 157H115.222" stroke="#4CAA89" stroke-width="2" stroke-linecap="round" stroke-linejoin="round"/>
<path d="M146.222 175H97.7847" stroke="#4CAA89" stroke-width="2" stroke-linecap="round" stroke-linejoin="round"/>
<path d="M115.222 175V148C115.222 146.343 116.565 145 118.222 145H128.785" stroke="#4CAA89" stroke-width="2" stroke-linecap="round" stroke-linejoin="round"/>
<path d="M139.347 133H131.785C130.128 133 128.785 134.343 128.785 136V175H142.347V136C142.347 134.343 141.004 133 139.347 133Z" stroke="#4CAA89" stroke-width="2" stroke-linecap="round" stroke-linejoin="round"/>
<path d="M157.094 210.347L111.32 256.121" stroke="white" stroke-width="20" stroke-linecap="round" stroke-linejoin="round"/>
<path d="M157.094 210.347L111.32 256.121" stroke="white" stroke-width="25" stroke-linecap="round" stroke-linejoin="round"/>
<path d="M134.538 210.347L157.094 210.347L157.094 232.902" stroke="white" stroke-width="20" stroke-linecap="round" stroke-linejoin="round"/>
<path d="M156.502 209.757L110.798 255.461" stroke="#4CAA89" stroke-width="4" stroke-linecap="round" stroke-linejoin="round"/>
<path d="M89.3775 227.858L110.798 255.461" stroke="#4CAA89" stroke-width="4" stroke-linecap="round" stroke-linejoin="round"/>
<path d="M88.9731 227.859L52.9731 263.859" stroke="#4CAA89" stroke-width="4" stroke-linecap="round" stroke-linejoin="round"/>
<path d="M133.962 209.738L156.5 209.755L156.517 232.293" stroke="#4CAA89" stroke-width="4" stroke-linecap="round" stroke-linejoin="round"/>
<path d="M40.5 284.856V204.246" stroke="#4CAA89" stroke-width="3" stroke-linecap="round" stroke-linejoin="round"/>
<path d="M143.5 285.246H40.5" stroke="#4CAA89" stroke-width="3" stroke-linecap="round" stroke-linejoin="round"/>
<path d="M121.574 48.6528C126.877 56.2365 129.229 65.4943 128.191 74.6893C127.153 83.8842 122.796 92.3845 115.936 98.5953C109.077 104.806 100.187 108.301 90.9346 108.423C81.6821 108.546 72.7027 105.288 65.6812 99.2612C58.6597 93.2343 54.0785 84.8525 52.7972 75.6883C51.5159 66.5241 53.6225 57.2072 58.7219 49.4857C63.8212 41.7641 71.5627 36.1686 80.4941 33.7488C89.4255 31.329 98.9329 32.2513 107.233 36.3427" stroke="#4CAA89" stroke-width="2" stroke-linecap="round" stroke-linejoin="round"/>
<path d="M94.9549 42.7199C101.356 43.7114 107.216 46.8918 111.536 51.7193C115.855 56.5468 118.368 62.7228 118.644 69.1948C118.921 75.6668 116.944 82.0346 113.052 87.2129C109.16 92.3913 103.593 96.06 97.2995 97.5938C91.0057 99.1277 84.3748 98.4318 78.5367 95.6248C72.6985 92.8178 68.0142 88.0733 65.282 82.1997C62.5497 76.3262 61.9386 69.687 63.5527 63.4133C65.1668 57.1397 68.9063 51.6198 74.134 47.7942" stroke="#4CAA89" stroke-width="2" stroke-linecap="round" stroke-linejoin="round"/>
<path d="M106.935 80.1394C104.792 83.7131 101.532 86.4816 97.6583 88.0171C93.7847 89.5526 89.5133 89.7696 85.504 88.6346C81.4948 87.4996 77.9709 85.0758 75.477 81.7378C72.9831 78.3997 71.6579 74.3332 71.7064 70.1667C71.7548 66.0002 73.1741 61.9655 75.7449 58.6863C78.3157 55.4071 81.8949 53.0659 85.9295 52.0244C89.964 50.9829 94.2293 51.2991 98.0661 52.9242C101.903 54.5493 105.098 57.3928 107.157 61.0153" stroke="#4CAA89" stroke-width="2" stroke-linecap="round" stroke-linejoin="round"/>
<path d="M64.6021 50.4258L54.5391 37.373C53.5925 36.1451 52.1297 35.4258 50.5793 35.4258H42.602" stroke="white" stroke-width="6" stroke-linecap="round"/>
<path d="M64.6021 50.4258L54.5391 37.373C53.5925 36.1451 52.1297 35.4258 50.5793 35.4258H42.602" stroke="#4CAA89" stroke-width="2" stroke-linecap="round"/>
<path d="M39.4311 35.4258C39.4311 37.0826 40.7742 38.4258 42.4311 38.4258C44.088 38.4258 45.4311 37.0826 45.4311 35.4258C45.4311 33.7689 44.088 32.4258 42.4311 32.4258C40.7742 32.4258 39.4311 33.7689 39.4311 35.4258Z" fill="#4CAA89"/>
<path d="M123.431 68.4258L133.494 55.373C134.441 54.1451 135.903 53.4258 137.454 53.4258H145.431" stroke="white" stroke-width="6" stroke-linecap="round"/>
<path d="M123.431 68.4258L133.494 55.373C134.441 54.1451 135.903 53.4258 137.454 53.4258H145.431" stroke="#4CAA89" stroke-width="2" stroke-linecap="round"/>
<path d="M148.602 53.4258C148.602 55.0826 147.259 56.4258 145.602 56.4258C143.945 56.4258 142.602 55.0826 142.602 53.4258C142.602 51.7689 143.945 50.4258 145.602 50.4258C147.259 50.4258 148.602 51.7689 148.602 53.4258Z" fill="#4CAA89"/>
</svg>
