<svg width="170" height="50" viewBox="0 0 170 50" fill="none" xmlns="http://www.w3.org/2000/svg">
<path d="M169.056 43.8879C169.056 46.5051 166.891 48.6251 164.215 48.6251H5.79164C3.11609 48.6251 0.944336 46.5051 0.944336 43.8879V6.11054C0.944336 3.49459 3.11609 1.36719 5.79164 1.36719H164.213C166.891 1.36719 169.054 3.49459 169.054 6.11054L169.056 43.8879Z" fill="white"/>
<path d="M163.704 1.42337C166.619 1.42337 168.991 3.7362 168.991 6.57851V43.4119C168.991 46.2542 166.619 48.567 163.704 48.567H6.2963C3.38111 48.567 1.00898 46.2542 1.00898 43.4119V6.57851C1.00898 3.7362 3.38111 1.42337 6.2963 1.42337H163.704ZM163.704 0.439612H6.2963C2.83491 0.439612 0 3.20365 0 6.57851V43.4119C0 46.7867 2.83491 49.5508 6.2963 49.5508H163.704C167.165 49.5508 170 46.7867 170 43.4119V6.57851C170 3.20365 167.165 0.439612 163.704 0.439612Z" fill="white"/>
<path d="M37.9386 24.7315C37.9021 20.7744 41.2618 18.8492 41.4154 18.7596C39.5127 16.0548 36.5635 15.6852 35.5271 15.6558C33.0501 15.4016 30.6475 17.1009 29.3857 17.1009C28.0987 17.1009 26.1557 15.6803 24.0615 15.7221C21.3667 15.7626 18.8457 17.2838 17.463 19.646C14.6095 24.4626 16.7377 31.5408 19.4715 35.434C20.8391 37.3408 22.4371 39.4698 24.5287 39.3949C26.575 39.3126 27.3394 38.1229 29.8088 38.1229C32.2555 38.1229 32.9733 39.3949 35.1065 39.347C37.3027 39.3126 38.6853 37.4316 40.005 35.5077C41.5854 33.3223 42.2201 31.17 42.2453 31.0595C42.1936 31.0423 37.9801 29.4744 37.9386 24.7315Z" fill="#028959"/>
<path d="M33.9089 13.0946C35.0095 11.7526 35.7626 9.92694 35.5535 8.07422C33.9606 8.14297 31.9684 9.14853 30.8212 10.461C29.8063 11.6176 28.8996 13.5133 29.1338 15.296C30.9232 15.4262 32.7605 14.4157 33.9089 13.0946Z" fill="#028959"/>
<path d="M64.1077 34.9856H57.9337L56.451 39.3513H53.8359L59.6839 23.1992H62.4008L68.2488 39.3513H65.5891L64.1077 34.9856ZM58.5731 32.971H63.4671L61.0545 25.8857H60.9869L58.5731 32.971Z" fill="#028959"/>
<path d="M80.8798 33.4672C80.8798 37.1267 78.9156 39.4779 75.9516 39.4779C75.2007 39.517 74.454 39.3446 73.7968 38.9802C73.1397 38.6158 72.5988 38.0743 72.2359 37.4176H72.1799V43.2504H69.7559V27.5785H72.1022V29.5372H72.1467C72.5263 28.8836 73.0763 28.3449 73.7385 27.9783C74.4006 27.6117 75.15 27.431 75.9069 27.4553C78.9042 27.4553 80.8798 29.8179 80.8798 33.4672ZM78.3883 33.4672C78.3883 31.083 77.1527 29.5156 75.2675 29.5156C73.4155 29.5156 72.1697 31.1161 72.1697 33.4672C72.1697 35.84 73.4155 37.429 75.2675 37.429C77.1527 37.429 78.3882 35.873 78.3882 33.4672H78.3883Z" fill="#028959"/>
<path d="M93.8765 33.4672C93.8765 37.1267 91.9117 39.4779 88.9477 39.4779C88.1968 39.517 87.4501 39.3446 86.7929 38.9802C86.1358 38.6158 85.5949 38.0743 85.232 37.4176H85.176V43.2504H82.752V27.5785H85.0983V29.5372H85.1428C85.5223 28.8836 86.0724 28.3449 86.7346 27.9783C87.3967 27.6117 88.1461 27.431 88.903 27.4553C91.9003 27.4553 93.8765 29.8179 93.8765 33.4672ZM91.3844 33.4672C91.3844 31.083 90.1488 29.5156 88.2636 29.5156C86.4116 29.5156 85.1658 31.1161 85.1658 33.4672C85.1658 35.84 86.4116 37.429 88.2636 37.429C90.1488 37.429 91.3844 35.873 91.3844 33.4672Z" fill="#028959"/>
<path d="M102.468 34.8507C102.647 36.4525 104.208 37.5041 106.34 37.5041C108.383 37.5041 109.853 36.4524 109.853 35.0082C109.853 33.7545 108.967 33.0038 106.867 32.4893L104.768 31.9851C101.794 31.2687 100.413 29.8816 100.413 27.6308C100.413 24.8439 102.849 22.9297 106.306 22.9297C109.73 22.9297 112.076 24.8439 112.155 27.6308H109.708C109.561 26.0188 108.225 25.0459 106.272 25.0459C104.32 25.0459 102.984 26.0303 102.984 27.4631C102.984 28.605 103.837 29.277 105.925 29.7913L107.709 30.2283C111.033 31.012 112.412 32.3432 112.412 34.7058C112.412 37.7276 110 39.6203 106.16 39.6203C102.568 39.6203 100.143 37.7721 99.9863 34.8506L102.468 34.8507Z" fill="#028959"/>
<path d="M117.645 24.7891V27.5759H119.89V29.4901H117.645V35.9822C117.645 36.9907 118.094 37.4607 119.082 37.4607C119.348 37.4561 119.614 37.4374 119.879 37.4048V39.3076C119.435 39.3903 118.984 39.4277 118.533 39.4194C116.142 39.4194 115.209 38.5238 115.209 36.24V29.4901H113.492V27.5759H115.209V24.7891H117.645Z" fill="#028959"/>
<path d="M121.189 33.4632C121.189 29.758 123.378 27.4297 126.79 27.4297C130.214 27.4297 132.392 29.7579 132.392 33.4632C132.392 37.1786 130.226 39.4967 126.79 39.4967C123.356 39.4967 121.189 37.1786 121.189 33.4632ZM129.922 33.4632C129.922 30.9215 128.754 29.4214 126.79 29.4214C124.826 29.4214 123.658 30.9329 123.658 33.4632C123.658 36.0151 124.826 37.5038 126.79 37.5038C128.754 37.5038 129.922 36.0151 129.922 33.4632H129.922Z" fill="#028959"/>
<path d="M134.391 27.5784H136.703V29.5828H136.759C136.915 28.9568 137.283 28.4035 137.8 28.0161C138.317 27.6286 138.953 27.4306 139.599 27.4552C139.879 27.4542 140.157 27.4845 140.43 27.5454V29.8063C140.077 29.6989 139.709 29.6495 139.341 29.6603C138.988 29.646 138.637 29.7079 138.311 29.8418C137.986 29.9756 137.693 30.1782 137.453 30.4355C137.213 30.6929 137.031 30.9991 136.921 31.3329C136.811 31.6668 136.775 32.0204 136.815 32.3696V39.3545H134.391L134.391 27.5784Z" fill="#028959"/>
<path d="M151.606 35.8919C151.28 38.0296 149.192 39.4967 146.521 39.4967C143.085 39.4967 140.953 37.2014 140.953 33.5191C140.953 29.8253 143.097 27.4297 146.419 27.4297C149.686 27.4297 151.741 29.6678 151.741 33.2384V34.0666H143.4V34.2126C143.362 34.646 143.416 35.0826 143.56 35.4934C143.703 35.9042 143.933 36.2799 144.234 36.5954C144.534 36.9108 144.898 37.159 145.302 37.3232C145.706 37.4875 146.141 37.5642 146.577 37.5482C147.15 37.6017 147.725 37.4694 148.216 37.171C148.707 36.8726 149.089 36.4239 149.304 35.8918L151.606 35.8919ZM143.412 32.3772H149.315C149.337 31.9875 149.278 31.5975 149.141 31.2318C149.005 30.866 148.794 30.5323 148.522 30.2517C148.25 29.971 147.923 29.7495 147.561 29.6009C147.199 29.4523 146.81 29.38 146.419 29.3884C146.024 29.386 145.633 29.4616 145.268 29.6109C144.902 29.7601 144.57 29.98 144.291 30.2579C144.011 30.5358 143.789 30.8661 143.639 31.2299C143.488 31.5936 143.41 31.9835 143.412 32.3772V32.3772Z" fill="#028959"/>
<path d="M54.7839 18.5542H53.8359V15.957H54.6411C55.0033 15.5637 55.2757 15.0964 55.4394 14.5874C55.6031 14.0783 55.6542 13.5398 55.5891 13.0091V9.11328H60.7835V15.944H61.6536V18.5412H60.6926V16.905H54.7839V18.5542ZM56.589 13.0091C56.6469 14.0523 56.389 15.0887 55.8488 15.9829H59.7446V10.0743H56.589V13.0091Z" fill="#028959" stroke="#028959" stroke-width="0.220124" stroke-miterlimit="10"/>
<path d="M69.4582 15.8941C69.0842 16.2691 68.6399 16.5666 68.1508 16.7696C67.6617 16.9726 67.1373 17.0771 66.6077 17.0771C66.0781 17.0771 65.5538 16.9726 65.0646 16.7696C64.5755 16.5666 64.1312 16.2691 63.7573 15.8941C63.0143 15.1182 62.5996 14.0854 62.5996 13.0112C62.5996 11.937 63.0143 10.9042 63.7573 10.1283C64.1312 9.7533 64.5755 9.45579 65.0646 9.2528C65.5538 9.0498 66.0781 8.94531 66.6077 8.94531C67.1373 8.94531 67.6617 9.0498 68.1508 9.2528C68.6399 9.45579 69.0842 9.7533 69.4582 10.1283C69.8333 10.5075 70.1288 10.9579 70.3273 11.453C70.5258 11.9481 70.6233 12.4779 70.6139 13.0112C70.6293 13.5453 70.5346 14.0769 70.3358 14.5728C70.1369 15.0688 69.8382 15.5185 69.4582 15.8941ZM64.4845 15.2448C64.7581 15.529 65.0872 15.754 65.4512 15.9059C65.8153 16.0578 66.2067 16.1333 66.6012 16.1279C66.996 16.1357 67.3881 16.0612 67.7525 15.9092C68.117 15.7571 68.4458 15.5309 68.718 15.2448C69.2783 14.6359 69.5893 13.8387 69.5893 13.0112C69.5893 12.1837 69.2783 11.3865 68.718 10.7776C68.4458 10.4915 68.117 10.2652 67.7525 10.1132C67.3881 9.96117 66.996 9.8867 66.6012 9.89452C66.2067 9.88905 65.8153 9.9646 65.4512 10.1165C65.0872 10.2684 64.7581 10.4934 64.4845 10.7776C63.9324 11.3905 63.6268 12.1862 63.6268 13.0112C63.6268 13.8361 63.9324 14.6319 64.4845 15.2448Z" fill="#028959" stroke="#028959" stroke-width="0.220124" stroke-miterlimit="10"/>
<path d="M75.6528 17.0762C75.1274 17.0845 74.6057 16.9863 74.1192 16.7877C73.6327 16.5891 73.1914 16.2941 72.8218 15.9205C72.0725 15.1374 71.6543 14.0954 71.6543 13.0116C71.6543 11.9278 72.0725 10.8858 72.8218 10.1027C73.1974 9.72264 73.6472 9.42391 74.1431 9.22508C74.6391 9.02625 75.1706 8.93157 75.7048 8.94692C76.2484 8.93154 76.7884 9.04053 77.2835 9.26559C77.7786 9.49065 78.2158 9.82582 78.5617 10.2455L77.8734 10.9208C77.6183 10.5928 77.2882 10.3308 76.9108 10.1568C76.5335 9.98281 76.1199 9.90191 75.7048 9.92088C75.305 9.91068 74.9075 9.98264 74.5367 10.1323C74.1659 10.282 73.8297 10.5061 73.5491 10.791C72.9897 11.4055 72.6797 12.2066 72.6797 13.0376C72.6797 13.8685 72.9897 14.6696 73.5491 15.2842C73.8297 15.569 74.1659 15.7931 74.5367 15.9428C74.9075 16.0925 75.305 16.1644 75.7048 16.1542C76.151 16.1415 76.589 16.0315 76.9883 15.8319C77.3876 15.6323 77.7384 15.3478 78.0163 14.9985L78.7175 15.6867C78.3618 16.113 77.919 16.4584 77.4189 16.6996C76.8665 16.9577 76.2625 17.0865 75.6528 17.0762Z" fill="#028959" stroke="#028959" stroke-width="0.220124" stroke-miterlimit="10"/>
<path d="M82.7968 16.905H81.7969V10.0743H79.6152V9.11328H84.9655V10.0743H82.7968V16.905Z" fill="#028959" stroke="#028959" stroke-width="0.220124" stroke-miterlimit="10"/>
<path d="M91.8474 9.11328L88.8996 15.6843C88.8281 15.9477 88.7001 16.1925 88.5247 16.4016C88.3492 16.6107 88.1303 16.7791 87.8833 16.8953C87.6362 17.0114 87.3668 17.0724 87.0939 17.0741C86.8209 17.0757 86.5508 17.018 86.3023 16.905L86.5621 15.9829C86.721 16.0722 86.8993 16.1213 87.0815 16.1258C87.2737 16.1354 87.4641 16.0855 87.6269 15.9829C87.7847 15.8517 87.9055 15.6816 87.9775 15.4895L88.2632 14.8661L85.666 9.11328H86.8478L88.7697 13.5805L90.6657 9.11328H91.8474Z" fill="#028959" stroke="#028959" stroke-width="0.220124" stroke-miterlimit="10"/>
<path d="M92.9766 16.905V9.11328H98.6125V16.905H97.6126V10.0743H93.9765V16.905H92.9766Z" fill="#028959" stroke="#028959" stroke-width="0.220124" stroke-miterlimit="10"/>
<path d="M100.391 16.905V9.11328H101.391V12.4507H105.286V9.11328H106.299V16.905H105.286V13.3857H101.391V16.905H100.391Z" fill="#028959" stroke="#028959" stroke-width="0.220124" stroke-miterlimit="10"/>
<path d="M114.456 15.8941C114.08 16.2695 113.635 16.5673 113.145 16.7704C112.655 16.9736 112.129 17.0782 111.599 17.0782C111.068 17.0782 110.542 16.9736 110.052 16.7704C109.562 16.5673 109.117 16.2695 108.742 15.8941C107.999 15.1182 107.584 14.0854 107.584 13.0112C107.584 11.937 107.999 10.9042 108.742 10.1283C109.116 9.7533 109.56 9.45579 110.049 9.2528C110.538 9.0498 111.063 8.94531 111.592 8.94531C112.122 8.94531 112.646 9.0498 113.135 9.2528C113.624 9.45579 114.069 9.7533 114.443 10.1283C115.18 10.9072 115.59 11.9388 115.59 13.0112C115.59 14.0836 115.18 15.1152 114.443 15.8941H114.456ZM109.482 15.2448C109.754 15.5309 110.083 15.7571 110.447 15.9092C110.812 16.0612 111.204 16.1357 111.599 16.1279C111.993 16.1333 112.384 16.0578 112.749 15.9059C113.113 15.754 113.442 15.529 113.715 15.2448C114.267 14.6319 114.573 13.8361 114.573 13.0112C114.573 12.1862 114.267 11.3905 113.715 10.7776C113.442 10.4934 113.113 10.2684 112.749 10.1165C112.384 9.9646 111.993 9.88905 111.599 9.89452C111.204 9.8867 110.812 9.96117 110.447 10.1132C110.083 10.2652 109.754 10.4915 109.482 10.7776C108.922 11.3865 108.61 12.1837 108.61 13.0112C108.61 13.8387 108.922 14.6359 109.482 15.2448Z" fill="#028959" stroke="#028959" stroke-width="0.220124" stroke-miterlimit="10"/>
<path d="M119.688 16.9051V9.1134H122.505C123.09 9.10754 123.655 9.32065 124.09 9.71076C124.307 9.89908 124.48 10.1328 124.596 10.3953C124.713 10.6579 124.771 10.9429 124.765 11.2301C124.768 11.58 124.669 11.923 124.479 12.2171C124.288 12.4959 124.022 12.7162 123.713 12.8534C124.088 12.9816 124.418 13.2163 124.661 13.5287C124.9 13.8469 125.028 14.2347 125.025 14.6325C125.031 14.9319 124.972 15.229 124.851 15.5029C124.73 15.7767 124.55 16.0204 124.324 16.2168C123.873 16.6362 123.277 16.8644 122.661 16.8531L119.688 16.9051ZM120.687 12.4508H122.505C122.676 12.4607 122.846 12.4319 123.003 12.3667C123.161 12.3015 123.301 12.2015 123.415 12.0742C123.635 11.8585 123.761 11.5644 123.765 11.2561C123.777 10.9469 123.671 10.6447 123.466 10.412C123.357 10.2909 123.223 10.1955 123.072 10.1326C122.922 10.0697 122.759 10.041 122.596 10.0484H120.726L120.687 12.4508ZM120.687 15.9441H122.713C122.889 15.95 123.064 15.917 123.226 15.8474C123.387 15.7778 123.532 15.6734 123.648 15.5415C123.872 15.302 123.998 14.9866 123.999 14.6585C123.991 14.3331 123.861 14.0226 123.635 13.7884C123.51 13.657 123.359 13.5532 123.191 13.4839C123.023 13.4145 122.843 13.3811 122.661 13.3858H120.687V15.9441Z" fill="#028959" stroke="#028959" stroke-width="0.220124" stroke-miterlimit="10"/>
</svg>
