<svg width="177" height="311" viewBox="0 0 177 311" fill="none" xmlns="http://www.w3.org/2000/svg">
<rect x="31.5" y="1.5" width="144" height="308" rx="16.5" stroke="#4CAA89" stroke-width="3"/>
<path d="M71 97C77.6274 97 83 91.6274 83 85C83 78.3726 77.6274 73 71 73C64.3726 73 59 78.3726 59 85C59 91.6274 64.3726 97 71 97Z" stroke="#4CAA89" stroke-width="2" stroke-miterlimit="10"/>
<path d="M71 89C73.7614 89 76 86.7614 76 84C76 81.2386 73.7614 79 71 79C68.2386 79 66 81.2386 66 84C66 86.7614 68.2386 89 71 89Z" stroke="#4CAA89" stroke-width="2" stroke-miterlimit="10"/>
<path d="M62.9751 93.9218C63.7284 92.4408 64.8767 91.1971 66.2931 90.3284C67.7095 89.4598 69.3387 89 71.0002 89C72.6617 89 74.2909 89.4598 75.7073 90.3284C77.1237 91.1971 78.272 92.4407 79.0253 93.9217" stroke="#4CAA89" stroke-width="2" stroke-linecap="round" stroke-linejoin="round"/>
<path d="M80.3629 58.2715C74.3583 57.9721 69.3118 55.6192 68.4803 52.4194C67.5288 48.758 67 44.9937 67 41.119C67 37.1074 67.529 33.16 68.5477 29.3808C69.3533 26.3918 73.9075 24.1357 79.514 23.8202C88.9853 23.2873 98.8806 23 109 23C119.088 23 128.808 23.3046 138.288 23.8297C143.99 24.1456 148.621 26.4485 149.431 29.4887C150.43 33.2387 151 37.1421 151 41.119C151 45.0644 150.376 48.9002 149.395 52.6244C148.578 55.7226 143.873 58.0872 138.062 58.4034C128.674 58.9142 118.996 59.238 109 59.238V59.238C108.531 59.238 108.071 59.3684 107.67 59.6115C100.916 63.7059 95.5547 65.7935 86.3846 68V63.1433C86.3846 60.5826 84.3746 58.4721 81.8171 58.3441V58.3441C81.3314 58.3198 80.8467 58.2956 80.3629 58.2715Z" stroke="#4CAA89" stroke-width="2" stroke-linecap="round" stroke-linejoin="round"/>
<path d="M83.3796 33.3031C83.4229 33.1941 83.5771 33.1941 83.6204 33.3031L84.723 36.0779L87.6919 36.3465C87.8064 36.3568 87.8517 36.5 87.7641 36.5744L85.5991 38.4099C85.5629 38.4406 85.5463 38.4888 85.5561 38.5353L86.2147 41.6826C86.2387 41.7971 86.1106 41.8823 86.0143 41.8158L83.5 40.0804L80.9857 41.8158C80.8894 41.8823 80.7613 41.7971 80.7853 41.6826L81.4439 38.5353C81.4537 38.4888 81.4371 38.4406 81.4009 38.4099L79.2359 36.5744C79.1483 36.5 79.1936 36.3568 79.3081 36.3465L82.277 36.0779L83.3796 33.3031Z" fill="#4CAA89" stroke="#4CAA89" stroke-width="0.622667" stroke-linejoin="round"/>
<path d="M94.3796 33.3031C94.4229 33.1941 94.5771 33.1941 94.6204 33.3031L95.723 36.0779L98.6919 36.3465C98.8064 36.3568 98.8517 36.5 98.7641 36.5744L96.5991 38.4099C96.5629 38.4406 96.5463 38.4888 96.5561 38.5353L97.2147 41.6826C97.2387 41.7971 97.1106 41.8823 97.0143 41.8158L94.5 40.0804L91.9857 41.8158C91.8894 41.8823 91.7613 41.7971 91.7853 41.6826L92.4439 38.5353C92.4537 38.4888 92.4371 38.4406 92.4009 38.4099L90.2359 36.5744C90.1483 36.5 90.1936 36.3568 90.3081 36.3465L93.277 36.0779L94.3796 33.3031Z" fill="#4CAA89" stroke="#4CAA89" stroke-width="0.622667" stroke-linejoin="round"/>
<path d="M105.38 33.3031C105.423 33.1941 105.577 33.1941 105.62 33.3031L106.723 36.0779L109.692 36.3465C109.806 36.3568 109.852 36.5 109.764 36.5744L107.599 38.4099C107.563 38.4406 107.546 38.4888 107.556 38.5353L108.215 41.6826C108.239 41.7971 108.111 41.8823 108.014 41.8158L105.5 40.0804L102.986 41.8158C102.889 41.8823 102.761 41.7971 102.785 41.6826L103.444 38.5353C103.454 38.4888 103.437 38.4406 103.401 38.4099L101.236 36.5744C101.148 36.5 101.194 36.3568 101.308 36.3465L104.277 36.0779L105.38 33.3031Z" fill="#4CAA89" stroke="#4CAA89" stroke-width="0.622667" stroke-linejoin="round"/>
<path d="M116.38 33.3031C116.423 33.1941 116.577 33.1941 116.62 33.3031L117.723 36.0779L120.692 36.3465C120.806 36.3568 120.852 36.5 120.764 36.5744L118.599 38.4099C118.563 38.4406 118.546 38.4888 118.556 38.5353L119.215 41.6826C119.239 41.7971 119.111 41.8823 119.014 41.8158L116.5 40.0804L113.986 41.8158C113.889 41.8823 113.761 41.7971 113.785 41.6826L114.444 38.5353C114.454 38.4888 114.437 38.4406 114.401 38.4099L112.236 36.5744C112.148 36.5 112.194 36.3568 112.308 36.3465L115.277 36.0779L116.38 33.3031Z" fill="#4CAA89" stroke="#4CAA89" stroke-width="0.622667" stroke-linejoin="round"/>
<path d="M127.38 33.3031C127.423 33.1941 127.577 33.1941 127.62 33.3031L128.723 36.0779L131.692 36.3465C131.806 36.3568 131.852 36.5 131.764 36.5744L129.599 38.4099C129.563 38.4406 129.546 38.4888 129.556 38.5353L130.215 41.6826C130.239 41.7971 130.111 41.8823 130.014 41.8158L127.5 40.0804L124.986 41.8158C124.889 41.8823 124.761 41.7971 124.785 41.6826L125.444 38.5353C125.454 38.4888 125.437 38.4406 125.401 38.4099L123.236 36.5744C123.148 36.5 123.194 36.3568 123.308 36.3465L126.277 36.0779L127.38 33.3031Z" fill="#4CAA89" stroke="#4CAA89" stroke-width="0.622667" stroke-linejoin="round"/>
<path d="M136 190C129.373 190 124 184.627 124 178C124 171.373 129.373 166 136 166C142.627 166 148 171.373 148 178C148 184.627 142.627 190 136 190Z" stroke="#4CAA89" stroke-width="2" stroke-miterlimit="10"/>
<path d="M136 182C133.239 182 131 179.761 131 177C131 174.239 133.239 172 136 172C138.761 172 141 174.239 141 177C141 179.761 138.761 182 136 182Z" stroke="#4CAA89" stroke-width="2" stroke-miterlimit="10"/>
<path d="M144.025 186.922C143.272 185.441 142.123 184.197 140.707 183.328C139.29 182.46 137.661 182 136 182C134.338 182 132.709 182.46 131.293 183.328C129.876 184.197 128.728 185.441 127.975 186.922" stroke="#4CAA89" stroke-width="2" stroke-linecap="round" stroke-linejoin="round"/>
<path d="M126.637 151.271C132.642 150.972 137.688 148.619 138.52 145.419C139.471 141.758 140 137.994 140 134.119C140 130.107 139.471 126.16 138.452 122.381C137.647 119.392 133.093 117.136 127.486 116.82C118.015 116.287 108.119 116 98 116C87.9121 116 78.1915 116.305 68.7117 116.83C63.0097 117.146 58.3786 119.449 57.5691 122.489C56.5705 126.239 56 130.142 56 134.119C56 138.064 56.6238 141.9 57.6052 145.624C58.4217 148.723 63.1268 151.087 68.9375 151.403C78.3255 151.914 88.0041 152.238 98 152.238V152.238C98.4689 152.238 98.9289 152.368 99.3299 152.611C106.084 156.706 111.445 158.794 120.615 161V156.143C120.615 153.583 122.625 151.472 125.183 151.344V151.344C125.669 151.32 126.153 151.296 126.637 151.271Z" stroke="#4CAA89" stroke-width="2" stroke-linecap="round" stroke-linejoin="round"/>
<path d="M101.38 126.303C101.423 126.194 101.577 126.194 101.62 126.303L102.723 129.078L105.692 129.346C105.806 129.357 105.852 129.5 105.764 129.574L103.599 131.41C103.563 131.441 103.546 131.489 103.556 131.535L104.215 134.683C104.239 134.797 104.111 134.882 104.014 134.816L101.5 133.08L98.9857 134.816C98.8894 134.882 98.7613 134.797 98.7853 134.683L99.4439 131.535C99.4537 131.489 99.4371 131.441 99.4009 131.41L97.2359 129.574C97.1483 129.5 97.1936 129.357 97.3081 129.346L100.277 129.078L101.38 126.303Z" fill="#4CAA89" stroke="#4CAA89" stroke-width="0.622667" stroke-linejoin="round"/>
<path d="M112.38 126.303C112.423 126.194 112.577 126.194 112.62 126.303L113.723 129.078L116.692 129.346C116.806 129.357 116.852 129.5 116.764 129.574L114.599 131.41C114.563 131.441 114.546 131.489 114.556 131.535L115.215 134.683C115.239 134.797 115.111 134.882 115.014 134.816L112.5 133.08L109.986 134.816C109.889 134.882 109.761 134.797 109.785 134.683L110.444 131.535C110.454 131.489 110.437 131.441 110.401 131.41L108.236 129.574C108.148 129.5 108.194 129.357 108.308 129.346L111.277 129.078L112.38 126.303Z" fill="#4CAA89" stroke="#4CAA89" stroke-width="0.622667" stroke-linejoin="round"/>
<path d="M123.38 126.303C123.423 126.194 123.577 126.194 123.62 126.303L124.723 129.078L127.692 129.346C127.806 129.357 127.852 129.5 127.764 129.574L125.599 131.41C125.563 131.441 125.546 131.489 125.556 131.535L126.215 134.683C126.239 134.797 126.111 134.882 126.014 134.816L123.5 133.08L120.986 134.816C120.889 134.882 120.761 134.797 120.785 134.683L121.444 131.535C121.454 131.489 121.437 131.441 121.401 131.41L119.236 129.574C119.148 129.5 119.194 129.357 119.308 129.346L122.277 129.078L123.38 126.303Z" fill="#4CAA89" stroke="#4CAA89" stroke-width="0.622667" stroke-linejoin="round"/>
<path d="M71 283C77.6274 283 83 277.627 83 271C83 264.373 77.6274 259 71 259C64.3726 259 59 264.373 59 271C59 277.627 64.3726 283 71 283Z" stroke="#4CAA89" stroke-width="2" stroke-miterlimit="10"/>
<path d="M71 275C73.7614 275 76 272.761 76 270C76 267.239 73.7614 265 71 265C68.2386 265 66 267.239 66 270C66 272.761 68.2386 275 71 275Z" stroke="#4CAA89" stroke-width="2" stroke-miterlimit="10"/>
<path d="M62.9751 279.922C63.7284 278.441 64.8767 277.197 66.2931 276.328C67.7095 275.46 69.3387 275 71.0002 275C72.6617 275 74.2909 275.46 75.7073 276.328C77.1237 277.197 78.272 278.441 79.0253 279.922" stroke="#4CAA89" stroke-width="2" stroke-linecap="round" stroke-linejoin="round"/>
<path d="M80.3629 244.271C74.3583 243.972 69.3118 241.619 68.4803 238.419C67.5288 234.758 67 230.994 67 227.119C67 223.107 67.529 219.16 68.5477 215.381C69.3533 212.392 73.9075 210.136 79.514 209.82C88.9853 209.287 98.8806 209 109 209C119.088 209 128.808 209.305 138.288 209.83C143.99 210.146 148.621 212.449 149.431 215.489C150.43 219.239 151 223.142 151 227.119C151 231.064 150.376 234.9 149.395 238.624C148.578 241.723 143.873 244.087 138.062 244.403C128.674 244.914 118.996 245.238 109 245.238V245.238C108.531 245.238 108.071 245.368 107.67 245.611C100.916 249.706 95.5547 251.794 86.3846 254V249.143C86.3846 246.583 84.3746 244.472 81.8171 244.344V244.344C81.3314 244.32 80.8467 244.296 80.3629 244.271Z" stroke="#4CAA89" stroke-width="2" stroke-linecap="round" stroke-linejoin="round"/>
<path d="M83.3796 219.303C83.4229 219.194 83.5771 219.194 83.6204 219.303L84.723 222.078L87.6919 222.346C87.8064 222.357 87.8517 222.5 87.7641 222.574L85.5991 224.41C85.5629 224.441 85.5463 224.489 85.5561 224.535L86.2147 227.683C86.2387 227.797 86.1106 227.882 86.0143 227.816L83.5 226.08L80.9857 227.816C80.8894 227.882 80.7613 227.797 80.7853 227.683L81.4439 224.535C81.4537 224.489 81.4371 224.441 81.4009 224.41L79.2359 222.574C79.1483 222.5 79.1936 222.357 79.3081 222.346L82.277 222.078L83.3796 219.303Z" fill="#4CAA89" stroke="#4CAA89" stroke-width="0.622667" stroke-linejoin="round"/>
<path d="M94.3796 219.303C94.4229 219.194 94.5771 219.194 94.6204 219.303L95.723 222.078L98.6919 222.346C98.8064 222.357 98.8517 222.5 98.7641 222.574L96.5991 224.41C96.5629 224.441 96.5463 224.489 96.5561 224.535L97.2147 227.683C97.2387 227.797 97.1106 227.882 97.0143 227.816L94.5 226.08L91.9857 227.816C91.8894 227.882 91.7613 227.797 91.7853 227.683L92.4439 224.535C92.4537 224.489 92.4371 224.441 92.4009 224.41L90.2359 222.574C90.1483 222.5 90.1936 222.357 90.3081 222.346L93.277 222.078L94.3796 219.303Z" fill="#4CAA89" stroke="#4CAA89" stroke-width="0.622667" stroke-linejoin="round"/>
<path d="M105.38 219.303C105.423 219.194 105.577 219.194 105.62 219.303L106.723 222.078L109.692 222.346C109.806 222.357 109.852 222.5 109.764 222.574L107.599 224.41C107.563 224.441 107.546 224.489 107.556 224.535L108.215 227.683C108.239 227.797 108.111 227.882 108.014 227.816L105.5 226.08L102.986 227.816C102.889 227.882 102.761 227.797 102.785 227.683L103.444 224.535C103.454 224.489 103.437 224.441 103.401 224.41L101.236 222.574C101.148 222.5 101.194 222.357 101.308 222.346L104.277 222.078L105.38 219.303Z" fill="#4CAA89" stroke="#4CAA89" stroke-width="0.622667" stroke-linejoin="round"/>
<path d="M116.38 219.303C116.423 219.194 116.577 219.194 116.62 219.303L117.723 222.078L120.692 222.346C120.806 222.357 120.852 222.5 120.764 222.574L118.599 224.41C118.563 224.441 118.546 224.489 118.556 224.535L119.215 227.683C119.239 227.797 119.111 227.882 119.014 227.816L116.5 226.08L113.986 227.816C113.889 227.882 113.761 227.797 113.785 227.683L114.444 224.535C114.454 224.489 114.437 224.441 114.401 224.41L112.236 222.574C112.148 222.5 112.194 222.357 112.308 222.346L115.277 222.078L116.38 219.303Z" fill="#4CAA89" stroke="#4CAA89" stroke-width="0.622667" stroke-linejoin="round"/>
<path d="M40.2534 194.472C42.4119 194.001 44.5429 195.37 45.0132 197.528L53.2649 235.402C53.9845 238.705 50.5365 241.356 47.5294 239.812L43.0642 237.519L40.8433 240.728C38.853 243.604 34.3903 242.721 33.6457 239.303L25.4717 201.786C25.0014 199.628 26.3699 197.496 28.5284 197.026L40.2534 194.472Z" stroke="white" stroke-width="4"/>
<path d="M21.3531 200.284C19.1946 199.814 17.0635 201.182 16.5932 203.341L8.34155 241.214C7.62191 244.517 11.0699 247.168 14.0771 245.624L18.5423 243.331L20.7632 246.541C22.7534 249.417 27.2162 248.533 27.9607 245.116L36.1348 207.599C36.6051 205.44 35.2365 203.309 33.078 202.839L21.3531 200.284Z" stroke="white" stroke-width="4"/>
<path d="M22.9591 200.896C23.1276 200.226 23.8068 199.82 24.4763 199.989L33.2044 202.184C33.8739 202.353 34.2801 203.032 34.1117 203.702L24.1281 243.388L20.9336 236.714C20.598 236.013 19.7105 235.785 19.0784 236.237L12.9677 240.613L22.9591 200.896Z" stroke="#4CAA89" stroke-width="1.5"/>
<path d="M39.3263 196.114C39.1793 195.439 38.5133 195.012 37.8388 195.159L29.0451 197.074C28.3706 197.221 27.9429 197.887 28.0899 198.562L36.828 238.668L40.5635 232.128C40.9402 231.468 41.8132 231.294 42.4139 231.759L41.9549 232.352L42.4139 231.759L48.0411 236.113L39.3263 196.114Z" stroke="#4CAA89" stroke-width="1.5"/>
<path d="M22.5571 212.539L29.1022 214.186L22.7082 239.604L19.9386 236.344L16.1631 237.957L22.5571 212.539Z" fill="#4CAA89"/>
<path d="M32.7949 208.957L39.559 207.474L45.1823 233.119L41.5002 231.5L38.4182 234.602L32.7949 208.957Z" fill="#4CAA89"/>
<path d="M3.91446 188.189L5.68789 186.427L3.91445 188.189C2.04034 186.303 2.49407 183.147 4.82369 181.865L10.0639 178.982L8.81129 173.134C8.25444 170.534 10.3423 168.124 12.9951 168.305L18.9622 168.713L21.0704 163.116C22.0076 160.627 25.0667 159.729 27.2005 161.316L32 164.885L36.7995 161.316C38.9333 159.729 41.9924 160.627 42.9296 163.116L45.0378 168.713L51.0049 168.305C53.6577 168.124 55.7456 170.534 55.1887 173.134L52.7442 172.61L55.1887 173.134L53.9361 178.982L59.1763 181.865C61.5059 183.147 61.9597 186.303 60.0855 188.189L55.8699 192.432L58.7195 197.691L56.5214 198.882L58.7195 197.691C59.9862 200.028 58.6618 202.929 56.0654 203.502L50.2252 204.792L49.7794 210.757C49.5812 213.408 46.899 215.132 44.4047 214.211L38.7941 212.139L35.1944 216.915C33.5942 219.039 30.4058 219.039 28.8056 216.915L25.2059 212.139L19.5953 214.211C17.101 215.132 14.4188 213.408 14.2206 210.757L13.7748 204.792L7.93459 203.502C5.33822 202.929 4.01374 200.028 5.28054 197.691L8.13005 192.432L3.91446 188.189ZM53.7804 179.709C53.7805 179.709 53.7806 179.708 53.7807 179.708L53.7804 179.709ZM55.3458 192.959C55.3462 192.959 55.3466 192.959 55.347 192.958L55.3458 192.959ZM39.2416 211.545L39.2408 211.546C39.241 211.545 39.2413 211.545 39.2416 211.545L38.443 210.943L39.2416 211.545ZM38.0966 211.881C38.097 211.881 38.0974 211.881 38.0978 211.881L38.0966 211.881Z" fill="#4CAA89" stroke="white" stroke-width="5"/>
<circle cx="19" cy="19" r="19" transform="matrix(1 0 0 -1 13 208)" fill="white"/>
<path d="M31.8796 175.303C31.9229 175.194 32.0771 175.194 32.1204 175.303L35.805 184.576L45.6919 185.47C45.8064 185.48 45.8517 185.624 45.7641 185.698L38.4064 191.936C38.3701 191.967 38.3536 192.015 38.3633 192.062L40.5861 202.683C40.61 202.797 40.4819 202.882 40.3856 202.816L32 197.028L23.6144 202.816C23.5181 202.882 23.39 202.797 23.4139 202.683L25.6367 192.062C25.6464 192.015 25.6299 191.967 25.5936 191.936L18.2359 185.698C18.1483 185.624 18.1936 185.48 18.3081 185.47L28.195 184.576L31.8796 175.303Z" stroke="#4CAA89" stroke-width="2" stroke-linejoin="round"/>
</svg>
