<svg width="26" height="26" viewBox="0 0 26 26" fill="none" xmlns="http://www.w3.org/2000/svg">
<path d="M15.1149 13.0022L24.5649 3.56723C24.8474 3.28478 25.006 2.90168 25.006 2.50223C25.006 2.10278 24.8474 1.71969 24.5649 1.43723C24.2825 1.15478 23.8994 0.996094 23.4999 0.996094C23.1005 0.996094 22.7174 1.15478 22.4349 1.43723L12.9999 10.8872L3.56491 1.43723C3.28245 1.15478 2.89936 0.996094 2.49991 0.996094C2.10046 0.996094 1.71736 1.15478 1.43491 1.43723C1.15245 1.71969 0.993771 2.10278 0.993771 2.50223C0.993771 2.90168 1.15245 3.28478 1.43491 3.56723L10.8849 13.0022L1.43491 22.4372C1.29432 22.5767 1.18272 22.7426 1.10657 22.9254C1.03042 23.1082 0.991211 23.3042 0.991211 23.5022C0.991211 23.7002 1.03042 23.8963 1.10657 24.0791C1.18272 24.2619 1.29432 24.4278 1.43491 24.5672C1.57435 24.7078 1.74025 24.8194 1.92304 24.8956C2.10583 24.9717 2.30189 25.0109 2.49991 25.0109C2.69793 25.0109 2.89398 24.9717 3.07677 24.8956C3.25956 24.8194 3.42546 24.7078 3.56491 24.5672L12.9999 15.1172L22.4349 24.5672C22.5744 24.7078 22.7403 24.8194 22.923 24.8956C23.1058 24.9717 23.3019 25.0109 23.4999 25.0109C23.6979 25.0109 23.894 24.9717 24.0768 24.8956C24.2596 24.8194 24.4255 24.7078 24.5649 24.5672C24.7055 24.4278 24.8171 24.2619 24.8932 24.0791C24.9694 23.8963 25.0086 23.7002 25.0086 23.5022C25.0086 23.3042 24.9694 23.1082 24.8932 22.9254C24.8171 22.7426 24.7055 22.5767 24.5649 22.4372L15.1149 13.0022Z" fill="#414141"/>
</svg>
