<svg width="32" height="32" viewBox="0 0 32 32" fill="none" xmlns="http://www.w3.org/2000/svg">
<path d="M25.3332 5.33203H6.6665C5.60564 5.33203 4.58822 5.75346 3.83808 6.5036C3.08793 7.25375 2.6665 8.27117 2.6665 9.33203V22.6654C2.6665 23.7262 3.08793 24.7436 3.83808 25.4938C4.58822 26.2439 5.60564 26.6654 6.6665 26.6654H25.3332C26.394 26.6654 27.4115 26.2439 28.1616 25.4938C28.9117 24.7436 29.3332 23.7262 29.3332 22.6654V9.33203C29.3332 8.27117 28.9117 7.25375 28.1616 6.5036C27.4115 5.75346 26.394 5.33203 25.3332 5.33203ZM24.7865 7.9987L16.9465 15.8387C16.8226 15.9637 16.6751 16.0629 16.5126 16.1306C16.3501 16.1982 16.1759 16.2331 15.9998 16.2331C15.8238 16.2331 15.6495 16.1982 15.4871 16.1306C15.3246 16.0629 15.1771 15.9637 15.0532 15.8387L7.21317 7.9987H24.7865ZM26.6665 22.6654C26.6665 23.019 26.526 23.3581 26.276 23.6082C26.0259 23.8582 25.6868 23.9987 25.3332 23.9987H6.6665C6.31288 23.9987 5.97374 23.8582 5.7237 23.6082C5.47365 23.3581 5.33317 23.019 5.33317 22.6654V9.8787L13.1732 17.7187C13.9232 18.4678 14.9398 18.8885 15.9998 18.8885C17.0598 18.8885 18.0765 18.4678 18.8265 17.7187L26.6665 9.8787V22.6654Z" fill="white"/>
</svg>
