<svg width="32" height="32" viewBox="0 0 32 32" fill="none" xmlns="http://www.w3.org/2000/svg">
<path d="M25.9201 17.3325C25.6268 17.3325 25.3201 17.2392 25.0268 17.1725C24.4328 17.0416 23.849 16.8678 23.2801 16.6525C22.6616 16.4275 21.9817 16.4392 21.3712 16.6853C20.7608 16.9315 20.2629 17.3947 19.9735 17.9858L19.6801 18.5858C18.3815 17.8634 17.1881 16.9661 16.1335 15.9192C15.0865 14.8645 14.1892 13.6712 13.4668 12.3725L14.0268 11.9992C14.618 11.7097 15.0812 11.2119 15.3273 10.6014C15.5735 9.99098 15.5852 9.31106 15.3601 8.69251C15.1484 8.1224 14.9747 7.5389 14.8401 6.94584C14.7735 6.65251 14.7201 6.34584 14.6801 6.03917C14.5182 5.1 14.0263 4.2495 13.293 3.64083C12.5596 3.03216 11.6331 2.70532 10.6801 2.71917H6.68013C6.10551 2.71378 5.53647 2.83226 5.01175 3.06655C4.48703 3.30084 4.01895 3.64543 3.63937 4.07688C3.2598 4.50833 2.97765 5.0165 2.81212 5.56679C2.64659 6.11709 2.60157 6.69658 2.68013 7.26584C3.39045 12.8517 5.94151 18.0417 9.93034 22.016C13.9192 25.9904 19.1184 28.5225 24.7068 29.2125H25.2135C26.1967 29.2139 27.146 28.8532 27.8801 28.1992C28.302 27.8219 28.6389 27.3594 28.8688 26.8423C29.0986 26.3251 29.2161 25.7651 29.2135 25.1992V21.1992C29.1971 20.273 28.8599 19.3812 28.2593 18.6761C27.6586 17.9709 26.8319 17.496 25.9201 17.3325ZM26.5868 25.3325C26.5866 25.5218 26.546 25.7089 26.4678 25.8813C26.3897 26.0538 26.2757 26.2076 26.1335 26.3325C25.9845 26.4611 25.8103 26.5572 25.622 26.6146C25.4337 26.672 25.2355 26.6895 25.0401 26.6658C20.0467 26.0256 15.4085 23.7412 11.8571 20.1729C8.30573 16.6046 6.04335 11.9556 5.4268 6.95917C5.40558 6.76386 5.42418 6.56628 5.48147 6.37836C5.53876 6.19044 5.63356 6.01609 5.76013 5.86584C5.88508 5.72362 6.03888 5.60963 6.21131 5.53146C6.38373 5.4533 6.57082 5.41275 6.76013 5.41251H10.7601C11.0702 5.40561 11.373 5.50701 11.6163 5.69927C11.8597 5.89152 12.0284 6.1626 12.0935 6.46584C12.1468 6.83028 12.2135 7.19028 12.2935 7.54584C12.4475 8.2487 12.6525 8.93941 12.9068 9.61251L11.0401 10.4792C10.8805 10.5524 10.737 10.6564 10.6177 10.7853C10.4984 10.9142 10.4057 11.0653 10.345 11.2301C10.2843 11.3949 10.2568 11.57 10.2639 11.7455C10.2711 11.9209 10.3129 12.0932 10.3868 12.2525C12.3057 16.3628 15.6098 19.6669 19.7201 21.5858C20.0448 21.7192 20.4089 21.7192 20.7335 21.5858C20.8998 21.5264 21.0526 21.4344 21.183 21.3154C21.3135 21.1964 21.419 21.0526 21.4935 20.8925L22.3201 19.0258C23.0094 19.2723 23.7129 19.4772 24.4268 19.6392C24.7824 19.7192 25.1424 19.7858 25.5068 19.8392C25.81 19.9042 26.0811 20.073 26.2734 20.3163C26.4656 20.5597 26.567 20.8624 26.5601 21.1725L26.5868 25.3325Z" fill="white"/>
</svg>
