<svg width="75" height="95" viewBox="0 0 75 95" fill="none" xmlns="http://www.w3.org/2000/svg">
<path d="M42.6345 86.8843C52.2973 78.3161 71 58.9713 71 37.5967C71 19.0418 55.7777 4 37 4C18.2223 4 3 19.0418 3 37.5967C3 58.9713 21.7027 78.3161 31.3655 86.8843C34.6244 89.774 39.3756 89.774 42.6345 86.8843Z" fill="#028959"/>
<path d="M37.0059 49.3884C44.6969 49.3884 50.9316 43.2276 50.9316 35.6278C50.9316 28.028 44.6969 21.8672 37.0059 21.8672C29.3149 21.8672 23.0801 28.028 23.0801 35.6278C23.0801 43.2276 29.3149 49.3884 37.0059 49.3884Z" fill="white"/>
</svg>
