<svg width="60" height="60" viewBox="0 0 60 60" fill="none" xmlns="http://www.w3.org/2000/svg">
<rect width="60" height="60" rx="8.03339" fill="#028959"/>
<path d="M45.8338 52.7992C45.3285 52.7992 44.8611 52.5309 44.6062 52.0945L41.2513 46.349C40.7805 45.5428 39.9172 45.0472 38.9837 45.0472C38.1858 45.0472 37.4312 44.6844 36.9329 44.0613L33.6617 39.9709C33.5589 39.8423 33.366 39.8346 33.2534 39.9547L28.1186 45.4248C28.0054 45.5454 27.8138 45.5455 27.7004 45.425L24.0097 41.5009C23.8861 41.3694 23.6732 41.3834 23.5678 41.53L15.8945 52.2021C15.6249 52.577 15.1914 52.7992 14.7297 52.7992H8.04988C7.64414 52.7992 7.36656 52.3896 7.51692 52.0127L25.0372 8.10213C25.2547 7.55689 25.7825 7.19922 26.3696 7.19922H32.517C33.0929 7.19922 33.6129 7.54356 33.8377 8.07372L52.4648 52.0014C52.6253 52.3798 52.3475 52.7992 51.9365 52.7992H45.8338Z" fill="white"/>
<path d="M29.4292 14.7972C29.5236 14.5521 29.8704 14.5521 29.9647 14.7972L36.3019 31.2616C36.3742 31.4495 36.2355 31.6516 36.0341 31.6516H23.3598C23.1585 31.6516 23.0197 31.4495 23.0921 31.2616L29.4292 14.7972Z" fill="#028959"/>
</svg>
