<svg width="147" height="311" viewBox="0 0 147 311" fill="none" xmlns="http://www.w3.org/2000/svg">
<path d="M59.9766 210.781C60.4889 210.781 60.9043 211.197 60.9043 211.709V224.072C60.9043 224.585 60.4889 225 59.9766 225C59.4642 225 59.0488 224.585 59.0488 224.072V211.709C59.0488 211.197 59.4642 210.781 59.9766 210.781ZM64.7031 210.781C65.1292 210.781 65.4746 211.127 65.4746 211.553C65.4746 211.979 65.1292 212.324 64.7031 212.324H55.2598C54.8337 212.324 54.4883 211.979 54.4883 211.553C54.4883 211.127 54.8337 210.781 55.2598 210.781H64.7031Z" fill="#4CAA89"/>
<path d="M68.2934 210.781C68.6115 210.781 68.9073 210.945 69.0764 211.214L72.2227 216.23L75.3689 211.214C75.538 210.945 75.8338 210.781 76.1519 210.781C76.8817 210.781 77.3236 211.587 76.9311 212.203L74.0335 216.744C73.6142 217.401 73.615 218.243 74.0357 218.899L77.0264 223.566C77.4237 224.186 76.9785 225 76.2422 225C75.9224 225 75.625 224.836 75.4544 224.566L72.2227 219.443L68.9909 224.566C68.8203 224.836 68.5229 225 68.2031 225C67.4668 225 67.0216 224.186 67.4189 223.566L70.4096 218.899C70.8303 218.243 70.8311 217.401 70.4118 216.744L67.5142 212.203C67.1217 211.587 67.5636 210.781 68.2934 210.781Z" fill="#4CAA89"/>
<path d="M84.4492 210.781C84.9616 210.781 85.377 211.197 85.377 211.709V224.072C85.377 224.585 84.9616 225 84.4492 225C83.9368 225 83.5215 224.585 83.5215 224.072V211.709C83.5215 211.197 83.9368 210.781 84.4492 210.781ZM89.1758 210.781C89.6019 210.781 89.9473 211.127 89.9473 211.553C89.9473 211.979 89.6019 212.324 89.1758 212.324H79.7324C79.3063 212.324 78.9609 211.979 78.9609 211.553C78.9609 211.127 79.3063 210.781 79.7324 210.781H89.1758Z" fill="#4CAA89"/>
<path d="M89.6836 224.043C89.6836 223.737 89.778 223.48 89.9668 223.271C90.1621 223.057 90.4421 222.949 90.8066 222.949C91.1712 222.949 91.4479 223.057 91.6367 223.271C91.832 223.48 91.9297 223.737 91.9297 224.043C91.9297 224.342 91.832 224.596 91.6367 224.805C91.4479 225.013 91.1712 225.117 90.8066 225.117C90.4421 225.117 90.1621 225.013 89.9668 224.805C89.778 224.596 89.6836 224.342 89.6836 224.043Z" fill="#4CAA89"/>
<path d="M29 159.268C30.3333 160.038 30.3333 161.962 29 162.732L23 166.196C21.6667 166.966 20 166.004 20 164.464L20 157.536C20 155.996 21.6667 155.034 23 155.804L29 159.268Z" fill="#4CAA89"/>
<path d="M37 160.5C37 159.119 38.1193 158 39.5 158H128.5C129.881 158 131 159.119 131 160.5C131 161.881 129.881 163 128.5 163H39.5C38.1193 163 37 161.881 37 160.5Z" fill="#E1E1E1"/>
<path d="M37 160.5C37 159.119 38.1193 158 39.5 158H85.5C86.8807 158 88 159.119 88 160.5C88 161.881 86.8807 163 85.5 163H39.5C38.1193 163 37 161.881 37 160.5Z" fill="#4CAA89"/>
<path d="M48.875 130.75C50.3247 130.75 51.5 129.575 51.5 128.125C51.5 126.675 50.3247 125.5 48.875 125.5C47.4253 125.5 46.25 126.675 46.25 128.125C46.25 129.575 47.4253 130.75 48.875 130.75Z" stroke="#4CAA89" stroke-width="2" stroke-linecap="round" stroke-linejoin="round"/>
<path d="M36.875 133.75C38.3247 133.75 39.5 132.575 39.5 131.125C39.5 129.675 38.3247 128.5 36.875 128.5C35.4253 128.5 34.25 129.675 34.25 131.125C34.25 132.575 35.4253 133.75 36.875 133.75Z" stroke="#4CAA89" stroke-width="2" stroke-linecap="round" stroke-linejoin="round"/>
<path d="M51.5 119.5L39.5 122.5" stroke="#4CAA89" stroke-width="2" stroke-linecap="round" stroke-linejoin="round"/>
<path d="M39.5 131.125V118L51.5 115V128.125" stroke="#4CAA89" stroke-width="2" stroke-linecap="round" stroke-linejoin="round"/>
<path d="M84 46H62C61.4477 46 61 46.4477 61 47V65C61 65.5523 61.4477 66 62 66H84C84.5523 66 85 65.5523 85 65V47C85 46.4477 84.5523 46 84 46Z" stroke="#4CAA89" stroke-width="2" stroke-linecap="round" stroke-linejoin="round"/>
<path d="M61 60.9998L67.2929 54.707C67.3857 54.6141 67.496 54.5404 67.6173 54.4902C67.7386 54.4399 67.8687 54.4141 68 54.4141C68.1313 54.4141 68.2613 54.4399 68.3827 54.4902C68.504 54.5404 68.6142 54.6141 68.7071 54.707L74.2929 60.2927C74.3857 60.3856 74.496 60.4593 74.6173 60.5095C74.7386 60.5598 74.8687 60.5856 75 60.5856C75.1313 60.5856 75.2613 60.5598 75.3827 60.5095C75.504 60.4593 75.6142 60.3856 75.7071 60.2927L78.2929 57.707C78.3857 57.6141 78.496 57.5404 78.6173 57.4902C78.7386 57.4399 78.8687 57.4141 79 57.4141C79.1313 57.4141 79.2613 57.4399 79.3827 57.4902C79.504 57.5404 79.6142 57.6141 79.7071 57.707L85 62.9999" stroke="#4CAA89" stroke-width="2" stroke-linecap="round" stroke-linejoin="round"/>
<path d="M76.5 54C77.3284 54 78 53.3284 78 52.5C78 51.6716 77.3284 51 76.5 51C75.6716 51 75 51.6716 75 52.5C75 53.3284 75.6716 54 76.5 54Z" fill="#4CAA89"/>
<rect x="1.5" y="1.5" width="144" height="308" rx="16.5" stroke="#4CAA89" stroke-width="3"/>
<rect x="17" y="17" width="113" height="78" rx="14" stroke="#4CAA89" stroke-width="2"/>
<rect x="17" y="179" width="113" height="78" rx="14" stroke="#4CAA89" stroke-width="2"/>
<rect x="17" y="105" width="55" height="38" rx="11" stroke="#4CAA89" stroke-width="2"/>
</svg>
