<svg width="66" height="90" viewBox="0 0 66 90" fill="none" xmlns="http://www.w3.org/2000/svg">
<path d="M33.3166 86.748C36.5148 84.1422 63.1339 61.6873 63.1339 36.1604C63.1339 18.6749 49.6441 4.5 33.0035 4.5C16.3629 4.5 2.87305 18.6749 2.87305 36.1604C2.87305 61.6872 29.4921 84.1422 32.6903 86.748C32.8766 86.8997 33.1304 86.8997 33.3166 86.748Z" fill="#FFDBDB"/>
<g clip-path="url(#clip0_1981_3275)">
<path d="M16.5649 33.2977C16.5649 35.2858 18.1067 36.8977 20.0084 36.8977C21.9101 36.8977 23.4519 35.2858 23.4519 33.2977C23.4519 31.3095 21.9101 29.6977 20.0084 29.6977C18.1067 29.6977 16.5649 31.3095 16.5649 33.2977ZM19.5033 51.0337C19.6464 50.7464 19.9815 50.6295 20.2609 50.7697C21.8325 51.7762 23.7521 51.9963 25.495 51.3697L40.0265 43.7617L33.7823 40.4977V33.2977L30.3388 35.0977V42.2977L26.8953 44.0977L23.4519 42.2977L26.8953 40.4977V29.6977L33.7823 26.0977L37.2258 27.8977V38.6977L43.47 41.9617L49.5993 38.7697C49.8847 38.6237 50.2288 38.7473 50.3684 39.0457C50.508 39.344 50.3897 39.7037 50.1044 39.8497L26 52.4497C25.2755 52.7737 24.4923 52.9292 23.7044 52.9057C22.3275 52.8809 20.9751 52.5193 19.7559 51.8497C19.4721 51.7021 19.3564 51.3418 19.4976 51.0452C19.4994 51.0413 19.5015 51.0375 19.5033 51.0337Z" fill="#414141"/>
</g>
<defs>
<clipPath id="clip0_1981_3275">
<rect width="34.4348" height="36" fill="white" transform="matrix(-1 0 0 1 51 22.5)"/>
</clipPath>
</defs>
</svg>
