<svg width="36" height="36" viewBox="0 0 36 36" fill="none" xmlns="http://www.w3.org/2000/svg">
<path d="M29.1599 19.4991C28.8299 19.4991 28.4849 19.3941 28.1549 19.3191C27.4866 19.1718 26.8299 18.9763 26.1899 18.7341C25.494 18.4809 24.7291 18.4941 24.0424 18.771C23.3556 19.0479 22.7955 19.569 22.4699 20.2341L22.1399 20.9091C20.6789 20.0963 19.3364 19.0869 18.1499 17.9091C16.9721 16.7226 15.9626 15.3801 15.1499 13.9191L15.7799 13.4991C16.445 13.1734 16.9661 12.6134 17.243 11.9266C17.5199 11.2398 17.5331 10.4749 17.2799 9.77907C17.0417 9.1377 16.8463 8.48127 16.6949 7.81407C16.6199 7.48407 16.5599 7.13907 16.5149 6.79407C16.3328 5.7375 15.7793 4.78068 14.9543 4.09593C14.1293 3.41117 13.087 3.04348 12.0149 3.05907H7.51491C6.86845 3.053 6.22828 3.18629 5.63797 3.44987C5.04766 3.71344 4.52107 4.10111 4.09405 4.58649C3.66703 5.07187 3.34961 5.64356 3.16339 6.26264C2.97717 6.88172 2.92653 7.53366 3.01491 8.17407C3.81401 14.4581 6.68395 20.2969 11.1714 24.768C15.6588 29.2392 21.508 32.0878 27.7949 32.8641H28.3649C29.471 32.8657 30.539 32.4599 31.3649 31.7241C31.8395 31.2996 32.2185 30.7793 32.4771 30.1975C32.7357 29.6158 32.8679 28.9857 32.8649 28.3491V23.8491C32.8465 22.8071 32.4671 21.8039 31.7914 21.0106C31.1157 20.2172 30.1856 19.683 29.1599 19.4991ZM29.9099 28.4991C29.9096 28.712 29.864 28.9225 29.7761 29.1165C29.6881 29.3105 29.5599 29.4835 29.3999 29.6241C29.2323 29.7688 29.0363 29.8769 28.8245 29.9415C28.6127 30.006 28.3897 30.0257 28.1699 29.9991C22.5523 29.2788 17.3343 26.7088 13.339 22.6945C9.3437 18.6802 6.79852 13.4501 6.10491 7.82907C6.08103 7.60935 6.10196 7.38706 6.16641 7.17566C6.23086 6.96425 6.33751 6.7681 6.47991 6.59907C6.62047 6.43907 6.7935 6.31083 6.98748 6.2229C7.18145 6.13496 7.39193 6.08934 7.60491 6.08907H12.1049C12.4537 6.08131 12.7943 6.19539 13.0681 6.41168C13.3419 6.62796 13.5317 6.93292 13.6049 7.27407C13.6649 7.68407 13.7399 8.08907 13.8299 8.48907C14.0032 9.27979 14.2338 10.0568 14.5199 10.8141L12.4199 11.7891C12.2404 11.8715 12.0788 11.9885 11.9446 12.1335C11.8104 12.2784 11.7062 12.4485 11.6379 12.6339C11.5696 12.8192 11.5386 13.0163 11.5467 13.2137C11.5547 13.411 11.6017 13.6049 11.6849 13.7841C13.8437 18.4082 17.5608 22.1253 22.1849 24.2841C22.5501 24.4341 22.9597 24.4341 23.3249 24.2841C23.512 24.2172 23.6839 24.1137 23.8307 23.9799C23.9774 23.846 24.0962 23.6842 24.1799 23.5041L25.1099 21.4041C25.8854 21.6814 26.6768 21.9118 27.4799 22.0941C27.8799 22.1841 28.2849 22.2591 28.6949 22.3191C29.0361 22.3923 29.341 22.5821 29.5573 22.8559C29.7736 23.1296 29.8877 23.4702 29.8799 23.8191L29.9099 28.4991Z" fill="#028959"/>
</svg>
