<svg width="170" height="50" viewBox="0 0 170 50" fill="none" xmlns="http://www.w3.org/2000/svg">
<path d="M169.056 43.4465C169.056 46.0637 166.891 48.1837 164.215 48.1837H5.79164C3.11609 48.1837 0.944336 46.0637 0.944336 43.4465V5.66914C0.944336 3.05318 3.11609 0.925781 5.79164 0.925781H164.213C166.891 0.925781 169.054 3.05318 169.054 5.66914L169.056 43.4465Z" fill="white"/>
<path d="M163.704 0.981962C166.619 0.981962 168.991 3.29479 168.991 6.1371V42.9705C168.991 45.8128 166.619 48.1256 163.704 48.1256H6.2963C3.38111 48.1256 1.00898 45.8128 1.00898 42.9705V6.1371C1.00898 3.29479 3.38111 0.981962 6.2963 0.981962H163.704ZM163.704 -0.00179388H6.2963C2.83491 -0.00179388 0 2.76225 0 6.1371V42.9705C0 46.3453 2.83491 49.1094 6.2963 49.1094H163.704C167.165 49.1094 170 46.3453 170 42.9705V6.1371C170 2.76225 167.165 -0.00179388 163.704 -0.00179388Z" fill="white"/>
<path d="M54.7839 18.1089H53.8359V15.5117H54.6411C55.0033 15.1184 55.2757 14.6511 55.4394 14.142C55.6031 13.633 55.6542 13.0945 55.5891 12.5638V8.66797H60.7835V15.4987H61.6536V18.0959H60.6926V16.4596H54.7839V18.1089ZM56.589 12.5638C56.6469 13.607 56.389 14.6434 55.8488 15.5376H59.7446V9.62894H56.589V12.5638Z" fill="#028959" stroke="#028959" stroke-width="0.220124" stroke-miterlimit="10"/>
<path d="M69.4582 15.4488C69.0842 15.8238 68.6399 16.1213 68.1508 16.3243C67.6617 16.5273 67.1373 16.6318 66.6077 16.6318C66.0781 16.6318 65.5538 16.5273 65.0646 16.3243C64.5755 16.1213 64.1312 15.8238 63.7573 15.4488C63.0143 14.6729 62.5996 13.6401 62.5996 12.5659C62.5996 11.4916 63.0143 10.4589 63.7573 9.68296C64.1312 9.30798 64.5755 9.01048 65.0646 8.80748C65.5538 8.60449 66.0781 8.5 66.6077 8.5C67.1373 8.5 67.6617 8.60449 68.1508 8.80748C68.6399 9.01048 69.0842 9.30798 69.4582 9.68296C69.8333 10.0622 70.1288 10.5125 70.3273 11.0077C70.5258 11.5028 70.6233 12.0326 70.6139 12.5659C70.6293 13.1 70.5346 13.6315 70.3358 14.1275C70.1369 14.6235 69.8382 15.0732 69.4582 15.4488ZM64.4845 14.7995C64.7581 15.0837 65.0872 15.3087 65.4512 15.4606C65.8153 15.6125 66.2067 15.688 66.6012 15.6826C66.996 15.6904 67.3881 15.6159 67.7525 15.4639C68.117 15.3118 68.4458 15.0856 68.718 14.7995C69.2783 14.1906 69.5893 13.3934 69.5893 12.5659C69.5893 11.7384 69.2783 10.9412 68.718 10.3323C68.4458 10.0462 68.117 9.81993 67.7525 9.66789C67.3881 9.51586 66.996 9.44139 66.6012 9.44921C66.2067 9.44374 65.8153 9.51929 65.4512 9.67118C65.0872 9.82307 64.7581 10.0481 64.4845 10.3323C63.9324 10.9452 63.6268 11.7409 63.6268 12.5659C63.6268 13.3908 63.9324 14.1865 64.4845 14.7995Z" fill="#028959" stroke="#028959" stroke-width="0.220124" stroke-miterlimit="10"/>
<path d="M75.6528 16.6309C75.1274 16.6392 74.6057 16.541 74.1192 16.3424C73.6327 16.1438 73.1914 15.8488 72.8218 15.4752C72.0725 14.6921 71.6543 13.6501 71.6543 12.5663C71.6543 11.4825 72.0725 10.4404 72.8218 9.65737C73.1974 9.27732 73.6472 8.9786 74.1431 8.77977C74.6391 8.58094 75.1706 8.48626 75.7048 8.50161C76.2484 8.48623 76.7884 8.59522 77.2835 8.82028C77.7786 9.04533 78.2158 9.3805 78.5617 9.80022L77.8734 10.4755C77.6183 10.1475 77.2882 9.88549 76.9108 9.7115C76.5335 9.5375 76.1199 9.45659 75.7048 9.47557C75.305 9.46537 74.9075 9.53733 74.5367 9.68699C74.1659 9.83665 73.8297 10.0608 73.5491 10.3456C72.9897 10.9602 72.6797 11.7613 72.6797 12.5922C72.6797 13.4232 72.9897 14.2243 73.5491 14.8388C73.8297 15.1237 74.1659 15.3478 74.5367 15.4975C74.9075 15.6471 75.305 15.7191 75.7048 15.7089C76.151 15.6962 76.589 15.5862 76.9883 15.3866C77.3876 15.187 77.7384 14.9025 78.0163 14.5531L78.7175 15.2414C78.3618 15.6677 77.919 16.0131 77.4189 16.2543C76.8665 16.5124 76.2625 16.6412 75.6528 16.6309Z" fill="#028959" stroke="#028959" stroke-width="0.220124" stroke-miterlimit="10"/>
<path d="M82.7968 16.4596H81.7969V9.62894H79.6152V8.66797H84.9655V9.62894H82.7968V16.4596Z" fill="#028959" stroke="#028959" stroke-width="0.220124" stroke-miterlimit="10"/>
<path d="M91.8474 8.66797L88.8996 15.2389C88.8281 15.5024 88.7001 15.7472 88.5247 15.9563C88.3492 16.1654 88.1303 16.3338 87.8833 16.4499C87.6362 16.5661 87.3668 16.6271 87.0939 16.6287C86.8209 16.6304 86.5508 16.5727 86.3023 16.4596L86.5621 15.5376C86.721 15.6269 86.8993 15.676 87.0815 15.6805C87.2737 15.6901 87.4641 15.6402 87.6269 15.5376C87.7847 15.4064 87.9055 15.2363 87.9775 15.0442L88.2632 14.4208L85.666 8.66797H86.8478L88.7697 13.1352L90.6657 8.66797H91.8474Z" fill="#028959" stroke="#028959" stroke-width="0.220124" stroke-miterlimit="10"/>
<path d="M92.9766 16.4596V8.66797H98.6125V16.4596H97.6126V9.62894H93.9765V16.4596H92.9766Z" fill="#028959" stroke="#028959" stroke-width="0.220124" stroke-miterlimit="10"/>
<path d="M100.391 16.4596V8.66797H101.391V12.0054H105.286V8.66797H106.299V16.4596H105.286V12.9404H101.391V16.4596H100.391Z" fill="#028959" stroke="#028959" stroke-width="0.220124" stroke-miterlimit="10"/>
<path d="M114.456 15.4488C114.08 15.8242 113.635 16.122 113.145 16.3251C112.655 16.5283 112.129 16.6329 111.599 16.6329C111.068 16.6329 110.542 16.5283 110.052 16.3251C109.562 16.122 109.117 15.8242 108.742 15.4488C107.999 14.6729 107.584 13.6401 107.584 12.5659C107.584 11.4916 107.999 10.4589 108.742 9.68296C109.116 9.30798 109.56 9.01048 110.049 8.80748C110.538 8.60449 111.063 8.5 111.592 8.5C112.122 8.5 112.646 8.60449 113.135 8.80748C113.624 9.01048 114.069 9.30798 114.443 9.68296C115.18 10.4619 115.59 11.4935 115.59 12.5659C115.59 13.6382 115.18 14.6699 114.443 15.4488H114.456ZM109.482 14.7995C109.754 15.0856 110.083 15.3118 110.447 15.4639C110.812 15.6159 111.204 15.6904 111.599 15.6826C111.993 15.688 112.384 15.6125 112.749 15.4606C113.113 15.3087 113.442 15.0837 113.715 14.7995C114.267 14.1865 114.573 13.3908 114.573 12.5659C114.573 11.7409 114.267 10.9452 113.715 10.3323C113.442 10.0481 113.113 9.82307 112.749 9.67118C112.384 9.51929 111.993 9.44374 111.599 9.44921C111.204 9.44139 110.812 9.51586 110.447 9.66789C110.083 9.81993 109.754 10.0462 109.482 10.3323C108.922 10.9412 108.61 11.7384 108.61 12.5659C108.61 13.3934 108.922 14.1906 109.482 14.7995Z" fill="#028959" stroke="#028959" stroke-width="0.220124" stroke-miterlimit="10"/>
<path d="M119.688 16.4598V8.66809H122.505C123.09 8.66222 123.655 8.87534 124.09 9.26545C124.307 9.45377 124.48 9.68747 124.596 9.95002C124.713 10.2126 124.771 10.4976 124.765 10.7848C124.768 11.1346 124.669 11.4777 124.479 11.7718C124.288 12.0506 124.022 12.2709 123.713 12.4081C124.088 12.5363 124.418 12.7709 124.661 13.0834C124.9 13.4016 125.028 13.7894 125.025 14.1872C125.031 14.4866 124.972 14.7837 124.851 15.0575C124.73 15.3314 124.55 15.5751 124.324 15.7715C123.873 16.1909 123.277 16.419 122.661 16.4078L119.688 16.4598ZM120.687 12.0055H122.505C122.676 12.0154 122.846 11.9866 123.003 11.9214C123.161 11.8562 123.301 11.7562 123.415 11.6289C123.635 11.4131 123.761 11.1191 123.765 10.8108C123.777 10.5016 123.671 10.1994 123.466 9.9667C123.357 9.84559 123.223 9.75018 123.072 9.68731C122.922 9.62444 122.759 9.59567 122.596 9.60309H120.726L120.687 12.0055ZM120.687 15.4988H122.713C122.889 15.5047 123.064 15.4717 123.226 15.4021C123.387 15.3325 123.532 15.228 123.648 15.0962C123.872 14.8567 123.998 14.5412 123.999 14.2132C123.991 13.8878 123.861 13.5773 123.635 13.3431C123.51 13.2116 123.359 13.1079 123.191 13.0386C123.023 12.9692 122.843 12.9358 122.661 12.9405H120.687V15.4988Z" fill="#028959" stroke="#028959" stroke-width="0.220124" stroke-miterlimit="10"/>
<path fill-rule="evenodd" clip-rule="evenodd" d="M27.2374 39.6667C20.1852 39.6667 16.659 39.6667 14.4682 37.4759C12.2773 35.285 12.2773 31.7589 12.2773 24.7066L12.2773 23.4599C12.2773 16.4077 12.2773 12.8816 14.4682 10.6907C16.659 8.5 20.1852 8.5 27.2373 8.5H27.2374L28.484 8.5C35.5362 8.5 39.0624 8.5 41.2532 10.6907C43.4441 12.8815 43.4441 16.4077 43.4441 23.4599V24.7066C43.4441 31.7589 43.4441 35.285 41.2532 37.4759C39.0624 39.6667 35.5362 39.6667 28.484 39.6667H27.2374Z" fill="#0077FF"/>
<path d="M30.2996 27.7065C29.4599 27.4967 28.8711 26.7456 28.8711 25.8841V15.7344C28.8711 14.7559 29.7958 14.0382 30.7495 14.2765L36.7895 15.7853C37.6292 15.995 38.218 16.7462 38.218 17.6077V27.7574C38.218 28.7359 37.2934 29.4536 36.3396 29.2153L30.2996 27.7065Z" fill="white"/>
<path d="M18.9324 32.3784C18.0927 32.1686 17.5039 31.4175 17.5039 30.5559V20.4063C17.5039 19.4277 18.4285 18.7101 19.3823 18.9483L25.4223 20.4571C26.262 20.6669 26.8508 21.418 26.8508 22.2796V32.4292C26.8508 33.4078 25.9261 34.1255 24.9724 33.8872L18.9324 32.3784Z" fill="white"/>
<path d="M24.618 30.0424C23.7782 29.8327 23.1895 29.0815 23.1895 28.22V18.0704C23.1895 17.0918 24.1141 16.3741 25.0679 16.6124L31.1079 18.1212C31.9476 18.331 32.5364 19.0821 32.5364 19.9436V30.0933C32.5364 31.0719 31.6117 31.7895 30.6579 31.5513L24.618 30.0424Z" fill="white"/>
<path d="M28.5681 31.0368C28.3036 30.9694 28.1154 30.7355 28.1062 30.4627L27.8434 22.7115C27.7674 21.6856 27.0059 20.8697 26.2101 20.6294C26.1654 20.6159 26.1177 20.6341 26.0912 20.6725C26.0644 20.7116 26.0747 20.7657 26.1122 20.7947C26.3088 20.9468 26.8496 21.4433 26.8496 22.2995L26.848 30.6009L28.5681 31.0368Z" fill="#2B71F6"/>
<path d="M34.2537 28.6978C33.9895 28.6317 33.801 28.3985 33.7918 28.1262L33.5289 20.3755C33.4529 19.3497 32.6914 18.5338 31.8956 18.2935C31.851 18.28 31.8033 18.2982 31.7768 18.3366C31.7499 18.3757 31.7603 18.4297 31.7978 18.4588C31.9943 18.6109 32.5352 19.1073 32.5352 19.9636L32.5336 28.2678L34.2537 28.6978Z" fill="#2B71F6"/>
<path d="M61.3866 32.6295C63.7468 32.0278 65.2977 30.2227 65.2977 27.8604C65.2977 24.9409 62.9598 22.8906 59.6781 22.8906H53.834V38.6022H56.5313V32.8301H58.4421L62.6226 38.6022H65.7921L61.3866 32.6295ZM59.6781 25.3421C61.3639 25.3421 62.533 26.3672 62.533 27.8604C62.533 29.3535 61.3639 30.3787 59.6781 30.3787H56.5313V25.3421H59.6781Z" fill="#028959"/>
<path d="M71.8617 38.8232C73.2776 38.8232 74.5813 38.0878 75.3233 36.8621L75.84 38.6004H77.7734V27.0117H75.1884V33.7198C75.1884 35.3689 74.0869 36.5278 72.581 36.5278C71.0974 36.5278 70.0632 35.3689 70.0632 33.7198V27.0117H67.4785V34.0095C67.4785 36.7952 69.3666 38.8232 71.8617 38.8232Z" fill="#028959"/>
<path d="M86.0222 38.8213C89.0117 38.8213 91.4845 37.1276 91.4845 34.3196C91.4845 31.1772 88.8994 30.2635 86.6742 29.5058C84.9434 28.9264 83.4375 28.3915 83.4375 26.9875C83.4375 25.7618 84.5836 25.1155 85.9322 25.1155C87.3485 25.1155 88.36 25.8509 88.9221 27.0989L91.4845 26.6755C90.6752 24.2241 88.6296 22.6641 85.8426 22.6641C82.9654 22.6641 80.6725 24.3132 80.6725 27.1213C80.6725 30.2858 83.2576 31.155 85.4828 31.8904C87.1913 32.4476 88.7195 32.9824 88.7195 34.4087C88.7195 35.6567 87.5734 36.3699 86.0449 36.3699C84.2914 36.3699 83.3475 35.5453 82.5159 34.0521L79.9082 34.4979C80.6725 37.1499 83.1003 38.8213 86.0222 38.8213Z" fill="#028959"/>
<path d="M98.5198 36.3748C97.6433 36.3748 97.2161 35.9514 97.2161 35.0823V29.2434H100.7V27.0148H97.2161V23.6719H95.2831L94.6311 27.0148H92.7207V29.2434H94.6311V35.0823C94.6311 37.3554 95.9574 38.6034 98.5198 38.6034H100.7L100.925 36.3748H98.5198Z" fill="#028959"/>
<path d="M108.309 38.8234C111.973 38.8234 114.558 36.3274 114.558 32.8063C114.558 29.2851 111.973 26.7891 108.309 26.7891C104.646 26.7891 102.061 29.2851 102.061 32.8063C102.061 36.3274 104.646 38.8234 108.309 38.8234ZM108.309 36.4834C106.197 36.4834 104.758 34.9903 104.758 32.8063C104.758 30.6222 106.197 29.1291 108.309 29.1291C110.422 29.1291 111.861 30.6222 111.861 32.8063C111.861 34.9903 110.422 36.4834 108.309 36.4834Z" fill="#028959"/>
<path d="M119.391 38.6004V31.7586C119.391 30.2878 120.111 29.4632 121.684 29.4632H123.168L122.943 27.0117H122.449C121.077 27.0117 120.021 27.3906 119.234 28.6832L118.74 27.0117H116.807V38.6004H119.391Z" fill="#028959"/>
<path d="M135.884 32.6725C135.884 29.3296 133.367 26.7891 129.815 26.7891C126.264 26.7891 123.746 29.3074 123.746 32.8063C123.746 36.3051 126.264 38.8234 129.815 38.8234C132.243 38.8234 134.535 37.6869 135.412 35.4805L132.985 35.0794C132.423 35.904 131.344 36.4834 129.973 36.4834C127.995 36.4834 126.691 35.28 126.443 33.4971H135.839C135.862 33.2519 135.884 32.9845 135.884 32.6725ZM129.815 29.0177C131.434 29.0177 132.647 30.0428 133.075 31.4914H126.601C127.028 29.9982 128.242 29.0177 129.815 29.0177Z" fill="#028959"/>
</svg>
