<svg width="767" height="628" viewBox="0 0 767 628" fill="none" xmlns="http://www.w3.org/2000/svg">
<g clip-path="url(#clip0_2118_2590)">
<path d="M-0.24707 0H766.753V628H-0.24707V0Z" fill="#028959"/>
<path d="M503.684 557.129C503.606 565.965 496.38 573.065 487.543 572.986C478.707 572.908 471.607 565.681 471.686 556.845C471.764 548.009 478.991 540.909 487.827 540.988C496.663 541.066 503.763 548.293 503.684 557.129ZM567.371 294.995L568.721 297.674L567.371 294.995ZM132.836 488.978L132.962 491.975L132.836 488.978ZM488.031 554.007C496.596 555.001 504.901 555.683 512.95 556.071L512.661 562.064C504.473 561.669 496.033 560.976 487.339 559.967L488.031 554.007ZM574.661 552.826C592.154 549.898 607.95 545.295 622.125 539.351L624.445 544.884C609.821 551.017 593.576 555.744 575.651 558.743L574.661 552.826ZM673.5 506.337C685.906 494.645 695.859 481.508 703.5 467.602L708.759 470.492C700.825 484.93 690.491 498.569 677.615 510.704L673.5 506.337ZM722.065 409.484C724.032 392.659 723.23 376.028 719.881 360.597L725.745 359.324C729.239 375.426 730.065 392.724 728.025 410.181L722.065 409.484ZM692.741 306.924C681.689 295.337 667.81 286.967 651.368 283.189L652.712 277.341C670.37 281.399 685.273 290.401 697.083 302.783L692.741 306.924ZM591.565 287.995C584.225 290.496 576.607 293.703 568.721 297.674L566.022 292.315C574.135 288.229 582.008 284.913 589.63 282.316L591.565 287.995ZM568.721 297.674C560.411 301.859 552.431 305.987 544.755 310.058L541.944 304.758C549.657 300.667 557.675 296.519 566.022 292.315L568.721 297.674ZM486.435 343.155C469.816 353.248 454.905 362.901 441.213 372.095L437.869 367.113C451.621 357.879 466.611 348.175 483.32 338.027L486.435 343.155ZM386.058 410.388C370.513 421.241 355.88 431.164 340.877 440.06L337.817 434.899C352.621 426.121 367.105 416.302 382.624 405.469L386.058 410.388ZM279.567 468.717C263.864 474.099 246.647 478.624 227.052 482.255L225.959 476.356C245.291 472.773 262.221 468.32 277.622 463.041L279.567 468.717ZM160.089 490.447C151.44 491.066 142.409 491.576 132.962 491.975L132.709 485.98C142.102 485.583 151.074 485.077 159.661 484.463L160.089 490.447ZM132.962 491.975C124.866 492.317 117.307 492.251 110.249 491.804L110.628 485.816C117.455 486.248 124.802 486.314 132.709 485.98L132.962 491.975ZM56.016 476.187C42.1709 467.347 32.8254 455.334 26.5819 441.4L32.0574 438.946C37.8924 451.969 46.5222 463.006 59.245 471.13L56.016 476.187ZM15.0438 386.222C14.1948 371.509 14.4067 356.305 14.7473 341.429L20.7457 341.566C20.4053 356.435 20.2 371.427 21.0339 385.877L15.0438 386.222ZM14.7102 286.128C13.5762 269.484 10.6919 255.26 4.38246 244.66L9.53812 241.591C16.5791 253.419 19.5427 268.789 20.6963 285.72L14.7102 286.128ZM-40.6272 224.004C-47.1225 224.16 -54.3883 224.964 -62.5136 226.499L-63.627 220.603C-55.2428 219.019 -47.6483 218.17 -40.7709 218.006L-40.6272 224.004Z" fill="#189368"/>
<path d="M627.732 280.866L613.143 305.781C612.736 306.478 613.278 307.344 614.082 307.275C637.255 305.288 660.274 299.496 674.369 286.517C674.728 286.186 674.786 285.644 674.506 285.244C663.489 269.568 642.223 259.022 620.001 252.161C619.23 251.923 618.516 252.655 618.767 253.422L627.732 280.866Z" fill="#028959" stroke="#189368" stroke-width="6" stroke-linecap="round" stroke-linejoin="round"/>
</g>
<defs>
<clipPath id="clip0_2118_2590">
<rect width="767" height="628" fill="white"/>
</clipPath>
</defs>
</svg>
