<svg width="1920" height="500" viewBox="0 0 1920 500" fill="none" xmlns="http://www.w3.org/2000/svg">
<g clip-path="url(#clip0_1981_1647)">
<rect width="1920" height="500" fill="#028959"/>
<path d="M1437.16 451.269C1437.08 460.106 1429.85 467.205 1421.01 467.127C1412.18 467.049 1405.08 459.822 1405.16 450.986C1405.23 442.15 1412.46 435.05 1421.3 435.128C1430.13 435.207 1437.23 442.433 1437.16 451.269ZM1175.5 92.4994L1175.39 89.5013L1175.5 92.4994ZM477.668 469.827L477.527 466.83L477.668 469.827ZM1421.91 448.223C1430.38 450.415 1438.77 452.413 1447.1 454.223L1445.82 460.086C1437.42 458.259 1428.95 456.243 1420.4 454.032L1421.91 448.223ZM1509.85 464.592C1527.39 466.557 1544.48 467.675 1561.07 468.016L1560.94 474.014C1544.17 473.67 1526.9 472.54 1509.18 470.555L1509.85 464.592ZM1624.74 465.378C1642.39 463.495 1659.25 460.681 1675.23 457.046L1676.56 462.896C1660.34 466.585 1643.25 469.437 1625.37 471.344L1624.74 465.378ZM1735.8 437.737C1752.31 430.74 1767.28 422.73 1780.56 413.919L1783.88 418.918C1770.27 427.951 1754.96 436.132 1738.14 443.261L1735.8 437.737ZM1827.03 371.31C1837.74 357.06 1845.01 341.952 1848.51 326.466L1854.36 327.788C1850.65 344.207 1842.98 360.08 1831.82 374.915L1827.03 371.31ZM1842.48 265.424C1836.48 251.492 1827.16 237.609 1814.2 224.107L1818.53 219.952C1831.92 233.899 1841.67 248.372 1847.99 263.05L1842.48 265.424ZM1764.41 185.304C1751.06 177.239 1736.05 169.489 1719.28 162.148L1721.69 156.651C1738.67 164.086 1753.92 171.954 1767.52 180.168L1764.41 185.304ZM1658.94 139.969C1643.48 135.205 1626.99 130.73 1609.44 126.581L1610.82 120.742C1628.49 124.919 1645.11 129.429 1660.71 134.235L1658.94 139.969ZM1546.84 113.994C1530.64 111.255 1513.72 108.761 1496.07 106.532L1496.82 100.579C1514.55 102.818 1531.56 105.324 1547.84 108.078L1546.84 113.994ZM1432.51 99.9521C1416.11 98.6019 1399.16 97.4587 1381.67 96.5351L1381.99 90.5434C1399.54 91.47 1416.54 92.6171 1433 93.9723L1432.51 99.9521ZM1317.6 94.207C1300.67 93.8562 1283.28 93.6952 1265.43 93.733L1265.42 87.733C1283.32 87.6951 1300.75 87.8566 1317.72 88.2083L1317.6 94.207ZM1202.05 94.6643C1193.33 94.8974 1184.52 95.1748 1175.61 95.4974L1175.39 89.5013C1184.32 89.1781 1193.15 88.9001 1201.88 88.6664L1202.05 94.6643ZM1175.61 95.4974C1166.6 95.8236 1157.82 96.2962 1149.26 96.9092L1148.83 90.9245C1157.46 90.3064 1166.31 89.83 1175.39 89.5013L1175.61 95.4974ZM1084.74 104.779C1066.8 107.966 1049.99 111.87 1034.19 116.403L1032.53 110.636C1048.54 106.044 1065.55 102.094 1083.7 98.8715L1084.74 104.779ZM973.343 138.935C956.977 146.52 941.881 154.886 927.817 163.868L924.588 158.811C938.87 149.689 954.202 141.193 970.82 133.492L973.343 138.935ZM876.207 202.971C862.978 214.65 850.651 226.845 838.885 239.328L834.519 235.212C846.381 222.628 858.841 210.299 872.236 198.473L876.207 202.971ZM795.754 288.181C784.404 301.567 773.171 314.965 761.711 328.055L757.197 324.102C768.615 311.06 779.799 297.721 791.178 284.301L795.754 288.181ZM716.497 375.58C703.814 387.508 690.394 398.812 675.854 409.211L672.363 404.331C686.651 394.112 699.864 382.987 712.386 371.209L716.497 375.58ZM618.749 441.93C603.385 448.74 586.852 454.618 568.901 459.392L567.359 453.593C585.01 448.9 601.245 443.125 616.317 436.445L618.749 441.93ZM504.259 470.894C495.717 471.748 486.906 472.395 477.81 472.823L477.527 466.83C486.522 466.406 495.228 465.767 503.662 464.924L504.259 470.894ZM477.81 472.823C468.969 473.24 460.352 473.395 451.948 473.303L452.014 467.304C460.299 467.395 468.799 467.241 477.527 466.83L477.81 472.823ZM388.235 467.382C370.671 464.187 354.127 459.778 338.424 454.336L340.388 448.667C355.804 454.01 372.051 458.34 389.308 461.479L388.235 467.382ZM280.083 427.718C265.116 419.185 250.875 409.725 237.132 399.575L240.696 394.748C254.28 404.78 268.322 414.107 283.054 422.505L280.083 427.718ZM187.736 358.977C175.116 347.696 162.689 336.026 150.249 324.197L154.383 319.849C166.809 331.665 179.184 343.285 191.734 354.504L187.736 358.977ZM104.088 280.418C91.7599 268.958 79.1701 257.593 66.1211 246.509L70.0054 241.936C83.1438 253.096 95.8035 264.525 108.173 276.023L104.088 280.418ZM16.063 207.618C2.44255 198.086 -11.7934 189.011 -26.8068 180.553L-23.8616 175.325C-8.66208 183.889 5.73896 193.07 19.5033 202.702L16.063 207.618ZM-83.8824 153.28C-99.0608 147.268 -115.009 141.888 -131.84 137.255L-130.248 131.47C-113.205 136.162 -97.0506 141.61 -81.6726 147.702L-83.8824 153.28ZM-193.725 124.385C-209.84 122.044 -226.688 120.333 -244.336 119.32L-243.992 113.33C-226.176 114.352 -209.155 116.081 -192.862 118.447L-193.725 124.385ZM-307.542 118.671C-315.956 118.956 -324.534 119.384 -333.28 119.963L-333.676 113.976C-324.867 113.393 -316.225 112.962 -307.744 112.675L-307.542 118.671Z" fill="#189368"/>
<path d="M1107.27 100.729L1099 128.391C1098.77 129.164 1099.5 129.878 1100.27 129.62C1122.31 122.201 1143.3 111.121 1153.92 95.1722C1154.19 94.7658 1154.12 94.225 1153.75 93.9034C1139.34 81.2832 1116.18 76.0743 1092.96 74.6727C1092.16 74.6241 1091.64 75.5039 1092.06 76.1898L1107.27 100.729Z" fill="#028959" stroke="#189368" stroke-width="6" stroke-linecap="round" stroke-linejoin="round"/>
</g>
<defs>
<clipPath id="clip0_1981_1647">
<rect width="1920" height="500" fill="white"/>
</clipPath>
</defs>
</svg>
