<svg width="36" height="36" viewBox="0 0 36 36" fill="none" xmlns="http://www.w3.org/2000/svg">
<g clip-path="url(#clip0_1981_1725)">
<g clip-path="url(#clip1_1981_1725)">
<path d="M0.0859375 36L2.61644 26.7555C1.05494 24.0495 0.234438 20.982 0.235938 17.8365C0.240438 8.0025 8.24294 0 18.0754 0C22.8469 0.0015 27.3259 1.86 30.6949 5.232C34.0624 8.604 35.9164 13.086 35.9149 17.853C35.9104 27.6885 27.9079 35.691 18.0754 35.691C15.0904 35.6895 12.1489 34.941 9.54344 33.519L0.0859375 36ZM9.98144 30.2895C12.4954 31.782 14.8954 32.676 18.0694 32.6775C26.2414 32.6775 32.8984 26.0265 32.9029 17.85C32.9059 9.657 26.2804 3.015 18.0814 3.012C9.90344 3.012 3.25094 9.663 3.24794 17.838C3.24644 21.1755 4.22444 23.6745 5.86694 26.289L4.36844 31.761L9.98144 30.2895ZM27.0619 22.0935C26.9509 21.9075 26.6539 21.7965 26.2069 21.573C25.7614 21.3495 23.5699 20.271 23.1604 20.1225C22.7524 19.974 22.4554 19.899 22.1569 20.346C21.8599 20.7915 21.0049 21.7965 20.7454 22.0935C20.4859 22.3905 20.2249 22.428 19.7794 22.2045C19.3339 21.981 17.8969 21.5115 16.1944 19.992C14.8699 18.81 13.9744 17.3505 13.7149 16.9035C13.4554 16.458 13.6879 16.2165 13.9099 15.9945C14.1109 15.795 14.3554 15.474 14.5789 15.213C14.8054 14.955 14.8789 14.769 15.0289 14.4705C15.1774 14.1735 15.1039 13.9125 14.9914 13.689C14.8789 13.467 13.9879 11.2725 13.6174 10.38C13.2544 9.5115 12.8869 9.6285 12.6139 9.615L11.7589 9.6C11.4619 9.6 10.9789 9.711 10.5709 10.158C10.1629 10.605 9.01094 11.682 9.01094 13.8765C9.01094 16.071 10.6084 18.1905 10.8304 18.4875C11.0539 18.7845 13.9729 23.2875 18.4444 25.218C19.5079 25.677 20.3389 25.9515 20.9854 26.157C22.0534 26.496 23.0254 26.448 23.7934 26.334C24.6499 26.2065 26.4304 25.2555 26.8024 24.2145C27.1744 23.172 27.1744 22.2795 27.0619 22.0935Z" fill="#028959"/>
</g>
</g>
<defs>
<clipPath id="clip0_1981_1725">
<rect width="36" height="36" fill="white"/>
</clipPath>
<clipPath id="clip1_1981_1725">
<rect width="36" height="36" fill="white"/>
</clipPath>
</defs>
</svg>
