<svg width="170" height="50" viewBox="0 0 170 50" fill="none" xmlns="http://www.w3.org/2000/svg">
<path d="M163.704 49.2188H6.2963C2.83491 49.2188 0 46.4547 0 43.0799V6.24648C0 2.87162 2.83491 0.107581 6.2963 0.107581H163.704C167.165 0.107581 170 2.87162 170 6.24648V43.0799C170 46.4547 167.165 49.2188 163.704 49.2188Z" fill="white"/>
<path d="M163.704 1.09134C166.619 1.09134 168.991 3.40417 168.991 6.24648V43.0799C168.991 45.9222 166.619 48.235 163.704 48.235H6.2963C3.38111 48.235 1.00898 45.9222 1.00898 43.0799V6.24648C1.00898 3.40417 3.38111 1.09134 6.2963 1.09134H163.704ZM163.704 0.107581H6.2963C2.83491 0.107581 0 2.87162 0 6.24648V43.0799C0 46.4547 2.83491 49.2188 6.2963 49.2188H163.704C167.165 49.2188 170 46.4547 170 43.0799V6.24648C170 2.87162 167.165 0.107581 163.704 0.107581Z" fill="white"/>
<path d="M13.1406 9.36634C12.7707 9.74388 12.5566 10.3317 12.5566 11.0929V38.2452C12.5566 39.0065 12.7707 39.5943 13.1406 39.9718L13.2319 40.0547L28.8373 24.8456V24.4864L13.2319 9.27733L13.1406 9.36634Z" fill="url(#paint0_linear_1981_2701)"/>
<path d="M34.0334 29.918L28.8374 24.8457V24.4866L34.0397 19.4143L34.1562 19.4803L40.3171 22.8981C42.0754 23.8681 42.0754 25.4642 40.3171 26.4403L34.1562 29.852L34.0334 29.918Z" fill="url(#paint1_linear_1981_2701)"/>
<path d="M34.1561 29.8505L28.8373 24.6646L13.1406 39.9704C13.7246 40.569 14.6769 40.6411 15.7599 40.0426L34.1561 29.8505Z" fill="url(#paint2_linear_1981_2701)"/>
<path d="M34.1561 19.4782L15.7599 9.28613C14.6769 8.69373 13.7246 8.76586 13.1406 9.3644L28.8373 24.6641L34.1561 19.4782Z" fill="url(#paint3_linear_1981_2701)"/>
<path d="M85.4645 27.9342C84.3704 27.9368 83.3016 28.2637 82.3933 28.8737C81.4849 29.4837 80.7779 30.3494 80.3616 31.3612C79.9452 32.3731 79.8383 33.4856 80.0543 34.5583C80.2703 35.6309 80.7994 36.6154 81.5749 37.3872C82.3504 38.1591 83.3374 38.6836 84.411 38.8946C85.4846 39.1055 86.5967 38.9934 87.6065 38.5723C88.6164 38.1512 89.4787 37.4401 90.0845 36.5289C90.6902 35.6178 91.0122 34.5474 91.0096 33.4533C91.0202 32.7234 90.8838 31.9988 90.6086 31.3227C90.3333 30.6466 89.9248 30.0328 89.4074 29.5179C88.8901 29.0029 88.2743 28.5973 87.597 28.3252C86.9196 28.0532 86.1944 27.9202 85.4645 27.9342ZM85.4645 36.8037C84.7939 36.8506 84.1247 36.6947 83.5438 36.3562C82.963 36.0177 82.4974 35.5123 82.2076 34.9057C81.9178 34.2991 81.8172 33.6194 81.9189 32.9548C82.0205 32.2903 82.3198 31.6717 82.7776 31.1795C83.2355 30.6873 83.8309 30.3442 84.4864 30.1948C85.1418 30.0454 85.8271 30.0967 86.453 30.3419C87.0789 30.5872 87.6166 31.015 87.9962 31.5699C88.3757 32.1248 88.5796 32.781 88.5812 33.4533C88.6021 33.8793 88.5375 34.3051 88.3912 34.7057C88.245 35.1063 88.02 35.4736 87.7295 35.7858C87.439 36.0981 87.089 36.349 86.7 36.5239C86.311 36.6987 85.8909 36.7938 85.4645 36.8037ZM73.3614 27.9342C72.2673 27.9368 71.1985 28.2637 70.2902 28.8737C69.3819 29.4837 68.6748 30.3494 68.2585 31.3612C67.8422 32.3731 67.7352 33.4856 67.9512 34.5583C68.1672 35.6309 68.6964 36.6154 69.4719 37.3872C70.2474 38.1591 71.2343 38.6836 72.3079 38.8946C73.3815 39.1055 74.4936 38.9934 75.5035 38.5723C76.5133 38.1512 77.3757 37.4401 77.9814 36.5289C78.5872 35.6178 78.9091 34.5474 78.9065 33.4533C78.9171 32.7234 78.7807 31.9988 78.5055 31.3227C78.2302 30.6466 77.8218 30.0328 77.3044 29.5179C76.787 29.0029 76.1713 28.5973 75.4939 28.3252C74.8165 28.0532 74.0913 27.9202 73.3614 27.9342ZM73.3614 36.8037C72.6908 36.8506 72.0216 36.6947 71.4408 36.3562C70.8599 36.0177 70.3943 35.5123 70.1046 34.9057C69.8148 34.2991 69.7142 33.6194 69.8158 32.9548C69.9175 32.2903 70.2167 31.6717 70.6746 31.1795C71.1325 30.6873 71.7278 30.3442 72.3833 30.1948C73.0388 30.0454 73.724 30.0967 74.3499 30.3419C74.9759 30.5872 75.5136 31.015 75.8931 31.5699C76.2726 32.1248 76.4765 32.781 76.4781 33.4533C76.499 33.8793 76.4345 34.3051 76.2882 34.7057C76.1419 35.1063 75.9169 35.4736 75.6264 35.7858C75.3359 36.0981 74.9859 36.349 74.5969 36.5239C74.2079 36.6987 73.7878 36.7938 73.3614 36.8037ZM58.9728 29.6354V31.9729H64.5828C64.4949 33.0738 64.0372 34.1127 63.2842 34.9207C62.7215 35.4941 62.0446 35.9429 61.2975 36.2382C60.5503 36.5335 59.7495 36.6686 58.9468 36.6349C57.2937 36.6349 55.7082 35.9782 54.5392 34.8092C53.3702 33.6402 52.7135 32.0547 52.7135 30.4016C52.7135 28.7484 53.3702 27.1629 54.5392 25.9939C55.7082 24.8249 57.2937 24.1682 58.9468 24.1682C60.5317 24.1446 62.0621 24.7465 63.2063 25.8434L64.8555 24.1942C64.0815 23.4287 63.1626 22.8253 62.1524 22.4195C61.1423 22.0136 60.0613 21.8135 58.9728 21.8307C57.8183 21.7858 56.6667 21.9744 55.5868 22.3852C54.507 22.796 53.5212 23.4206 52.6885 24.2215C51.8558 25.0224 51.1934 25.9831 50.7409 27.0462C50.2884 28.1092 50.0552 29.2527 50.0552 30.408C50.0552 31.5634 50.2884 32.7069 50.7409 33.7699C51.1934 34.833 51.8558 35.7937 52.6885 36.5946C53.5212 37.3955 54.507 38.0201 55.5868 38.4309C56.6667 38.8417 57.8183 39.0303 58.9728 38.9854C60.0837 39.0298 61.1914 38.8386 62.2231 38.4246C63.2549 38.0105 64.1874 37.3829 64.9594 36.583C66.3231 35.0849 67.0498 33.1146 66.9853 31.0898C66.9899 30.6025 66.9508 30.1157 66.8684 29.6354H58.9728ZM117.813 31.4534C117.474 30.4571 116.841 29.587 115.997 28.9586C115.153 28.3302 114.138 27.9729 113.086 27.9342C112.376 27.9328 111.673 28.0771 111.02 28.3582C110.368 28.6393 109.78 29.0513 109.293 29.5685C108.806 30.0858 108.431 30.6974 108.19 31.3656C107.949 32.0338 107.847 32.7443 107.892 33.4533C107.88 34.6387 108.253 35.796 108.954 36.7521C109.655 37.7083 110.646 38.412 111.78 38.7583C112.914 39.1046 114.129 39.0748 115.245 38.6733C116.36 38.2719 117.316 37.5204 117.969 36.531L116.086 35.2324C115.805 35.7003 115.407 36.0866 114.931 36.3531C114.455 36.6197 113.917 36.7571 113.372 36.7518C112.809 36.775 112.252 36.6274 111.775 36.3285C111.297 36.0295 110.921 35.5931 110.697 35.0766L118.086 32.0248L117.813 31.4534ZM110.281 33.2975C110.255 32.8941 110.309 32.4895 110.441 32.1074C110.573 31.7254 110.78 31.3734 111.05 31.0723C111.319 30.7712 111.646 30.5269 112.012 30.3538C112.377 30.1806 112.773 30.0821 113.177 30.0639C113.595 30.0384 114.012 30.1369 114.375 30.3471C114.737 30.5573 115.03 30.8699 115.216 31.2457L110.281 33.2975ZM104.281 38.6478H106.71V22.4151H104.281V38.6478ZM100.308 29.1679H100.217C99.854 28.7547 99.4063 28.4248 98.9042 28.2007C98.4022 27.9766 97.8576 27.8635 97.3079 27.8693C95.8887 27.9381 94.5505 28.5503 93.5704 29.579C92.5904 30.6077 92.0437 31.9741 92.0437 33.3949C92.0437 34.8157 92.5904 36.182 93.5704 37.2107C94.5505 38.2394 95.8887 38.8516 97.3079 38.9205C97.8584 38.9315 98.4046 38.8208 98.9075 38.5963C99.4103 38.3719 99.8574 38.0391 100.217 37.6218H100.308V38.414C100.308 40.5307 99.1779 41.6605 97.3598 41.6605C96.7525 41.6472 96.1628 41.4537 95.6657 41.1045C95.1686 40.7554 94.7864 40.2664 94.5678 39.6996L92.464 40.5697C92.853 41.5466 93.5292 42.3824 94.4034 42.9667C95.2775 43.5511 96.3084 43.8563 97.3598 43.8422C100.204 43.8422 102.554 42.167 102.554 38.0893V28.2588H100.308V29.1679ZM97.5156 36.8037C96.6648 36.7507 95.8662 36.3753 95.2824 35.754C94.6987 35.1327 94.3737 34.3123 94.3737 33.4598C94.3737 32.6073 94.6987 31.7869 95.2824 31.1656C95.8662 30.5443 96.6648 30.1689 97.5156 30.1159C97.9315 30.1338 98.3395 30.2352 98.7154 30.4141C99.0913 30.5929 99.4273 30.8456 99.7035 31.1569C99.9798 31.4683 100.191 31.8321 100.323 32.2266C100.456 32.6211 100.508 33.0383 100.476 33.4533C100.512 33.8698 100.463 34.2891 100.331 34.6859C100.2 35.0827 99.9896 35.4488 99.7129 35.762C99.4361 36.0751 99.0987 36.3289 98.721 36.508C98.3433 36.6871 97.9333 36.7877 97.5156 36.8037ZM129.189 22.4151H123.371V38.6478H125.799V32.4923H129.189C129.881 32.542 130.576 32.4487 131.23 32.218C131.885 31.9873 132.485 31.6242 132.992 31.1515C133.5 30.6788 133.905 30.1064 134.182 29.4702C134.459 28.834 134.602 28.1476 134.602 27.4537C134.602 26.7598 134.459 26.0734 134.182 25.4372C133.905 24.801 133.5 24.2287 132.992 23.7559C132.485 23.2832 131.885 22.9201 131.23 22.6895C130.576 22.4588 129.881 22.3654 129.189 22.4151ZM129.189 30.2068H125.799V24.6747H129.241C129.606 24.6747 129.967 24.7466 130.304 24.8862C130.641 25.0259 130.948 25.2306 131.206 25.4886C131.464 25.7467 131.669 26.0531 131.808 26.3902C131.948 26.7274 132.02 27.0888 132.02 27.4537C132.02 27.8187 131.948 28.18 131.808 28.5172C131.669 28.8544 131.464 29.1607 131.206 29.4188C130.948 29.6768 130.641 29.8815 130.304 30.0212C129.967 30.1609 129.606 30.2327 129.241 30.2327L129.189 30.2068ZM144.175 27.8822C143.29 27.8277 142.41 28.0336 141.641 28.4744C140.872 28.9153 140.25 29.5717 139.85 30.3626L141.993 31.2586C142.21 30.8683 142.535 30.549 142.929 30.3393C143.323 30.1296 143.769 30.0384 144.214 30.0769C144.522 30.0409 144.834 30.0666 145.133 30.1526C145.431 30.2386 145.709 30.3832 145.951 30.5778C146.192 30.7724 146.393 31.0132 146.541 31.2862C146.688 31.5592 146.78 31.8588 146.811 32.1677V32.3235C146.03 31.913 145.161 31.6991 144.279 31.7002C141.967 31.7002 139.604 32.9988 139.604 35.3623C139.627 35.8646 139.75 36.3573 139.967 36.8109C140.184 37.2646 140.49 37.67 140.867 38.0031C141.243 38.3363 141.683 38.5903 142.16 38.7501C142.637 38.9099 143.141 38.9722 143.642 38.9334C144.252 38.9672 144.859 38.8382 145.402 38.5598C145.945 38.2814 146.405 37.8636 146.733 37.3491H146.811V38.6478H149.148V32.4014C149.148 29.5575 146.993 27.9082 144.227 27.9082L144.175 27.8822ZM143.876 36.7778C143.084 36.7778 141.98 36.3752 141.98 35.4012C141.98 34.1026 143.357 33.6611 144.577 33.6611C145.349 33.642 146.111 33.8304 146.785 34.2065C146.703 34.9117 146.369 35.5635 145.844 36.0411C145.318 36.5186 144.638 36.7896 143.928 36.8037L143.876 36.7778ZM157.667 28.2588L154.888 35.2973H154.81L151.928 28.2588H149.33L153.655 38.1023L151.187 43.5695H153.72L160.369 28.2588H157.667ZM135.851 38.6478H138.266V22.4151H135.851V38.6478Z" fill="#028959"/>
<path d="M51.6619 18.2183H50.7139V15.621H51.519C51.8813 15.2278 52.1537 14.7604 52.3174 14.2514C52.4811 13.7424 52.5321 13.2039 52.467 12.6732V8.77734H57.6614V15.608H58.5315V18.2053H57.5705V16.569H51.6619V18.2183ZM53.4669 12.6732C53.5249 13.7163 53.2669 14.7527 52.7267 15.647H56.6226V9.73832H53.4669V12.6732Z" fill="#028959" stroke="#028959" stroke-width="0.220124" stroke-miterlimit="10"/>
<path d="M66.3356 15.5582C65.9616 15.9332 65.5174 16.2307 65.0282 16.4337C64.5391 16.6366 64.0147 16.7411 63.4851 16.7411C62.9556 16.7411 62.4312 16.6366 61.9421 16.4337C61.4529 16.2307 61.0087 15.9332 60.6347 15.5582C59.8918 14.7823 59.4771 13.7495 59.4771 12.6753C59.4771 11.601 59.8918 10.5682 60.6347 9.79234C61.0087 9.41736 61.4529 9.11985 61.9421 8.91686C62.4312 8.71387 62.9556 8.60938 63.4851 8.60938C64.0147 8.60938 64.5391 8.71387 65.0282 8.91686C65.5174 9.11985 65.9616 9.41736 66.3356 9.79234C66.7108 10.1715 67.0063 10.6219 67.2048 11.117C67.4032 11.6121 67.5007 12.1419 67.4914 12.6753C67.5067 13.2094 67.412 13.7409 67.2132 14.2369C67.0144 14.7328 66.7157 15.1826 66.3356 15.5582ZM61.3619 14.9089C61.6355 15.1931 61.9646 15.4181 62.3287 15.57C62.6928 15.7219 63.0842 15.7974 63.4787 15.7919C63.8735 15.7998 64.2656 15.7253 64.63 15.5732C64.9944 15.4212 65.3232 15.1949 65.5954 14.9089C66.1557 14.3 66.4668 13.5027 66.4668 12.6753C66.4668 11.8478 66.1557 11.0505 65.5954 10.4416C65.3232 10.1556 64.9944 9.9293 64.63 9.77727C64.2656 9.62524 63.8735 9.55076 63.4787 9.55859C63.0842 9.55311 62.6928 9.62866 62.3287 9.78055C61.9646 9.93245 61.6355 10.1575 61.3619 10.4416C60.8098 11.0546 60.5043 11.8503 60.5043 12.6753C60.5043 13.5002 60.8098 14.2959 61.3619 14.9089Z" fill="#028959" stroke="#028959" stroke-width="0.220124" stroke-miterlimit="10"/>
<path d="M72.5317 16.7403C72.0063 16.7485 71.4846 16.6504 70.9981 16.4518C70.5116 16.2532 70.0703 15.9582 69.7007 15.5845C68.9514 14.8015 68.5332 13.7595 68.5332 12.6756C68.5332 11.5918 68.9514 10.5498 69.7007 9.76675C70.0763 9.3867 70.5261 9.08797 71.022 8.88914C71.518 8.69031 72.0496 8.59563 72.5837 8.61098C73.1273 8.5956 73.6673 8.7046 74.1624 8.92965C74.6575 9.15471 75.0947 9.48988 75.4406 9.9096L74.7523 10.5849C74.4972 10.2569 74.1671 9.99487 73.7897 9.82087C73.4124 9.64688 72.9988 9.56597 72.5837 9.58494C72.1839 9.57475 71.7864 9.6467 71.4156 9.79636C71.0448 9.94602 70.7086 10.1702 70.428 10.455C69.8686 11.0695 69.5586 11.8706 69.5586 12.7016C69.5586 13.5326 69.8686 14.3337 70.428 14.9482C70.7086 15.233 71.0448 15.4572 71.4156 15.6069C71.7864 15.7565 72.1839 15.8285 72.5837 15.8183C73.0299 15.8056 73.4679 15.6956 73.8672 15.496C74.2665 15.2963 74.6173 15.0119 74.8952 14.6625L75.5964 15.3508C75.2407 15.7771 74.7979 16.1225 74.2978 16.3637C73.7454 16.6218 73.1414 16.7506 72.5317 16.7403Z" fill="#028959" stroke="#028959" stroke-width="0.220124" stroke-miterlimit="10"/>
<path d="M79.6748 16.569H78.6748V9.73832H76.4932V8.77734H81.8434V9.73832H79.6748V16.569Z" fill="#028959" stroke="#028959" stroke-width="0.220124" stroke-miterlimit="10"/>
<path d="M88.7253 8.77734L85.7775 15.3483C85.706 15.6118 85.5781 15.8565 85.4026 16.0656C85.2271 16.2748 85.0082 16.4432 84.7612 16.5593C84.5141 16.6754 84.2448 16.7364 83.9718 16.7381C83.6988 16.7398 83.4287 16.6821 83.1803 16.569L83.44 15.647C83.5989 15.7363 83.7772 15.7853 83.9594 15.7899C84.1516 15.7995 84.3421 15.7496 84.5049 15.647C84.6626 15.5157 84.7834 15.3457 84.8555 15.1535L85.1412 14.5302L82.5439 8.77734H83.7257L85.6476 13.2446L87.5436 8.77734H88.7253Z" fill="#028959" stroke="#028959" stroke-width="0.220124" stroke-miterlimit="10"/>
<path d="M89.854 16.569V8.77734H95.49V16.569H94.49V9.73832H90.8539V16.569H89.854Z" fill="#028959" stroke="#028959" stroke-width="0.220124" stroke-miterlimit="10"/>
<path d="M97.2681 16.569V8.77734H98.268V12.1148H102.164V8.77734H103.177V16.569H102.164V13.0498H98.268V16.569H97.2681Z" fill="#028959" stroke="#028959" stroke-width="0.220124" stroke-miterlimit="10"/>
<path d="M111.333 15.5582C110.958 15.9336 110.513 16.2313 110.023 16.4345C109.533 16.6377 109.007 16.7422 108.477 16.7422C107.946 16.7422 107.42 16.6377 106.93 16.4345C106.44 16.2313 105.995 15.9336 105.62 15.5582C104.877 14.7823 104.462 13.7495 104.462 12.6753C104.462 11.601 104.877 10.5682 105.62 9.79234C105.994 9.41736 106.438 9.11985 106.927 8.91686C107.416 8.71387 107.94 8.60938 108.47 8.60938C109 8.60938 109.524 8.71387 110.013 8.91686C110.502 9.11985 110.947 9.41736 111.32 9.79234C112.058 10.5713 112.468 11.6029 112.468 12.6753C112.468 13.7476 112.058 14.7792 111.32 15.5582H111.333ZM106.36 14.9089C106.632 15.1949 106.961 15.4212 107.325 15.5732C107.69 15.7253 108.082 15.7998 108.477 15.7919C108.871 15.7974 109.262 15.7219 109.626 15.57C109.991 15.4181 110.32 15.1931 110.593 14.9089C111.145 14.2959 111.451 13.5002 111.451 12.6753C111.451 11.8503 111.145 11.0546 110.593 10.4416C110.32 10.1575 109.991 9.93245 109.626 9.78055C109.262 9.62866 108.871 9.55311 108.477 9.55859C108.082 9.55076 107.69 9.62524 107.325 9.77727C106.961 9.9293 106.632 10.1556 106.36 10.4416C105.799 11.0505 105.488 11.8478 105.488 12.6753C105.488 13.5027 105.799 14.3 106.36 14.9089Z" fill="#028959" stroke="#028959" stroke-width="0.220124" stroke-miterlimit="10"/>
<path d="M116.566 16.5691V8.77746H119.384C119.968 8.7716 120.533 8.98471 120.968 9.37482C121.185 9.56314 121.358 9.79684 121.475 10.0594C121.592 10.322 121.649 10.6069 121.643 10.8942C121.647 11.244 121.547 11.5871 121.358 11.8811C121.166 12.16 120.901 12.3802 120.592 12.5175C120.967 12.6457 121.296 12.8803 121.54 13.1927C121.778 13.511 121.906 13.8988 121.903 14.2966C121.91 14.5959 121.85 14.8931 121.729 15.1669C121.608 15.4407 121.428 15.6845 121.202 15.8809C120.751 16.3003 120.155 16.5284 119.54 16.5172L116.566 16.5691ZM117.566 12.1149H119.384C119.554 12.1247 119.724 12.096 119.882 12.0308C120.039 11.9655 120.18 11.8656 120.293 11.7383C120.513 11.5225 120.639 11.2285 120.644 10.9202C120.656 10.6109 120.549 10.3088 120.345 10.0761C120.236 9.95497 120.101 9.85955 119.951 9.79668C119.8 9.73381 119.638 9.70505 119.475 9.71246H117.605L117.566 12.1149ZM117.566 15.6082H119.592C119.768 15.6141 119.943 15.581 120.104 15.5114C120.266 15.4419 120.41 15.3374 120.527 15.2056C120.751 14.9661 120.876 14.6506 120.877 14.3225C120.869 13.9972 120.74 13.6867 120.514 13.4525C120.389 13.321 120.237 13.2173 120.069 13.1479C119.902 13.0786 119.721 13.0452 119.54 13.0499H117.566V15.6082Z" fill="#028959" stroke="#028959" stroke-width="0.220124" stroke-miterlimit="10"/>
<defs>
<linearGradient id="paint0_linear_1981_2701" x1="27.4517" y1="38.528" x2="6.85325" y2="17.4014" gradientUnits="userSpaceOnUse">
<stop stop-color="#00A0FF"/>
<stop offset="0.0066" stop-color="#00A1FF"/>
<stop offset="0.2601" stop-color="#00BEFF"/>
<stop offset="0.5122" stop-color="#00D2FF"/>
<stop offset="0.7604" stop-color="#00DFFF"/>
<stop offset="1" stop-color="#00E3FF"/>
</linearGradient>
<linearGradient id="paint1_linear_1981_2701" x1="42.6067" y1="24.6644" x2="12.1365" y2="24.6644" gradientUnits="userSpaceOnUse">
<stop stop-color="#FFE000"/>
<stop offset="0.4087" stop-color="#FFBD00"/>
<stop offset="0.7754" stop-color="#FFA500"/>
<stop offset="1" stop-color="#FF9C00"/>
</linearGradient>
<linearGradient id="paint2_linear_1981_2701" x1="31.2639" y1="21.8455" x2="3.33069" y2="-6.80392" gradientUnits="userSpaceOnUse">
<stop stop-color="#FF3A44"/>
<stop offset="1" stop-color="#C31162"/>
</linearGradient>
<linearGradient id="paint3_linear_1981_2701" x1="9.18944" y1="49.0033" x2="21.6629" y2="36.2102" gradientUnits="userSpaceOnUse">
<stop stop-color="#32A071"/>
<stop offset="0.0685" stop-color="#2DA771"/>
<stop offset="0.4762" stop-color="#15CF74"/>
<stop offset="0.8009" stop-color="#06E775"/>
<stop offset="1" stop-color="#00F076"/>
</linearGradient>
</defs>
</svg>
